<?xml version="1.0" encoding="utf-8"?>
<!-- Generator: Adobe Illustrator 28.0.0, SVG Export Plug-In . SVG Version: 6.00 Build 0)  -->
<svg version="1.1" id="Capa_1" xmlns="http://www.w3.org/2000/svg" xmlns:xlink="http://www.w3.org/1999/xlink" x="0px" y="0px"
	 viewBox="0 0 250 250" style="enable-background:new 0 0 250 250;" xml:space="preserve">
<style type="text/css">
	.st0{fill:#D45F35;}
</style>
<g id="XMLID_00000132059834061065582050000007838368742640483755_">
	<path class="st0" d="M126.87,239c-62.56,0-113.46-50.9-113.46-113.46c0-62.56,50.9-113.46,113.46-113.46
		c62.56,0,113.46,50.9,113.46,113.46C240.33,188.1,189.43,239,126.87,239z M126.87,16.07c-60.36,0-109.46,49.11-109.46,109.46
		S66.51,235,126.87,235s109.46-49.11,109.46-109.46S187.23,16.07,126.87,16.07z"/>
</g>
<path id="XMLID_00000051357711942950881600000005613801263787561381_" class="st0" d="M109.89,192.91h27.13v-67.95h18.93l2.02-22.75
	h-20.95c0,0,0-8.49,0-12.96c0-5.36,1.08-7.48,6.26-7.48c4.17,0,14.68,0,14.68,0V58.16c0,0-15.48,0-18.79,0
	c-20.19,0-29.29,8.89-29.29,25.91c0,14.83,0,18.14,0,18.14H95.77v23.03h14.11V192.91z"/>
</svg>
