<?xml version="1.0" encoding="utf-8"?>
<!-- Generator: Adobe Illustrator 28.0.0, SVG Export Plug-In . SVG Version: 6.00 Build 0)  -->
<svg version="1.1" id="Capa_1" xmlns="http://www.w3.org/2000/svg" xmlns:xlink="http://www.w3.org/1999/xlink" x="0px" y="0px"
	 viewBox="0 0 48 48" style="enable-background:new 0 0 48 48;" xml:space="preserve">
<style type="text/css">
	.st0{fill:#FFFFFF;stroke:#FFFFFF;stroke-width:4.1095;stroke-miterlimit:10;}
	.st1{fill:#8E3920;}
	.st2{fill-rule:evenodd;clip-rule:evenodd;fill:#F7BF11;}
	.st3{fill:#531F0D;}
	.st4{fill-rule:evenodd;clip-rule:evenodd;fill:#FBDB70;}
</style>
<g>
	<g>
		<g>
			<path class="st0" d="M38.03,34.99c-0.02,0.08-0.11,0.09-0.21,0.06c-0.19-0.05-0.42-0.17-0.59-0.27c-0.1-0.06-0.19-0.11-0.26-0.13
				c-0.17-0.06-0.31-0.06-0.44-0.04c-0.13,0.03-0.35,0.16-0.43,0.33c-0.11,0.24,0.14,0.31,0.26,0.18c0,0,0.19-0.21,0.48-0.11
				c0.04,0.01,0.11,0.05,0.2,0.11c0.19,0.11,0.38,0.27,0.61,0.33c0.7,0.17,0.84-0.55,0.61-0.6C38.16,34.82,38.06,34.88,38.03,34.99z
				"/>
			<path class="st0" d="M46.37,37.02c-0.1-0.04-0.21,0-0.25,0.1c0,0-0.25,0.65-1.79,0.8c-0.15,0.01-0.3,0.02-0.44,0.01l0-0.01
				c0.16-0.29,0.25-0.61,0.27-0.92c0.03-0.31-0.01-0.62-0.11-0.87c-0.11-0.29-0.28-0.52-0.52-0.65c-0.32-0.17-0.65-0.19-0.94-0.1
				c-0.16,0.05-0.31,0.13-0.43,0.23c-0.13,0.1-0.23,0.23-0.31,0.38c-0.06,0.11-0.11,0.24-0.13,0.37c-0.05-0.01-0.11-0.01-0.16,0.03
				c0,0-0.49,0.32-0.57,0.96c-0.05,0.41,0.09,0.94,0.38,1.28c-0.08,0.07-0.19,0.15-0.33,0.2c-0.7,0.2-1.27-0.03-1.64-0.41
				c-0.65-0.68-0.83-2.02-1.01-2.2c-0.1-0.1-0.21-0.09-0.32,0.02c-0.14,0.13-0.41,0.69-0.68,1.26c-0.3,0.61-0.35,0.89-0.41,0.88
				c-0.2-0.05,0.28-2.02-0.39-2.19c-0.42-0.11-1.22,1.29-1.26,1.66c-0.16,0.04-0.35,0.07-0.56,0.09c-0.15,0.01-0.3,0.02-0.44,0.01
				l0-0.01c0.16-0.29,0.25-0.61,0.27-0.92c0.02-0.31-0.01-0.62-0.11-0.87c-0.11-0.29-0.28-0.52-0.52-0.65
				c-0.32-0.17-0.65-0.19-0.94-0.1c-0.16,0.05-0.31,0.13-0.43,0.23c-0.13,0.1-0.23,0.23-0.31,0.38c-0.06,0.11-0.11,0.24-0.13,0.37
				c-0.05-0.01-0.11-0.01-0.16,0.03c0,0-0.27,0.18-0.44,0.53c-0.01,0.01-0.03,0.02-0.04,0.03c-0.05,0.05-0.13,0.14-0.22,0.25
				c-0.11,0.13-0.25,0.29-0.4,0.46c-0.47,0.51-1.51,1.8-2.02,0.6c-0.32-0.76-0.17-2.16-0.14-2.53c0.03-0.31,0.08-0.64,0.15-0.95
				l2.84-0.7c0.1-0.03,0.17-0.13,0.14-0.23c-0.03-0.1-0.13-0.17-0.23-0.14l-2.65,0.66c0.05-0.2,0.09-0.39,0.13-0.57
				c0.04-0.19,0.16-0.76,0.11-0.95c-0.05-0.19-0.19-0.3-0.4-0.1c-0.18,0.17-0.36,0.88-0.48,1.77l-1.31,0.32c0-0.01,0-0.01,0-0.02v0
				c-0.05-0.63-0.27-1.18-0.59-1.58c-0.15-0.18-0.33-0.34-0.52-0.45c0.25-0.29,0.34-0.57,0.29-0.83c-0.14-0.8-1.26-1.01-1.93-0.96
				c-0.13,0.01-0.26,0.03-0.4,0.06c-0.6,0.12-1.2,0.4-1.73,0.85c-0.48,0.41-0.9,0.96-1.21,1.64c-1.43,2.97,0.37,6.91,4.04,5.21
				c0.16,0.05,0.32,0.09,0.48,0.11l0.01,0c0.66,0.09,1.18-0.01,1.64-0.26c0.42-0.23,0.78-0.57,1.16-1.01
				c0.09,0.72,0.27,1.3,0.6,1.51c0.56,0.37,1.41-0.18,2.33-1.19c0.09-0.09,0.17-0.19,0.24-0.27c0.04,0.48,0.28,1.02,0.68,1.23
				c0.65,0.35,1.53-0.06,1.98-0.58c0.81,0.12,1.86-0.15,2.49-0.68c0,0.12-0.01,0.26-0.01,0.39c-0.02,0.57-0.04,1.06,0.19,1.12
				c0.25,0.06,0.63-0.72,0.99-1.47c0.12-0.25,0.24-0.49,0.34-0.7c0.1-0.21,0.09-0.23,0.12,0c0.21,1.22,0.54,2.35,2.01,2.33
				c0.32,0.02,0.64-0.04,0.9-0.13c0.18-0.07,0.31-0.16,0.41-0.24c0.03-0.03,0.06-0.06,0.09-0.09c0.02,0.01,0.04,0.03,0.06,0.04
				c0.65,0.35,1.53-0.06,1.98-0.58c0.85,0.12,1.97-0.18,2.58-0.76C46.4,37.36,46.48,37.18,46.37,37.02z M21.93,37.84
				c-1.36-1.63-1.2-4.26,0.45-5.66c0.48-0.41,1.02-0.66,1.56-0.77c0.47-0.09,0.87-0.07,1.18,0.02l0.01,0
				c0.33,0.1,0.54,0.28,0.6,0.47c0.09,0.26-0.08,0.57-0.18,0.71c-0.14-0.04-0.28-0.06-0.43-0.06c-0.06,0-0.12,0-0.17,0.01
				c-0.1,0.01-0.2,0.03-0.31,0.07l0,0c-0.45,0.15-0.88,0.54-1.17,1.11c-0.28,0.55-0.44,1.26-0.37,2.08
				c0.03,0.36,0.11,0.74,0.24,1.13c0.2,0.59,0.48,1.02,0.81,1.31c0.12,0.11,0.24,0.19,0.36,0.27C23.47,38.92,22.65,38.7,21.93,37.84
				z M24.94,38.32c-0.19-0.08-0.38-0.19-0.55-0.35c-0.28-0.25-0.52-0.62-0.7-1.15c-0.12-0.36-0.19-0.71-0.22-1.04
				c-0.06-0.73,0.08-1.38,0.33-1.86c0.24-0.47,0.59-0.8,0.95-0.92v0c0.07-0.02,0.14-0.04,0.22-0.05c0.05,0,0.09-0.01,0.13-0.01
				c0.4,0,0.76,0.2,1.02,0.52c0.28,0.34,0.46,0.81,0.51,1.36c0,0.03,0,0.05,0,0.08l-0.6,0.15c-0.1,0.03-0.17,0.13-0.14,0.23
				c0.03,0.1,0.13,0.17,0.23,0.14l0.51-0.13c-0.03,0.62-0.23,1.25-0.54,1.78C25.79,37.63,25.38,38.07,24.94,38.32z M28.1,37.27
				c-0.38,0.45-0.74,0.8-1.14,1.02c-0.39,0.21-0.89,0.25-1.47,0.18l-0.01,0l-0.06-0.01c0.38-0.29,0.73-0.7,1-1.17
				c0.35-0.62,0.57-1.35,0.59-2.07l1.25-0.31c-0.08,0.74-0.11,1.56-0.07,2.29C28.17,37.19,28.14,37.22,28.1,37.27z M33.08,38.51
				c-0.14,0.05-0.28,0.07-0.42,0.05c-0.18-0.02-0.35-0.1-0.49-0.22c-0.14-0.12-0.25-0.27-0.32-0.45l0,0h0
				c-0.06-0.15-0.08-0.33-0.06-0.51c0.04-0.34,0.24-0.55,0.34-0.64c0.02,0.85,0.72,1.38,1.48,1.44
				C33.47,38.32,33.29,38.43,33.08,38.51z M34.21,36.96c-0.02,0.26-0.09,0.53-0.23,0.77c-0.02,0.04-0.09,0.14-0.11,0.18
				c-0.22-0.04-0.58-0.13-0.81-0.36c-0.22-0.22-0.41-0.54-0.46-0.86c-0.07-0.43,0.11-0.83,0.54-0.96c0.2-0.06,0.43-0.05,0.64,0.07
				c0.15,0.08,0.27,0.24,0.34,0.45C34.2,36.45,34.23,36.7,34.21,36.96z M35.57,37.76c0.31-0.31,0.73-1.04,0.91-0.9
				c0.04,0.03,0.06,0.12,0.07,0.25c0,0,0,0,0,0C36.55,37.12,36.39,37.52,35.57,37.76z M42.65,38.51c-0.14,0.05-0.28,0.07-0.42,0.05
				c-0.18-0.02-0.35-0.1-0.49-0.22c-0.14-0.12-0.25-0.27-0.32-0.45v0c-0.06-0.15-0.08-0.33-0.06-0.51c0.04-0.34,0.24-0.55,0.34-0.64
				c0.02,0.85,0.72,1.38,1.48,1.44C43.04,38.32,42.86,38.43,42.65,38.51z M43.78,36.96c-0.02,0.26-0.09,0.53-0.23,0.77
				c-0.02,0.04-0.09,0.14-0.11,0.18c-0.22-0.04-0.58-0.13-0.81-0.36c-0.22-0.22-0.41-0.54-0.46-0.86c-0.07-0.43,0.11-0.83,0.54-0.96
				c0.2-0.06,0.43-0.05,0.64,0.07c0.15,0.08,0.27,0.24,0.34,0.45C43.77,36.45,43.8,36.7,43.78,36.96z"/>
			<path class="st0" d="M19.86,37.13c0,0.02-0.38,0.57-0.93,1.06c-0.63,0.56-1.31,0.64-1.63-0.12c-0.05-0.13-0.11-0.46-0.17-0.52
				c-0.08-0.08-0.2-0.08-0.27,0c0,0-0.74,0.73-1.59,1.01c-0.06,0.02-0.11,0.03-0.17,0.04c-0.19,0.03-0.25-0.1-0.23-0.07
				c0.28-0.03,2.88-1.49,2.62-2.22c-0.04-0.12-0.16-0.24-0.36-0.33c-1.15-0.27-2.39,0.86-2.8,1.69c-0.3,0.59-0.26,1.17,0.47,1.31
				c0.18,0.04,0.38,0.03,0.53,0c0.57-0.13,1.16-0.59,1.48-0.87c0.04,0.33,0.17,0.77,0.55,0.94c0.61,0.28,1.38-0.27,1.82-0.65
				c0.47-0.42,0.88-0.95,0.86-1.36C19.94,36.98,19.92,37.04,19.86,37.13z M14.77,38.14c-0.08-0.61,0.66-1.31,0.93-1.51
				c0.15-0.11,0.3-0.19,0.44-0.24c0.14-0.05,0.26-0.09,0.37-0.11c0.17-0.03,0.33-0.01,0.43,0.05c0.05,0.03,0.09,0.07,0.11,0.11
				c0.02,0.04,0.03,0.09,0.01,0.16c-0.03,0.13-0.14,0.3-0.36,0.48C15.88,37.74,14.78,38.14,14.77,38.14z"/>
			<path class="st0" d="M12.21,35.3L12.21,35.3c0.21-0.04,0.4,0.02,0.57,0.13c0.35,0.23,0.65,0.86,0.87,0.76
				c0.18-0.11-0.2-0.66-0.33-0.8c-0.1-0.11-0.21-0.21-0.33-0.28c-0.25-0.16-0.53-0.25-0.85-0.19l-0.01,0
				c-0.3,0.06-0.53,0.2-0.67,0.41c-0.14,0.2-0.18,0.46-0.12,0.76c0.24,1.15,1.8,1.64,1.77,2.1c-0.17,0.02-0.42,0.04-0.74,0.02
				c-0.44-0.03-1.04-0.15-1.04-0.15c-0.1-0.02-0.21,0.04-0.23,0.15c-0.01,0.04,0,0.09,0.01,0.12l0.01,0.03
				c-0.56,0.38-1.12,0.36-1.4-0.3c-0.05-0.13-0.11-0.46-0.17-0.52c-0.08-0.08-0.2-0.08-0.27,0c0,0-0.74,0.73-1.59,1.01
				c-0.06,0.02-0.11,0.03-0.17,0.04c-0.19,0.03-0.25-0.1-0.23-0.07c0.28-0.03,2.88-1.49,2.62-2.22c-0.04-0.12-0.16-0.24-0.36-0.33
				c-1.11-0.26-2.32,0.8-2.76,1.61c-0.58,0.65-1.16,1.11-2.12,1.12c-0.59-0.01-1.11-0.3-1.59-0.87c-0.19-0.23-0.35-0.49-0.48-0.76
				c-0.79-1.7-0.53-3.66,0.92-4.9c0.48-0.41,1.02-0.66,1.56-0.77c0.47-0.09,0.87-0.07,1.18,0.02l0.01,0c0.33,0.1,0.54,0.28,0.6,0.47
				c0.05,0.15,0.01,0.32-0.04,0.46c-0.06,0.15-0.27,0.36-0.16,0.51c0.07,0.09,0.21,0.01,0.34-0.13c0.24-0.23,0.4-0.47,0.34-0.81
				c-0.14-0.8-1.27-1.01-1.93-0.96c-0.13,0.01-0.26,0.03-0.4,0.06c-0.6,0.12-1.2,0.4-1.73,0.85c-0.48,0.41-0.9,0.96-1.21,1.64
				C0.82,36.15,2,39.5,4.95,39.13c0.66-0.08,1.16-0.37,1.63-0.8c0.01,0.32,0.2,0.56,0.65,0.65c0.18,0.04,0.38,0.03,0.53,0
				c0.57-0.13,1.16-0.59,1.48-0.87c0.04,0.33,0.17,0.77,0.55,0.94c0.48,0.22,1.06-0.07,1.5-0.39c0.18,0.27,0.52,0.61,1.05,0.63
				c0.13,0.01,0.25,0,0.37-0.03c0.48-0.11,0.86-0.36,0.97-0.88c0.27-1.31-2.46-1.98-1.89-2.83C11.87,35.43,12.01,35.34,12.21,35.3z
				 M7.21,38.14c-0.08-0.61,0.65-1.31,0.93-1.51c0.15-0.11,0.3-0.19,0.44-0.24c0.14-0.05,0.26-0.09,0.37-0.11
				c0.17-0.03,0.33-0.01,0.43,0.05c0.05,0.03,0.09,0.07,0.11,0.11c0.02,0.04,0.02,0.09,0.01,0.16c-0.03,0.13-0.14,0.3-0.36,0.48
				C8.32,37.74,7.21,38.14,7.21,38.14z M13.03,38.63c-0.09,0.12-0.23,0.21-0.4,0.24c-0.08,0.02-0.17,0.03-0.27,0.02
				c-0.32-0.02-0.55-0.2-0.69-0.38c0.21,0.03,0.46,0.07,0.68,0.08c0.26,0.02,0.53,0,0.72-0.02C13.06,38.6,13.04,38.62,13.03,38.63z"
				/>
			<path class="st0" d="M9.52,17.82v12.36v0.24h0.24h28.49h0.24v-0.24V17.82v-0.13l0,0l0-0.04v-0.07h0
				c-0.04-3.19-1.66-6.06-4.26-8.15c-2.62-2.1-6.23-3.4-10.22-3.4s-7.6,1.3-10.22,3.4c-2.6,2.09-4.22,4.97-4.26,8.15h0v0.07l0,0.04
				l0,0V17.82z M10,17.68c0-3.08,1.56-5.87,4.08-7.89c2.54-2.03,6.04-3.29,9.92-3.29c3.88,0,7.38,1.26,9.92,3.29
				c2.52,2.02,4.08,4.81,4.08,7.89h0l0,0.06l0,0.07v0h0v0.02l0,0.22h0v11.88h-0.88V18.09h0c0-0.04,0-0.08,0-0.12
				c0-5.81-5.87-10.52-13.12-10.52c-7.25,0-13.12,4.71-13.12,10.52c0,0.04,0,0.08,0,0.12h0v11.85H10V18.06h0l0-0.22v-0.02h0v0
				l0-0.07L10,17.68L10,17.68z"/>
		</g>
		<g>
			<path class="st1" d="M33.92,9.8C31.38,7.76,27.88,6.51,24,6.51c-3.88,0-7.38,1.26-9.92,3.29C11.56,11.82,10,14.61,10,17.68h0
				l0,0.06l0,0.07v0h0v0.02l0,0.22h0v11.88h28V18.06h0l0-0.22v-0.02h0v0l0-0.07l0-0.06h0C38,14.61,36.44,11.82,33.92,9.8 M24,6.02
				c3.99,0,7.6,1.3,10.22,3.4c2.6,2.09,4.22,4.97,4.26,8.15h0v0.07l0,0.04l0,0v0.13v12.36v0.24h-0.24H9.76H9.52v-0.24V17.82v-0.13
				l0,0l0-0.04v-0.07h0c0.04-3.19,1.66-6.06,4.26-8.15C16.4,7.32,20.01,6.02,24,6.02z"/>
			<path class="st2" d="M24,7.45c7.25,0,13.12,4.71,13.12,10.52c0,0.04,0,0.08,0,0.12h0v11.87H10.88V18.09h0c0-0.04,0-0.08,0-0.12
				C10.88,12.16,16.76,7.45,24,7.45"/>
			<path class="st3" d="M24.94,38.32c0.44-0.24,0.85-0.68,1.16-1.23c0.33-0.58,0.54-1.26,0.54-1.93v0c0-0.11,0-0.22-0.01-0.33l0,0
				c-0.05-0.55-0.23-1.03-0.51-1.36c-0.26-0.32-0.62-0.52-1.02-0.52c-0.04,0-0.08,0-0.13,0.01c-0.08,0.01-0.15,0.02-0.22,0.05l0,0v0
				c-0.36,0.12-0.71,0.45-0.95,0.92c-0.25,0.49-0.39,1.13-0.33,1.86c0.03,0.33,0.1,0.68,0.22,1.04c0.17,0.53,0.42,0.89,0.7,1.15
				C24.56,38.12,24.75,38.24,24.94,38.32 M25.9,32.77c0.2,0.11,0.37,0.26,0.52,0.45c0.32,0.4,0.54,0.95,0.59,1.58l0,0v0
				c0.01,0.12,0.01,0.24,0.01,0.37v0c-0.01,0.74-0.24,1.49-0.59,2.12c-0.27,0.48-0.62,0.89-1,1.17l0.06,0.01l0.01,0
				c0.58,0.08,1.08,0.03,1.47-0.18c0.4-0.21,0.76-0.57,1.14-1.02c0.07-0.08,0.12-0.12,0.2-0.05c0.08,0.07,0.09,0.19,0.02,0.27
				c-0.4,0.48-0.79,0.86-1.24,1.1c-0.46,0.25-0.98,0.34-1.64,0.26l-0.01,0c-0.16-0.02-0.32-0.06-0.48-0.11
				c-3.67,1.7-5.47-2.24-4.04-5.21c0.3-0.68,0.73-1.23,1.21-1.64c0.53-0.45,1.13-0.73,1.73-0.85c0.14-0.03,0.27-0.05,0.4-0.06
				c0.67-0.05,1.79,0.16,1.93,0.96C26.24,32.2,26.15,32.48,25.9,32.77z M25.54,32.62c0.1-0.14,0.26-0.45,0.18-0.71
				c-0.06-0.19-0.27-0.36-0.6-0.47l-0.01,0c-0.31-0.09-0.71-0.12-1.18-0.02c-0.54,0.11-1.08,0.36-1.56,0.77
				c-1.65,1.4-1.81,4.02-0.45,5.66c0.72,0.86,1.54,1.08,2.56,0.68c-0.12-0.07-0.24-0.16-0.36-0.27c-0.33-0.29-0.61-0.72-0.81-1.31
				c-0.13-0.39-0.21-0.77-0.24-1.13c-0.07-0.81,0.09-1.53,0.37-2.08c0.29-0.57,0.72-0.96,1.17-1.11l0,0
				c0.1-0.03,0.21-0.06,0.31-0.07c0.05,0,0.11-0.01,0.17-0.01C25.26,32.56,25.4,32.58,25.54,32.62z"/>
			<path class="st3" d="M26.12,35.43c-0.1,0.03-0.21-0.04-0.23-0.14c-0.03-0.1,0.04-0.21,0.14-0.23l5.59-1.38
				c0.1-0.03,0.21,0.04,0.23,0.14c0.03,0.1-0.04,0.21-0.14,0.23L26.12,35.43z"/>
			<path class="st3" d="M28.81,32.72c0.21-0.2,0.35-0.09,0.4,0.1c0.05,0.19-0.07,0.76-0.11,0.95c-0.12,0.57-0.32,1.28-0.37,1.94
				c-0.03,0.38-0.18,1.77,0.14,2.53c0.51,1.21,1.55-0.08,2.02-0.6c0.15-0.17,0.29-0.33,0.4-0.46c0.09-0.11,0.17-0.2,0.22-0.25
				c0.07-0.08,0.19-0.08,0.27-0.01c0.08,0.07,0.08,0.19,0.01,0.27c-0.07,0.08-0.13,0.15-0.21,0.24c-0.12,0.14-0.26,0.3-0.41,0.47
				c-0.92,1.02-1.78,1.56-2.33,1.19C27.7,38.34,28.29,33.22,28.81,32.72"/>
			<path class="st3" d="M33.87,37.91c0.03-0.04,0.09-0.14,0.11-0.18c0.13-0.24,0.2-0.51,0.23-0.77c0.02-0.26-0.01-0.51-0.09-0.71
				c-0.07-0.2-0.19-0.36-0.34-0.45c-0.22-0.12-0.44-0.13-0.64-0.07c-0.43,0.13-0.61,0.53-0.54,0.96c0.05,0.32,0.24,0.64,0.46,0.86
				C33.28,37.78,33.65,37.87,33.87,37.91 M33.63,38.18c-0.76-0.06-1.46-0.6-1.48-1.44c-0.1,0.09-0.3,0.3-0.34,0.64
				c-0.02,0.18,0,0.35,0.06,0.51h0l0,0c0.07,0.18,0.18,0.34,0.32,0.45c0.14,0.12,0.31,0.19,0.49,0.22c0.13,0.02,0.28,0,0.42-0.05
				C33.29,38.43,33.47,38.32,33.63,38.18z M36.55,37.12c0.04-0.1,0.15-0.14,0.25-0.1c0.11,0.16,0.03,0.34-0.15,0.51
				c-0.61,0.58-1.74,0.88-2.58,0.76c-0.44,0.52-1.32,0.93-1.98,0.58c-0.48-0.26-0.74-1-0.67-1.53c0.08-0.64,0.57-0.96,0.57-0.96
				c0.05-0.03,0.11-0.04,0.16-0.03c0.02-0.13,0.07-0.26,0.13-0.37c0.08-0.14,0.19-0.27,0.31-0.38c0.13-0.1,0.27-0.19,0.43-0.23
				c0.29-0.09,0.62-0.07,0.94,0.1c0.24,0.13,0.42,0.36,0.52,0.65c0.09,0.26,0.13,0.56,0.11,0.87c-0.02,0.31-0.11,0.63-0.27,0.92
				l0,0.01c0.14,0.01,0.29,0.01,0.44-0.01C36.3,37.77,36.55,37.12,36.55,37.12z"/>
			<path class="st3" d="M35.32,37.89c-0.08-0.24,0.8-1.84,1.25-1.73c0.67,0.18,0.2,2.14,0.39,2.19c0.06,0.01,0.11-0.26,0.41-0.88
				c0.28-0.57,0.55-1.13,0.68-1.26c0.11-0.11,0.22-0.12,0.32-0.02c0.18,0.18,0.36,1.52,1.01,2.2c0.37,0.39,0.94,0.61,1.64,0.41
				c0.36-0.13,0.49-0.4,0.49-0.4c0.16-0.18,0.54-0.01-0.02,0.5c-0.09,0.09-0.23,0.18-0.41,0.24c-0.26,0.1-0.57,0.15-0.9,0.13
				c-1.47,0.02-1.8-1.11-2.01-2.33c-0.04-0.23-0.02-0.2-0.12,0c-0.1,0.2-0.22,0.45-0.34,0.7c-0.37,0.75-0.74,1.53-0.99,1.47
				c-0.23-0.06-0.21-0.55-0.19-1.12c0.02-0.59,0.03-1.06-0.06-1.14C36.24,36.67,35.58,38.02,35.32,37.89"/>
			<path class="st3" d="M36.36,35.12c-0.12,0.13-0.37,0.07-0.26-0.18c0.07-0.17,0.3-0.3,0.43-0.33c0.13-0.03,0.28-0.02,0.44,0.04
				c0.07,0.02,0.15,0.07,0.26,0.13c0.17,0.1,0.4,0.22,0.59,0.27c0.11,0.03,0.19,0.02,0.21-0.06c0.03-0.1,0.13-0.17,0.23-0.14
				c0.23,0.06,0.09,0.78-0.61,0.6c-0.23-0.06-0.42-0.22-0.61-0.33c-0.09-0.05-0.17-0.09-0.2-0.11
				C36.55,34.91,36.36,35.12,36.36,35.12"/>
			<path class="st3" d="M43.44,37.91c0.03-0.04,0.09-0.14,0.11-0.18c0.13-0.24,0.2-0.51,0.23-0.77c0.02-0.26-0.01-0.51-0.09-0.71
				c-0.07-0.2-0.19-0.36-0.34-0.45c-0.22-0.12-0.44-0.13-0.64-0.07c-0.43,0.13-0.61,0.53-0.54,0.96c0.05,0.32,0.24,0.64,0.46,0.86
				C42.85,37.78,43.22,37.87,43.44,37.91 M43.2,38.18c-0.76-0.06-1.46-0.6-1.48-1.44c-0.1,0.09-0.3,0.3-0.34,0.64
				c-0.02,0.18,0,0.35,0.06,0.51l0,0v0c0.07,0.18,0.18,0.34,0.32,0.45c0.14,0.12,0.31,0.19,0.49,0.22c0.13,0.02,0.28,0,0.42-0.05
				C42.86,38.43,43.05,38.32,43.2,38.18z M46.12,37.12c0.04-0.1,0.16-0.14,0.25-0.1c0.11,0.16,0.02,0.34-0.15,0.51
				c-0.61,0.58-1.73,0.88-2.58,0.76c-0.44,0.52-1.32,0.93-1.98,0.58c-0.48-0.26-0.74-1-0.67-1.53c0.08-0.64,0.57-0.96,0.57-0.96
				c0.05-0.03,0.11-0.04,0.16-0.03c0.02-0.13,0.07-0.26,0.13-0.37c0.08-0.14,0.19-0.27,0.31-0.38c0.13-0.1,0.27-0.19,0.43-0.23
				c0.29-0.09,0.62-0.07,0.94,0.1c0.24,0.13,0.41,0.36,0.52,0.65c0.09,0.26,0.13,0.56,0.11,0.87c-0.02,0.31-0.11,0.63-0.27,0.92
				l0,0.01c0.14,0.01,0.29,0.01,0.44-0.01C45.87,37.77,46.12,37.12,46.12,37.12z"/>
			<path class="st3" d="M14.77,38.14c0,0,1.11-0.4,1.93-1.07c0.22-0.18,0.33-0.35,0.36-0.48c0.01-0.06,0.01-0.11-0.01-0.16
				c-0.02-0.04-0.06-0.08-0.11-0.11c-0.11-0.06-0.26-0.08-0.43-0.05c-0.11,0.02-0.24,0.05-0.37,0.11c-0.14,0.05-0.28,0.13-0.44,0.24
				C15.43,36.83,14.69,37.53,14.77,38.14 M14.87,38.53c-0.02-0.03,0.04,0.09,0.23,0.07c0.05-0.01,0.11-0.02,0.17-0.04
				c0.85-0.28,1.59-1.01,1.59-1.01c0.08-0.08,0.2-0.08,0.27,0c0.06,0.06,0.11,0.39,0.17,0.52c0.32,0.76,1.01,0.68,1.63,0.12
				c0.55-0.49,0.93-1.04,0.93-1.06c0.05-0.09,0.08-0.15,0.17-0.09c0.02,0.41-0.39,0.94-0.86,1.36c-0.43,0.38-1.21,0.93-1.82,0.65
				c-0.37-0.17-0.51-0.61-0.55-0.94c-0.32,0.29-0.92,0.74-1.48,0.87c-0.15,0.04-0.35,0.04-0.53,0c-0.74-0.14-0.77-0.72-0.47-1.31
				c0.41-0.82,1.66-1.96,2.8-1.69c0.2,0.09,0.31,0.21,0.36,0.33C17.75,37.04,15.15,38.5,14.87,38.53z M7.21,38.14
				c0,0,1.11-0.4,1.93-1.07c0.22-0.18,0.33-0.35,0.36-0.48c0.01-0.06,0.01-0.11-0.01-0.16c-0.02-0.04-0.06-0.08-0.11-0.11
				c-0.11-0.06-0.26-0.08-0.43-0.05c-0.11,0.02-0.24,0.05-0.37,0.11c-0.14,0.05-0.28,0.13-0.44,0.24
				C7.86,36.83,7.13,37.53,7.21,38.14z M6.83,32.38c0.06-0.14,0.09-0.31,0.04-0.46c-0.06-0.19-0.27-0.36-0.6-0.47l-0.01,0
				c-0.31-0.09-0.71-0.12-1.18-0.02c-0.54,0.11-1.08,0.36-1.56,0.77c-1.45,1.24-1.72,3.19-0.92,4.9c0.13,0.28,0.29,0.53,0.48,0.76
				c0.48,0.57,1,0.86,1.59,0.87c0.96-0.01,1.54-0.47,2.12-1.12c0.45-0.81,1.65-1.87,2.76-1.61c0.2,0.09,0.31,0.21,0.36,0.33
				c0.26,0.73-2.34,2.18-2.62,2.22c-0.02-0.03,0.04,0.09,0.23,0.07c0.05-0.01,0.11-0.02,0.17-0.04c0.85-0.28,1.59-1.01,1.59-1.01
				c0.08-0.08,0.2-0.08,0.27,0c0.06,0.06,0.11,0.39,0.17,0.52c0.28,0.66,0.84,0.68,1.4,0.3l-0.01-0.03
				c-0.02-0.04-0.02-0.08-0.01-0.12c0.02-0.1,0.13-0.17,0.23-0.15c0,0,0.6,0.12,1.04,0.15c0.31,0.02,0.57,0,0.74-0.02
				c0.03-0.46-1.52-0.95-1.77-2.1c-0.06-0.3-0.02-0.56,0.12-0.76c0.14-0.21,0.37-0.35,0.67-0.41l0.01,0
				c0.32-0.06,0.6,0.02,0.85,0.19c0.12,0.08,0.23,0.18,0.33,0.28c0.13,0.14,0.5,0.69,0.33,0.8c-0.23,0.1-0.53-0.53-0.87-0.76
				c-0.17-0.11-0.36-0.17-0.56-0.13l-0.01,0c-0.2,0.04-0.35,0.13-0.43,0.25c-0.57,0.85,2.16,1.52,1.89,2.83
				c-0.11,0.52-0.49,0.77-0.97,0.88c-0.11,0.03-0.24,0.04-0.37,0.03c-0.53-0.03-0.87-0.37-1.05-0.63c-0.44,0.32-1.02,0.61-1.5,0.39
				c-0.37-0.17-0.51-0.61-0.55-0.94c-0.32,0.29-0.92,0.74-1.48,0.87c-0.15,0.04-0.35,0.04-0.53,0c-0.45-0.09-0.64-0.33-0.65-0.65
				c-0.47,0.43-0.97,0.72-1.63,0.8C2,39.5,0.82,36.15,2.08,33.54c0.3-0.68,0.73-1.23,1.21-1.64c0.53-0.45,1.13-0.73,1.73-0.85
				c0.14-0.03,0.27-0.05,0.4-0.06c0.67-0.05,1.79,0.16,1.93,0.96c0.06,0.34-0.1,0.58-0.34,0.81c-0.13,0.13-0.28,0.22-0.34,0.13
				C6.56,32.73,6.77,32.53,6.83,32.38z M13.07,38.58c-0.19,0.02-0.46,0.04-0.72,0.02c-0.22-0.01-0.47-0.05-0.68-0.08
				c0.14,0.18,0.37,0.36,0.69,0.38c0.1,0,0.19,0,0.27-0.02c0.17-0.04,0.31-0.13,0.4-0.24C13.04,38.62,13.06,38.6,13.07,38.58z"/>
			<path class="st4" d="M24,7.45c7.25,0,13.12,4.71,13.12,10.52c0,0.04,0,0.08,0,0.12h0v11.87H10.88V18.09h0c0-0.04,0-0.08,0-0.12
				C10.88,12.16,16.76,7.45,24,7.45"/>
			<path class="st3" d="M33.92,9.8C31.38,7.76,27.88,6.51,24,6.51c-3.88,0-7.38,1.26-9.92,3.29C11.56,11.82,10,14.61,10,17.68h0
				l0,0.06l0,0.07v0h0v0.02l0,0.22h0v11.88h28V18.06h0l0-0.22v-0.02h0v0l0-0.07l0-0.06h0C38,14.61,36.44,11.82,33.92,9.8 M24,6.02
				c3.99,0,7.6,1.3,10.22,3.4c2.6,2.09,4.22,4.97,4.26,8.15h0v0.07l0,0.04l0,0v0.13v12.36v0.24h-0.24H9.76H9.52v-0.24V17.82v-0.13
				l0,0l0-0.04v-0.07h0c0.04-3.19,1.66-6.06,4.26-8.15C16.4,7.32,20.01,6.02,24,6.02z"/>
			<path class="st3" d="M32.61,22.45c0,0.01-0.01,0.02-0.01,0.04c-0.06,0.15-0.24,0.37-0.42,0.42c0.05,0.04,0.1,0.09,0.15,0.14
				c0.05,0.07,0.09,0.14,0.12,0.23c0.11-0.07,0.22-0.15,0.33-0.24l0,0c0.12-0.1,0.23-0.22,0.3-0.35l0,0
				c0.03-0.06,0.05-0.13,0.06-0.19c0.01-0.06,0.01-0.11-0.01-0.15c-0.01-0.03-0.03-0.06-0.05-0.1c-0.08-0.12-0.23-0.23-0.39-0.31
				c-0.16-0.07-0.33-0.1-0.44-0.06c-0.02,0.01-0.04,0.02-0.06,0.03c-0.06,0.04-0.1,0.11-0.12,0.2c-0.03,0.12-0.04,0.27-0.03,0.4
				c0.01,0.14,0.03,0.22,0.06,0.24c0.09,0.05,0.36-0.24,0.41-0.31c0.02-0.03,0.03-0.05,0.05-0.07c0.01-0.01,0.01-0.02,0.02-0.03
				c0.02-0.02,0.03,0,0.04,0.01C32.63,22.38,32.62,22.42,32.61,22.45 M24.57,24.13c0.07,0.02,0.08,0.28,0.17,0.55
				c0.04,0.13,0.11,0.24,0.18,0.33c0.13-0.15,0.29-0.29,0.48-0.4c-0.04-0.01-0.07-0.06-0.06-0.1c0.02-0.11,0.02-0.22,0-0.31
				c-0.03-0.11-0.08-0.21-0.16-0.29c-0.08-0.08-0.18-0.13-0.29-0.15c-0.09-0.02-0.19-0.02-0.29,0c-0.18,0.04-0.36,0.11-0.5,0.21
				c-0.12,0.09-0.22,0.2-0.28,0.34c-0.2,0.49,0.41,1.16,0.76,1.44c0.28,0.23,1.04,0.55,1.41,0.46c0.31-0.07,0.32-0.76,0.27-0.99
				c-0.06-0.27-0.2-0.52-0.51-0.55c-0.04,0-0.08,0.01-0.12,0.03c-0.04,0.01-0.08,0.03-0.12,0.05c-0.23,0.11-0.43,0.3-0.56,0.48
				c-0.12,0.17-0.19,0.32-0.17,0.37l0,0c0.03,0.05,0.07,0.08,0.13,0.09c0.08,0.01,0.18,0,0.3-0.02c0.22-0.04,0.36-0.12,0.5-0.18
				c0.21-0.09,0.1,0.13-0.23,0.28c-0.07,0.03-0.16,0.06-0.24,0.07c-0.14,0.03-0.26,0.04-0.36,0.02c-0.12-0.02-0.21-0.08-0.26-0.19
				c0-0.01,0-0.01-0.01-0.02l0-0.01c-0.03-0.1,0.04-0.3,0.18-0.5c-0.24-0.24-0.3-0.45-0.3-0.78C24.52,24.23,24.52,24.12,24.57,24.13
				z M26.07,23.69c-0.01,0.01-0.02,0.02-0.03,0.03c-0.13,0.12-0.41,0.25-0.6,0.22c0.04,0.06,0.06,0.13,0.08,0.21
				c0.02,0.09,0.03,0.18,0.02,0.28c0.14-0.02,0.29-0.04,0.43-0.08l0,0c0.17-0.05,0.33-0.11,0.45-0.21v0
				c0.06-0.05,0.11-0.1,0.15-0.16c0.03-0.05,0.05-0.1,0.06-0.15c0-0.04,0-0.08,0-0.12c-0.02-0.16-0.12-0.34-0.25-0.48
				c-0.12-0.14-0.27-0.25-0.41-0.26c-0.02,0-0.05,0-0.07,0c-0.08,0.01-0.15,0.07-0.21,0.14c-0.09,0.11-0.16,0.25-0.21,0.38
				c-0.05,0.14-0.08,0.23-0.05,0.26c0.07,0.09,0.46-0.07,0.55-0.12c0.03-0.02,0.06-0.03,0.08-0.05c0.01-0.01,0.02-0.02,0.04-0.02
				c0.03-0.01,0.03,0.01,0.03,0.03C26.12,23.64,26.09,23.67,26.07,23.69z M17.4,23.98c0.01-0.01,0.03-0.02,0.04-0.03
				c0.18-0.1,0.53-0.19,0.74-0.1c-0.02-0.08-0.04-0.17-0.04-0.26c0-0.11,0.02-0.21,0.05-0.32c-0.16-0.02-0.34-0.03-0.51-0.02l0,0
				c-0.2,0.01-0.4,0.04-0.57,0.12v0c-0.08,0.04-0.15,0.09-0.2,0.14c-0.05,0.05-0.09,0.1-0.11,0.16c-0.01,0.04-0.02,0.08-0.03,0.13
				c-0.01,0.19,0.05,0.41,0.16,0.61c0.1,0.19,0.25,0.35,0.4,0.4c0.03,0.01,0.05,0.02,0.08,0.02c0.09,0.01,0.19-0.04,0.28-0.11
				c0.13-0.1,0.25-0.24,0.33-0.38c0.1-0.15,0.15-0.24,0.13-0.28c-0.05-0.12-0.54-0.04-0.66-0.01c-0.04,0.01-0.07,0.02-0.1,0.03
				c-0.02,0-0.03,0.01-0.05,0.01c-0.03,0-0.04-0.02-0.03-0.04C17.33,24.03,17.37,24,17.4,23.98z M24.64,22.72
				c-0.01-0.01-0.03-0.02-0.04-0.03c-0.15-0.14-0.33-0.45-0.3-0.68c-0.07,0.05-0.15,0.08-0.23,0.11c-0.1,0.03-0.21,0.04-0.33,0.04
				c0.03,0.16,0.07,0.33,0.13,0.5l0,0c0.07,0.19,0.15,0.38,0.27,0.51v0c0.06,0.07,0.13,0.12,0.19,0.16
				c0.06,0.03,0.12,0.05,0.18,0.06c0.04,0,0.09,0,0.14-0.01c0.18-0.04,0.38-0.16,0.54-0.32c0.16-0.15,0.27-0.34,0.28-0.49
				c0-0.03,0-0.06-0.01-0.09c-0.02-0.09-0.09-0.17-0.18-0.24c-0.13-0.1-0.3-0.17-0.45-0.22c-0.17-0.05-0.27-0.07-0.31-0.04
				c-0.1,0.08,0.11,0.53,0.18,0.63c0.02,0.03,0.04,0.06,0.06,0.09c0.01,0.01,0.02,0.03,0.02,0.04c0.01,0.03-0.01,0.04-0.03,0.04
				C24.71,22.77,24.67,22.74,24.64,22.72z M29,19.11c-0.02,0.08-0.3,0.11-0.58,0.23c-0.13,0.06-0.25,0.14-0.34,0.22
				c0.17,0.13,0.34,0.3,0.46,0.5c0.01-0.04,0.06-0.07,0.1-0.07c0.12,0.02,0.24,0.01,0.34-0.02c0.12-0.04,0.23-0.11,0.3-0.2
				c0.08-0.09,0.13-0.2,0.15-0.32c0.02-0.1,0.01-0.21-0.03-0.31c-0.06-0.19-0.14-0.38-0.27-0.52c-0.1-0.12-0.23-0.22-0.39-0.27
				c-0.55-0.19-1.22,0.53-1.51,0.93c-0.23,0.32-0.53,1.17-0.4,1.56c0.1,0.33,0.85,0.29,1.1,0.22c0.29-0.08,0.55-0.26,0.56-0.59
				c-0.01-0.04-0.02-0.08-0.04-0.12c-0.02-0.04-0.04-0.08-0.06-0.12c-0.13-0.24-0.35-0.44-0.56-0.58c-0.19-0.12-0.36-0.19-0.42-0.16
				l0,0c-0.06,0.03-0.08,0.08-0.09,0.15c-0.01,0.09,0.01,0.2,0.04,0.33c0.06,0.24,0.16,0.38,0.24,0.53
				c0.11,0.22-0.13,0.12-0.32-0.23c-0.04-0.08-0.07-0.17-0.09-0.26c-0.04-0.15-0.06-0.28-0.05-0.39c0.02-0.13,0.07-0.23,0.19-0.29
				c0.01,0,0.01-0.01,0.02-0.01l0.01,0c0.11-0.04,0.33,0.02,0.55,0.16c0.24-0.28,0.47-0.35,0.83-0.38C28.88,19.06,29,19.05,29,19.11
				z M29.57,20.71c-0.01-0.01-0.02-0.02-0.04-0.03c-0.14-0.13-0.3-0.42-0.28-0.64c-0.07,0.04-0.14,0.08-0.22,0.1
				c-0.09,0.03-0.2,0.04-0.31,0.04c0.03,0.15,0.07,0.31,0.12,0.47l0,0c0.06,0.18,0.14,0.35,0.26,0.47l0,0
				c0.06,0.06,0.12,0.11,0.18,0.15c0.06,0.03,0.12,0.05,0.17,0.05c0.04,0,0.08,0,0.13-0.01c0.17-0.04,0.36-0.15,0.51-0.3
				c0.14-0.14,0.25-0.31,0.26-0.46c0-0.03,0-0.05-0.01-0.08l0,0c-0.02-0.04-0.05-0.09-0.07-0.13c-0.03-0.03-0.06-0.06-0.1-0.09
				c-0.12-0.09-0.28-0.16-0.43-0.2c-0.16-0.05-0.25-0.07-0.29-0.04c-0.09,0.08,0.1,0.5,0.17,0.59c0.02,0.03,0.04,0.06,0.06,0.08
				c0.01,0.01,0.02,0.03,0.02,0.04c0.01,0.03-0.01,0.04-0.03,0.04C29.64,20.75,29.6,20.73,29.57,20.71z M26.5,25.12
				c-0.02-0.22,0-0.49,0.05-0.77c0.01-0.03,0.02-0.07,0.02-0.1c-0.16,0.13-0.36,0.22-0.54,0.27c0.08,0.03,0.15,0.07,0.2,0.13
				c0.11,0.11,0.19,0.26,0.23,0.39C26.48,25.06,26.49,25.09,26.5,25.12z M29.19,22.95c-0.01,0.1-0.35,0.18-0.69,0.37
				c-0.15,0.09-0.29,0.21-0.39,0.32c0.23,0.13,0.46,0.32,0.64,0.54c0.01-0.06,0.06-0.1,0.12-0.1c0.16,0,0.3-0.02,0.42-0.08
				c0.15-0.06,0.26-0.16,0.35-0.28c0.08-0.12,0.13-0.27,0.13-0.42c0-0.12-0.02-0.25-0.08-0.38c-0.1-0.23-0.23-0.45-0.4-0.61
				c-0.14-0.14-0.32-0.24-0.52-0.28c-0.7-0.15-1.43,0.83-1.72,1.36c-0.23,0.42-0.48,1.51-0.26,1.97c0.17,0.39,1.08,0.24,1.38,0.12
				c0.34-0.14,0.64-0.4,0.61-0.81c-0.02-0.05-0.04-0.1-0.07-0.15c-0.03-0.05-0.06-0.1-0.09-0.14c-0.2-0.28-0.5-0.49-0.77-0.63
				c-0.25-0.12-0.47-0.18-0.54-0.14l0,0c-0.06,0.05-0.09,0.11-0.09,0.2c0,0.11,0.04,0.24,0.1,0.39c0.11,0.28,0.25,0.45,0.37,0.62
				c0.17,0.25-0.14,0.17-0.43-0.24c-0.06-0.09-0.11-0.2-0.15-0.3c-0.07-0.18-0.11-0.34-0.11-0.48c0-0.16,0.05-0.29,0.19-0.39
				c0.01-0.01,0.01-0.01,0.02-0.01l0.01,0c0.13-0.06,0.41-0.02,0.7,0.12c0.25-0.37,0.53-0.5,0.96-0.59
				C29.04,22.91,29.18,22.89,29.19,22.95z M31.08,24.11c0.01,0.01,0.02,0.01,0.02,0.02c0.04,0.04,0.07,0.08,0.1,0.12
				c0.26,0.25,0.71,0.42,0.98,0.49c0.32,0.08,1.08,0.06,1.35-0.17c0.23-0.18-0.03-0.76-0.16-0.94c-0.15-0.2-0.37-0.35-0.64-0.26
				c-0.03,0.02-0.06,0.04-0.09,0.07c-0.03,0.03-0.05,0.05-0.08,0.09c-0.15,0.18-0.24,0.41-0.28,0.62c-0.04,0.19-0.04,0.34,0,0.38
				l0,0c0.04,0.03,0.09,0.04,0.15,0.03c0.07-0.02,0.15-0.07,0.24-0.13c0.17-0.12,0.25-0.24,0.35-0.35c0.14-0.16,0.13,0.07-0.08,0.33
				c-0.05,0.06-0.11,0.11-0.17,0.15c-0.11,0.08-0.2,0.13-0.3,0.16c-0.11,0.03-0.2,0.01-0.29-0.06c0,0-0.01-0.01-0.01-0.01l0,0
				c-0.06-0.08-0.08-0.27-0.04-0.49c-0.29-0.1-0.42-0.26-0.55-0.54c-0.05-0.1-0.09-0.19-0.05-0.21c0.07-0.01,0.18,0.2,0.36,0.39
				c0.09,0.09,0.19,0.16,0.28,0.2c0.05-0.17,0.13-0.36,0.25-0.52c-0.04,0-0.08-0.02-0.09-0.06c-0.02-0.1-0.07-0.19-0.12-0.26
				c-0.07-0.09-0.15-0.15-0.25-0.18c-0.09-0.03-0.2-0.04-0.3-0.02c-0.08,0.02-0.16,0.06-0.24,0.12c-0.14,0.11-0.26,0.23-0.33,0.37
				c-0.07,0.12-0.1,0.25-0.1,0.39C30.99,23.93,31.03,24.02,31.08,24.11z M30.13,24.84c-0.02-0.01-0.03-0.02-0.05-0.03
				c-0.19-0.15-0.44-0.48-0.44-0.74c-0.08,0.06-0.16,0.12-0.25,0.16c-0.11,0.05-0.24,0.08-0.37,0.09c0.06,0.18,0.13,0.37,0.22,0.56
				l0,0c0.1,0.21,0.23,0.41,0.39,0.55l0,0c0.08,0.07,0.16,0.12,0.24,0.15c0.08,0.03,0.15,0.05,0.22,0.04c0.05,0,0.1-0.01,0.15-0.03
				c0.2-0.07,0.42-0.24,0.58-0.44c0.16-0.2,0.26-0.42,0.25-0.61c0-0.03-0.01-0.07-0.02-0.1c-0.03-0.1-0.12-0.18-0.24-0.25
				c-0.16-0.09-0.37-0.15-0.55-0.19c-0.2-0.04-0.32-0.05-0.36-0.01c-0.1,0.11,0.2,0.6,0.29,0.7c0.03,0.04,0.06,0.07,0.08,0.09
				c0.01,0.01,0.03,0.03,0.03,0.04c0.01,0.03-0.01,0.05-0.03,0.05C30.22,24.89,30.17,24.87,30.13,24.84z M28.17,16
				c0.1,0,0.22,0.33,0.45,0.64c0.11,0.14,0.24,0.26,0.37,0.35c0.11-0.24,0.26-0.5,0.46-0.7c-0.06,0-0.11-0.05-0.11-0.11
				c-0.01-0.16-0.06-0.29-0.13-0.41c-0.08-0.14-0.19-0.24-0.33-0.31c-0.13-0.07-0.28-0.1-0.43-0.08c-0.12,0.01-0.25,0.05-0.37,0.12
				c-0.22,0.13-0.41,0.29-0.55,0.48c-0.12,0.16-0.2,0.34-0.21,0.55c-0.06,0.71,1,1.32,1.57,1.54c0.45,0.18,1.56,0.29,1.99,0.01
				c0.37-0.21,0.1-1.11-0.06-1.39c-0.18-0.32-0.47-0.58-0.87-0.5c-0.04,0.02-0.09,0.05-0.14,0.08c-0.05,0.03-0.09,0.07-0.13,0.11
				c-0.25,0.23-0.43,0.56-0.53,0.84c-0.09,0.26-0.12,0.48-0.07,0.55l0,0c0.05,0.06,0.12,0.07,0.21,0.06
				c0.11-0.01,0.23-0.07,0.38-0.15c0.27-0.15,0.41-0.3,0.57-0.44c0.23-0.2,0.18,0.12-0.18,0.46c-0.08,0.07-0.18,0.13-0.28,0.19
				c-0.17,0.09-0.32,0.15-0.46,0.17c-0.16,0.02-0.3-0.02-0.41-0.14c-0.01-0.01-0.01-0.01-0.02-0.02l-0.01-0.01
				c-0.08-0.12-0.07-0.4,0.03-0.71c-0.4-0.21-0.56-0.46-0.7-0.88C28.15,16.15,28.11,16.01,28.17,16z M29.93,14.83
				c-0.01,0.02-0.02,0.03-0.03,0.05c-0.12,0.21-0.42,0.49-0.68,0.53c0.07,0.07,0.13,0.15,0.19,0.23c0.06,0.1,0.11,0.22,0.14,0.36
				c0.17-0.08,0.35-0.17,0.53-0.28l0,0c0.2-0.13,0.38-0.28,0.5-0.45l0,0c0.06-0.09,0.1-0.17,0.12-0.26
				c0.02-0.08,0.03-0.16,0.02-0.22c-0.01-0.05-0.03-0.1-0.05-0.15c-0.1-0.19-0.29-0.38-0.51-0.52c-0.22-0.13-0.45-0.21-0.63-0.17
				c-0.03,0.01-0.06,0.02-0.09,0.03c-0.09,0.05-0.17,0.15-0.22,0.27c-0.07,0.17-0.11,0.39-0.12,0.57c-0.01,0.2-0.01,0.33,0.04,0.36
				c0.12,0.09,0.57-0.27,0.66-0.38c0.03-0.04,0.06-0.07,0.08-0.09c0.01-0.01,0.03-0.03,0.04-0.04c0.03-0.02,0.05,0,0.05,0.03
				C29.96,14.74,29.95,14.79,29.93,14.83z M24.58,14.08c0.1,0.03,0.1,0.38,0.21,0.75c0.05,0.17,0.14,0.33,0.23,0.45
				c0.18-0.2,0.41-0.38,0.67-0.51c-0.05-0.02-0.09-0.08-0.07-0.14c0.04-0.15,0.04-0.29,0.01-0.42c-0.03-0.16-0.1-0.29-0.2-0.4
				c-0.1-0.11-0.23-0.18-0.38-0.22c-0.12-0.03-0.25-0.03-0.39-0.01c-0.25,0.05-0.49,0.13-0.68,0.27c-0.16,0.11-0.3,0.26-0.39,0.45
				c-0.3,0.65,0.51,1.57,0.97,1.97c0.36,0.32,1.38,0.79,1.87,0.67c0.42-0.08,0.46-1.01,0.41-1.33c-0.06-0.37-0.25-0.71-0.66-0.77
				c-0.05,0-0.1,0.02-0.16,0.03c-0.05,0.02-0.11,0.04-0.16,0.06c-0.31,0.14-0.59,0.38-0.78,0.62c-0.17,0.22-0.27,0.42-0.25,0.5l0,0
				c0.03,0.07,0.09,0.11,0.18,0.13c0.1,0.02,0.24,0.01,0.41-0.01c0.3-0.05,0.49-0.15,0.69-0.23c0.28-0.11,0.13,0.17-0.32,0.37
				c-0.1,0.04-0.21,0.07-0.33,0.08c-0.19,0.03-0.35,0.04-0.49,0.01c-0.16-0.03-0.28-0.12-0.34-0.26c0-0.01-0.01-0.02-0.01-0.03
				l0-0.01c-0.03-0.14,0.07-0.4,0.27-0.66c-0.31-0.33-0.38-0.62-0.37-1.07C24.51,14.22,24.51,14.07,24.58,14.08z M26.62,13.56
				c-0.01,0.01-0.03,0.03-0.04,0.04c-0.18,0.16-0.56,0.33-0.82,0.27c0.05,0.09,0.08,0.18,0.1,0.28c0.02,0.12,0.03,0.25,0.01,0.38
				c0.19-0.02,0.39-0.05,0.59-0.09l0,0c0.23-0.05,0.45-0.14,0.62-0.26v0c0.08-0.06,0.15-0.13,0.2-0.2c0.05-0.07,0.08-0.14,0.09-0.2
				c0.01-0.05,0.01-0.1,0-0.16c-0.03-0.21-0.15-0.46-0.31-0.66c-0.16-0.2-0.36-0.35-0.54-0.37c-0.03-0.01-0.07-0.01-0.1,0
				c-0.11,0.01-0.21,0.08-0.29,0.18c-0.13,0.14-0.23,0.33-0.3,0.5c-0.08,0.19-0.11,0.31-0.08,0.35c0.08,0.12,0.63-0.07,0.75-0.14
				c0.04-0.02,0.08-0.04,0.11-0.06c0.02-0.01,0.03-0.02,0.05-0.02c0.04-0.01,0.05,0.02,0.04,0.04
				C26.69,13.49,26.66,13.53,26.62,13.56z M22.59,15.09c-0.07,0.04-0.14,0.06-0.22,0.08c-0.03,0.02-0.06,0.05-0.09,0.07
				c-0.14,0.13-0.25,0.31-0.34,0.47c-0.09,0.18-0.14,0.29-0.11,0.34c0.07,0.13,0.63-0.02,0.75-0.07c0.04-0.02,0.08-0.04,0.11-0.05
				c0.02-0.01,0.04-0.02,0.05-0.02c0.04,0,0.04,0.02,0.04,0.05c-0.01,0.05-0.05,0.09-0.08,0.12c-0.01,0.01-0.03,0.02-0.05,0.04
				c-0.19,0.14-0.58,0.28-0.83,0.2c0.04,0.09,0.06,0.19,0.08,0.29c0.01,0.12,0.01,0.25-0.02,0.38c0.19,0,0.39-0.01,0.59-0.04l0,0
				c0.23-0.04,0.46-0.1,0.63-0.21v0c0.09-0.05,0.16-0.12,0.22-0.19c0.05-0.06,0.09-0.13,0.1-0.2c0.01-0.05,0.02-0.1,0.01-0.16
				c-0.01-0.21-0.11-0.47-0.25-0.68c-0.14-0.21-0.33-0.37-0.5-0.41C22.65,15.09,22.62,15.09,22.59,15.09z M24.19,12.31
				c-0.02,0-0.04,0-0.06,0.01c-0.24,0.02-0.64-0.07-0.82-0.27c-0.02,0.1-0.05,0.19-0.09,0.29c-0.05,0.11-0.13,0.22-0.22,0.31
				c0.16,0.1,0.34,0.2,0.53,0.28l0,0c0.22,0.09,0.44,0.16,0.65,0.16l0,0c0.1,0,0.2-0.01,0.28-0.04c0.08-0.03,0.14-0.06,0.19-0.11
				c0.03-0.03,0.07-0.08,0.09-0.13c0.11-0.19,0.16-0.46,0.15-0.71c-0.01-0.25-0.08-0.49-0.21-0.62c-0.02-0.02-0.05-0.04-0.08-0.06
				c-0.09-0.05-0.21-0.06-0.34-0.03c-0.18,0.04-0.38,0.13-0.54,0.22c-0.17,0.1-0.27,0.18-0.28,0.23c-0.01,0.15,0.54,0.32,0.68,0.34
				c0.05,0.01,0.09,0.01,0.12,0.02c0.02,0,0.04,0,0.06,0.01c0.03,0.02,0.03,0.04,0.01,0.06C24.29,12.29,24.23,12.3,24.19,12.31z
				 M17.49,20.14c-0.02-0.1,0.3-0.26,0.57-0.52c0.13-0.12,0.23-0.27,0.3-0.41c-0.26-0.07-0.53-0.19-0.76-0.37
				c0.01,0.06-0.03,0.11-0.09,0.12c-0.15,0.03-0.28,0.1-0.39,0.18c-0.13,0.1-0.21,0.22-0.26,0.36c-0.05,0.14-0.06,0.29-0.03,0.44
				c0.03,0.12,0.08,0.24,0.17,0.35c0.16,0.2,0.34,0.37,0.54,0.49c0.17,0.1,0.37,0.15,0.58,0.14c0.72-0.03,1.18-1.16,1.33-1.75
				c0.12-0.47,0.09-1.58-0.24-1.98c-0.26-0.34-1.11,0.04-1.37,0.23c-0.3,0.22-0.52,0.54-0.39,0.93c0.03,0.04,0.06,0.08,0.1,0.13
				c0.04,0.04,0.08,0.08,0.12,0.12c0.26,0.22,0.61,0.35,0.9,0.42c0.27,0.06,0.49,0.06,0.56,0l0,0c0.05-0.06,0.06-0.13,0.04-0.22
				c-0.03-0.1-0.1-0.22-0.19-0.36c-0.18-0.25-0.35-0.37-0.51-0.51c-0.23-0.2,0.1-0.2,0.48,0.12c0.08,0.07,0.16,0.16,0.22,0.25
				c0.11,0.15,0.19,0.3,0.23,0.43c0.04,0.16,0.02,0.3-0.08,0.42c-0.01,0.01-0.01,0.01-0.02,0.02L19.3,19.2
				c-0.11,0.09-0.39,0.12-0.71,0.06c-0.15,0.43-0.39,0.62-0.79,0.81C17.65,20.14,17.52,20.2,17.49,20.14z M16.11,18.55
				c0.02,0.01,0.04,0.01,0.05,0.02c0.22,0.09,0.54,0.35,0.61,0.61c0.06-0.08,0.13-0.15,0.21-0.21c0.1-0.08,0.21-0.14,0.34-0.18
				c-0.1-0.16-0.22-0.33-0.35-0.49l0,0c-0.15-0.18-0.32-0.34-0.51-0.43v0c-0.09-0.05-0.19-0.08-0.27-0.09
				c-0.08-0.01-0.16-0.01-0.22,0.01c-0.05,0.01-0.09,0.04-0.14,0.07c-0.18,0.12-0.34,0.34-0.45,0.57c-0.1,0.23-0.15,0.47-0.09,0.65
				c0.01,0.03,0.02,0.06,0.04,0.09c0.06,0.09,0.17,0.15,0.29,0.18c0.18,0.05,0.4,0.06,0.58,0.04c0.2-0.01,0.32-0.04,0.35-0.08
				c0.07-0.13-0.34-0.53-0.46-0.61c-0.04-0.03-0.07-0.05-0.1-0.07c-0.01-0.01-0.03-0.02-0.04-0.03c-0.02-0.03-0.01-0.05,0.02-0.06
				C16.01,18.52,16.07,18.53,16.11,18.55z M19.32,16.6c-0.13,0.09-0.27,0.15-0.39,0.19c0.13,0.02,0.26,0.06,0.36,0.14
				C19.28,16.82,19.29,16.7,19.32,16.6z M21,13.95c-0.02,0.17-0.06,0.35-0.12,0.54c-0.15,0.41-0.39,0.86-0.69,1.26
				c0.21-0.07,0.44-0.11,0.67-0.1c0.28,0.01,0.54,0.1,0.74,0.33c0.01-0.1,0.06-0.22,0.14-0.36c0.08-0.15,0.18-0.31,0.3-0.45
				c-0.04-0.01-0.08-0.03-0.13-0.05c-0.22-0.11-0.51-0.42-0.75-0.82C21.1,14.18,21.05,14.07,21,13.95z M20.9,13.19
				c0.04,0.06,0.07,0.12,0.09,0.2c0.02,0.05,0.03,0.11,0.03,0.18c0.2,0.5,0.62,1.17,1,1.34c0.38,0.19,0.98-0.53,1.12-0.82
				c0.17-0.33,0.22-0.72-0.07-1.01c-0.04-0.03-0.09-0.05-0.15-0.07c-0.05-0.02-0.11-0.04-0.16-0.05c-0.33-0.08-0.7-0.05-0.99,0.03
				c-0.27,0.07-0.47,0.17-0.5,0.25l0,0c-0.02,0.08,0.01,0.15,0.06,0.21c0.07,0.08,0.19,0.16,0.33,0.23
				c0.27,0.14,0.48,0.18,0.68,0.23c0.29,0.07,0,0.22-0.48,0.11c-0.1-0.02-0.21-0.07-0.31-0.13c-0.17-0.09-0.31-0.18-0.4-0.29
				c-0.11-0.12-0.15-0.26-0.11-0.42c0-0.01,0-0.02,0.01-0.03l0-0.01c0.06-0.13,0.29-0.28,0.61-0.37c-0.05-0.45,0.07-0.73,0.34-1.08
				c0.1-0.13,0.19-0.24,0.24-0.2c0.06,0.08-0.15,0.37-0.28,0.73c-0.06,0.17-0.08,0.35-0.08,0.5c0.26-0.05,0.56-0.06,0.84-0.01
				c-0.03-0.05-0.02-0.11,0.02-0.15c0.12-0.1,0.21-0.21,0.27-0.33c0.07-0.14,0.09-0.3,0.07-0.44c-0.02-0.15-0.08-0.29-0.17-0.4
				c-0.08-0.1-0.18-0.18-0.31-0.24c-0.23-0.11-0.47-0.18-0.7-0.19c-0.2-0.01-0.39,0.03-0.58,0.13
				C20.71,11.42,20.78,12.57,20.9,13.19z M18.09,15.56c0.02-0.1,0.37-0.13,0.72-0.28c0.16-0.07,0.31-0.17,0.42-0.27
				c-0.21-0.16-0.42-0.37-0.57-0.62c-0.02,0.06-0.07,0.09-0.13,0.08c-0.15-0.02-0.3-0.01-0.42,0.03c-0.15,0.05-0.28,0.13-0.38,0.24
				c-0.1,0.11-0.16,0.25-0.18,0.4c-0.02,0.12-0.01,0.25,0.03,0.39c0.07,0.24,0.18,0.47,0.33,0.65c0.13,0.15,0.29,0.27,0.49,0.34
				c0.39,0.13,0.83-0.1,1.21-0.42c0.04-0.04,0.08-0.08,0.12-0.11c0.23-0.21,0.42-0.44,0.55-0.62c0.28-0.39,0.66-1.45,0.49-1.93
				c-0.12-0.41-1.05-0.37-1.36-0.28c-0.36,0.1-0.68,0.32-0.7,0.73c0.01,0.05,0.02,0.1,0.05,0.15c0.02,0.05,0.05,0.1,0.07,0.15
				c0.17,0.3,0.44,0.55,0.69,0.71c0.23,0.15,0.44,0.23,0.52,0.2l0,0c0.07-0.04,0.1-0.1,0.11-0.19c0.01-0.11-0.01-0.24-0.05-0.4
				c-0.08-0.3-0.19-0.48-0.29-0.66c-0.14-0.27,0.16-0.15,0.4,0.28c0.05,0.09,0.09,0.21,0.12,0.32c0.05,0.18,0.07,0.35,0.06,0.49
				c-0.02,0.16-0.09,0.29-0.23,0.36c-0.01,0-0.02,0.01-0.02,0.01l-0.01,0c-0.14,0.05-0.41-0.03-0.68-0.2
				c-0.3,0.34-0.58,0.44-1.03,0.47C18.23,15.62,18.09,15.63,18.09,15.56z M17.38,13.58c0.01,0.01,0.03,0.02,0.04,0.04
				c0.17,0.17,0.38,0.53,0.35,0.79c0.08-0.05,0.17-0.1,0.27-0.13c0.12-0.03,0.24-0.05,0.38-0.05c-0.04-0.18-0.08-0.38-0.15-0.58l0,0
				c-0.08-0.22-0.18-0.44-0.32-0.59l0,0c-0.07-0.08-0.15-0.14-0.22-0.18c-0.07-0.04-0.14-0.06-0.21-0.07c-0.05,0-0.1,0-0.16,0.01
				c-0.21,0.05-0.44,0.19-0.63,0.37c-0.18,0.18-0.31,0.39-0.32,0.57c0,0.03,0,0.07,0.01,0.1c0.02,0.1,0.1,0.2,0.21,0.28
				c0.15,0.11,0.35,0.2,0.53,0.25c0.19,0.06,0.32,0.08,0.36,0.05c0.11-0.1-0.13-0.62-0.21-0.73c-0.03-0.04-0.05-0.07-0.07-0.1
				c-0.01-0.02-0.02-0.03-0.03-0.05c-0.01-0.04,0.01-0.05,0.04-0.05C17.3,13.52,17.34,13.55,17.38,13.58z M24.28,20.61
				c-0.11-0.09-0.21-0.2-0.29-0.32c-0.07-0.05-0.15-0.09-0.23-0.12c-0.59-0.2-1.31,0.57-1.62,0.99c-0.24,0.34-0.56,1.25-0.42,1.66
				c0.1,0.35,0.91,0.32,1.17,0.24c0.31-0.09,0.59-0.28,0.6-0.63c-0.01-0.04-0.02-0.09-0.04-0.13c-0.02-0.05-0.04-0.09-0.06-0.13
				c-0.14-0.26-0.38-0.47-0.6-0.62c-0.2-0.13-0.38-0.2-0.45-0.18l0,0c-0.06,0.03-0.09,0.09-0.1,0.16c-0.01,0.09,0.01,0.21,0.04,0.35
				c0.07,0.26,0.17,0.41,0.25,0.57c0.12,0.23-0.14,0.13-0.35-0.25c-0.05-0.08-0.08-0.18-0.1-0.27c-0.04-0.16-0.06-0.3-0.05-0.42
				c0.02-0.14,0.08-0.25,0.2-0.31c0.01,0,0.01-0.01,0.02-0.01l0.01,0c0.12-0.04,0.35,0.03,0.59,0.17c0.26-0.29,0.5-0.38,0.89-0.41
				c0.14-0.01,0.27-0.02,0.27,0.04c-0.02,0.09-0.32,0.11-0.63,0.24c-0.14,0.06-0.27,0.15-0.37,0.24c0.18,0.14,0.36,0.32,0.49,0.53
				c0.01-0.05,0.06-0.08,0.11-0.07c0.13,0.02,0.26,0.01,0.37-0.02c0.13-0.04,0.24-0.11,0.33-0.21c0.08-0.1,0.14-0.21,0.16-0.35
				c0.02-0.11,0.01-0.22-0.03-0.34C24.42,20.88,24.36,20.74,24.28,20.61z M27.62,17.57c0.02,0.05,0.04,0.11,0.04,0.18
				c0.03,0.24-0.06,0.66-0.26,1.08l-0.03,0.05c0.17-0.21,0.36-0.4,0.56-0.55c0.2-0.15,0.39-0.22,0.57-0.24
				C28.18,17.94,27.88,17.77,27.62,17.57z M26.78,17.03c0.16,0.03,0.32,0.08,0.46,0.15c-0.12-0.17-0.18-0.33-0.21-0.5
				C26.97,16.82,26.89,16.95,26.78,17.03z M24.49,19.5c0.04-0.1,0.39-0.08,0.76-0.18c0.17-0.05,0.33-0.13,0.46-0.21
				c-0.19-0.19-0.36-0.43-0.48-0.69c-0.02,0.05-0.08,0.08-0.14,0.06c-0.15-0.04-0.29-0.05-0.42-0.03c-0.16,0.02-0.3,0.09-0.41,0.19
				c-0.11,0.1-0.19,0.22-0.24,0.37c-0.04,0.12-0.05,0.25-0.02,0.39c0.04,0.25,0.11,0.49,0.23,0.69c0.1,0.17,0.24,0.31,0.43,0.41
				c0.64,0.33,1.59-0.44,2.02-0.88c0.33-0.35,0.85-1.34,0.76-1.84c-0.06-0.42-0.99-0.51-1.31-0.47c-0.37,0.05-0.72,0.22-0.79,0.62
				c0,0.05,0.01,0.1,0.03,0.16c0.01,0.05,0.03,0.11,0.05,0.16c0.12,0.32,0.36,0.61,0.58,0.8c0.21,0.18,0.4,0.29,0.48,0.27l0,0
				c0.07-0.03,0.12-0.09,0.14-0.17c0.03-0.1,0.03-0.24,0.01-0.41c-0.03-0.3-0.12-0.5-0.2-0.69c-0.1-0.28,0.18-0.13,0.36,0.34
				c0.04,0.1,0.06,0.22,0.07,0.33c0.02,0.19,0.02,0.36-0.01,0.49c-0.04,0.16-0.13,0.27-0.28,0.33c-0.01,0-0.02,0.01-0.03,0.01
				l-0.01,0c-0.14,0.03-0.4-0.09-0.65-0.3c-0.34,0.3-0.64,0.35-1.08,0.32C24.62,19.58,24.48,19.56,24.49,19.5z M23.62,16.55
				c0.23-0.12,0.48-0.17,0.7-0.13c0.48,0.1,0.75,0.7,0.84,1.14c0.05-0.1,0.12-0.19,0.2-0.26c0.11-0.1,0.25-0.17,0.38-0.22
				c-0.12-0.03-0.24-0.08-0.36-0.13c-0.7-0.33-1.48-0.96-1.9-1.66c-0.18-0.3-0.24-0.57-0.23-0.82c-0.1,0.14-0.24,0.3-0.4,0.43
				c0.5,0.19,0.97,0.93,0.84,1.46C23.68,16.43,23.65,16.5,23.62,16.55z M22.85,17.46l0-0.02c0.02-0.15,0.1-0.3,0.21-0.44
				c-0.18,0.08-0.37,0.13-0.53,0.16c0.1,0.05,0.18,0.12,0.25,0.2C22.81,17.4,22.83,17.43,22.85,17.46z M24.06,17.43
				c0.01,0.01,0.03,0.03,0.04,0.04c0.15,0.19,0.3,0.57,0.24,0.83c0.09-0.04,0.18-0.07,0.29-0.09c0.12-0.02,0.25-0.02,0.38,0.01
				c-0.01-0.19-0.03-0.39-0.07-0.59l0,0c-0.04-0.23-0.12-0.46-0.23-0.63l0,0c-0.06-0.09-0.12-0.16-0.19-0.21
				c-0.07-0.05-0.13-0.08-0.2-0.1c-0.05-0.01-0.1-0.01-0.16-0.01c-0.21,0.02-0.46,0.13-0.67,0.28c-0.2,0.15-0.36,0.34-0.4,0.52
				c-0.01,0.03-0.01,0.07-0.01,0.1c0.01,0.11,0.07,0.21,0.17,0.3c0.13,0.13,0.32,0.24,0.49,0.32c0.18,0.09,0.3,0.13,0.35,0.1
				c0.13-0.08-0.04-0.63-0.1-0.75c-0.02-0.04-0.04-0.08-0.06-0.11c-0.01-0.02-0.02-0.03-0.02-0.05c-0.01-0.04,0.02-0.05,0.05-0.04
				C23.99,17.36,24.03,17.4,24.06,17.43z M16.85,15.25c0.04,0.02,0.07,0.04,0.1,0.07c0.03,0.02,0.07,0.05,0.1,0.08l0,0
				c0.05,0.05,0.1,0.09,0.14,0.14c0.04,0.05,0.07,0.09,0.1,0.14c0.01,0.03,0.02,0.05,0.03,0.08c-0.02-0.17-0.07-0.38-0.14-0.56
				c-0.08-0.23-0.19-0.43-0.32-0.52l0,0c-0.08-0.07-0.22-0.05-0.35,0.01l0,0c-0.21,0.09-0.43,0.27-0.52,0.37l0,0
				c-0.09,0.11-0.16,0.23-0.18,0.35c-0.02,0.1,0,0.21,0.06,0.32c0.01,0.01,0.02,0.02,0.04,0.03c0.01,0.01,0.03,0.02,0.05,0.03
				c0.02,0.01,0.03,0.02,0.05,0.03l0,0c0.02,0.01,0.03,0.02,0.05,0.03v0c0.1,0.05,0.21,0.08,0.32,0.11
				c0.12,0.03,0.25,0.03,0.36,0.03c0.1,0,0.18-0.01,0.25-0.03c0.06-0.01,0.1-0.03,0.11-0.05c0.01-0.02,0.01-0.04,0.01-0.06
				c0-0.02-0.01-0.04-0.02-0.07v0c-0.02-0.03-0.04-0.06-0.07-0.1c-0.03-0.04-0.07-0.07-0.11-0.11l0,0
				c-0.13-0.12-0.25-0.18-0.36-0.23c-0.02-0.01-0.05-0.02-0.07-0.04c-0.05-0.03-0.07-0.05-0.08-0.07c-0.01-0.02,0-0.04,0.02-0.06
				c0.01-0.01,0.03-0.02,0.06-0.02C16.54,15.14,16.69,15.17,16.85,15.25L16.85,15.25z M17.5,16.12L17.5,16.12
				c-0.01,0.31-0.05,0.62-0.15,0.89v0c-0.07,0.19-0.16,0.34-0.28,0.45c-0.13,0.12-0.28,0.19-0.43,0.21c-0.02,0-0.03,0-0.05,0.01
				c0.21,0.12,0.4,0.29,0.54,0.46c-0.01-0.11,0.01-0.22,0.04-0.32c0.07-0.2,0.21-0.38,0.34-0.5c0.08-0.07,0.16-0.13,0.23-0.18
				c0.15-0.1,0.41-0.22,0.68-0.29C18.03,16.77,17.71,16.5,17.5,16.12z M17.13,14.63c0.03,0.04,0.06,0.09,0.09,0.14
				c0.04,0.07,0.07,0.14,0.1,0.22c0.03-0.1,0.09-0.2,0.16-0.3C17.38,14.69,17.27,14.67,17.13,14.63z M16.13,16.97
				c-0.02-0.06,0.04-0.13,0.13-0.24l0,0c0.06-0.07,0.13-0.15,0.19-0.25c0.04-0.06,0.07-0.12,0.09-0.19h0
				c0.01-0.04,0.02-0.07,0.03-0.1c-0.07,0-0.14-0.01-0.21-0.03c-0.1-0.02-0.2-0.05-0.3-0.09c0,0.01,0,0.02-0.01,0.02
				c-0.01,0.02-0.03,0.05-0.05,0.06c-0.05,0.02-0.09,0.05-0.13,0.08h0c-0.04,0.03-0.07,0.06-0.1,0.1c-0.03,0.04-0.06,0.09-0.08,0.13
				l0,0c-0.02,0.05-0.03,0.1-0.04,0.15c-0.01,0.05,0,0.1,0,0.15c0.01,0.05,0.02,0.1,0.05,0.14c0.02,0.04,0.04,0.08,0.07,0.11
				c0.03,0.03,0.06,0.07,0.1,0.1c0.07,0.06,0.15,0.11,0.23,0.15c0.07,0.04,0.15,0.07,0.22,0.09c0.07,0.02,0.14,0.03,0.21,0.03l0,0
				c0.07,0,0.13-0.01,0.2-0.03c0.19-0.05,0.33-0.22,0.42-0.44c0.14-0.31,0.19-0.71,0.19-0.97c0-0.03,0-0.05,0-0.09
				c0,0.04-0.02,0.08-0.04,0.12v0l0,0.01l0,0l-0.01,0.01l0,0l0,0.01l0,0c-0.04,0.05-0.11,0.09-0.21,0.12
				C17,16.17,16.9,16.19,16.8,16.2c-0.02,0.15-0.06,0.26-0.12,0.36h0c-0.07,0.12-0.17,0.22-0.3,0.32c-0.05,0.04-0.09,0.07-0.13,0.09
				C16.2,17,16.16,17.01,16.13,16.97L16.13,16.97L16.13,16.97z M14.94,16.05l0.02,0h0c0.01,0,0.02,0,0.02,0
				c0.02,0,0.05,0.01,0.07,0.02c0.11,0.03,0.25,0.1,0.35,0.18c0.04,0.03,0.07,0.06,0.09,0.1c0.02-0.05,0.05-0.1,0.09-0.14
				c0.04-0.05,0.08-0.09,0.14-0.13c0.01-0.01,0.03-0.02,0.04-0.03c-0.03-0.03-0.06-0.06-0.09-0.09c-0.06-0.06-0.13-0.11-0.2-0.16
				l0,0l0,0c-0.07-0.05-0.14-0.1-0.21-0.13c-0.07-0.04-0.14-0.06-0.21-0.08l-0.02-0.01c-0.03-0.01-0.05-0.01-0.08-0.01
				c-0.03,0-0.06,0-0.09,0c-0.03,0-0.05,0.01-0.08,0.01h0c-0.02,0.01-0.04,0.02-0.06,0.03c-0.01,0.01-0.03,0.02-0.04,0.03
				c-0.01,0.01-0.03,0.02-0.04,0.04c-0.05,0.05-0.09,0.12-0.13,0.2c-0.04,0.08-0.07,0.17-0.08,0.26c-0.02,0.09-0.02,0.18-0.02,0.26
				c0.01,0.07,0.02,0.14,0.05,0.19h0c0.01,0.01,0.01,0.02,0.02,0.03c0.01,0.01,0.01,0.02,0.02,0.02c0.02,0.02,0.05,0.04,0.09,0.05
				c0.04,0.01,0.08,0.02,0.13,0.02c0.06,0,0.12,0,0.19-0.01c0.07-0.01,0.15-0.03,0.21-0.05l0,0c0.07-0.02,0.12-0.04,0.16-0.06
				c0.03-0.01,0.05-0.03,0.05-0.04c0.01-0.03-0.03-0.07-0.09-0.12c-0.1-0.08-0.25-0.17-0.31-0.19L14.9,16.2
				c-0.02-0.01-0.03-0.01-0.04-0.02l-0.01,0c-0.01,0-0.03-0.01-0.04-0.02l0,0c-0.01,0-0.01-0.01-0.01-0.02l0,0
				c-0.01-0.01-0.01-0.02-0.01-0.03v0c0-0.01,0.01-0.02,0.01-0.03l0,0c0-0.01,0.01-0.01,0.02-0.02l0,0
				c0.02-0.01,0.04-0.02,0.06-0.02C14.9,16.05,14.92,16.05,14.94,16.05L14.94,16.05z M23.21,24.08c0.02,0.04,0.04,0.07,0.05,0.11v0
				c0.01,0.04,0.03,0.08,0.04,0.12l0,0c0.02,0.07,0.03,0.13,0.04,0.19c0.01,0.06,0.01,0.12,0,0.17c0,0.03-0.01,0.06-0.02,0.08
				c0.08-0.16,0.15-0.35,0.2-0.55c0.06-0.23,0.08-0.46,0.03-0.61l0,0c-0.03-0.1-0.15-0.16-0.3-0.19c-0.23-0.05-0.51-0.02-0.64,0.02
				c-0.13,0.04-0.26,0.1-0.35,0.19c-0.07,0.08-0.12,0.17-0.13,0.3c0,0.01,0.01,0.03,0.01,0.05v0c0.01,0.02,0.01,0.04,0.02,0.05l0,0
				c0.01,0.02,0.02,0.04,0.02,0.05c0.01,0.02,0.02,0.04,0.03,0.05h0c0.05,0.1,0.13,0.19,0.2,0.27c0.09,0.09,0.19,0.17,0.28,0.23
				c0.08,0.05,0.16,0.09,0.22,0.12c0.06,0.02,0.1,0.03,0.12,0.02c0.02-0.01,0.03-0.03,0.04-0.04l0,0c0.01-0.02,0.02-0.04,0.02-0.07
				c0-0.04,0-0.08,0-0.12l0,0c-0.01-0.05-0.02-0.1-0.03-0.15c-0.05-0.17-0.11-0.29-0.17-0.39c-0.01-0.02-0.02-0.04-0.04-0.07
				c-0.03-0.05-0.03-0.08-0.03-0.11c0.01-0.03,0.02-0.04,0.05-0.04c0.02,0,0.04,0.01,0.06,0.02C23.01,23.82,23.12,23.92,23.21,24.08
				z M23.36,23.15l0.02,0.01c0.18,0.06,0.33,0.18,0.38,0.37l0,0c0.03,0.09,0.03,0.21,0.02,0.35c0,0.03-0.01,0.06-0.01,0.1
				c0.15-0.19,0.37-0.33,0.62-0.4c-0.35-0.11-0.6-0.52-0.71-0.84c-0.03,0.09-0.08,0.18-0.14,0.25
				C23.49,23.05,23.43,23.11,23.36,23.15z M21.64,25.1c0.01-0.06,0.11-0.09,0.24-0.12c0.09-0.03,0.19-0.06,0.29-0.1
				c0.06-0.03,0.13-0.06,0.18-0.1c0.03-0.02,0.06-0.04,0.09-0.07c-0.05-0.04-0.11-0.09-0.16-0.14c-0.07-0.07-0.14-0.15-0.2-0.24
				c-0.01,0.01-0.01,0.01-0.02,0.02h0c-0.02,0.01-0.05,0.02-0.08,0.02c-0.05-0.01-0.1-0.01-0.15-0.01c-0.05,0-0.1,0.01-0.14,0.03
				c-0.05,0.02-0.1,0.04-0.14,0.07c-0.04,0.03-0.08,0.06-0.11,0.1c-0.03,0.04-0.06,0.08-0.08,0.13c-0.02,0.05-0.03,0.09-0.04,0.15
				c-0.01,0.04-0.01,0.09,0,0.13c0,0.04,0.01,0.09,0.03,0.13c0.03,0.09,0.06,0.17,0.1,0.25c0.04,0.07,0.08,0.14,0.13,0.2h0
				c0.05,0.05,0.1,0.1,0.15,0.14l0,0c0.05,0.04,0.11,0.07,0.18,0.09c0.19,0.06,0.4,0,0.6-0.13c0.29-0.18,0.56-0.49,0.7-0.69
				c0.02-0.02,0.03-0.05,0.05-0.07c-0.03,0.03-0.06,0.06-0.1,0.08l0,0l-0.01,0l0,0l-0.01,0l0,0l-0.01,0h0
				c-0.06,0.02-0.14,0.01-0.24-0.02c-0.08-0.02-0.17-0.06-0.26-0.12c-0.1,0.11-0.2,0.18-0.3,0.23c-0.13,0.06-0.26,0.08-0.43,0.1
				c-0.06,0-0.12,0.01-0.16,0.01C21.68,25.17,21.65,25.15,21.64,25.1L21.64,25.1L21.64,25.1z M21.18,23.67l0.02,0.01l0,0l0.02,0.01
				l0,0c0.02,0.02,0.03,0.03,0.05,0.05c0.08,0.09,0.15,0.22,0.19,0.34c0.01,0.05,0.02,0.09,0.02,0.13c0.05-0.03,0.1-0.05,0.15-0.07
				c0.06-0.02,0.12-0.03,0.19-0.03c0.02,0,0.04,0,0.05,0c-0.01-0.04-0.02-0.08-0.03-0.13c-0.02-0.08-0.04-0.16-0.07-0.24l0,0l0,0
				l0,0c-0.03-0.08-0.06-0.15-0.1-0.23c-0.04-0.07-0.08-0.13-0.13-0.18l-0.02-0.02c-0.02-0.02-0.04-0.04-0.06-0.05l0,0
				c-0.03-0.02-0.05-0.04-0.08-0.05l0,0c-0.02-0.01-0.05-0.02-0.07-0.03c-0.02-0.01-0.05-0.01-0.07-0.01h0c-0.02,0-0.03,0-0.05,0
				c-0.02,0-0.04,0-0.06,0.01c-0.07,0.02-0.14,0.05-0.22,0.09c-0.08,0.05-0.15,0.1-0.21,0.17c-0.06,0.06-0.12,0.13-0.16,0.2
				c-0.04,0.06-0.06,0.13-0.06,0.19c0,0.01,0,0.02,0,0.03c0,0.01,0,0.02,0,0.03l0,0c0.01,0.03,0.02,0.06,0.04,0.09l0,0
				c0.02,0.03,0.06,0.06,0.09,0.09c0.05,0.04,0.1,0.07,0.16,0.09l0,0c0.07,0.03,0.14,0.06,0.21,0.08c0.07,0.02,0.12,0.03,0.16,0.04
				c0.03,0,0.06,0,0.06,0c0.02-0.02,0.01-0.08-0.01-0.15c-0.04-0.13-0.11-0.28-0.15-0.33l-0.02-0.03c-0.01-0.02-0.02-0.03-0.03-0.04
				l0-0.01c-0.01-0.01-0.02-0.02-0.02-0.04c0-0.01,0-0.01,0-0.02v0c0-0.01,0-0.02,0.01-0.03c0.01-0.01,0.01-0.01,0.02-0.02
				c0.01,0,0.02,0,0.02,0h0c0.02,0,0.04,0.01,0.06,0.02C21.14,23.65,21.16,23.66,21.18,23.67L21.18,23.67z M20.45,19.31
				c0.04-0.02,0.08-0.03,0.12-0.04l0,0c0.04-0.01,0.08-0.02,0.12-0.02l0,0c0.07-0.01,0.13-0.02,0.19-0.02c0.06,0,0.11,0,0.16,0.01
				c-0.06-0.04-0.12-0.08-0.18-0.12c-0.08-0.04-0.17-0.08-0.25-0.11l0,0c-0.22-0.08-0.45-0.13-0.6-0.1l0,0
				c-0.11,0.02-0.18,0.13-0.22,0.27c-0.07,0.22-0.07,0.5-0.05,0.63c0.02,0.14,0.07,0.27,0.15,0.36c0.07,0.08,0.16,0.14,0.28,0.16
				c0.01,0,0.03,0,0.05-0.01c0.02,0,0.04-0.01,0.06-0.01l0,0c0.02-0.01,0.04-0.01,0.06-0.02c0.02-0.01,0.04-0.01,0.06-0.02v0
				c0.1-0.04,0.2-0.1,0.28-0.17c0.1-0.08,0.19-0.17,0.26-0.25c0.06-0.07,0.11-0.15,0.14-0.21c0.03-0.05,0.04-0.1,0.04-0.12
				c-0.01-0.02-0.02-0.04-0.04-0.05c-0.02-0.01-0.04-0.02-0.06-0.03c-0.03-0.01-0.08-0.01-0.12-0.01c-0.05,0-0.1,0.01-0.16,0.02h0
				c-0.17,0.03-0.29,0.08-0.4,0.12c-0.02,0.01-0.05,0.02-0.07,0.03c-0.05,0.02-0.09,0.02-0.11,0.02c-0.02-0.01-0.03-0.03-0.03-0.05
				l0,0c0-0.02,0.01-0.03,0.02-0.06C20.17,19.47,20.29,19.38,20.45,19.31z M21.71,19.55c0.15,0.16,0.29,0.33,0.39,0.51l0,0
				c0.1,0.18,0.15,0.34,0.16,0.49c0,0.09-0.01,0.18-0.03,0.27c0.19-0.25,0.42-0.48,0.65-0.66c0.33-0.24,0.65-0.3,0.92-0.24
				c-0.07-0.2-0.11-0.41-0.11-0.62c0-0.28,0.08-0.55,0.3-0.76c-0.1-0.01-0.22-0.05-0.37-0.12c-0.19-0.09-0.4-0.21-0.55-0.37
				c-0.01-0.01-0.02-0.02-0.03-0.03c0.01,0.07,0.01,0.13,0.02,0.18c0.01,0.41-0.14,1.39-0.81,1.43
				C22.12,19.66,21.93,19.62,21.71,19.55z M20.81,18.89c0.12,0.06,0.25,0.14,0.37,0.22c0.37,0.2,0.79,0.34,1.06,0.3
				c0.42-0.04,0.54-0.96,0.51-1.28c-0.04-0.37-0.19-0.72-0.59-0.81c-0.05,0-0.1,0.01-0.16,0.02c-0.05,0.01-0.11,0.03-0.16,0.05
				c-0.32,0.11-0.61,0.33-0.82,0.55c-0.19,0.2-0.3,0.39-0.29,0.47l0,0c0.03,0.07,0.08,0.12,0.16,0.14c0.1,0.03,0.24,0.03,0.4,0.02
				c0.3-0.02,0.5-0.11,0.7-0.17c0.29-0.09,0.12,0.18-0.35,0.34c-0.1,0.03-0.22,0.05-0.33,0.06c-0.19,0.01-0.35,0.01-0.49-0.03
				c-0.15-0.05-0.26-0.14-0.32-0.29c0-0.01-0.01-0.02-0.01-0.03l0-0.01c-0.02-0.14,0.1-0.39,0.32-0.64
				c-0.28-0.35-0.32-0.65-0.28-1.09c0.02-0.17,0.03-0.31,0.1-0.3c0.1,0.04,0.07,0.39,0.15,0.76c0.04,0.17,0.11,0.34,0.19,0.46
				c0.19-0.18,0.44-0.35,0.7-0.45c-0.05-0.02-0.08-0.09-0.06-0.14c0.05-0.15,0.06-0.29,0.05-0.42c-0.02-0.16-0.08-0.3-0.17-0.41
				c-0.09-0.11-0.22-0.2-0.36-0.25c-0.12-0.04-0.25-0.05-0.39-0.04c-0.25,0.03-0.49,0.09-0.7,0.21c-0.17,0.1-0.32,0.23-0.42,0.42
				c-0.35,0.62,0.38,1.6,0.8,2.04C20.52,18.68,20.65,18.78,20.81,18.89z M19.66,18.89c0.08-0.1,0.18-0.17,0.32-0.19
				c0.09-0.02,0.21-0.01,0.35,0.02c0.02,0,0.04,0.01,0.06,0.01c-0.26-0.24-0.5-0.51-0.7-0.8c0.01,0.06,0.02,0.13,0.02,0.2
				C19.71,18.37,19.69,18.63,19.66,18.89z M21.29,20.96c-0.06-0.02-0.07-0.12-0.1-0.25c-0.02-0.09-0.03-0.19-0.07-0.3
				c-0.02-0.07-0.05-0.13-0.08-0.19c-0.02-0.03-0.04-0.06-0.06-0.09c-0.05,0.05-0.1,0.1-0.16,0.14c-0.08,0.06-0.17,0.12-0.26,0.17
				c0.01,0.01,0.01,0.01,0.01,0.02l0,0c0.01,0.02,0.02,0.05,0.01,0.08c-0.01,0.05-0.02,0.1-0.02,0.15c0,0.05,0,0.1,0.01,0.14
				c0.01,0.05,0.03,0.1,0.05,0.14c0.02,0.05,0.05,0.09,0.09,0.12c0.03,0.04,0.07,0.07,0.12,0.09c0.04,0.02,0.09,0.04,0.14,0.06
				c0.04,0.01,0.08,0.02,0.13,0.02c0.04,0,0.09,0,0.13-0.01h0c0.09-0.02,0.18-0.04,0.26-0.07c0.08-0.03,0.15-0.06,0.21-0.11l0,0
				c0.06-0.04,0.11-0.08,0.16-0.14c0.04-0.05,0.08-0.1,0.11-0.17l0,0c0.08-0.18,0.04-0.39-0.06-0.6c-0.15-0.31-0.42-0.6-0.6-0.77
				c-0.01-0.01-0.02-0.02-0.03-0.02l-0.02-0.01c0.02,0.02,0.04,0.05,0.05,0.08h0c0,0.01,0,0.01,0.01,0.02l0,0l0,0l0,0l0,0.01l0,0
				c0.01,0.06,0,0.14-0.04,0.23c-0.03,0.07-0.08,0.16-0.14,0.24c0.1,0.11,0.16,0.21,0.2,0.32c0.04,0.13,0.05,0.27,0.05,0.43
				c0,0.06,0,0.12-0.01,0.16C21.36,20.93,21.34,20.96,21.29,20.96L21.29,20.96L21.29,20.96z M19.12,21.38
				c-0.02-0.08-0.03-0.16-0.02-0.24v0c0-0.01,0-0.02,0-0.03v0c0.03-0.16,0.13-0.29,0.26-0.39c0.14-0.11,0.31-0.19,0.47-0.23
				c-0.05-0.03-0.09-0.06-0.13-0.1c-0.05-0.05-0.09-0.11-0.12-0.17c-0.04-0.07-0.07-0.15-0.09-0.22c-0.01-0.04-0.02-0.07-0.03-0.1
				c-0.01-0.04-0.01-0.07-0.01-0.1c0-0.01,0-0.02,0-0.04c-0.1,0.29-0.23,0.57-0.38,0.82c-0.15,0.23-0.31,0.39-0.48,0.5
				c0.13,0.06,0.27,0.14,0.41,0.23C19.04,21.32,19.08,21.35,19.12,21.38z M19.63,22.07c-0.12-0.07-0.23-0.17-0.32-0.29
				c-0.02-0.03-0.05-0.06-0.07-0.1c-0.26-0.21-0.61-0.42-0.89-0.51c-0.14,0.05-0.29,0.06-0.44,0.05c-0.24,0.21-0.36,0.75-0.36,0.98
				c0,0.32,0.1,0.64,0.43,0.76c0.04,0,0.09,0,0.14,0c0.05,0,0.1-0.01,0.15-0.02c0.29-0.07,0.56-0.23,0.76-0.4
				c0.18-0.16,0.3-0.31,0.29-0.38v0c-0.02-0.07-0.06-0.11-0.13-0.14c-0.09-0.04-0.2-0.05-0.35-0.06c-0.26-0.01-0.44,0.05-0.62,0.08
				c-0.26,0.05-0.08-0.17,0.33-0.26c0.09-0.02,0.19-0.02,0.29-0.02c0.16,0,0.31,0.02,0.42,0.07c0.13,0.05,0.22,0.14,0.25,0.28
				c0,0.01,0,0.01,0,0.02l0,0.01c0.01,0.13-0.12,0.33-0.33,0.52c0.21,0.33,0.22,0.59,0.14,0.96c-0.03,0.14-0.06,0.26-0.11,0.25
				c-0.08-0.04-0.02-0.34-0.06-0.67c-0.02-0.15-0.07-0.3-0.12-0.42c-0.18,0.14-0.41,0.26-0.65,0.33c0.04,0.03,0.06,0.08,0.04,0.13
				c-0.06,0.12-0.08,0.24-0.08,0.36c0,0.14,0.04,0.26,0.11,0.37c0.07,0.11,0.17,0.19,0.29,0.25c0.1,0.05,0.21,0.07,0.33,0.07
				c0.22,0,0.43-0.03,0.62-0.12c0.16-0.07,0.29-0.17,0.4-0.32C20.43,23.36,19.96,22.5,19.63,22.07z M20.66,21.35
				c-0.01,0.06-0.04,0.14-0.07,0.22v0c-0.03,0.07-0.07,0.15-0.12,0.23c-0.04,0.06-0.08,0.13-0.13,0.18l0,0
				c-0.02,0.02-0.04,0.04-0.06,0.06c-0.02,0.02-0.04,0.03-0.07,0.05v0c-0.05,0.03-0.1,0.05-0.15,0.07c-0.05,0.01-0.11,0.01-0.17,0
				l0,0l-0.02,0c0.2,0.27,0.37,0.56,0.48,0.85c0.05,0.14,0.08,0.27,0.09,0.39c0.05-0.07,0.1-0.13,0.16-0.19
				c0.18-0.17,0.4-0.29,0.62-0.29c0.01,0,0.02,0,0.03,0c0.16,0.01,0.31,0.1,0.42,0.22l0,0c0.13,0.13,0.22,0.3,0.29,0.45
				c0.02-0.05,0.05-0.1,0.09-0.14c0.03-0.03,0.06-0.06,0.09-0.09c-0.28-0.05-0.53-0.19-0.6-0.47c-0.06-0.2-0.02-0.57,0.09-0.96
				c0.08-0.23,0.19-0.47,0.33-0.7c-0.05,0.04-0.1,0.08-0.16,0.11c-0.18,0.1-0.4,0.17-0.62,0.18c-0.12,0.01-0.24-0.01-0.35-0.06
				C20.77,21.43,20.71,21.4,20.66,21.35z M19.83,21.26l0.01-0.01l0,0l0.02-0.01l0,0c0.02-0.01,0.04-0.03,0.06-0.04
				c0.1-0.06,0.23-0.13,0.36-0.15c0.05-0.01,0.09-0.01,0.13-0.01c-0.02-0.05-0.04-0.1-0.05-0.16c-0.01-0.06-0.02-0.12-0.01-0.19
				c0-0.02,0-0.04,0-0.05c-0.04,0-0.08,0.01-0.13,0.01c-0.08,0.01-0.17,0.02-0.25,0.04l0,0l0,0l0,0c-0.08,0.02-0.16,0.04-0.23,0.07
				l0,0c-0.07,0.03-0.14,0.06-0.2,0.1l-0.02,0.02l0,0c-0.02,0.02-0.04,0.03-0.06,0.05l0,0c-0.02,0.02-0.04,0.05-0.06,0.07
				c-0.02,0.02-0.03,0.04-0.04,0.07c-0.01,0.02-0.02,0.04-0.02,0.06c0,0.01,0,0.03,0,0.05c0,0.02,0,0.04,0,0.06
				c0.01,0.07,0.03,0.15,0.07,0.22c0.04,0.08,0.09,0.16,0.14,0.23l0,0c0.06,0.07,0.12,0.13,0.18,0.18l0,0
				c0.06,0.04,0.12,0.07,0.18,0.08l0,0c0.01,0,0.02,0,0.03,0l0,0c0.01,0,0.02,0,0.03,0c0.03,0,0.06-0.02,0.09-0.03
				c0.03-0.02,0.07-0.05,0.1-0.08c0.04-0.04,0.08-0.09,0.11-0.15c0.04-0.06,0.07-0.13,0.1-0.19c0.03-0.06,0.05-0.12,0.06-0.16
				c0.01-0.03,0.01-0.05,0.01-0.06c-0.02-0.02-0.08-0.02-0.15-0.01c-0.13,0.02-0.29,0.08-0.34,0.11l-0.03,0.02
				c-0.02,0.01-0.03,0.02-0.04,0.02l-0.01,0c-0.01,0.01-0.02,0.01-0.04,0.02c-0.01,0-0.01,0-0.02,0l0,0c-0.01,0-0.02-0.01-0.03-0.01
				v0c-0.01-0.01-0.01-0.02-0.01-0.03v0c0-0.01,0-0.02,0-0.02c0-0.02,0.01-0.04,0.02-0.06C19.8,21.29,19.82,21.27,19.83,21.26
				L19.83,21.26z M32.15,16.62c0.03-0.01,0.07-0.02,0.11-0.03c0.04-0.01,0.07-0.01,0.11-0.02c0.06-0.01,0.12-0.01,0.17-0.02
				c0.05,0,0.11,0,0.15,0.01c0.02,0,0.04,0.01,0.06,0.02c-0.13-0.08-0.29-0.16-0.45-0.22c-0.2-0.08-0.4-0.12-0.54-0.09h0
				c-0.1,0.02-0.16,0.12-0.2,0.24c-0.06,0.2-0.07,0.45-0.05,0.57c0.02,0.12,0.06,0.24,0.14,0.33c0.06,0.07,0.14,0.12,0.25,0.14
				c0.01,0,0.03,0,0.04-0.01c0.02,0,0.03-0.01,0.05-0.01c0.02,0,0.03-0.01,0.05-0.02c0.02-0.01,0.03-0.01,0.05-0.02l0,0
				c0.09-0.04,0.18-0.09,0.26-0.15c0.09-0.07,0.17-0.15,0.23-0.23c0.05-0.07,0.1-0.13,0.13-0.18c0.02-0.05,0.04-0.08,0.03-0.1
				c-0.01-0.02-0.02-0.03-0.03-0.04c-0.02-0.01-0.04-0.02-0.06-0.02l0,0c-0.03-0.01-0.07-0.01-0.11-0.01
				c-0.04,0-0.09,0.01-0.14,0.01c-0.15,0.02-0.26,0.07-0.36,0.11c-0.02,0.01-0.04,0.02-0.07,0.03c-0.05,0.02-0.08,0.02-0.1,0.01l0,0
				c-0.02-0.01-0.03-0.02-0.03-0.05c0-0.01,0.01-0.03,0.02-0.05C31.9,16.77,32,16.68,32.15,16.62z M32.9,18.11
				c-0.05-0.02-0.07-0.1-0.09-0.23c-0.01-0.08-0.03-0.17-0.06-0.27c-0.02-0.06-0.04-0.12-0.07-0.17c-0.02-0.03-0.03-0.06-0.05-0.08
				c-0.04,0.04-0.09,0.09-0.14,0.13c-0.07,0.06-0.15,0.11-0.23,0.15c0.01,0.01,0.01,0.01,0.01,0.02c0.01,0.02,0.01,0.05,0.01,0.07v0
				c-0.01,0.04-0.02,0.09-0.02,0.13c0,0.04,0,0.09,0.01,0.13c0.01,0.05,0.02,0.09,0.04,0.13c0.02,0.04,0.05,0.08,0.08,0.11
				c0.03,0.03,0.07,0.06,0.1,0.08c0.04,0.02,0.08,0.04,0.12,0.05c0.04,0.01,0.08,0.02,0.12,0.02c0.04,0,0.08,0,0.12-0.01l0,0
				c0.08-0.01,0.16-0.04,0.23-0.06c0.07-0.03,0.13-0.06,0.19-0.1h0c0.05-0.03,0.1-0.07,0.14-0.12c0.04-0.04,0.07-0.09,0.1-0.15
				c0.08-0.16,0.04-0.35-0.05-0.54c-0.13-0.28-0.37-0.54-0.54-0.69c-0.02-0.01-0.03-0.03-0.05-0.04c0.02,0.02,0.04,0.05,0.05,0.09
				l0,0c0,0,0,0.01,0.01,0.02l0,0l0,0l0,0l0,0.01c0.01,0.05,0,0.13-0.04,0.21c-0.03,0.07-0.07,0.14-0.13,0.21
				c0.09,0.1,0.14,0.19,0.18,0.29l0,0c0.04,0.12,0.05,0.24,0.04,0.39l0,0c0,0.05,0,0.1-0.01,0.14
				C32.96,18.08,32.94,18.11,32.9,18.11L32.9,18.11L32.9,18.11z M31.33,17.79c0.09-0.04,0.18-0.08,0.26-0.1
				c-0.04-0.03-0.08-0.06-0.11-0.09c-0.04-0.05-0.08-0.1-0.11-0.16c-0.01-0.01-0.02-0.03-0.02-0.04
				C31.35,17.53,31.35,17.66,31.33,17.79z M31.19,18.93c-0.03-0.03-0.05-0.06-0.08-0.09c-0.12-0.16-0.2-0.35-0.19-0.53
				c-0.23,0.1-0.61,0.15-1.04,0.13c-0.21-0.02-0.44-0.06-0.67-0.12c0.23,0.21,0.38,0.52,0.44,0.85c0.03,0.22-0.01,0.45-0.16,0.64
				c0.08,0,0.19,0.02,0.31,0.06c0.11,0.03,0.23,0.08,0.34,0.14C29.97,19.31,30.58,18.91,31.19,18.93z M31.77,19.19l-0.01,0
				l0.01,0.01L31.77,19.19z M32.19,18.8c-0.01,0.02-0.02,0.04-0.04,0.06l0,0c-0.04,0.06-0.08,0.11-0.12,0.16h0
				c-0.01,0.01-0.02,0.02-0.03,0.03c-0.07,0.11-0.1,0.18-0.08,0.21c0.04,0.09,0.43,0.02,0.53-0.02c0.03-0.01,0.06-0.02,0.08-0.03
				c0.01,0,0.03-0.01,0.04-0.01c0.03,0,0.03,0.02,0.02,0.03c-0.01,0.03-0.04,0.06-0.06,0.08c-0.01,0.01-0.02,0.02-0.03,0.02
				c-0.14,0.09-0.42,0.16-0.59,0.1c0.02,0.06,0.04,0.13,0.04,0.2c0,0.08-0.01,0.17-0.03,0.26c0.13,0.01,0.27,0.01,0.41,0l0,0
				c0.16-0.01,0.32-0.05,0.45-0.11h0c0.06-0.03,0.12-0.07,0.16-0.12c0.04-0.04,0.07-0.09,0.08-0.13c0.01-0.03,0.02-0.07,0.02-0.11
				c0-0.15-0.05-0.33-0.14-0.48c-0.09-0.15-0.21-0.27-0.33-0.31c-0.02-0.01-0.04-0.01-0.07-0.01c-0.07,0-0.15,0.03-0.22,0.09
				C32.25,18.75,32.22,18.78,32.19,18.8z M32.33,18.46c0,0.02-0.01,0.03-0.01,0.05c0.02-0.01,0.03-0.01,0.05-0.02
				C32.36,18.48,32.34,18.47,32.33,18.46z M31.58,18.38c0.01-0.01,0.02-0.02,0.03-0.03l0,0c0.02-0.01,0.03-0.03,0.05-0.04
				c0.09-0.06,0.21-0.11,0.32-0.13c0.04-0.01,0.08-0.01,0.12-0.01c-0.02-0.05-0.03-0.09-0.04-0.14c-0.01-0.05-0.01-0.11-0.01-0.17
				c0-0.02,0-0.03,0-0.05c-0.04,0-0.08,0.01-0.11,0.01c-0.07,0.01-0.15,0.02-0.22,0.04l0,0l0,0h0c-0.07,0.02-0.14,0.04-0.21,0.06
				l0,0c-0.06,0.02-0.12,0.06-0.18,0.09l-0.02,0.01c-0.02,0.01-0.04,0.03-0.05,0.04c-0.02,0.02-0.04,0.04-0.05,0.06h0
				c-0.01,0.02-0.03,0.04-0.03,0.06c-0.01,0.02-0.01,0.04-0.02,0.06l0,0c0,0.01,0,0.03,0,0.04v0c0,0.02,0,0.03,0,0.05
				c0.01,0.06,0.03,0.13,0.06,0.2c0.03,0.07,0.08,0.14,0.13,0.21c0.05,0.06,0.11,0.12,0.16,0.16c0.05,0.04,0.11,0.06,0.16,0.07l0,0
				c0.01,0,0.02,0,0.03,0h0c0.01,0,0.02,0,0.03,0c0.03,0,0.06-0.01,0.08-0.03l0,0c0.03-0.02,0.06-0.04,0.09-0.07
				c0.04-0.04,0.07-0.09,0.1-0.13c0.04-0.06,0.07-0.12,0.09-0.17c0.02-0.06,0.04-0.1,0.05-0.14c0.01-0.03,0.01-0.05,0.01-0.05
				c-0.01-0.02-0.07-0.02-0.14-0.01c-0.12,0.02-0.26,0.07-0.31,0.1l-0.03,0.02c-0.01,0.01-0.03,0.02-0.04,0.02l-0.01,0l0,0
				c-0.01,0.01-0.02,0.01-0.03,0.01c-0.01,0-0.01,0-0.02,0l0,0c-0.01,0-0.02-0.01-0.03-0.01c-0.01-0.01-0.01-0.01-0.01-0.02l0,0
				c0-0.01,0-0.01,0-0.02v0c0-0.02,0.01-0.04,0.02-0.05v0C31.56,18.4,31.57,18.39,31.58,18.38z M17.01,21.77
				c0.02,0.02,0.04,0.05,0.06,0.07c0.02,0.03,0.04,0.05,0.05,0.08l0,0c0.03,0.04,0.05,0.09,0.07,0.13l0,0
				c0.02,0.04,0.03,0.08,0.04,0.12v0c0.01-0.11,0.02-0.24,0.01-0.37c-0.01-0.18-0.04-0.34-0.11-0.44l0,0
				c-0.04-0.07-0.14-0.08-0.25-0.07c-0.17,0.02-0.36,0.1-0.45,0.15c-0.09,0.06-0.16,0.13-0.2,0.21c-0.03,0.07-0.05,0.15-0.02,0.23
				c0.01,0.01,0.01,0.02,0.02,0.03l0,0c0.01,0.01,0.02,0.02,0.03,0.03c0.01,0.01,0.02,0.02,0.03,0.03l0,0
				c0.01,0.01,0.02,0.02,0.03,0.03c0.06,0.06,0.13,0.1,0.2,0.14c0.08,0.05,0.17,0.08,0.25,0.1c0.07,0.02,0.13,0.03,0.18,0.03
				c0.04,0,0.07,0,0.09-0.01c0.01-0.01,0.02-0.02,0.02-0.04c0-0.01,0-0.03,0-0.05v0c0-0.03-0.02-0.05-0.03-0.08
				c-0.01-0.03-0.03-0.07-0.06-0.1v0c-0.07-0.11-0.14-0.18-0.21-0.24c-0.02-0.01-0.03-0.03-0.04-0.04
				c-0.03-0.03-0.04-0.05-0.05-0.07c0-0.02,0.01-0.04,0.03-0.05c0.01,0,0.03,0,0.05,0C16.81,21.62,16.91,21.68,17.01,21.77z
				 M17.31,22.48c-0.01,0.02-0.01,0.04-0.02,0.06c-0.07,0.22-0.17,0.43-0.3,0.6h0c-0.04,0.06-0.09,0.11-0.13,0.15
				c0.23-0.15,0.54-0.22,0.79-0.24c-0.08-0.05-0.15-0.12-0.2-0.2C17.38,22.74,17.33,22.61,17.31,22.48z M16.11,22.85
				c0-0.05,0.06-0.09,0.15-0.15c0.06-0.04,0.12-0.08,0.19-0.13c0.04-0.03,0.08-0.07,0.11-0.11c0.02-0.02,0.03-0.04,0.04-0.06
				c-0.05-0.02-0.09-0.04-0.14-0.06c-0.07-0.03-0.13-0.08-0.19-0.12c0,0,0,0.01-0.01,0.01l0,0c-0.01,0.02-0.03,0.03-0.06,0.03
				c-0.04,0.01-0.07,0.02-0.11,0.03l0,0c-0.03,0.01-0.06,0.03-0.09,0.05l0,0c-0.03,0.02-0.06,0.05-0.08,0.08
				c-0.02,0.03-0.04,0.06-0.06,0.09l0,0c-0.01,0.03-0.02,0.07-0.03,0.11c0,0.04,0,0.07,0,0.11c0,0.03,0.01,0.06,0.03,0.09
				c0.01,0.03,0.03,0.06,0.05,0.09l0,0c0.04,0.06,0.08,0.11,0.13,0.16c0.04,0.04,0.09,0.08,0.14,0.11c0.04,0.03,0.09,0.05,0.14,0.07
				c0.05,0.01,0.1,0.02,0.15,0.02c0.15,0,0.28-0.09,0.39-0.22c0.17-0.19,0.29-0.47,0.35-0.64l0,0c-0.01,0.01-0.02,0.02-0.02,0.03
				l0,0l0,0l0,0l-0.01,0l0,0l0,0l0,0c-0.04,0.03-0.1,0.04-0.18,0.04c-0.06,0-0.13-0.01-0.2-0.02c-0.05,0.1-0.1,0.17-0.16,0.23l0,0
				c-0.08,0.07-0.17,0.12-0.29,0.16c-0.04,0.02-0.08,0.03-0.11,0.04C16.16,22.89,16.13,22.89,16.11,22.85L16.11,22.85L16.11,22.85z
				 M15.48,21.92l0.01,0.01l0,0l0.01,0.01l0,0c0.02,0.01,0.03,0.02,0.05,0.03c0.07,0.05,0.16,0.12,0.21,0.2
				c0.02,0.03,0.03,0.05,0.04,0.08c0.03-0.03,0.06-0.05,0.09-0.07c0.04-0.03,0.08-0.05,0.13-0.07c0.01,0,0.02-0.01,0.03-0.01
				c-0.01-0.03-0.03-0.05-0.04-0.08c-0.03-0.05-0.07-0.11-0.1-0.16l0,0l0,0c-0.04-0.05-0.08-0.1-0.12-0.14
				c-0.04-0.04-0.08-0.08-0.13-0.1l-0.01-0.01v0c-0.02-0.01-0.04-0.02-0.05-0.02c-0.02-0.01-0.04-0.02-0.07-0.02
				c-0.02,0-0.04-0.01-0.06-0.01c-0.02,0-0.03,0-0.05,0.01l0,0c-0.01,0-0.02,0.01-0.03,0.01l0,0c-0.01,0-0.02,0.01-0.04,0.02l0,0
				c-0.05,0.03-0.09,0.06-0.13,0.11c-0.04,0.05-0.08,0.11-0.11,0.17c-0.03,0.06-0.05,0.12-0.07,0.18c-0.01,0.05-0.01,0.1,0,0.14
				c0,0.01,0,0.01,0.01,0.02l0,0c0,0.01,0.01,0.01,0.01,0.02c0.01,0.02,0.03,0.04,0.05,0.05c0.02,0.02,0.05,0.03,0.08,0.04h0
				c0.04,0.01,0.09,0.03,0.13,0.03c0.06,0.01,0.11,0.01,0.16,0.01l0,0c0.05,0,0.09,0,0.12-0.01c0.02,0,0.04-0.01,0.04-0.01
				c0.01-0.01-0.01-0.05-0.04-0.1c-0.05-0.08-0.14-0.17-0.18-0.2l-0.02-0.02l0,0c-0.01-0.01-0.02-0.02-0.03-0.02l0,0
				C15.37,22,15.36,22,15.35,21.99h0c0-0.01-0.01-0.01-0.01-0.02c0-0.01,0-0.02,0-0.03c0-0.01,0.01-0.01,0.02-0.02l0,0
				c0.01,0,0.01-0.01,0.02-0.01c0.02,0,0.03,0,0.05,0C15.45,21.91,15.46,21.92,15.48,21.92L15.48,21.92z M29.32,13.16
				c0.01,0.03,0.02,0.06,0.03,0.09c0.01,0.03,0.02,0.06,0.02,0.09c0.01,0.05,0.02,0.1,0.02,0.14c0,0.04,0,0.08,0,0.12
				c0.05-0.1,0.09-0.22,0.13-0.33c0.05-0.17,0.07-0.33,0.04-0.44l0,0c-0.02-0.07-0.1-0.12-0.21-0.14c-0.16-0.04-0.37-0.03-0.46,0
				c-0.1,0.02-0.19,0.07-0.25,0.13l0,0c-0.05,0.05-0.09,0.12-0.1,0.21c0,0.01,0,0.02,0.01,0.03l0,0c0,0.01,0.01,0.03,0.01,0.04h0
				c0,0.01,0.01,0.03,0.02,0.04c0.01,0.01,0.01,0.03,0.02,0.04c0.04,0.07,0.09,0.14,0.14,0.2c0.06,0.07,0.13,0.13,0.2,0.17
				c0.06,0.04,0.11,0.07,0.16,0.09c0.04,0.02,0.07,0.02,0.08,0.02c0.01-0.01,0.02-0.02,0.03-0.03c0.01-0.01,0.01-0.03,0.02-0.05
				c0-0.02,0-0.05,0-0.09c0-0.03-0.01-0.07-0.02-0.11c-0.03-0.12-0.07-0.21-0.11-0.29v0c-0.01-0.02-0.02-0.04-0.03-0.05l0,0
				c-0.02-0.04-0.02-0.07-0.02-0.08c0.01-0.02,0.02-0.03,0.04-0.03c0.01,0,0.03,0.01,0.05,0.02C29.18,12.97,29.25,13.04,29.32,13.16
				L29.32,13.16z M28.14,13.87c0.01-0.05,0.08-0.07,0.18-0.09l0,0c0.06-0.02,0.14-0.04,0.21-0.07c0.05-0.02,0.09-0.04,0.13-0.07
				c0.02-0.01,0.04-0.03,0.06-0.04c-0.04-0.03-0.07-0.07-0.11-0.1c-0.05-0.05-0.1-0.11-0.14-0.17c0,0-0.01,0-0.01,0.01
				c-0.02,0.01-0.04,0.02-0.06,0.01l0,0c-0.04-0.01-0.07-0.01-0.11-0.01c-0.03,0-0.07,0.01-0.1,0.01c-0.04,0.01-0.07,0.02-0.1,0.04
				c-0.03,0.02-0.06,0.04-0.08,0.07c-0.02,0.03-0.04,0.06-0.06,0.09c-0.02,0.03-0.03,0.07-0.03,0.1c-0.01,0.03-0.01,0.06-0.01,0.09
				c0,0.03,0.01,0.06,0.02,0.1l0,0c0.02,0.06,0.04,0.13,0.07,0.19c0.02,0.05,0.05,0.1,0.09,0.15v0c0.03,0.04,0.07,0.08,0.11,0.1
				c0.04,0.03,0.08,0.05,0.13,0.07v0c0.13,0.05,0.29,0.01,0.43-0.08c0.09-0.05,0.18-0.12,0.25-0.19c0.03-0.05,0.06-0.1,0.09-0.14
				c0.04-0.05,0.08-0.09,0.12-0.12c-0.04,0.01-0.1,0-0.16-0.02l0,0c-0.06-0.02-0.12-0.05-0.18-0.09c-0.07,0.08-0.15,0.13-0.23,0.16
				c-0.09,0.04-0.19,0.05-0.32,0.06c-0.04,0-0.09,0-0.12,0C28.17,13.93,28.14,13.91,28.14,13.87L28.14,13.87L28.14,13.87z
				 M27.81,13.44c-0.04-0.01-0.1-0.02-0.15-0.04c-0.02-0.01-0.03-0.01-0.05-0.02c0.04,0.13,0.05,0.27,0.03,0.39
				c-0.08,0.49-0.67,0.78-1.1,0.89c0.1,0.04,0.19,0.11,0.27,0.18c0.15,0.15,0.24,0.35,0.3,0.53c0.03,0.1,0.05,0.2,0.06,0.28
				c0.01,0.08,0.01,0.18,0.01,0.29c0.18-0.33,0.51-0.61,0.88-0.76c0.26-0.11,0.54-0.13,0.82,0c-0.03-0.1-0.03-0.23-0.02-0.39
				c0.01-0.13,0.02-0.27,0.06-0.41c-0.02,0.01-0.03,0.02-0.05,0.03h0c-0.12,0.09-0.24,0.13-0.36,0.15
				c-0.13,0.02-0.25-0.01-0.35-0.06c-0.1-0.05-0.19-0.14-0.26-0.24l0,0c-0.09-0.13-0.15-0.28-0.17-0.44v0
				c-0.01-0.09,0-0.18,0.02-0.26C27.76,13.52,27.78,13.48,27.81,13.44z M27.85,12.81l0.01,0.01l0,0l0.01,0.01l0,0
				c0.01,0.01,0.02,0.03,0.04,0.04c0.05,0.07,0.11,0.16,0.13,0.26c0.01,0.03,0.01,0.06,0.01,0.09c0.03-0.02,0.07-0.03,0.11-0.04
				c0.04-0.01,0.09-0.02,0.14-0.02c0.01,0,0.02,0,0.03,0c0-0.03-0.01-0.06-0.02-0.08l0,0c-0.01-0.06-0.03-0.12-0.05-0.18v0l0,0
				c-0.02-0.06-0.04-0.11-0.06-0.16c-0.02-0.05-0.05-0.1-0.09-0.14l-0.01-0.01c-0.01-0.02-0.03-0.03-0.04-0.04
				c-0.02-0.02-0.04-0.03-0.05-0.04c-0.02-0.01-0.03-0.02-0.05-0.02c-0.02-0.01-0.03-0.01-0.05-0.01l0,0c-0.01,0-0.02,0-0.03,0
				c-0.01,0-0.03,0-0.04,0.01l0,0c-0.05,0.01-0.1,0.03-0.16,0.06c-0.06,0.03-0.11,0.07-0.16,0.12c-0.05,0.04-0.09,0.09-0.12,0.14
				c-0.02,0.03-0.04,0.07-0.04,0.1c0.06,0.08,0.11,0.16,0.15,0.24c0.02,0.01,0.03,0.02,0.05,0.03c0.05,0.02,0.1,0.05,0.15,0.06l0,0
				c0.05,0.02,0.09,0.03,0.12,0.03c0.02,0,0.04,0.01,0.04,0l0,0c0.01-0.01,0.01-0.05-0.01-0.1c-0.02-0.09-0.08-0.21-0.1-0.24
				l-0.02-0.02l0,0c-0.01-0.01-0.01-0.02-0.02-0.03v0l0,0c-0.01-0.01-0.01-0.02-0.01-0.03l0,0c0-0.01,0-0.01,0-0.02l0,0
				c0-0.01,0-0.02,0.01-0.03l0,0c0.01-0.01,0.01-0.01,0.02-0.01h0c0.01,0,0.01,0,0.02,0h0c0.02,0,0.03,0.01,0.05,0.01l0,0
				C27.83,12.8,27.84,12.8,27.85,12.81L27.85,12.81z M31.36,22.09c0.01,0.02,0.03,0.05,0.04,0.08c0.01,0.03,0.02,0.06,0.03,0.09
				c0.01,0.05,0.03,0.09,0.03,0.13c0.01,0.04,0.01,0.08,0.01,0.11c0.04-0.1,0.08-0.21,0.1-0.33c0.04-0.17,0.05-0.33,0.01-0.43l0,0
				c-0.02-0.07-0.11-0.11-0.21-0.12c-0.16-0.03-0.36,0-0.45,0.03c-0.09,0.03-0.18,0.08-0.24,0.14l0,0
				c-0.05,0.05-0.08,0.12-0.08,0.21c0,0.01,0.01,0.02,0.01,0.03c0,0.01,0.01,0.02,0.01,0.04c0.01,0.01,0.01,0.02,0.02,0.04
				c0.01,0.01,0.01,0.02,0.02,0.04c0.04,0.07,0.09,0.13,0.15,0.18c0.06,0.06,0.14,0.11,0.2,0.16c0.06,0.03,0.11,0.06,0.16,0.08
				c0.04,0.01,0.07,0.02,0.08,0.02c0.01-0.01,0.02-0.02,0.03-0.03c0.01-0.01,0.01-0.03,0.01-0.05c0-0.02,0-0.05-0.01-0.08
				c-0.01-0.03-0.01-0.07-0.03-0.11c-0.04-0.12-0.08-0.2-0.13-0.27l0,0c-0.01-0.02-0.02-0.04-0.03-0.05l0,0
				c-0.02-0.04-0.03-0.06-0.02-0.08c0-0.02,0.02-0.03,0.04-0.03c0.01,0,0.03,0,0.05,0.01C31.21,21.91,31.29,21.98,31.36,22.09z
				 M30.84,23.45c-0.06,0.03-0.13,0.06-0.19,0.07c-0.12,0.02-0.24,0.01-0.35-0.04c-0.1-0.05-0.19-0.12-0.27-0.21
				c0,0.16-0.05,0.33-0.14,0.48c0.1-0.02,0.23,0,0.39,0.02c0.16,0.03,0.35,0.08,0.51,0.15C30.76,23.77,30.78,23.6,30.84,23.45z
				 M31.75,21.72c0.02,0.06,0.02,0.14,0.02,0.23c-0.01,0.1-0.02,0.21-0.06,0.33l0,0c-0.05,0.18-0.14,0.37-0.25,0.54
				c0.14-0.06,0.31-0.08,0.48-0.03c-0.03-0.06-0.04-0.15-0.05-0.26c-0.01-0.14-0.01-0.31,0.03-0.45c0.01-0.05,0.03-0.1,0.06-0.15
				c0.04-0.07,0.09-0.12,0.15-0.15c-0.02,0-0.05,0.01-0.07,0.01C31.97,21.78,31.86,21.76,31.75,21.72z M30.26,22.86
				c0.01-0.05,0.08-0.07,0.17-0.1c0.06-0.02,0.13-0.04,0.2-0.08c0.04-0.02,0.09-0.05,0.13-0.08h0c0.02-0.01,0.03-0.03,0.05-0.04
				c-0.04-0.03-0.07-0.06-0.11-0.09c-0.05-0.05-0.1-0.1-0.14-0.16c0,0-0.01,0-0.01,0.01l0,0c-0.02,0.01-0.04,0.02-0.06,0.02
				c-0.04,0-0.07,0-0.1,0c-0.03,0-0.07,0.01-0.1,0.02c-0.03,0.01-0.07,0.03-0.1,0.05c-0.03,0.02-0.06,0.04-0.08,0.07
				c-0.02,0.03-0.04,0.06-0.05,0.09c-0.01,0.03-0.02,0.07-0.03,0.1c0,0.03,0,0.06,0,0.09c0,0.03,0.01,0.06,0.02,0.09l0,0
				c0.02,0.06,0.05,0.12,0.08,0.18c0.03,0.05,0.06,0.1,0.1,0.14c0.03,0.04,0.07,0.07,0.11,0.1c0.04,0.02,0.08,0.05,0.13,0.06v0
				c0.13,0.04,0.28-0.01,0.41-0.1c0.2-0.13,0.38-0.35,0.48-0.5c-0.01,0.01-0.01,0.01-0.02,0.01l0,0l-0.01,0l0,0l-0.01,0l0,0l0,0h0
				c-0.04,0.02-0.1,0.01-0.17-0.01c-0.05-0.01-0.12-0.04-0.18-0.07c-0.07,0.08-0.13,0.13-0.21,0.17c-0.09,0.04-0.19,0.07-0.31,0.08
				c-0.04,0-0.08,0.01-0.11,0.01C30.29,22.91,30.26,22.9,30.26,22.86L30.26,22.86L30.26,22.86z M30.06,21.34
				c0.07,0.03,0.13,0.07,0.19,0.12c0.09,0.08,0.16,0.19,0.21,0.3c0.01-0.03,0.03-0.06,0.05-0.09c0.03-0.04,0.07-0.08,0.11-0.11
				c0.05-0.04,0.1-0.06,0.15-0.09c0.03-0.01,0.05-0.02,0.07-0.03c0.02-0.01,0.05-0.02,0.07-0.02c0.06-0.02,0.16-0.03,0.26-0.03
				c-0.23-0.18-0.46-0.42-0.65-0.67C30.45,20.95,30.27,21.18,30.06,21.34z M29.91,22.46c-0.04,0-0.08-0.01-0.13-0.02
				c0.03,0.05,0.05,0.09,0.08,0.14C29.87,22.54,29.89,22.5,29.91,22.46z M29.91,21.85l0.01,0.01l0,0l0.01,0.01l0,0
				c0.01,0.01,0.02,0.02,0.04,0.04c0.06,0.06,0.11,0.15,0.14,0.24c0.01,0.03,0.02,0.06,0.02,0.08c0.03-0.02,0.06-0.03,0.1-0.04
				c0.04-0.01,0.09-0.02,0.13-0.03c0.01,0,0.02,0,0.03,0c-0.01-0.03-0.01-0.05-0.02-0.08c-0.02-0.06-0.03-0.11-0.06-0.17l0,0
				c-0.02-0.05-0.05-0.11-0.07-0.16c-0.03-0.05-0.06-0.09-0.09-0.13l-0.01-0.01c-0.01-0.01-0.03-0.03-0.04-0.04l0,0
				c-0.02-0.01-0.04-0.03-0.05-0.03c-0.02-0.01-0.03-0.02-0.05-0.02c-0.02,0-0.03-0.01-0.05-0.01h0c-0.01,0-0.02,0-0.03,0
				c-0.01,0-0.02,0-0.04,0.01h0c-0.05,0.01-0.1,0.04-0.15,0.07c-0.05,0.03-0.1,0.08-0.15,0.12c-0.04,0.05-0.08,0.1-0.11,0.15l0,0
				c-0.02,0.05-0.04,0.09-0.04,0.13c0,0.01,0,0.01,0,0.02c0,0.01,0,0.01,0,0.02c0,0.01,0,0.01,0.01,0.02
				c0.05,0.04,0.09,0.08,0.13,0.13c0.02,0.01,0.05,0.03,0.08,0.04c0.05,0.02,0.1,0.04,0.15,0.05c0.05,0.01,0.09,0.02,0.12,0.02
				c0.02,0,0.04,0,0.04,0c0.01-0.01,0-0.05-0.01-0.1c-0.03-0.09-0.09-0.19-0.11-0.23h0l-0.02-0.02c-0.01-0.01-0.01-0.02-0.02-0.03h0
				l0,0c-0.01-0.01-0.01-0.02-0.02-0.03h0c0-0.01,0-0.01,0-0.02l0,0c0-0.01,0-0.02,0.01-0.03c0.01-0.01,0.01-0.01,0.02-0.01l0,0
				c0.01,0,0.01,0,0.02,0h0c0.02,0,0.03,0,0.05,0.01C29.88,21.83,29.9,21.84,29.91,21.85L29.91,21.85z M27.51,21.82
				c0.01,0.03,0.03,0.05,0.04,0.08l0,0c0.01,0.03,0.02,0.06,0.03,0.09h0c0.01,0.05,0.02,0.1,0.03,0.14c0,0.04,0.01,0.08,0,0.12
				c0.05-0.1,0.09-0.22,0.12-0.33l0,0c0.04-0.17,0.06-0.33,0.03-0.44l0,0c-0.02-0.07-0.1-0.11-0.21-0.14
				c-0.02,0-0.04-0.01-0.06-0.01c-0.04,0-0.07,0-0.11-0.01c-0.11,0-0.22,0.01-0.29,0.03l0,0c-0.1,0.03-0.19,0.07-0.25,0.14
				c-0.05,0.05-0.09,0.12-0.09,0.21c0,0.01,0,0.02,0.01,0.03c0,0.01,0.01,0.02,0.01,0.04l0,0c0,0.01,0.01,0.03,0.02,0.04h0
				c0.01,0.01,0.01,0.03,0.02,0.04l0,0c0.04,0.07,0.09,0.14,0.14,0.19c0.06,0.07,0.13,0.12,0.2,0.17c0.06,0.04,0.11,0.07,0.16,0.08
				l0,0c0.04,0.02,0.07,0.02,0.08,0.02c0.01-0.01,0.02-0.02,0.03-0.03h0c0.01-0.01,0.01-0.03,0.01-0.05l0,0c0-0.03,0-0.05,0-0.09
				c0-0.03-0.01-0.07-0.02-0.11v0c-0.03-0.12-0.08-0.21-0.12-0.28c-0.01-0.02-0.02-0.03-0.03-0.05c-0.02-0.04-0.02-0.06-0.02-0.08
				c0.01-0.02,0.02-0.03,0.04-0.03c0.01,0,0.03,0,0.05,0.01C27.37,21.63,27.44,21.71,27.51,21.82z M27.02,23.14
				c-0.1,0.06-0.19,0.1-0.28,0.11l0,0c-0.03,0-0.05,0.01-0.07,0.01c0.07,0.1,0.12,0.2,0.15,0.31
				C26.87,23.42,26.94,23.28,27.02,23.14z M27.86,21.31c0.02,0.03,0.04,0.07,0.05,0.12c0.02,0.06,0.02,0.15,0.01,0.26
				c-0.01,0.1-0.03,0.21-0.07,0.33v0c-0.01,0.02-0.01,0.04-0.02,0.06c0.51-0.43,1.02-0.42,1.43-0.17c0.02-0.13,0.1-0.26,0.2-0.37
				c-0.39-0.03-0.67-0.48-0.79-0.81c-0.03,0.09-0.07,0.16-0.13,0.23c-0.11,0.13-0.26,0.22-0.41,0.28c-0.08,0.03-0.16,0.06-0.22,0.07
				C27.91,21.31,27.88,21.31,27.86,21.31z M26.36,22.56c0.01-0.05,0.08-0.07,0.18-0.1c0.06-0.02,0.14-0.04,0.21-0.07
				c0.05-0.02,0.09-0.04,0.13-0.07c0.02-0.01,0.04-0.03,0.05-0.04c-0.04-0.03-0.07-0.06-0.11-0.1c-0.05-0.05-0.1-0.11-0.14-0.17
				c0,0-0.01,0-0.01,0.01l0,0c-0.02,0.01-0.04,0.02-0.06,0.01l0,0c-0.04-0.01-0.07-0.01-0.11-0.01c-0.03,0-0.07,0.01-0.1,0.02
				c-0.04,0.01-0.07,0.03-0.1,0.05c-0.03,0.02-0.06,0.04-0.08,0.07l0,0c-0.02,0.03-0.04,0.06-0.06,0.09l0,0
				c-0.01,0.03-0.03,0.07-0.03,0.1c0,0.03-0.01,0.06,0,0.09c0,0.03,0.01,0.06,0.02,0.1v0c0.02,0.06,0.04,0.13,0.07,0.18
				c0.03,0.05,0.06,0.1,0.09,0.14c0.03,0.04,0.07,0.07,0.11,0.1c0.04,0.03,0.08,0.05,0.13,0.07c0.13,0.05,0.28,0,0.42-0.09
				c0.12-0.07,0.23-0.17,0.33-0.28l0,0l0,0l0,0l0,0l0,0l0,0l0,0l0,0l0,0l0,0l0,0l0,0l0,0l0,0l0,0l0,0l0,0l0,0l0,0l0,0l0,0l0,0l0,0
				l0,0l0,0l0,0l0,0l0,0l0,0l0,0l0,0l0,0l0,0l0,0l0,0l0,0l0,0l0,0h0l0,0l0,0l0,0l0,0l0,0l0,0l0,0l0,0l0,0v0l0,0l0,0l0,0l0,0l0,0l0,0
				l0,0l0,0l0,0l0,0l0,0l0,0l0,0l0,0l0,0l0,0l0,0l0,0l0,0l0,0l0,0l0,0l0,0l0,0l0,0l0,0l0,0l0,0l0,0l0,0l0,0l0,0l0,0l0,0l0,0l0,0l0,0
				l0,0l0,0l0,0l0,0l0,0v0c-0.01,0.01-0.02,0.01-0.03,0.02h0l0,0l0,0l0,0l-0.01,0l0,0l0,0l0,0c-0.04,0.01-0.11,0.01-0.18-0.01
				c-0.05-0.02-0.12-0.05-0.18-0.08c-0.07,0.08-0.14,0.13-0.22,0.16c-0.09,0.04-0.19,0.06-0.31,0.07c-0.04,0-0.09,0.01-0.12,0
				C26.39,22.61,26.36,22.6,26.36,22.56L26.36,22.56L26.36,22.56z M26.02,22.14c-0.04-0.01-0.1-0.02-0.15-0.04
				c-0.06-0.02-0.12-0.04-0.18-0.07c-0.05-0.02-0.1-0.05-0.14-0.09l0,0c-0.02-0.01-0.03-0.03-0.05-0.04
				c-0.02-0.01-0.03-0.03-0.04-0.05h0c-0.03-0.03-0.05-0.07-0.06-0.11c-0.01-0.04-0.02-0.08-0.02-0.12l0-0.02v0
				c0.01-0.15,0.1-0.31,0.23-0.43c0.13-0.12,0.3-0.21,0.45-0.2h0l0.02,0h0c0.12,0.01,0.22,0.07,0.31,0.16
				c0.09,0.09,0.15,0.21,0.2,0.31c0.02-0.03,0.04-0.06,0.06-0.09c0.03-0.04,0.07-0.08,0.12-0.1c0.04-0.03,0.09-0.05,0.13-0.07
				c-0.11-0.07-0.2-0.17-0.23-0.32c-0.06-0.19-0.02-0.53,0.09-0.89c0.05-0.16,0.13-0.32,0.21-0.48c-0.36,0.46-0.82,0.89-1.31,1.15
				c-0.38,0.2-0.72,0.24-1,0.16c0.03,0.09,0.05,0.18,0.07,0.27c0.04,0.24-0.01,0.48-0.17,0.68c0.09,0,0.2,0.02,0.33,0.06
				c0.17,0.05,0.37,0.13,0.52,0.25c0.06,0.04,0.11,0.09,0.15,0.14c0.09,0.11,0.13,0.22,0.12,0.36c-0.01,0.37-0.37,0.81-0.77,0.98
				c0.12,0.02,0.24,0.08,0.34,0.17c0-0.08,0.03-0.17,0.07-0.28c0.05-0.14,0.14-0.31,0.24-0.43c0.04-0.05,0.08-0.09,0.13-0.12
				c0.1-0.07,0.2-0.1,0.31-0.08c0.01,0,0.02,0,0.03,0c-0.04-0.09-0.07-0.18-0.08-0.28l0,0c-0.01-0.09-0.01-0.18,0.02-0.26v0
				C25.97,22.22,25.99,22.18,26.02,22.14z M26.04,21.51l0.01,0.01l0,0l0.01,0.01l0,0c0.01,0.01,0.02,0.03,0.04,0.04
				c0.06,0.07,0.11,0.16,0.14,0.25c0.01,0.03,0.01,0.06,0.02,0.09c0.03-0.02,0.07-0.03,0.1-0.04l0,0c0.04-0.01,0.09-0.02,0.14-0.02
				c0.01,0,0.02,0,0.03,0c-0.01-0.03-0.01-0.05-0.02-0.08c-0.01-0.06-0.03-0.12-0.05-0.18l0,0l0,0c-0.02-0.06-0.04-0.11-0.07-0.16
				c-0.03-0.05-0.06-0.1-0.09-0.13l-0.01-0.01l0,0c-0.01-0.01-0.03-0.03-0.04-0.04c-0.02-0.01-0.04-0.03-0.05-0.04
				c-0.02-0.01-0.03-0.02-0.05-0.02c-0.02-0.01-0.03-0.01-0.05-0.01h0c-0.01,0-0.02,0-0.03,0c-0.01,0-0.03,0-0.04,0.01l0,0
				c-0.05,0.01-0.1,0.03-0.16,0.06l0,0c-0.05,0.03-0.11,0.07-0.15,0.12c-0.05,0.05-0.09,0.1-0.11,0.15
				c-0.03,0.05-0.04,0.09-0.04,0.13v0c0,0.01,0,0.01,0,0.02c0,0.01,0,0.01,0,0.02c0,0.02,0.02,0.04,0.03,0.06
				c0.02,0.02,0.04,0.04,0.07,0.06c0.03,0.03,0.07,0.05,0.11,0.07c0.05,0.02,0.1,0.04,0.15,0.06v0c0.05,0.01,0.09,0.03,0.12,0.03
				c0.02,0,0.04,0,0.04,0c0.01-0.01,0.01-0.05-0.01-0.1c-0.03-0.09-0.08-0.2-0.1-0.24l0,0l-0.02-0.02l0,0
				c-0.01-0.01-0.02-0.02-0.02-0.03l0,0c-0.01-0.01-0.01-0.02-0.02-0.03c0-0.01,0-0.01,0-0.02v0c0-0.01,0-0.02,0.01-0.03
				c0.01-0.01,0.01-0.01,0.02-0.01h0c0.01,0,0.01,0,0.02,0h0c0.02,0,0.03,0.01,0.05,0.01C26.02,21.5,26.03,21.5,26.04,21.51
				L26.04,21.51z M25.63,26.36c-0.03,0.13-0.11,0.56-0.09,0.73c0.03,0.2,0.37,1.66,0.57,1.88c0.2,0.21,0.76,0.2,0.96,0.26
				c0.2,0.06,0.51,0.44,0.59,0.5c0.08,0.05,0.7,0.3,0.76,0.36c0.06,0.06,0.18,0.26,0.18,0.26l-8.32-0.08l0.15-0.23
				c0,0,0.24-0.2,0.45-0.22c0.21-0.02,1.29-0.38,1.45-1.06c0.17-0.68,0.2-2.58,0.2-2.58l-0.08-0.22c-0.1,0.05-0.2,0.08-0.29,0.1
				c-0.17,0.03-0.33,0-0.48-0.07c-0.14-0.07-0.27-0.18-0.37-0.31c-0.13-0.17-0.21-0.38-0.25-0.6v0c-0.02-0.12-0.01-0.24,0.02-0.36
				c0.02-0.06,0.05-0.13,0.09-0.19c-0.07-0.01-0.14-0.02-0.23-0.05c-0.08-0.02-0.16-0.05-0.24-0.09c-0.07-0.03-0.14-0.07-0.2-0.12
				l0,0c-0.02-0.02-0.05-0.04-0.07-0.06l0,0c-0.02-0.02-0.04-0.04-0.06-0.06h0c-0.04-0.05-0.07-0.09-0.08-0.15h0
				c-0.25,0.41-0.81,0.59-1.34,0.53c-0.24-0.03-0.46-0.14-0.61-0.35c-0.02,0.09-0.07,0.19-0.15,0.3c-0.1,0.15-0.23,0.31-0.38,0.43
				c-0.06,0.04-0.11,0.08-0.17,0.1c-0.13,0.05-0.25,0.06-0.38,0.01c-0.46-0.14-0.87-0.89-0.69-1.38c0.04-0.1,0.1-0.19,0.18-0.26
				c-0.02,0.01-0.04,0.02-0.06,0.04c-0.12,0.06-0.24,0.07-0.36,0.06c-0.12-0.02-0.23-0.07-0.33-0.14c-0.13-0.09-0.24-0.22-0.31-0.37
				c-0.04-0.08-0.06-0.17-0.06-0.26c0-0.05,0.01-0.09,0.02-0.14c-0.05,0.01-0.1,0.01-0.16,0.01c-0.06,0-0.13,0-0.19-0.01
				c-0.06-0.01-0.11-0.02-0.17-0.04c-0.02-0.01-0.04-0.02-0.06-0.03l0,0c-0.02-0.01-0.04-0.02-0.05-0.03l0,0
				c-0.04-0.02-0.07-0.05-0.09-0.09c-0.02-0.03-0.04-0.07-0.05-0.12l0-0.02v0c-0.04-0.15,0.01-0.33,0.1-0.49
				c0.09-0.16,0.23-0.3,0.38-0.34h0l0.02,0h0c0.12-0.03,0.24,0,0.35,0.06c0.11,0.06,0.22,0.15,0.29,0.25
				c0.01-0.04,0.02-0.07,0.03-0.11c0.02-0.05,0.05-0.1,0.08-0.14c0.04-0.05,0.08-0.09,0.13-0.13c0.02-0.02,0.04-0.03,0.07-0.05
				c0.02-0.02,0.05-0.03,0.07-0.04c0.12-0.07,0.35-0.15,0.56-0.15c0.14,0,0.28,0.05,0.36,0.18l0,0c0.04,0.06,0.07,0.14,0.09,0.25
				c0.01,0.03,0.01,0.06,0.02,0.1c0.06-0.16,0.14-0.32,0.24-0.44c-0.37-0.13-0.71-0.43-0.93-0.8c-0.14-0.24-0.19-0.52-0.11-0.81
				c-0.09,0.04-0.22,0.06-0.38,0.07c-0.21,0.02-0.45,0.01-0.66-0.05c-0.08-0.02-0.15-0.05-0.22-0.09c-0.14-0.08-0.23-0.19-0.28-0.34
				c-0.19-0.52,0.21-1.43,0.78-1.6c0.04-0.01,0.08-0.02,0.11-0.03c-0.12-0.07-0.23-0.16-0.33-0.26c-0.08-0.09-0.15-0.19-0.18-0.31
				c-0.02-0.06-0.03-0.13-0.03-0.2c-0.06,0.03-0.13,0.06-0.22,0.09c-0.08,0.02-0.16,0.05-0.25,0.06c-0.08,0.01-0.15,0.02-0.23,0.01
				c-0.03,0-0.06,0-0.09-0.01c-0.03,0-0.06-0.01-0.08-0.02l0,0c-0.06-0.02-0.11-0.04-0.15-0.07c-0.04-0.03-0.08-0.08-0.11-0.13
				l-0.01-0.02c-0.1-0.17-0.12-0.43-0.07-0.66c0.05-0.24,0.17-0.47,0.35-0.58c0.01-0.01,0.02-0.01,0.02-0.01
				c0.14-0.08,0.31-0.09,0.47-0.06c0.18,0.04,0.35,0.12,0.49,0.21c-0.01-0.06-0.01-0.11-0.01-0.17c0.01-0.07,0.03-0.14,0.05-0.21
				c0.03-0.08,0.07-0.15,0.11-0.21c0.02-0.03,0.04-0.06,0.06-0.09c0.02-0.03,0.05-0.06,0.07-0.08c0.13-0.13,0.39-0.33,0.65-0.41
				c0.03-0.01,0.05-0.01,0.08-0.02c-0.02-0.01-0.04-0.03-0.06-0.05c-0.06-0.05-0.12-0.1-0.17-0.16c-0.1-0.12-0.15-0.26-0.14-0.41
				c0.01-0.56,0.72-1.25,1.31-1.21c0.49,0.03,0.84,0.59,0.99,1.01c0.03-0.11,0.09-0.2,0.16-0.29c0.14-0.16,0.33-0.27,0.5-0.35
				c0.1-0.04,0.2-0.07,0.28-0.08c0.3-0.06,0.91-0.09,1.28,0.15c-0.08-0.39-0.11-0.8-0.07-1.17c0.14-1.31,1.37-1.42,2.21-0.87
				c0.23,0.15,0.4,0.38,0.46,0.68c0.07-0.08,0.17-0.16,0.31-0.24c0.18-0.11,0.4-0.21,0.62-0.25c0.08-0.02,0.16-0.02,0.23-0.02
				c0.16,0.01,0.29,0.06,0.4,0.18c0.4,0.38,0.45,1.37,0.02,1.78c-0.36,0.34-1,0.23-1.41,0.06c0.06,0.1,0.09,0.2,0.11,0.31
				c0.02,0.12,0.01,0.23-0.01,0.35c0.28-0.3,0.72-0.49,1.18-0.52c0.28-0.02,0.55,0.06,0.77,0.27c0.01-0.1,0.04-0.23,0.11-0.38
				c0.08-0.19,0.2-0.41,0.34-0.57c0.05-0.06,0.11-0.11,0.18-0.15c0.13-0.09,0.27-0.12,0.42-0.1c0.23,0.03,0.47,0.17,0.67,0.38
				c0.04-0.1,0.12-0.19,0.2-0.27c0.13-0.12,0.3-0.2,0.46-0.19h0l0.02,0h0c0.12,0.01,0.22,0.08,0.31,0.17
				c0.09,0.09,0.15,0.21,0.19,0.32c0.02-0.03,0.04-0.06,0.06-0.09c0.04-0.04,0.08-0.07,0.12-0.1c0.05-0.03,0.11-0.06,0.16-0.08
				c0.03-0.01,0.05-0.02,0.08-0.02c0.03-0.01,0.05-0.01,0.07-0.02l0,0c0.13-0.02,0.37-0.03,0.56,0.04c0.13,0.05,0.24,0.14,0.27,0.29
				l0,0c0.02,0.07,0.02,0.16,0.01,0.26c-0.01,0.1-0.04,0.21-0.08,0.33l0,0c-0.04,0.11-0.1,0.22-0.16,0.34
				c0.54-0.1,1.36,0.41,1.46,0.99c0.09,0.49-0.37,0.96-0.74,1.2c0.11,0,0.22,0.04,0.32,0.08c0.19,0.09,0.35,0.25,0.46,0.41
				c0.06,0.09,0.11,0.18,0.15,0.25c0.04,0.08,0.07,0.18,0.11,0.29c0-0.16,0.03-0.38,0.11-0.55c0.07-0.15,0.19-0.27,0.37-0.3
				c0.08-0.01,0.19-0.01,0.31,0.02c0.12,0.02,0.26,0.07,0.4,0.13l0,0c0.23,0.11,0.48,0.28,0.69,0.47c0.2,0.18,0.38,0.39,0.51,0.61
				l0,0c0.09,0.16,0.14,0.31,0.14,0.45c0.01,0.16-0.03,0.3-0.11,0.42c-0.08,0.12-0.18,0.22-0.31,0.29
				c-0.16,0.09-0.34,0.14-0.53,0.16c0.27,0.22,0.47,0.65,0.37,0.97c-0.11,0.33-0.54,0.46-0.84,0.49c0.07,0.04,0.12,0.09,0.17,0.15
				c0.09,0.12,0.13,0.27,0.15,0.4c0.01,0.07,0.01,0.14,0.01,0.2c-0.01,0.23-0.11,0.72-0.4,0.89c0.36-0.07,0.91,0.19,1.02,0.55
				c0.1,0.32-0.17,0.68-0.4,0.88c0.08-0.01,0.15,0,0.22,0.03c0.14,0.05,0.26,0.14,0.35,0.23c0.05,0.05,0.09,0.11,0.12,0.15
				c0.15,0.24,0.42,0.86,0.04,1.13c-0.13,0.1-0.41,0.18-0.73,0.21c-0.51,0.02-1.14-0.12-1.61-0.39l0,0.01
				c0.06,0.55-0.56,1.33-1.16,1.36c-0.49,0.03-0.91-0.49-1.1-0.89c-0.02,0.11-0.06,0.21-0.12,0.3c-0.12,0.18-0.29,0.31-0.46,0.4
				c-0.1,0.05-0.19,0.09-0.26,0.12c-0.4,0.13-1.37,0.27-1.61-0.35c-0.02-0.04-0.03-0.08-0.04-0.12c0.02,0.34-0.04,0.95-0.49,1.03
				C25.94,26.4,25.8,26.39,25.63,26.36z M22.75,25.74c0.04,0.49,0.19,2.49-0.09,3.08c-0.33,0.67-0.93,0.94-0.93,0.94l-0.25,0.18
				c0,0,1.9-0.22,2.81-0.12c0.92,0.11,1.77,0.43,1.77,0.43s0.61-0.24,0.93-0.24c0.32,0,0.44,0.02,0.44,0.02s-0.31-0.42-0.65-0.56
				c-0.35-0.14-0.7-0.11-1.15-0.97c-0.45-0.86-0.34-1.65-0.34-1.65l0.1-0.55c-0.05-0.02-0.1-0.03-0.16-0.05
				c-0.53-0.23-1.12-0.68-1.45-1.19c-0.11-0.17-0.17-0.34-0.18-0.49c-0.09,0.2-0.21,0.41-0.35,0.6
				C23.1,25.38,22.93,25.58,22.75,25.74z M31.66,21.12c-0.07,0.02-0.15,0.02-0.23,0.02c-0.13,0-0.25-0.01-0.34-0.05
				c-0.1-0.04-0.18-0.11-0.2-0.22c0-0.01,0-0.01,0-0.02l0-0.01c-0.01-0.1,0.09-0.27,0.25-0.42c-0.18-0.26-0.19-0.46-0.14-0.77
				c0.02-0.11,0.04-0.21,0.08-0.2c0.06,0.03,0.03,0.27,0.07,0.53c0.02,0.12,0.06,0.24,0.11,0.33c0.14-0.12,0.32-0.22,0.51-0.28
				c-0.03-0.02-0.05-0.06-0.03-0.1c0.04-0.1,0.06-0.2,0.05-0.29c-0.01-0.11-0.04-0.21-0.1-0.29c-0.06-0.08-0.14-0.15-0.24-0.19
				c-0.08-0.03-0.17-0.05-0.27-0.05c-0.17,0.01-0.34,0.04-0.49,0.11c-0.12,0.06-0.23,0.15-0.31,0.27c-0.12,0.18-0.1,0.42-0.02,0.65
				c0.02,0.02,0.04,0.04,0.06,0.07c0.07,0.09,0.11,0.19,0.11,0.31c0.1,0.17,0.21,0.32,0.3,0.42c0.12,0.14,0.38,0.34,0.64,0.48
				c0.05,0.02,0.09,0.04,0.13,0.07c0.16,0.07,0.32,0.12,0.44,0.11c0.29-0.01,0.42-0.64,0.42-0.86c-0.01-0.26-0.1-0.51-0.37-0.59
				c-0.03,0-0.07,0-0.11,0.01c-0.04,0.01-0.08,0.01-0.12,0.02c-0.23,0.06-0.44,0.2-0.59,0.34c-0.14,0.13-0.23,0.26-0.22,0.31v0
				c0.01,0.05,0.05,0.09,0.11,0.11c0.07,0.03,0.17,0.04,0.28,0.03c0.21,0,0.35-0.05,0.49-0.08C32.12,20.85,31.99,21.03,31.66,21.12z
				 M27.73,12.87L27.73,12.87"/>
		</g>
	</g>
</g>
</svg>
