<svg width="33" height="43" viewBox="0 0 33 43" fill="none" xmlns="http://www.w3.org/2000/svg">
<g clip-path="url(#clip0_233_200)">
<path fill-rule="evenodd" clip-rule="evenodd" d="M25.33 29.11C25.57 29.38 25.54 29.79 25.27 30.02L20.4 34.3C20.13 34.53 19.72 34.51 19.49 34.24L17.48 31.97C17.24 31.7 17.27 31.29 17.54 31.06C17.81 30.82 18.22 30.85 18.45 31.12L20.03 32.91L24.41 29.05C24.68 28.81 25.09 28.84 25.32 29.11H25.33ZM21.41 37.26C24.49 37.26 26.99 34.76 26.99 31.68C26.99 28.6 24.49 26.1 21.41 26.1C18.33 26.1 15.83 28.6 15.83 31.68C15.83 34.76 18.33 37.26 21.41 37.26ZM21.41 24.8C17.62 24.8 14.53 27.88 14.53 31.68C14.53 35.48 17.61 38.56 21.41 38.56C25.21 38.56 28.28 35.48 28.28 31.68C28.28 27.88 25.2 24.8 21.41 24.8ZM30.08 33.68C31.52 32.73 31.52 30.61 30.08 29.66C29.19 29.07 28.75 28.01 28.96 26.96C29.3 25.27 27.81 23.78 26.12 24.12C25.07 24.33 24.01 23.89 23.42 23C22.47 21.56 20.35 21.56 19.4 23C18.81 23.89 17.75 24.33 16.7 24.12C15.01 23.78 13.52 25.27 13.86 26.96C14.07 28.01 13.63 29.07 12.74 29.66C11.3 30.61 11.3 32.73 12.74 33.68C13.63 34.27 14.07 35.33 13.86 36.38C13.52 38.07 15.01 39.56 16.7 39.22C17.74 39.01 18.8 39.44 19.4 40.34C20.35 41.78 22.47 41.78 23.42 40.34C24.01 39.45 25.07 39.01 26.12 39.22C27.81 39.56 29.3 38.07 28.96 36.38C28.75 35.33 29.19 34.27 30.08 33.68ZM1.29999 21.32C1.33999 26.43 5.37999 30.68 10.42 31.06C10.59 30.06 11.16 29.16 12.03 28.59C12.49 28.29 12.7 27.76 12.6 27.23C12.07 24.64 14.37 22.34 16.97 22.86C17.51 22.97 18.03 22.75 18.33 22.29C18.94 21.36 19.93 20.77 21.02 20.65V8.2C21.02 7.4 20.37 6.75 19.57 6.75C18.77 6.75 18.12 7.4 18.12 8.2V17.02C18.12 17.38 17.83 17.67 17.47 17.67C17.11 17.67 16.82 17.38 16.82 17.02V4.85C16.82 4.05 16.17 3.4 15.37 3.4C14.57 3.4 13.92 4.05 13.92 4.85V13.67C13.92 14.03 13.63 14.32 13.27 14.32C12.91 14.32 12.62 14.03 12.62 13.67V2.75C12.62 1.95 11.97 1.3 11.17 1.3C10.37 1.3 9.71999 1.95 9.71999 2.75V14.09C9.71999 14.45 9.42999 14.74 9.06999 14.74C8.70999 14.74 8.41999 14.45 8.41999 14.09V5.27C8.41999 4.47 7.76999 3.82 6.96999 3.82C6.16999 3.82 5.51999 4.47 5.51999 5.27V16.89C7.51999 17.6 8.87999 19.5 8.87999 21.66C8.87999 22.02 8.58999 22.31 8.22999 22.31C7.86999 22.31 7.57999 22.02 7.57999 21.66C7.57999 19.93 6.40999 18.43 4.72999 18.01C4.42999 17.94 4.21999 17.68 4.21999 17.38V12.47C4.21999 11.67 3.56999 11.02 2.76999 11.02C1.96999 11.02 1.31999 11.67 1.31999 12.47V21.33L1.29999 21.32ZM30.8 28.59C30.34 28.29 30.13 27.76 30.23 27.23C30.76 24.64 28.47 22.34 25.86 22.86C25.32 22.97 24.8 22.75 24.49 22.29C23.97 21.51 23.18 20.96 22.29 20.74V8.21C22.29 6.04 19.9 4.75 18.09 5.88V4.85C18.09 2.68 15.69 1.38 13.88 2.52C13.77 1.11 12.58 0 11.14 0C9.62999 0 8.38999 1.23 8.38999 2.75V2.94C6.57999 1.81 4.18999 3.11 4.18999 5.27V10.13C2.37999 9 -0.0100098 10.3 -0.0100098 12.46V21.28C-0.0100098 27.11 4.57999 31.98 10.42 32.36C10.6 33.34 11.17 34.21 12.02 34.77C12.48 35.07 12.69 35.6 12.59 36.13C12.06 38.72 14.35 41.02 16.96 40.5C17.5 40.39 18.02 40.61 18.32 41.07C19.78 43.28 23.03 43.28 24.5 41.07C24.8 40.61 25.33 40.4 25.87 40.5C28.48 41.03 30.76 38.72 30.24 36.13C30.13 35.59 30.35 35.07 30.81 34.77C33.02 33.3 33.02 30.06 30.81 28.59H30.8Z" fill="#DD927A"/>
</g>
<defs>
<clipPath id="clip0_233_200">
<rect width="32.45" height="42.72" fill="white"/>
</clipPath>
</defs>
</svg>
