<svg width="38" height="34" viewBox="0 0 38 34" fill="none" xmlns="http://www.w3.org/2000/svg">
<g clip-path="url(#clip0_233_202)">
<path fill-rule="evenodd" clip-rule="evenodd" d="M18.78 4.02999C26.36 -5.66001 43.82 3.23999 35.24 18.95C31.81 25.24 25.64 29.63 19.18 32.98C18.92 33.12 18.62 33.1 18.37 32.98C11.87 29.58 5.78 25.31 2.31 18.96C-0.879997 13.1 -0.459997 8.18999 1.71 4.82999C5.48 -0.99001 14.16 -1.87001 18.78 4.02999ZM27.81 1.79999C24.78 1.48999 21.56 2.74999 19.53 6.00999C19.19 6.56999 18.38 6.56999 18.04 6.00999C12.14 -3.44001 -3.95 3.83999 3.84 18.12C7.03 23.97 12.76 28.05 18.77 31.22C24.78 28.05 30.51 23.98 33.7 18.12C37.15 11.79 36.21 5.83999 31.5 3.02999C30.37 2.34999 29.1 1.92999 27.8 1.79999H27.81Z" fill="#DD927A"/>
</g>
<defs>
<clipPath id="clip0_233_202">
<rect width="37.55" height="33.07" fill="white"/>
</clipPath>
</defs>
</svg>
