<svg width="43" height="35" viewBox="0 0 43 35" fill="none" xmlns="http://www.w3.org/2000/svg">
<g clip-path="url(#clip0_233_204)">
<path d="M21.04 3.89003C28.45 -4.09997 41.89 1.00003 42.07 12.12C42.23 21.92 28.11 28.91 21.45 34.84C21.22 35.05 20.86 35.05 20.63 34.84C14.11 29.04 0 21.46 0 12.13C0 1.03003 13.63 -4.09997 21.04 3.89003ZM20.63 5.27003C13.62 -2.61997 1.24 1.97003 1.24 12.13C1.24 14.87 2.7 17.54 4.88 20.09L16.78 8.21003C17.02 7.97003 17.41 7.95003 17.65 8.19003L21.29 11.69C23.37 13.68 26.27 10.48 24.31 8.68003L20.62 5.28003L20.63 5.27003ZM21.9 4.77003L25.15 7.77003C28.32 10.69 23.7 15.71 20.44 12.57L17.23 9.49003L5.7 21C6.72 22.09 7.85 23.16 9.05 24.2L19.22 13.64C19.78 13.05 20.67 13.91 20.11 14.49L10 25C11.14 25.95 12.33 26.88 13.5 27.76L23.55 17.49C24.12 16.91 24.99 17.77 24.43 18.35L14.48 28.51C15.57 29.33 16.68 30.15 17.78 30.98L27.4 21.71C27.99 21.15 28.84 22.04 28.25 22.6L18.78 31.73C19.61 32.37 20.38 32.98 21.05 33.56C27.32 28.22 41 20.94 40.85 12.14C40.68 2.11003 28.54 -2.47997 21.9 4.77003Z" fill="#DD927A"/>
</g>
<defs>
<clipPath id="clip0_233_204">
<rect width="42.07" height="35" fill="white"/>
</clipPath>
</defs>
</svg>
