<svg width="44" height="32" viewBox="0 0 44 32" fill="none" xmlns="http://www.w3.org/2000/svg">
<g clip-path="url(#clip0_233_216)">
<path d="M40.65 14.64H39.81V3.27C39.78 2.25 39 1.4 37.98 1.3C27.1 0.0700024 16.12 0.0700024 5.25 1.3C4.23 1.4 3.44001 2.24 3.41001 3.27V12.9C3.41001 13.09 3.57 13.25 3.76 13.25C3.95001 13.25 4.11 13.09 4.11 12.9V3.27C4.14 2.59 4.67 2.05 5.34 1.99C16.16 0.760002 27.08 0.760002 37.89 1.99C38.56 2.05 39.08 2.6 39.11 3.27V14.64H34.94C35.05 14.45 35.1 14.24 35.11 14.03V11.78C35.11 11.04 34.51 10.45 33.78 10.45H25.61C24.87 10.45 24.28 11.05 24.28 11.78V14.03C24.28 14.24 24.33 14.45 24.43 14.64H18.78C18.89 14.45 18.94 14.24 18.95 14.03V11.78C18.95 11.04 18.35 10.45 17.62 10.45H9.45C8.71 10.45 8.12 11.05 8.12 11.78V14.03C8.12 14.25 8.18 14.46 8.29 14.64H2.57C1.36 14.64 0.380005 15.62 0.380005 16.83V27.55C0.380005 28.13 0.850005 28.59 1.42 28.59H3.41001V30.11C3.41001 30.69 3.88 31.15 4.45 31.15H7.32C7.9 31.15 8.36 30.68 8.36 30.11V28.59H29.15C29.34 28.59 29.5 28.43 29.5 28.24C29.5 28.05 29.34 27.89 29.15 27.89H1.42C1.23 27.89 1.07 27.73 1.07 27.54V16.82C1.07 15.99 1.74001 15.33 2.57 15.33H40.65C41.48 15.33 42.15 16 42.15 16.82V27.54C42.15 27.73 41.99 27.89 41.8 27.89H31.86C31.67 27.89 31.51 28.05 31.51 28.24C31.51 28.43 31.67 28.59 31.86 28.59H34.85V30.11C34.85 30.69 35.32 31.15 35.89 31.15H38.76C39.34 31.15 39.8 30.68 39.8 30.11V28.59H41.79C42.37 28.59 42.83 28.12 42.83 27.55V16.83C42.83 15.62 41.85 14.64 40.64 14.64H40.65ZM7.67 30.12C7.67 30.31 7.51 30.47 7.32 30.47H4.45C4.26 30.47 4.1 30.31 4.1 30.12V28.6H7.67V30.12ZM25.46 14.63C25.17 14.58 24.96 14.32 24.97 14.03V11.78C24.97 11.43 25.25 11.14 25.61 11.14H33.78C34.13 11.14 34.42 11.43 34.42 11.78V14.03C34.42 14.32 34.23 14.57 33.95 14.64H25.49C25.49 14.64 25.47 14.64 25.46 14.63ZM8.8 14.03V11.78C8.8 11.43 9.09 11.14 9.44 11.14H17.61C17.96 11.14 18.25 11.43 18.25 11.78V14.03C18.25 14.32 18.06 14.57 17.78 14.64H9.27001C8.99001 14.56 8.8 14.31 8.8 14.03ZM39.11 30.12C39.11 30.31 38.95 30.47 38.76 30.47H35.89C35.7 30.47 35.54 30.31 35.54 30.12V28.6H39.11V30.12Z" fill="#DD927A" stroke="#DD927A" stroke-width="0.75" stroke-miterlimit="10"/>
</g>
<defs>
<clipPath id="clip0_233_216">
<rect width="43.22" height="31.54" fill="white"/>
</clipPath>
</defs>
</svg>
