<svg width="43" height="41" viewBox="0 0 43 41" fill="none" xmlns="http://www.w3.org/2000/svg">
<g clip-path="url(#clip0_233_199)">
<path d="M38.47 27.89L37.56 28.71L36.2 27.35V23.47C36.2 22.11 35.92 20.79 35.36 19.53L30.71 9.22C30.47 8.68 30 8.27999 29.44 8.10999C28.87 7.94999 28.27 8.04 27.79 8.37C27.68 8.44 27.59 8.53 27.5 8.62C26.14 6.61 23.86 5.37 21.37 5.37C18.88 5.37 16.6 6.61 15.24 8.62C15.15 8.53 15.06 8.44 14.96 8.38C14.47 8.05 13.87 7.96 13.3 8.12C12.73 8.28 12.27 8.68999 12.03 9.22999L7.38 19.54C6.82 20.79 6.54 22.12 6.54 23.48V27.36L5.18 28.72L4.27 27.9C4.01 27.66 3.6 27.67 3.35 27.92L0 31.21L0.94 32.17L3.84 29.32L10.99 35.79L7.37 40.01L8.39 40.89L12.44 36.17C12.68 35.89 12.65 35.48 12.38 35.23L11.76 34.66L14.24 31.86C15.36 30.6 15.97 28.98 15.97 27.3V22.08C15.97 21.4 15.71 20.76 15.23 20.28C14.94 19.99 14.59 19.79 14.21 19.67L14.81 16.23C16.06 18.6 18.54 20.21 21.38 20.21C24.22 20.21 26.7 18.6 27.95 16.23L28.55 19.67C28.17 19.79 27.82 19.99 27.53 20.28C27.05 20.76 26.79 21.4 26.79 22.08V27.3C26.79 28.98 27.4 30.6 28.52 31.86L31 34.66L30.38 35.23C30.11 35.47 30.08 35.89 30.32 36.17L34.37 40.89L35.39 40.01L31.77 35.79L38.92 29.32L41.82 32.17L42.76 31.21L39.41 27.91C39.15 27.66 38.75 27.65 38.49 27.89H38.48H38.47ZM14.63 22.09V27.31C14.63 28.66 14.14 29.96 13.23 30.98L10.76 33.76L6.18 29.62L7.68 28.12C7.81 27.99 7.88 27.82 7.88 27.64V23.49C7.88 22.32 8.12 21.18 8.6 20.11L13.25 9.8C13.33 9.62 13.48 9.49 13.67 9.43999C13.85 9.38999 14.04 9.41999 14.21 9.52999C14.39 9.64999 14.5 9.85 14.5 10.08V10.12C14.5 10.12 14.5 10.17 14.5 10.19L12.86 19.64C11.92 19.86 11.17 20.58 10.96 21.55L9.94 26.16L11.25 26.45L12.27 21.84C12.39 21.29 12.87 20.91 13.44 20.91C13.76 20.91 14.06 21.03 14.28 21.26C14.5 21.48 14.63 21.79 14.63 22.1V22.09ZM21.37 18.87C18.19 18.87 15.55 16.41 15.32 13.25L15.81 10.4V10.37C16.78 8.17 18.95 6.74 21.36 6.74C23.77 6.74 25.94 8.16 26.91 10.37V10.4L27.41 13.26C27.17 16.42 24.53 18.88 21.36 18.88L21.37 18.87ZM29.51 30.97C28.61 29.96 28.11 28.65 28.11 27.3V22.08C28.11 21.76 28.23 21.46 28.46 21.24C28.68 21.02 28.99 20.89 29.31 20.89C29.87 20.89 30.35 21.27 30.47 21.83L31.49 26.44L32.8 26.15L31.78 21.54C31.56 20.56 30.82 19.84 29.88 19.63L28.24 10.18C28.24 10.18 28.24 10.12 28.23 10.09V10.06C28.23 9.84 28.34 9.64 28.53 9.51C28.69 9.4 28.88 9.38 29.06 9.42C29.25 9.47 29.4 9.6 29.48 9.77999L34.13 20.09C34.61 21.17 34.85 22.31 34.85 23.47V27.62C34.85 27.8 34.92 27.97 35.05 28.1L36.55 29.6L31.97 33.74L29.5 30.96H29.51V30.97Z" fill="#DD927A"/>
<path d="M21.37 10.13C20.38 9.20001 18.79 9.21001 17.81 10.16C17.32 10.63 17.05 11.25 17.05 11.92C17.05 12.59 17.32 13.21 17.81 13.68L18.26 14.1C18.26 14.1 18.29 14.13 18.3 14.13L20.91 16.65C21.04 16.78 21.21 16.84 21.38 16.84C21.55 16.84 21.72 16.78 21.85 16.65L24.5 14.09L24.94 13.67C25.43 13.2 25.7 12.58 25.7 11.91C25.7 11.24 25.43 10.62 24.94 10.15C23.96 9.20001 22.37 9.19001 21.38 10.12L21.37 10.13ZM23.99 12.71L21.37 15.24L19.19 13.14C19.19 13.14 19.16 13.11 19.15 13.11L18.75 12.72C18.53 12.5 18.41 12.23 18.41 11.92C18.41 11.61 18.53 11.34 18.75 11.12C19.22 10.66 19.99 10.66 20.46 11.12L20.91 11.54C21.17 11.79 21.58 11.79 21.85 11.54L22.29 11.12C22.76 10.66 23.53 10.66 24 11.12C24.22 11.34 24.34 11.61 24.34 11.92C24.34 12.23 24.22 12.5 24 12.72L23.99 12.71Z" fill="#DD927A"/>
<path d="M20.7 0.67V2.69C20.7 3.06 21 3.36 21.37 3.36C21.74 3.36 22.04 3.06 22.04 2.69V0.67C22.04 0.3 21.74 0 21.37 0C21 0 20.7 0.3 20.7 0.67Z" fill="#DD927A"/>
<path d="M15.34 1.75999C15.01 1.92999 14.87 2.32999 15.04 2.65999L16.05 4.67999C16.17 4.91999 16.41 5.04999 16.66 5.04999C16.76 5.04999 16.86 5.02999 16.96 4.97999C17.29 4.80999 17.43 4.40999 17.26 4.07999L16.25 2.05999C16.08 1.72999 15.68 1.58999 15.35 1.75999H15.34Z" fill="#DD927A"/>
<path d="M26.51 2.05999L25.5 4.07999C25.33 4.40999 25.47 4.80999 25.8 4.97999C25.89 5.02999 26 5.04999 26.1 5.04999C26.35 5.04999 26.59 4.91999 26.71 4.67999L27.72 2.65999C27.89 2.32999 27.75 1.92999 27.42 1.75999C27.09 1.58999 26.69 1.72999 26.52 2.05999H26.51Z" fill="#DD927A"/>
</g>
<defs>
<clipPath id="clip0_233_199">
<rect width="42.76" height="40.89" fill="white"/>
</clipPath>
</defs>
</svg>
