<svg width="53" height="36" viewBox="0 0 53 36" fill="none" xmlns="http://www.w3.org/2000/svg">
<g clip-path="url(#clip0_233_206)">
<path d="M0.389994 11.29L5.74999 14.33C5.90999 14.42 6.02999 14.56 6.08999 14.73L7.41999 18.46C7.62999 19.04 8.03999 19.52 8.56999 19.83L13.42 22.57L16.44 24.36C16.53 24.8 16.72 25.21 17.01 25.55L19.6 28.55C19.72 28.68 19.78 28.86 19.78 29.04V35.2C19.78 35.63 20.14 35.99 20.57 35.99C21 35.99 21.36 35.63 21.36 35.2V29.83H30.76V35.2C30.76 35.63 31.12 35.99 31.55 35.99C31.98 35.99 32.34 35.63 32.34 35.2V27.67C32.34 27.48 32.43 27.29 32.57 27.16L35.24 24.89C35.41 24.74 35.55 24.57 35.66 24.38L43.63 19.79C44.15 19.48 44.55 19 44.76 18.42L46.06 14.68C46.12 14.51 46.23 14.37 46.39 14.28H46.41L51.74 11.19C52.12 10.97 52.25 10.49 52.03 10.11C51.81 9.72999 51.33 9.59999 50.95 9.81999L46.3 12.51L41.6 4.36999L46.25 1.67999C46.63 1.45999 46.76 0.97999 46.54 0.59999C46.32 0.21999 45.84 0.0899902 45.46 0.30999L40.12 3.38999L38.93 4.07999C38.76 4.16999 38.56 4.19999 38.38 4.12999L35.08 2.95999C34.48 2.74999 33.82 2.80999 33.27 3.12999L31.75 4.00999C31.69 3.94999 31.66 3.87999 31.6 3.80999C31.1 3.30999 30.45 3.03999 29.74 3.03999C29.37 3.03999 29.02 3.11999 28.71 3.24999V2.61999C28.71 1.91999 28.44 1.26999 27.94 0.75999C27.44 0.25999 26.79 -0.0100098 26.09 -0.0100098C24.79 -0.0100098 23.71 0.94999 23.51 2.18999C23.18 2.03999 22.81 1.94999 22.43 1.94999C21.29 1.94999 20.33 2.67999 19.97 3.69999L18.83 3.04999C18.28 2.72999 17.61 2.67999 17.01 2.88999L13.72 4.08999C13.53 4.14999 13.33 4.13999 13.16 4.03999L11.98 3.36999C11.98 3.36999 11.98 3.36999 11.96 3.36999L6.58999 0.33999C6.20999 0.12999 5.72999 0.25999 5.51999 0.63999C5.30999 1.01999 5.43999 1.49999 5.81999 1.70999L10.5 4.35999L5.86999 12.53L1.18999 9.87999C0.809995 9.66999 0.329994 9.79999 0.119994 10.18C-0.120006 10.58 0.0199945 11.06 0.399994 11.28L0.389994 11.29ZM34.04 4.50999C34.19 4.41999 34.37 4.40999 34.54 4.45999L37.84 5.62999C38.46 5.84999 39.14 5.78999 39.71 5.45999L40.22 5.16999L44.99 13.42C44.81 13.63 44.66 13.89 44.56 14.15L43.26 17.89C43.18 18.11 43.02 18.3 42.83 18.42L36 22.36V14.72C36 14.03 35.73 13.38 35.23 12.86C34.73 12.37 34.08 12.1 33.38 12.1C33.01 12.1 32.66 12.18 32.35 12.31V5.65999C32.35 5.59999 32.35 5.53999 32.33 5.47999L34.04 4.49999V4.50999ZM21.36 4.59999C21.36 4.02999 21.83 3.56999 22.39 3.56999C22.67 3.56999 22.93 3.66999 23.13 3.87999C23.32 4.06999 23.43 4.32999 23.43 4.60999V15.9C23.43 16.33 23.79 16.69 24.22 16.69C24.65 16.69 25.01 16.33 25.01 15.9V2.63999C25.01 2.05999 25.48 1.59999 26.05 1.59999C26.33 1.59999 26.59 1.70999 26.78 1.89999C26.98 2.10999 27.09 2.36999 27.09 2.64999V16.25C27.09 16.68 27.45 17.04 27.88 17.04C28.31 17.04 28.67 16.68 28.67 16.25V5.67999C28.67 5.10999 29.14 4.64999 29.7 4.64999C29.98 4.64999 30.24 4.75999 30.44 4.94999C30.55 5.05999 30.64 5.18999 30.69 5.36999C30.72 5.45999 30.75 5.57999 30.75 5.68999V17.69C30.75 18.12 31.11 18.48 31.54 18.48C31.97 18.48 32.33 18.12 32.33 17.69V14.74C32.33 14.17 32.8 13.71 33.36 13.71C33.64 13.71 33.9 13.82 34.09 14.01C34.29 14.22 34.4 14.48 34.4 14.75V23.26C34.4 23.34 34.38 23.43 34.34 23.52C34.31 23.59 34.25 23.66 34.19 23.72L31.52 25.99C31.02 26.42 30.74 27.04 30.74 27.7V28.28H21.21C21.12 28.01 20.97 27.77 20.78 27.55L18.2 24.55C18.05 24.38 17.96 24.16 17.96 23.91V8.44999C17.96 7.87999 18.36 7.41999 18.87 7.41999C19.38 7.41999 19.77 7.88999 19.77 8.44999V16.17C19.77 16.6 20.13 16.96 20.56 16.96C20.99 16.96 21.35 16.6 21.35 16.17V4.59999H21.36ZM12.37 5.45999C12.94 5.77999 13.62 5.82999 14.24 5.60999L17.53 4.40999C17.7 4.34999 17.88 4.36999 18.03 4.44999L19.78 5.44999V5.98999C19.5 5.86999 19.2 5.79999 18.87 5.79999C17.5 5.79999 16.39 6.97999 16.39 8.40999V22.47L14.21 21.19L9.33999 18.43C9.12999 18.31 8.97999 18.13 8.90999 17.91L7.57999 14.18C7.48999 13.91 7.33999 13.66 7.14999 13.45L11.85 5.15999L12.36 5.44999L12.37 5.45999Z" fill="#DD927A"/>
</g>
<defs>
<clipPath id="clip0_233_206">
<rect width="52.13" height="36" fill="white"/>
</clipPath>
</defs>
</svg>
