<svg width="26" height="42" viewBox="0 0 26 42" fill="none" xmlns="http://www.w3.org/2000/svg">
<g clip-path="url(#clip0_233_209)">
<path d="M23.68 32.54C24.03 31.62 25.22 28.04 25.22 21.83C25.22 13.52 21.56 11.61 16.68 10.32C17.55 8.96001 17.96 7.20001 17.96 5.50001C17.96 2.47001 15.5 0.0100098 12.47 0.0100098C9.44 0.0100098 6.98 2.47001 6.98 5.50001C6.98 7.23001 7.41 9.02001 8.3 10.39C3.97 11.58 0 13.75 0 21.83C0 28.04 1.19 31.62 1.54 32.54C1.36 33.22 1.45 33.92 1.77 34.53C1.77 34.54 1.76 34.56 1.75 34.57C1.42 35.63 1.26 36.74 1.26 37.87C1.26 40.15 3.11 42 5.39 42H19.54C21.82 42 23.67 40.15 23.67 37.87C23.67 36.84 23.53 35.82 23.25 34.84C23.72 34.17 23.88 33.34 23.67 32.54H23.68ZM20.06 32.43C20.39 32.11 20.56 31.64 20.58 31.06C21.1 31.2 21.8 31.55 22.21 32.47C22.25 32.57 22.29 32.66 22.33 32.75C22.57 33.39 22.3 33.97 21.99 34.26C21.82 34.42 21.35 34.78 20.73 34.51C20.48 34.39 19.73 33.87 19.64 33.33C19.62 33.23 19.57 32.91 20.07 32.42L20.06 32.43ZM12.47 1.36001C14.75 1.36001 16.6 3.21001 16.6 5.49001C16.6 7.51001 15.74 11.33 12.47 11.33C9.2 11.33 8.34 7.51001 8.34 5.49001C8.34 3.21001 10.19 1.36001 12.47 1.36001ZM9.3 11.52C10.13 12.24 11.17 12.69 12.47 12.69C13.77 12.69 14.87 12.22 15.71 11.46C20.64 12.7 23.87 14.1 23.87 21.82C23.87 26.22 23.24 29.25 22.79 30.87C22 29.98 21.01 29.71 20.38 29.64C20.53 28.35 20.97 23.91 20.58 20.35C20.54 19.98 20.2 19.71 19.83 19.75C19.46 19.79 19.19 20.13 19.23 20.5C19.55 23.43 19.27 27.09 19.1 28.83C18.32 28.26 17.47 27.8 16.58 27.45C17.27 26.23 17.61 24.71 17.61 23.25C17.61 20.42 15.31 18.12 12.48 18.12C9.65 18.12 7.35 20.42 7.35 23.25C7.35 24.72 7.69 26.23 8.38 27.45C7.58 27.76 6.83 28.16 6.12 28.65C5.95 26.85 5.7 23.33 6 20.5C6.04 20.13 5.77 19.79 5.4 19.75C5.03 19.71 4.69 19.98 4.65 20.35C4.26 23.91 4.71 28.35 4.85 29.64C4.22 29.71 3.23 29.98 2.44 30.87C1.99 29.26 1.36 26.23 1.36 21.82C1.36 14.3 5.08 12.6 9.3 11.52ZM8.71 23.23C8.71 21.15 10.4 19.46 12.48 19.46C14.56 19.46 16.25 21.15 16.25 23.23C16.25 25.08 15.46 28.58 12.48 28.58C9.5 28.58 8.71 25.08 8.71 23.23ZM2.91 32.73C2.94 32.64 2.98 32.55 3.02 32.45C3.43 31.53 4.13 31.18 4.65 31.04C4.66 31.62 4.84 32.08 5.17 32.41C5.67 32.9 5.62 33.22 5.6 33.32C5.51 33.86 4.76 34.38 4.52 34.49C3.89 34.76 3.42 34.41 3.25 34.24C2.94 33.94 2.66 33.37 2.91 32.72V32.73ZM19.55 40.63H5.39C3.86 40.63 2.62 39.39 2.62 37.86C2.62 37.11 2.71 36.36 2.87 35.64C3.24 35.84 3.64 35.96 4.05 35.96C4.38 35.96 4.72 35.89 5.04 35.76C5.06 35.76 6.65 34.99 6.92 33.6C7.02 33.08 6.96 32.29 6.11 31.45C6.04 31.38 5.93 31.07 6.06 30.43C6.06 30.41 6.06 30.4 6.06 30.38C6.96 29.61 7.98 29.01 9.1 28.6C9.13 28.59 9.16 28.57 9.19 28.56C10 29.4 11.08 29.94 12.46 29.94C13.84 29.94 14.92 29.4 15.73 28.56C15.76 28.58 15.79 28.59 15.82 28.6C17.01 29.03 18.1 29.69 19.05 30.54C19.09 30.58 19.14 30.6 19.18 30.62C19.25 31.13 19.16 31.38 19.09 31.45C18.24 32.28 18.18 33.08 18.28 33.6C18.54 34.99 20.14 35.75 20.16 35.76C20.48 35.9 20.82 35.96 21.15 35.96C21.48 35.96 21.78 35.9 22.08 35.78C22.23 36.46 22.3 37.16 22.3 37.87C22.3 39.4 21.06 40.64 19.53 40.64L19.55 40.63Z" fill="#DD927A"/>
</g>
<defs>
<clipPath id="clip0_233_209">
<rect width="25.22" height="42" fill="white"/>
</clipPath>
</defs>
</svg>
