<svg width="38" height="43" viewBox="0 0 38 43" fill="none" xmlns="http://www.w3.org/2000/svg">
<g clip-path="url(#clip0_233_212)">
<path d="M29.68 33.26L26.5 25.73C26.22 25.07 25.58 24.64 24.87 24.62L24.15 24.6L24.66 19.62C24.79 18.32 23.85 17.15 22.55 17.02C21.25 16.89 20.09 17.83 19.95 19.13L19.87 19.93C19.83 20.24 20.05 20.52 20.36 20.56C20.67 20.6 20.95 20.38 20.99 20.07C20.99 20.07 20.99 20.06 20.99 20.05L21.07 19.25C21.13 18.57 21.72 18.06 22.41 18.11C23.1 18.16 23.6 18.76 23.55 19.45C23.55 19.47 23.55 19.49 23.55 19.5L23.03 24.56L19.05 24.45L18.04 18.13C17.96 17.64 17.68 17.2 17.27 16.92C16.86 16.64 16.35 16.54 15.86 16.64L13.32 17.18C12.33 17.39 11.71 18.36 11.92 19.35L13.62 27.05C13.94 28.53 15.3 29.56 16.82 29.46L22.56 29.1L21.99 34.6C21.96 34.91 22.18 35.19 22.5 35.22C22.52 35.22 22.54 35.22 22.56 35.22C22.85 35.22 23.09 35 23.12 34.71L23.62 29.82L26.17 34.77C26.31 35.03 26.62 35.15 26.89 35.03L29.39 33.99C29.53 33.93 29.64 33.82 29.69 33.68C29.75 33.54 29.75 33.38 29.69 33.23L29.68 33.26ZM16.73 28.34C15.77 28.41 14.91 27.76 14.71 26.82L13.01 19.12C12.93 18.75 13.16 18.38 13.54 18.29L16.08 17.75C16.45 17.67 16.82 17.9 16.9 18.28C16.9 18.29 16.9 18.31 16.9 18.32L17.99 25.1C18.03 25.37 18.26 25.57 18.53 25.58L22.89 25.7L22.66 27.96L16.73 28.34ZM26.92 33.8L24.05 28.22C23.99 28.12 23.9 28.03 23.79 27.99L24.02 25.73L24.83 25.75C25.1 25.75 25.34 25.92 25.45 26.17L28.41 33.18L26.92 33.8ZM17.43 12.13C17.43 10.17 15.84 8.57001 13.88 8.57001C11.92 8.57001 10.32 10.16 10.32 12.12C10.32 14.08 11.91 15.68 13.87 15.68C15.83 15.68 17.42 14.09 17.42 12.13H17.43ZM11.45 12.13C11.45 10.79 12.53 9.70001 13.86 9.70001C15.2 9.70001 16.29 10.78 16.29 12.11C16.29 13.45 15.21 14.54 13.88 14.54C12.55 14.54 11.46 13.46 11.46 12.13H11.45Z" fill="#DD927A"/>
<path d="M18.96 43C18.83 43 18.71 42.96 18.6 42.88C17.2 41.77 15.43 41 13.72 40.27C10.23 38.77 6.63001 37.21 3.91001 32.76C0.830012 27.71 -0.409988 19.84 0.120012 8.69C0.130012 8.41 0.340012 8.19 0.610012 8.15C8.07001 7.13 13.95 4.51 18.57 0.160002C18.79 -0.0499976 19.13 -0.0499976 19.35 0.160002C23.97 4.52 29.84 7.13 37.3 8.15C37.57 8.19 37.78 8.41 37.79 8.69C38.32 19.84 37.08 27.71 33.99 32.76C31.27 37.21 27.67 38.76 24.18 40.27C22.47 41.01 20.7 41.77 19.3 42.88C19.2 42.96 19.07 43 18.94 43H18.96ZM1.24001 9.21C0.780012 19.88 1.97001 27.38 4.89001 32.15C7.42001 36.29 10.86 37.77 14.18 39.2C15.82 39.91 17.51 40.64 18.96 41.7C20.41 40.64 22.1 39.91 23.74 39.2C27.06 37.77 30.5 36.28 33.03 32.15C35.95 27.38 37.14 19.87 36.68 9.21C29.4 8.14 23.6 5.56 18.96 1.35C14.32 5.57 8.51001 8.14 1.24001 9.21Z" fill="#DD927A"/>
</g>
<defs>
<clipPath id="clip0_233_212">
<rect width="37.92" height="43" fill="white"/>
</clipPath>
</defs>
</svg>
