<?xml version="1.0" encoding="utf-8"?>
<!-- Generator: Adobe Illustrator 28.0.0, SVG Export Plug-In . SVG Version: 6.00 Build 0)  -->
<svg version="1.1" id="Capa_1" xmlns="http://www.w3.org/2000/svg" xmlns:xlink="http://www.w3.org/1999/xlink" x="0px" y="0px"
	 viewBox="0 0 250 250" style="enable-background:new 0 0 250 250;" xml:space="preserve">
<style type="text/css">
	.st0{fill:#D45F35;}
	.st1{fill:#ED603A;}
	.st2{fill:#EA714B;}
	.st3{fill:#DD7454;}
</style>
<g id="XMLID_00000132059834061065582050000007838368742640483755_">
	<path class="st0" d="M126.87,239c-62.56,0-113.46-50.9-113.46-113.46c0-62.56,50.9-113.46,113.46-113.46
		c62.56,0,113.46,50.9,113.46,113.46C240.33,188.1,189.43,239,126.87,239z M126.87,16.07c-60.36,0-109.46,49.11-109.46,109.46
		S66.51,235,126.87,235s109.46-49.11,109.46-109.46S187.23,16.07,126.87,16.07z"/>
</g>
<g id="XMLID_00000136377377272149019860000010654479985549534349_">
	<g>
		<path class="st1" d="M185,106.12c0,1.4-0.05,2.78-0.15,4.15h0c0,0,1,20.55-18.76,42.94c-19.75,22.39-22.92,29.51-22.92,29.51
			c-0.63,1.43-1.7,2.77-2.46,4.15c-1.94,3.5-3.68,7.12-5.18,10.83c-0.63,1.56-1.23,3.14-1.77,4.73c-0.53,1.55-1.2,3.29-1.86,4.79
			c-0.97,2.22-2.24,3.75-4.81,3.77h-0.14c-2.57-0.02-3.83-1.55-4.81-3.77c-0.66-1.51-1.33-3.24-1.86-4.79
			c-0.54-1.59-1.13-3.17-1.77-4.73c-1.51-3.71-3.24-7.33-5.18-10.83c-0.76-1.37-1.82-2.72-2.46-4.15c0,0-1.57-3.54-9.41-13.45
			l42.32-49.37l34.7-40.48C182.65,87.42,185,96.49,185,106.12z"/>
		<path class="st0" d="M144.7,50.94l-34.75,40.54L83.11,68.47c10.62-12.4,26.39-20.25,43.99-20.25
			C133.24,48.22,139.15,49.17,144.7,50.94z"/>
		<path class="st0" d="M143.8,119.91l-42.32,49.37c-3.29-4.16-7.68-9.44-13.52-16.06c-6.38-7.23-10.59-14.27-13.38-20.48
			l35.36-41.26l0.04,0.04c-3.1,3.8-4.96,8.66-4.96,13.94c0,12.19,9.88,22.07,22.07,22.07c6.66,0,12.64-2.95,16.69-7.63L143.8,119.91
			z"/>
		<path class="st2" d="M178.5,79.43l-34.7,40.48l-0.01-0.01c3.35-3.87,5.38-8.92,5.38-14.44c0-12.19-9.88-22.07-22.07-22.07
			c-6.9,0-13.06,3.17-17.1,8.12l-0.04-0.04l34.75-40.54C159.37,55.62,171.5,65.98,178.5,79.43z"/>
		<path class="st3" d="M83.11,68.47l26.84,23.01l-35.36,41.26c-5.84-13.04-5.38-22.46-5.38-22.46s-0.01-2.76-0.01-4.15
			C69.2,91.74,74.44,78.59,83.11,68.47z"/>
	</g>
</g>
</svg>
