<?xml version="1.0" encoding="utf-8"?>
<!-- Generator: Adobe Illustrator 28.0.0, SVG Export Plug-In . SVG Version: 6.00 Build 0)  -->
<svg version="1.1" id="Capa_1" xmlns="http://www.w3.org/2000/svg" xmlns:xlink="http://www.w3.org/1999/xlink" x="0px" y="0px"
	 viewBox="0 0 500 386" style="enable-background:new 0 0 500 386;" xml:space="preserve">
<style type="text/css">
	.st0{fill:#FFFFFF;stroke:#FFFFFF;stroke-width:4.1095;stroke-miterlimit:10;}
	.st1{fill:#8E3920;}
	.st2{fill-rule:evenodd;clip-rule:evenodd;fill:#F7BF11;}
	.st3{fill:#531F0D;}
	.st4{fill-rule:evenodd;clip-rule:evenodd;fill:#FBDB70;}
</style>
<g>
	<g>
		<g>
			<path class="st0" d="M399.31,320.19c-0.22,0.87-1.14,0.92-2.25,0.65c-1.97-0.49-4.41-1.84-6.25-2.85
				c-1.1-0.61-2.01-1.11-2.72-1.37c-1.74-0.63-3.33-0.66-4.67-0.39c-1.36,0.27-3.71,1.64-4.5,3.46c-1.12,2.58,1.5,3.26,2.74,1.89
				c0-0.01,2.01-2.22,5.03-1.12c0.37,0.14,1.18,0.58,2.15,1.11c2.04,1.13,4.01,2.88,6.5,3.5c7.37,1.84,8.83-5.77,6.45-6.36
				C400.69,318.43,399.58,319.1,399.31,320.19z"/>
			<path class="st0" d="M487.5,341.65c-1.04-0.44-2.24,0.04-2.68,1.08c-0.01,0.02-2.69,6.86-18.95,8.43
				c-1.6,0.15-3.15,0.17-4.66,0.06l0.03-0.07c1.68-3.09,2.62-6.48,2.88-9.76c0.27-3.3-0.15-6.52-1.15-9.25
				c-1.12-3.06-2.99-5.54-5.5-6.91c-3.35-1.82-6.85-2.01-9.94-1.05c-1.68,0.51-3.23,1.37-4.57,2.47c-1.34,1.1-2.47,2.46-3.3,3.99
				c-0.66,1.21-1.14,2.53-1.39,3.92c-0.55-0.15-1.17-0.08-1.69,0.26c-0.01,0.01-5.16,3.43-6.01,10.14
				c-0.55,4.33,0.96,9.92,3.98,13.53c-0.83,0.77-1.97,1.58-3.51,2.16c-7.44,2.08-13.43-0.27-17.36-4.36
				c-6.9-7.19-8.78-21.39-10.66-23.26c-1.1-1.1-2.22-0.97-3.37,0.18c-1.43,1.43-4.29,7.3-7.23,13.35c-3.16,6.47-3.74,9.4-4.35,9.25
				c-2.09-0.52,2.92-21.3-4.17-23.16c-4.48-1.17-12.87,13.61-13.27,17.58c-1.74,0.38-3.69,0.7-5.92,0.92
				c-1.6,0.15-3.16,0.17-4.66,0.06l0.03-0.07c1.69-3.09,2.62-6.48,2.88-9.76c0.26-3.3-0.15-6.52-1.15-9.25
				c-1.12-3.06-2.99-5.54-5.5-6.91c-3.34-1.82-6.85-2.01-9.94-1.05c-1.67,0.51-3.23,1.37-4.57,2.47c-1.34,1.1-2.48,2.46-3.31,3.99
				c-0.66,1.21-1.13,2.53-1.38,3.92c-0.56-0.15-1.18-0.08-1.7,0.26c-0.01,0.01-2.84,1.89-4.65,5.6c-0.13,0.09-0.27,0.16-0.39,0.28
				c-0.48,0.53-1.33,1.52-2.32,2.68c-1.19,1.4-2.62,3.08-4.25,4.88c-4.92,5.43-15.96,19.06-21.32,6.3
				c-3.37-8.03-1.83-22.82-1.51-26.79c0.27-3.33,0.86-6.75,1.56-10.07l29.99-7.41c1.09-0.27,1.76-1.38,1.5-2.47
				c-0.27-1.09-1.38-1.76-2.47-1.49l-28.04,6.92c0.48-2.09,0.96-4.12,1.37-6c0.45-2.03,1.66-8.01,1.14-10.06
				c-0.51-2-2.01-3.18-4.21-1.02c-1.86,1.83-3.82,9.34-5.1,18.76l-13.82,3.41c-0.01-0.07-0.01-0.15-0.01-0.21v-0.01
				c-0.58-6.66-2.83-12.48-6.27-16.66c-1.6-1.95-3.46-3.55-5.53-4.72c2.61-3.03,3.57-6.05,3.09-8.78
				c-1.47-8.43-13.37-10.72-20.45-10.14c-1.35,0.11-2.74,0.3-4.19,0.59c-6.37,1.26-12.73,4.27-18.31,9.02
				c-5.1,4.33-9.55,10.12-12.77,17.33c-15.08,31.35,3.87,73.03,42.71,55.05c1.7,0.56,3.39,0.93,5.05,1.16l0.08,0.01
				c7.01,0.93,12.49-0.12,17.33-2.71c4.45-2.38,8.27-6.04,12.25-10.64c0.9,7.62,2.85,13.69,6.31,15.98
				c5.88,3.9,14.92-1.86,24.66-12.62c0.9-0.99,1.75-1.96,2.55-2.9c0.39,5.1,2.96,10.79,7.14,13.04c6.91,3.72,16.18-0.66,20.88-6.12
				c8.55,1.24,19.71-1.58,26.36-7.16c-0.03,1.3-0.08,2.7-0.14,4.17c-0.26,6.02-0.47,11.21,1.99,11.82
				c2.6,0.65,6.61-7.57,10.48-15.51c1.28-2.63,2.55-5.23,3.63-7.36c1.1-2.17,0.9-2.43,1.32-0.03c2.23,12.91,5.69,24.85,21.27,24.66
				c3.42,0.19,6.77-0.37,9.48-1.38c1.91-0.72,3.3-1.67,4.29-2.57c0.36-0.33,0.69-0.65,0.98-0.95c0.21,0.14,0.41,0.32,0.63,0.44
				c6.9,3.72,16.18-0.66,20.88-6.12c8.97,1.3,20.81-1.86,27.31-7.99C487.76,345.27,488.61,343.39,487.5,341.65z M229.12,350.36
				c-14.41-17.26-12.66-44.99,4.74-59.79c5.04-4.28,10.76-6.99,16.46-8.13c4.98-0.98,9.2-0.73,12.44,0.25l0.09,0.03
				c3.44,1.07,5.67,2.92,6.31,4.92c0.9,2.79-0.87,6-1.88,7.53c-1.46-0.42-2.99-0.64-4.58-0.66c-0.64,0-1.23,0.01-1.79,0.06
				c-1.07,0.09-2.16,0.33-3.25,0.69l0-0.01c-4.8,1.59-9.32,5.75-12.39,11.72c-3,5.8-4.67,13.37-3.93,21.94
				c0.33,3.81,1.13,7.81,2.51,11.96c2.08,6.28,5.09,10.73,8.54,13.84c1.22,1.11,2.5,2.04,3.8,2.83
				C245.35,361.8,236.74,359.49,229.12,350.36z M260.94,355.39c-2.02-0.84-4-2.04-5.83-3.7c-2.94-2.66-5.54-6.55-7.38-12.1
				c-1.27-3.83-2.01-7.53-2.31-11.03c-0.67-7.76,0.81-14.55,3.48-19.71c2.58-5.01,6.24-8.45,10.05-9.71v-0.01
				c0.75-0.25,1.53-0.41,2.33-0.48c0.52-0.05,0.99-0.07,1.4-0.06c4.26,0.05,7.99,2.09,10.79,5.5c2.91,3.55,4.83,8.57,5.34,14.42
				c0.02,0.3,0.01,0.58,0.03,0.87l-6.36,1.57c-1.09,0.27-1.76,1.37-1.49,2.47c0.27,1.09,1.37,1.76,2.47,1.5l5.41-1.34
				c-0.35,6.59-2.46,13.22-5.67,18.87C269.95,348.16,265.61,352.83,260.94,355.39z M294.34,344.34c-3.97,4.71-7.83,8.49-12.03,10.73
				c-4.09,2.18-9.4,2.69-15.49,1.89l-0.07-0.01l-0.6-0.09c4.06-3.04,7.72-7.38,10.58-12.4c3.7-6.51,6.07-14.24,6.24-21.9l13.2-3.26
				c-0.85,7.85-1.21,16.53-0.69,24.19C295.11,343.55,294.75,343.85,294.34,344.34z M346.97,357.41c-1.51,0.55-3,0.7-4.42,0.52
				c-1.89-0.24-3.66-1.06-5.13-2.28c-1.49-1.24-2.67-2.9-3.37-4.8l-0.01-0.01h0.01c-0.6-1.64-0.84-3.46-0.6-5.34
				c0.46-3.59,2.56-5.84,3.62-6.77c0.23,8.95,7.6,14.63,15.67,15.26C351.15,355.4,349.24,356.58,346.97,357.41z M358.89,341.08
				c-0.22,2.75-0.99,5.57-2.38,8.12c-0.25,0.46-0.91,1.48-1.21,1.92c-2.29-0.4-6.18-1.36-8.59-3.77c-2.34-2.34-4.31-5.71-4.87-9.1
				c-0.75-4.56,1.21-8.77,5.73-10.16c2.11-0.65,4.5-0.52,6.8,0.73c1.6,0.87,2.83,2.57,3.62,4.72
				C358.78,335.73,359.11,338.35,358.89,341.08z M373.33,349.55c3.25-3.32,7.7-11.04,9.61-9.53c0.39,0.31,0.62,1.28,0.74,2.69
				c0,0.01-0.01,0.02-0.02,0.02C383.66,342.74,381.96,346.97,373.33,349.55z M448.13,357.41c-1.5,0.55-3,0.7-4.42,0.52
				c-1.89-0.24-3.66-1.06-5.13-2.28c-1.49-1.24-2.67-2.9-3.37-4.8v-0.01c-0.6-1.64-0.84-3.46-0.6-5.34
				c0.46-3.59,2.56-5.84,3.62-6.77c0.23,8.95,7.6,14.63,15.66,15.26C452.31,355.4,450.4,356.58,448.13,357.41z M460.05,341.08
				c-0.22,2.75-0.99,5.57-2.38,8.12c-0.25,0.46-0.92,1.48-1.21,1.92c-2.29-0.4-6.18-1.36-8.59-3.77c-2.34-2.34-4.31-5.71-4.87-9.1
				c-0.75-4.56,1.21-8.77,5.73-10.16c2.11-0.65,4.5-0.52,6.8,0.73c1.6,0.87,2.83,2.57,3.62,4.72
				C459.95,335.73,460.27,338.35,460.05,341.08z"/>
			<path class="st0" d="M207.24,342.85c0.02,0.16-4.04,5.99-9.85,11.16c-6.64,5.9-13.87,6.75-17.28-1.26
				c-0.58-1.35-1.16-4.88-1.75-5.47c-0.8-0.8-2.1-0.8-2.89,0c-0.03,0.02-7.77,7.76-16.81,10.72c-0.61,0.2-1.21,0.34-1.78,0.42
				c-2.02,0.27-2.63-1.06-2.41-0.73c2.92-0.34,30.4-15.76,27.66-23.43c-0.47-1.31-1.66-2.49-3.78-3.49
				c-12.13-2.87-25.26,9.13-29.64,17.81c-3.17,6.28-2.8,12.38,4.98,13.87c1.95,0.37,3.98,0.34,5.61-0.05
				c5.98-1.4,12.29-6.23,15.68-9.24c0.39,3.52,1.84,8.14,5.77,9.94c6.44,2.95,14.62-2.83,19.2-6.87c4.99-4.41,9.3-10.01,9.11-14.36
				C208.09,341.29,207.82,341.88,207.24,342.85z M153.45,353.55c-0.88-6.42,6.93-13.86,9.82-15.97c1.6-1.17,3.16-1.99,4.61-2.57
				c1.44-0.58,2.78-0.93,3.93-1.14c1.82-0.35,3.44-0.14,4.58,0.48c0.55,0.3,0.96,0.69,1.18,1.14c0.21,0.44,0.27,1,0.12,1.64
				c-0.33,1.4-1.51,3.12-3.86,5.06C165.14,349.35,153.49,353.54,153.45,353.55z"/>
			<path class="st0" d="M126.38,323.49l0.06-0.01c2.14-0.43,4.14,0.21,5.92,1.39c3.67,2.43,6.83,9.08,9.24,8.06
				c1.87-1.18-2.11-7-3.47-8.45c-1.06-1.13-2.24-2.17-3.51-3.01c-2.62-1.73-5.64-2.66-9-1.98l-0.09,0.01
				c-3.14,0.67-5.57,2.16-7.06,4.35c-1.45,2.14-1.95,4.86-1.28,8.04c2.56,12.2,19.04,17.37,18.67,22.21
				c-1.75,0.24-4.49,0.45-7.79,0.24c-4.69-0.3-10.98-1.57-11-1.58c-1.11-0.23-2.19,0.46-2.43,1.57c-0.1,0.45-0.04,0.91,0.15,1.3
				l0.14,0.34c-5.88,4.01-11.79,3.8-14.78-3.22c-0.58-1.35-1.16-4.88-1.76-5.47c-0.8-0.8-2.09-0.8-2.89,0
				c-0.02,0.02-7.77,7.76-16.81,10.72c-0.61,0.2-1.2,0.34-1.78,0.42c-2.02,0.27-2.63-1.06-2.4-0.73
				c2.92-0.34,30.4-15.76,27.65-23.43c-0.46-1.31-1.66-2.49-3.78-3.49c-11.78-2.78-24.48,8.43-29.22,17.03
				c-6.16,6.88-12.31,11.73-22.46,11.88c-6.26-0.15-11.74-3.2-16.78-9.24c-2.01-2.4-3.68-5.13-5.04-8.04
				c-8.37-17.99-5.58-38.68,9.78-51.75c5.04-4.28,10.76-6.99,16.46-8.12c4.97-0.98,9.2-0.73,12.44,0.25l0.08,0.03
				c3.45,1.07,5.67,2.92,6.31,4.92c0.53,1.62,0.15,3.39-0.46,4.88c-0.66,1.63-2.85,3.77-1.74,5.35c0.69,0.99,2.21,0.05,3.64-1.33
				c2.49-2.41,4.21-4.95,3.58-8.56c-1.48-8.43-13.37-10.72-20.45-10.14c-1.34,0.11-2.74,0.3-4.19,0.58
				c-6.37,1.26-12.73,4.28-18.31,9.02c-5.1,4.34-9.55,10.12-12.77,17.33c-13.31,27.68-0.83,63.1,30.38,59.16
				c6.96-0.88,12.27-3.91,17.25-8.46c0.11,3.34,2.1,5.97,6.84,6.88c1.94,0.37,3.98,0.34,5.6-0.05c5.99-1.4,12.3-6.23,15.69-9.24
				c0.4,3.52,1.84,8.14,5.77,9.94c5.06,2.32,11.22-0.77,15.83-4.15c1.95,2.83,5.52,6.43,11.14,6.7c1.39,0.07,2.69-0.05,3.88-0.32
				c5.09-1.14,9.1-3.83,10.22-9.29c2.85-13.88-26.02-20.93-20.03-29.9C122.72,324.84,124.29,323.94,126.38,323.49z M73.51,353.55
				c-0.88-6.42,6.92-13.86,9.81-15.97c1.6-1.17,3.16-1.99,4.61-2.57c1.44-0.58,2.79-0.93,3.94-1.14c1.82-0.35,3.45-0.14,4.57,0.48
				c0.55,0.3,0.96,0.69,1.18,1.14c0.21,0.44,0.26,1,0.12,1.64c-0.33,1.4-1.5,3.12-3.85,5.06C85.19,349.35,73.55,353.54,73.51,353.55
				z M135.01,358.77c-0.98,1.24-2.4,2.17-4.22,2.58c-0.85,0.19-1.79,0.27-2.81,0.22c-3.4-0.16-5.78-2.12-7.3-4.01
				c2.19,0.35,4.85,0.72,7.15,0.86c2.71,0.17,5.56-0.03,7.61-0.24C135.31,358.38,135.16,358.58,135.01,358.77z"/>
			<path class="st0" d="M97.88,138.69v130.69v2.57h2.57h301.11h2.57v-2.57V138.69v-1.37l0,0l0-0.44v-0.74h-0.01
				c-0.39-33.68-17.53-64.11-45.05-86.18c-27.69-22.2-65.9-35.93-108.07-35.93s-80.38,13.73-108.07,35.93
				c-27.52,22.07-44.66,52.5-45.05,86.18h0v0.74l0,0.44l0,0V138.69z M103.01,137.31c0-32.52,16.49-62,43.13-83.38
				C172.95,32.44,210.02,19.15,251,19.15c40.98,0,78.05,13.3,104.86,34.79c26.65,21.37,43.13,50.85,43.13,83.38h0.01l0,0.66
				l-0.01,0.69v0.03h0v0.2l-0.03,2.37h0.03v125.56h-9.31V141.57h-0.01c0.01-0.42,0.01-0.85,0.01-1.27
				c0-61.42-62.09-111.21-138.68-111.21c-76.59,0-138.68,49.79-138.68,111.21c0,0.42,0,0.85,0.01,1.27h0v125.25h-9.31V141.25h0.02
				l-0.02-2.33v-0.23h-0.01v-0.02l-0.01-0.69l0-0.67H103.01z"/>
		</g>
		<g>
			<path class="st1" d="M355.86,53.93C329.05,32.44,291.99,19.15,251,19.15c-40.98,0-78.05,13.3-104.86,34.79
				c-26.65,21.37-43.13,50.85-43.13,83.38H103l0,0.67l0.01,0.69v0.02h0.01v0.23l0.02,2.33h-0.02v125.56h295.98V141.25h-0.03
				l0.03-2.37v-0.2h0v-0.03l0.01-0.69l0-0.66H399C399,104.79,382.52,75.31,355.86,53.93 M251,14.01
				c42.17,0,80.38,13.73,108.07,35.93c27.52,22.07,44.66,52.5,45.05,86.18h0.01v0.74l0,0.44l0,0v1.37v130.69v2.57h-2.57H100.45
				h-2.57v-2.57V138.69v-1.37l0,0l0-0.44v-0.74h0c0.39-33.68,17.53-64.11,45.05-86.18C170.62,27.75,208.84,14.01,251,14.01z"/>
			<path class="st2" d="M251,29.09c76.59,0,138.68,49.79,138.68,111.21c0,0.42,0,0.85-0.01,1.27h0.01v125.45H112.33V141.57h0
				c0-0.42-0.01-0.85-0.01-1.27C112.32,78.88,174.41,29.09,251,29.09"/>
			<path class="st3" d="M260.94,355.39c4.68-2.57,9.01-7.24,12.25-12.96c3.46-6.08,5.66-13.31,5.74-20.4v-0.01
				c0.01-1.16-0.03-2.34-0.13-3.54l0,0c-0.51-5.85-2.43-10.87-5.34-14.42c-2.8-3.41-6.53-5.45-10.79-5.5
				c-0.41-0.01-0.88,0.01-1.4,0.06c-0.8,0.07-1.58,0.23-2.33,0.48l0,0v0.01c-3.81,1.26-7.47,4.71-10.05,9.71
				c-2.67,5.17-4.15,11.95-3.48,19.71c0.3,3.5,1.05,7.2,2.31,11.03c1.84,5.56,4.44,9.44,7.38,12.1
				C256.94,353.35,258.92,354.55,260.94,355.39 M271.08,296.77c2.07,1.17,3.92,2.77,5.53,4.72c3.44,4.18,5.69,9.99,6.27,16.66l0,0
				v0.01c0.11,1.23,0.15,2.54,0.13,3.93v0.01c-0.09,7.81-2.49,15.72-6.27,22.36c-2.86,5.03-6.52,9.36-10.58,12.4l0.6,0.09l0.07,0.01
				c6.1,0.8,11.4,0.3,15.49-1.89c4.2-2.24,8.05-6.02,12.03-10.73c0.73-0.86,1.25-1.24,2.11-0.51c0.86,0.72,0.97,2.02,0.24,2.87
				c-4.27,5.06-8.31,9.05-13.07,11.59c-4.84,2.59-10.31,3.63-17.33,2.71l-0.08-0.01c-1.66-0.23-3.35-0.59-5.05-1.16
				c-38.84,17.98-57.79-23.7-42.71-55.05c3.22-7.21,7.67-13,12.77-17.33c5.58-4.74,11.94-7.76,18.31-9.02
				c1.45-0.29,2.85-0.48,4.19-0.59c7.08-0.57,18.97,1.71,20.45,10.14C274.65,290.72,273.69,293.74,271.08,296.77z M267.29,295.17
				c1.01-1.52,2.78-4.74,1.88-7.53c-0.65-1.99-2.87-3.85-6.31-4.92l-0.09-0.03c-3.24-0.98-7.47-1.23-12.44-0.25
				c-5.71,1.13-11.43,3.85-16.46,8.13c-17.4,14.79-19.15,42.53-4.74,59.79c7.62,9.13,16.23,11.44,27.06,7.19
				c-1.3-0.79-2.58-1.72-3.8-2.83c-3.45-3.11-6.46-7.57-8.54-13.85c-1.37-4.15-2.18-8.16-2.51-11.96
				c-0.74-8.57,0.93-16.14,3.93-21.94c3.08-5.97,7.59-10.13,12.39-11.72l0,0.01c1.09-0.36,2.18-0.59,3.25-0.69
				c0.56-0.05,1.15-0.06,1.79-0.06C264.3,294.53,265.82,294.75,267.29,295.17z"/>
			<path class="st3" d="M273.45,324.91c-1.09,0.27-2.2-0.4-2.47-1.5c-0.27-1.1,0.4-2.2,1.49-2.47l59.08-14.59
				c1.09-0.27,2.2,0.4,2.47,1.49c0.27,1.1-0.4,2.2-1.5,2.47L273.45,324.91z"/>
			<path class="st3" d="M301.81,296.2c2.2-2.16,3.7-0.98,4.21,1.02c0.53,2.04-0.69,8.02-1.14,10.06c-1.32,6.05-3.34,13.5-3.9,20.52
				c-0.32,3.97-1.85,18.76,1.51,26.79c5.36,12.76,16.4-0.87,21.32-6.3c1.63-1.8,3.06-3.48,4.25-4.88c0.99-1.16,1.84-2.16,2.32-2.68
				c0.76-0.84,2.05-0.9,2.89-0.14c0.83,0.76,0.89,2.05,0.13,2.89c-0.73,0.8-1.43,1.62-2.24,2.57c-1.25,1.46-2.74,3.22-4.34,4.98
				c-9.74,10.76-18.78,16.53-24.66,12.62C290.1,355.63,296.37,301.55,301.81,296.2"/>
			<path class="st3" d="M355.3,351.13c0.3-0.44,0.96-1.46,1.21-1.92c1.39-2.55,2.17-5.38,2.38-8.12c0.22-2.73-0.11-5.36-0.91-7.54
				c-0.79-2.15-2.02-3.85-3.62-4.72c-2.3-1.25-4.69-1.38-6.8-0.73c-4.52,1.4-6.48,5.6-5.73,10.16c0.56,3.4,2.53,6.76,4.87,9.1
				C349.12,349.77,353.01,350.72,355.3,351.13 M352.74,353.98c-8.07-0.63-15.44-6.31-15.67-15.26c-1.06,0.92-3.16,3.17-3.62,6.76
				c-0.24,1.88,0,3.71,0.6,5.34h-0.01l0.01,0.01c0.69,1.9,1.87,3.56,3.37,4.8c1.47,1.23,3.24,2.04,5.13,2.28
				c1.42,0.18,2.92,0.03,4.42-0.52C349.24,356.58,351.15,355.4,352.74,353.98z M383.67,342.73c0.44-1.04,1.64-1.52,2.67-1.08
				c1.12,1.74,0.27,3.62-1.62,5.4c-6.5,6.13-18.34,9.3-27.31,7.99c-4.7,5.46-13.97,9.84-20.88,6.12
				c-5.07-2.73-7.83-10.54-7.12-16.18c0.85-6.72,5.99-10.13,6.01-10.14c0.52-0.35,1.14-0.42,1.7-0.26c0.25-1.39,0.72-2.7,1.38-3.92
				c0.83-1.53,1.97-2.88,3.31-3.99c1.34-1.1,2.89-1.96,4.57-2.47c3.09-0.96,6.6-0.78,9.94,1.05c2.51,1.37,4.39,3.85,5.5,6.91
				c1,2.73,1.41,5.95,1.15,9.25c-0.26,3.28-1.19,6.67-2.88,9.76l-0.03,0.07c1.51,0.11,3.07,0.09,4.66-0.06
				C380.97,349.59,383.66,342.75,383.67,342.73z"/>
			<path class="st3" d="M370.67,350.91c-0.81-2.51,8.45-19.5,13.24-18.25c7.09,1.85,2.08,22.63,4.17,23.16
				c0.61,0.15,1.19-2.78,4.35-9.25c2.94-6.05,5.8-11.92,7.23-13.35c1.15-1.15,2.28-1.27,3.37-0.18c1.88,1.88,3.76,16.07,10.66,23.26
				c3.92,4.09,9.91,6.43,17.36,4.36c3.77-1.41,5.23-4.25,5.23-4.25c1.71-1.9,5.72-0.11-0.19,5.26c-0.99,0.9-2.39,1.86-4.29,2.57
				c-2.71,1.01-6.05,1.57-9.48,1.38c-15.57,0.19-19.04-11.74-21.27-24.66c-0.41-2.4-0.21-2.14-1.32,0.03
				c-1.09,2.13-2.35,4.73-3.63,7.36c-3.87,7.94-7.88,16.17-10.48,15.51c-2.46-0.62-2.24-5.8-1.99-11.82
				c0.26-6.19,0.32-11.24-0.69-12.04C380.41,338.01,373.4,352.28,370.67,350.91"/>
			<path class="st3" d="M381.67,321.57c-1.25,1.37-3.86,0.69-2.74-1.89c0.78-1.82,3.14-3.19,4.5-3.46c1.34-0.27,2.93-0.25,4.67,0.39
				c0.7,0.26,1.62,0.76,2.72,1.37c1.84,1.01,4.28,2.36,6.25,2.85c1.11,0.28,2.04,0.23,2.25-0.65c0.27-1.09,1.38-1.76,2.48-1.49
				c2.38,0.59,0.92,8.2-6.45,6.36c-2.48-0.62-4.46-2.37-6.5-3.5c-0.97-0.53-1.77-0.98-2.15-1.11
				C383.68,319.36,381.67,321.57,381.67,321.57"/>
			<path class="st3" d="M456.46,351.13c0.29-0.44,0.96-1.46,1.21-1.92c1.39-2.55,2.16-5.38,2.38-8.12c0.22-2.73-0.11-5.36-0.91-7.54
				c-0.78-2.15-2.02-3.85-3.62-4.72c-2.3-1.25-4.69-1.38-6.8-0.73c-4.52,1.4-6.48,5.6-5.73,10.16c0.56,3.4,2.53,6.76,4.87,9.1
				C450.29,349.77,454.18,350.72,456.46,351.13 M453.9,353.98c-8.06-0.63-15.43-6.31-15.66-15.26c-1.06,0.92-3.16,3.17-3.62,6.76
				c-0.24,1.88,0,3.71,0.6,5.34l0,0v0.01c0.7,1.9,1.88,3.56,3.37,4.8c1.47,1.23,3.24,2.04,5.13,2.28c1.42,0.18,2.92,0.03,4.42-0.52
				C450.4,356.58,452.32,355.4,453.9,353.98z M484.83,342.73c0.44-1.04,1.64-1.52,2.68-1.08c1.11,1.74,0.26,3.62-1.62,5.4
				c-6.49,6.13-18.34,9.3-27.31,7.99c-4.7,5.46-13.97,9.84-20.88,6.12c-5.08-2.73-7.84-10.54-7.12-16.18
				c0.85-6.72,6-10.13,6.01-10.14c0.52-0.35,1.14-0.42,1.69-0.26c0.25-1.39,0.72-2.7,1.39-3.92c0.83-1.53,1.96-2.88,3.3-3.99
				c1.34-1.1,2.89-1.96,4.57-2.47c3.09-0.96,6.59-0.78,9.94,1.05c2.51,1.37,4.38,3.85,5.5,6.91c1,2.73,1.41,5.95,1.15,9.25
				c-0.26,3.28-1.19,6.67-2.88,9.76l-0.03,0.07c1.51,0.11,3.06,0.09,4.66-0.06C482.13,349.59,484.82,342.75,484.83,342.73z"/>
			<path class="st3" d="M153.45,353.55c0.04-0.01,11.69-4.2,20.38-11.36c2.35-1.94,3.53-3.66,3.86-5.06
				c0.15-0.65,0.09-1.2-0.12-1.64c-0.22-0.46-0.63-0.85-1.18-1.14c-1.13-0.62-2.76-0.83-4.58-0.48c-1.15,0.21-2.49,0.56-3.93,1.14
				c-1.44,0.58-3.01,1.4-4.61,2.57C160.38,339.7,152.57,347.13,153.45,353.55 M154.47,357.68c-0.22-0.33,0.39,1,2.41,0.73
				c0.57-0.08,1.17-0.22,1.78-0.42c9.04-2.96,16.79-10.7,16.81-10.72c0.8-0.8,2.09-0.8,2.89,0c0.59,0.59,1.17,4.12,1.75,5.47
				c3.41,8.02,10.64,7.16,17.28,1.26c5.81-5.17,9.87-11,9.85-11.16c0.58-0.97,0.84-1.56,1.81-0.98c0.19,4.35-4.12,9.96-9.11,14.36
				c-4.57,4.04-12.76,9.82-19.2,6.87c-3.93-1.8-5.37-6.42-5.77-9.94c-3.4,3.02-9.7,7.84-15.68,9.24c-1.63,0.38-3.67,0.42-5.61,0.05
				c-7.77-1.48-8.14-7.59-4.98-13.87c4.38-8.69,17.5-20.68,29.64-17.81c2.12,0.99,3.31,2.18,3.78,3.49
				C184.87,341.92,157.39,357.34,154.47,357.68z M73.51,353.55c0.03-0.01,11.68-4.2,20.38-11.36c2.35-1.94,3.53-3.66,3.85-5.06
				c0.15-0.65,0.09-1.2-0.12-1.64c-0.22-0.46-0.63-0.85-1.18-1.14c-1.13-0.62-2.75-0.83-4.57-0.48c-1.15,0.21-2.5,0.56-3.94,1.14
				c-1.44,0.58-3.01,1.4-4.61,2.57C80.43,339.7,72.63,347.13,73.51,353.55z M69.53,292.61c0.61-1.49,0.98-3.26,0.46-4.88
				c-0.65-1.99-2.87-3.85-6.31-4.92l-0.08-0.03c-3.24-0.98-7.47-1.23-12.44-0.25c-5.71,1.13-11.43,3.84-16.46,8.12
				c-15.35,13.06-18.15,33.76-9.78,51.75c1.36,2.91,3.03,5.64,5.04,8.04c5.05,6.04,10.52,9.09,16.78,9.24
				c10.15-0.16,16.3-5.01,22.46-11.88c4.74-8.6,17.45-19.81,29.22-17.03c2.12,0.99,3.32,2.18,3.78,3.49
				c2.75,7.67-24.73,23.09-27.65,23.43c-0.22-0.33,0.39,1,2.4,0.73c0.58-0.08,1.17-0.22,1.78-0.42c9.04-2.96,16.79-10.7,16.81-10.72
				c0.8-0.8,2.09-0.8,2.89,0c0.59,0.59,1.18,4.12,1.76,5.47c2.99,7.02,8.9,7.24,14.78,3.22l-0.14-0.34
				c-0.19-0.39-0.25-0.84-0.15-1.3c0.24-1.11,1.33-1.8,2.43-1.57c0.02,0,6.3,1.28,11,1.58c3.3,0.21,6.03,0,7.79-0.24
				c0.37-4.84-16.12-10.01-18.67-22.21c-0.67-3.18-0.17-5.9,1.28-8.04c1.49-2.19,3.91-3.68,7.06-4.35l0.09-0.01
				c3.35-0.68,6.38,0.25,9,1.98c1.28,0.85,2.45,1.88,3.51,3.01c1.36,1.44,5.34,7.26,3.47,8.45c-2.4,1.02-5.56-5.63-9.24-8.06
				c-1.77-1.17-3.78-1.82-5.92-1.39l-0.06,0.01c-2.1,0.45-3.66,1.35-4.53,2.63c-5.99,8.97,22.88,16.02,20.03,29.9
				c-1.12,5.46-5.13,8.15-10.22,9.29c-1.2,0.27-2.5,0.38-3.88,0.32c-5.62-0.27-9.18-3.87-11.14-6.7
				c-4.62,3.39-10.77,6.47-15.83,4.15c-3.93-1.8-5.37-6.42-5.77-9.94c-3.39,3.02-9.7,7.84-15.69,9.24c-1.62,0.38-3.66,0.42-5.6,0.05
				c-4.75-0.91-6.74-3.54-6.84-6.88c-4.98,4.55-10.29,7.58-17.25,8.46c-31.2,3.93-43.69-31.48-30.38-59.16
				c3.22-7.21,7.67-12.99,12.77-17.33c5.58-4.74,11.95-7.76,18.31-9.02c1.45-0.28,2.85-0.48,4.19-0.58
				c7.08-0.58,18.97,1.71,20.45,10.14c0.63,3.61-1.09,6.14-3.58,8.56c-1.43,1.38-2.94,2.32-3.64,1.33
				C66.68,296.37,68.87,294.23,69.53,292.61z M135.44,358.17c-2.05,0.21-4.9,0.41-7.61,0.24c-2.31-0.15-4.97-0.51-7.15-0.86
				c1.52,1.88,3.9,3.85,7.3,4.01c1.03,0.05,1.96-0.03,2.81-0.22c1.82-0.41,3.25-1.33,4.22-2.58
				C135.17,358.58,135.31,358.38,135.44,358.17z"/>
			<path class="st4" d="M251,29.09c76.59,0,138.68,49.79,138.68,111.21c0,0.42,0,0.85-0.01,1.27h0.01v125.45H112.33V141.57h0
				c0-0.42-0.01-0.85-0.01-1.27C112.32,78.88,174.41,29.09,251,29.09"/>
			<path class="st3" d="M355.86,53.93C329.05,32.44,291.99,19.15,251,19.15c-40.98,0-78.05,13.3-104.86,34.79
				c-26.65,21.37-43.13,50.85-43.13,83.38H103l0,0.67l0.01,0.69v0.02h0.01v0.23l0.02,2.33h-0.02v125.56h295.98V141.25h-0.03
				l0.03-2.37v-0.2h0v-0.03l0.01-0.69l0-0.66H399C399,104.79,382.52,75.31,355.86,53.93 M251,14.01
				c42.17,0,80.38,13.73,108.07,35.93c27.52,22.07,44.66,52.5,45.05,86.18h0.01v0.74l0,0.44l0,0v1.37v130.69v2.57h-2.57H100.45
				h-2.57v-2.57V138.69v-1.37l0,0l0-0.44v-0.74h0c0.39-33.68,17.53-64.11,45.05-86.18C170.62,27.75,208.84,14.01,251,14.01z"/>
			<path class="st3" d="M342.03,187.65c-0.04,0.13-0.09,0.26-0.15,0.39c-0.67,1.6-2.54,3.92-4.39,4.43c0.58,0.41,1.11,0.91,1.56,1.5
				c0.55,0.69,0.99,1.5,1.31,2.42c1.14-0.72,2.37-1.56,3.5-2.52l0.02-0.02c1.31-1.11,2.47-2.35,3.13-3.69l0.01,0
				c0.33-0.67,0.55-1.35,0.64-1.98c0.08-0.59,0.05-1.14-0.09-1.6c-0.11-0.33-0.28-0.68-0.51-1.02c-0.86-1.3-2.44-2.48-4.15-3.24
				c-1.67-0.75-3.44-1.07-4.7-0.66c-0.23,0.07-0.45,0.18-0.65,0.31c-0.64,0.42-1.05,1.2-1.31,2.12c-0.37,1.31-0.41,2.87-0.31,4.21
				c0.11,1.45,0.27,2.34,0.6,2.52c0.94,0.51,3.82-2.49,4.39-3.32c0.19-0.28,0.36-0.54,0.5-0.74c0.07-0.11,0.15-0.25,0.24-0.32
				c0.21-0.16,0.35-0.05,0.42,0.14C342.22,186.94,342.14,187.32,342.03,187.65 M256.98,205.4c0.78,0.22,0.85,2.98,1.85,5.81
				c0.46,1.32,1.19,2.55,1.93,3.46c1.36-1.58,3.11-3.12,5.1-4.18c-0.43-0.15-0.69-0.6-0.59-1.06c0.26-1.19,0.25-2.32,0.01-3.33
				c-0.28-1.21-0.88-2.27-1.7-3.08c-0.82-0.8-1.87-1.38-3.04-1.63c-0.95-0.2-2-0.2-3.08,0.05c-1.93,0.45-3.77,1.16-5.26,2.25
				c-1.25,0.91-2.28,2.11-2.91,3.64c-2.16,5.2,4.38,12.21,8.08,15.25c2.93,2.39,11.01,5.84,14.87,4.81
				c3.26-0.73,3.39-8.03,2.86-10.51c-0.61-2.86-2.16-5.47-5.36-5.84c-0.38,0.05-0.79,0.15-1.23,0.29c-0.42,0.14-0.84,0.31-1.25,0.51
				c-2.43,1.15-4.52,3.15-5.94,5.06c-1.3,1.77-2.03,3.34-1.85,3.95l0,0.01c0.27,0.55,0.75,0.85,1.41,0.97
				c0.83,0.16,1.92,0.05,3.18-0.19c2.36-0.46,3.82-1.28,5.32-1.95c2.17-0.97,1.09,1.34-2.43,2.99c-0.77,0.37-1.67,0.58-2.55,0.76
				c-1.47,0.28-2.78,0.39-3.85,0.19c-1.25-0.23-2.19-0.84-2.74-1.99c-0.03-0.06-0.05-0.13-0.08-0.2l-0.02-0.07
				c-0.3-1.09,0.44-3.16,1.92-5.27c-2.52-2.49-3.12-4.79-3.16-8.28C256.46,206.51,256.46,205.38,256.98,205.4z M272.88,200.83
				c-0.09,0.11-0.21,0.22-0.32,0.33c-1.39,1.27-4.3,2.69-6.36,2.35c0.38,0.67,0.67,1.4,0.85,2.19c0.22,0.93,0.28,1.94,0.18,2.99
				c1.45-0.19,3.06-0.45,4.6-0.88l0.03-0.01c1.79-0.49,3.5-1.18,4.78-2.2v0c0.64-0.51,1.16-1.07,1.54-1.65
				c0.35-0.55,0.57-1.1,0.64-1.62c0.04-0.38,0.03-0.79-0.04-1.24c-0.26-1.67-1.27-3.56-2.6-5.1c-1.3-1.5-2.89-2.62-4.33-2.8
				c-0.26-0.03-0.52-0.03-0.78,0.01c-0.82,0.13-1.59,0.7-2.26,1.49c-0.96,1.12-1.72,2.64-2.23,4c-0.56,1.48-0.81,2.43-0.56,2.76
				c0.69,0.94,4.9-0.7,5.84-1.26c0.32-0.19,0.59-0.37,0.82-0.49c0.12-0.08,0.26-0.18,0.39-0.2c0.28-0.07,0.36,0.1,0.34,0.33
				C273.39,200.21,273.14,200.54,272.88,200.83z M181.24,203.81c0.14-0.1,0.29-0.19,0.46-0.29c1.91-1.08,5.56-1.96,7.8-1.05
				c-0.26-0.86-0.39-1.76-0.4-2.7c-0.01-1.11,0.17-2.27,0.56-3.43c-1.7-0.16-3.58-0.26-5.44-0.18l-0.03,0
				c-2.16,0.1-4.27,0.45-5.98,1.28v0c-0.85,0.42-1.59,0.92-2.16,1.49c-0.54,0.52-0.93,1.09-1.14,1.68
				c-0.15,0.42-0.24,0.89-0.27,1.41c-0.13,1.96,0.53,4.36,1.66,6.44c1.1,2.03,2.61,3.71,4.19,4.28c0.29,0.1,0.58,0.17,0.88,0.19
				c0.96,0.07,1.98-0.39,2.95-1.11c1.37-1.03,2.62-2.56,3.54-3.97c1.01-1.54,1.53-2.55,1.34-2.99c-0.55-1.24-5.73-0.45-6.94-0.06
				c-0.41,0.13-0.77,0.26-1.06,0.35c-0.16,0.05-0.35,0.13-0.49,0.13c-0.34,0-0.39-0.21-0.31-0.46
				C180.52,204.38,180.89,204.06,181.24,203.81z M257.75,190.52c-0.13-0.1-0.27-0.23-0.4-0.36c-1.58-1.53-3.45-4.78-3.2-7.19
				c-0.75,0.49-1.58,0.88-2.48,1.15c-1.07,0.32-2.22,0.47-3.45,0.43c0.33,1.67,0.75,3.51,1.36,5.27l0.01,0.03
				c0.7,2.05,1.63,3.97,2.9,5.37v0c0.64,0.7,1.33,1.27,2.03,1.66c0.65,0.36,1.31,0.58,1.93,0.62c0.44,0.03,0.93-0.02,1.44-0.13
				c1.92-0.42,4.04-1.73,5.71-3.4c1.64-1.63,2.83-3.55,2.92-5.23c0.02-0.31,0-0.61-0.06-0.9c-0.21-0.94-0.93-1.79-1.89-2.51
				c-1.37-1.03-3.19-1.79-4.81-2.28c-1.76-0.54-2.88-0.76-3.25-0.45c-1.04,0.87,1.18,5.62,1.89,6.68c0.24,0.35,0.47,0.67,0.64,0.92
				c0.09,0.14,0.22,0.29,0.26,0.44c0.1,0.33-0.09,0.43-0.36,0.42C258.5,191.06,258.09,190.79,257.75,190.52z M303.85,152.33
				c-0.18,0.86-3.18,1.14-6.17,2.41c-1.4,0.59-2.67,1.47-3.61,2.33c1.81,1.36,3.6,3.16,4.89,5.24c0.13-0.47,0.6-0.79,1.1-0.71
				c1.31,0.2,2.53,0.1,3.61-0.23c1.3-0.39,2.39-1.11,3.22-2.06c0.81-0.95,1.37-2.12,1.56-3.41c0.16-1.05,0.08-2.18-0.27-3.33
				c-0.62-2.06-1.52-4.01-2.81-5.55c-1.08-1.3-2.45-2.32-4.14-2.9c-5.79-1.98-12.93,5.59-15.96,9.82
				c-2.39,3.33-5.57,12.33-4.18,16.44c1.02,3.48,8.94,3.12,11.59,2.37c3.06-0.85,5.78-2.72,5.96-6.21c-0.08-0.41-0.22-0.85-0.4-1.32
				c-0.18-0.44-0.39-0.88-0.63-1.31c-1.42-2.56-3.73-4.68-5.9-6.08c-2-1.29-3.76-1.97-4.41-1.73l-0.01,0
				c-0.58,0.32-0.88,0.88-0.96,1.59c-0.11,0.91,0.08,2.09,0.43,3.44c0.66,2.52,1.65,4.05,2.48,5.63c1.2,2.28-1.37,1.27-3.41-2.42
				c-0.45-0.81-0.74-1.77-0.99-2.71c-0.41-1.57-0.62-2.98-0.48-4.16c0.16-1.37,0.75-2.43,1.97-3.11c0.07-0.04,0.14-0.07,0.21-0.1
				l0.07-0.03c1.17-0.41,3.46,0.25,5.84,1.71c2.53-2.91,4.97-3.71,8.75-4C302.61,151.85,303.83,151.78,303.85,152.33z
				 M309.91,169.25c-0.12-0.1-0.24-0.21-0.37-0.33c-1.47-1.42-3.22-4.47-2.99-6.72c-0.7,0.45-1.47,0.82-2.31,1.07
				c-1,0.3-2.08,0.44-3.23,0.4c0.31,1.57,0.71,3.28,1.27,4.93l0.01,0.03c0.65,1.91,1.52,3.71,2.71,5.02l0,0
				c0.59,0.65,1.24,1.18,1.9,1.55c0.61,0.34,1.22,0.55,1.8,0.58c0.41,0.03,0.86-0.02,1.33-0.12c1.79-0.39,3.77-1.62,5.34-3.18
				c1.53-1.52,2.64-3.32,2.73-4.88c0.02-0.29,0-0.57-0.06-0.84l-0.01-0.05c-0.26-0.45-0.51-0.9-0.74-1.36
				c-0.29-0.33-0.63-0.65-1.02-0.94c-1.28-0.96-2.99-1.68-4.49-2.14c-1.64-0.5-2.69-0.71-3.03-0.42c-0.97,0.81,1.1,5.26,1.77,6.24
				c0.23,0.34,0.44,0.63,0.6,0.87c0.09,0.13,0.21,0.27,0.25,0.41c0.09,0.3-0.09,0.4-0.33,0.39
				C310.61,169.76,310.23,169.51,309.91,169.25z M277.4,215.93c-0.19-2.31-0.03-5.17,0.51-8.16c0.08-0.36,0.17-0.73,0.26-1.09
				c-1.68,1.37-3.83,2.32-5.66,2.84c0.83,0.31,1.55,0.79,2.17,1.38c1.21,1.15,1.99,2.71,2.46,4.12
				C277.24,215.32,277.33,215.63,277.4,215.93z M305.83,193c-0.1,1.09-3.75,1.86-7.25,3.87c-1.64,0.93-3.08,2.2-4.11,3.4
				c2.43,1.42,4.89,3.36,6.79,5.73c0.09-0.6,0.63-1.06,1.25-1.04c1.64,0.05,3.13-0.24,4.42-0.8c1.54-0.67,2.78-1.72,3.66-3.01
				c0.87-1.28,1.37-2.81,1.42-4.43c0.04-1.31-0.22-2.69-0.81-4.06c-1.07-2.44-2.46-4.71-4.27-6.42c-1.52-1.44-3.35-2.5-5.53-2.97
				c-7.42-1.59-15.11,8.78-18.22,14.43c-2.45,4.45-5.05,15.99-2.74,20.86c1.76,4.14,11.47,2.52,14.63,1.22
				c3.64-1.5,6.72-4.19,6.43-8.52c-0.16-0.49-0.39-1.01-0.69-1.56c-0.28-0.52-0.61-1.03-0.97-1.53c-2.13-2.94-5.28-5.22-8.16-6.62
				c-2.66-1.3-4.92-1.87-5.69-1.49l-0.02,0.01c-0.67,0.49-0.95,1.21-0.94,2.11c0,1.14,0.4,2.55,1.03,4.16
				c1.18,3.01,2.63,4.75,3.88,6.57c1.82,2.63-1.5,1.77-4.56-2.48c-0.67-0.93-1.18-2.07-1.62-3.19c-0.73-1.87-1.2-3.57-1.2-5.05
				c0-1.71,0.58-3.11,1.97-4.11c0.07-0.06,0.16-0.1,0.24-0.16l0.09-0.04c1.37-0.67,4.3-0.2,7.45,1.26c2.68-3.95,5.58-5.3,10.19-6.21
				C304.23,192.58,305.73,192.32,305.83,193z M325.87,205.18c0.09,0.08,0.17,0.16,0.26,0.24c0.42,0.4,0.77,0.83,1.05,1.29
				c2.8,2.65,7.46,4.4,10.35,5.14c3.37,0.86,11.46,0.6,14.28-1.76c2.44-1.87-0.29-8.03-1.69-9.89c-1.62-2.15-3.93-3.73-6.74-2.8
				c-0.3,0.19-0.61,0.43-0.92,0.73c-0.3,0.28-0.58,0.58-0.85,0.91c-1.58,1.91-2.55,4.39-2.99,6.53c-0.4,1.99-0.39,3.58,0,4.02
				l0.01,0c0.43,0.36,0.96,0.42,1.56,0.27c0.75-0.19,1.63-0.71,2.58-1.4c1.79-1.3,2.69-2.55,3.69-3.7c1.43-1.65,1.42,0.69-0.87,3.45
				c-0.5,0.6-1.17,1.14-1.83,1.62c-1.12,0.8-2.16,1.4-3.14,1.66c-1.13,0.3-2.15,0.16-3.06-0.6c-0.05-0.04-0.09-0.09-0.14-0.13
				l-0.05-0.05c-0.68-0.79-0.86-2.81-0.44-5.14c-3.08-1.1-4.47-2.79-5.86-5.68c-0.53-1.09-0.95-2.03-0.52-2.22
				c0.74-0.12,1.87,2.16,3.8,4.13c0.9,0.92,1.99,1.66,2.96,2.14c0.52-1.85,1.38-3.81,2.63-5.47c-0.42,0.04-0.81-0.23-0.91-0.65
				c-0.25-1.1-0.7-2.03-1.29-2.78c-0.71-0.91-1.62-1.55-2.62-1.91c-1-0.35-2.1-0.42-3.18-0.18c-0.87,0.2-1.74,0.61-2.54,1.24
				c-1.44,1.12-2.7,2.44-3.52,3.93c-0.69,1.25-1.08,2.64-1.02,4.17C324.89,203.31,325.26,204.28,325.87,205.18z M315.77,212.95
				c-0.16-0.1-0.33-0.22-0.51-0.35c-2.03-1.54-4.62-5.04-4.67-7.84c-0.79,0.66-1.7,1.22-2.69,1.65c-1.18,0.52-2.49,0.85-3.91,0.97
				c0.6,1.88,1.34,3.93,2.28,5.88l0.02,0.03c1.08,2.26,2.42,4.35,4.07,5.79l0,0c0.83,0.72,1.7,1.27,2.57,1.63
				c0.8,0.33,1.59,0.49,2.3,0.45c0.51-0.03,1.06-0.15,1.63-0.35c2.15-0.75,4.41-2.55,6.11-4.69c1.66-2.09,2.77-4.47,2.65-6.41
				c-0.02-0.36-0.08-0.7-0.2-1.02c-0.37-1.06-1.32-1.93-2.52-2.63c-1.72-1-3.92-1.63-5.84-1.97c-2.1-0.38-3.41-0.48-3.79-0.07
				c-1.07,1.14,2.12,6.31,3.09,7.42c0.33,0.38,0.63,0.71,0.86,0.98c0.13,0.15,0.3,0.31,0.36,0.47c0.16,0.36-0.06,0.51-0.36,0.54
				C316.7,213.47,316.2,213.22,315.77,212.95z M295.07,119.46c1.09-0.03,2.31,3.49,4.74,6.72c1.13,1.5,2.56,2.79,3.88,3.65
				c1.11-2.58,2.73-5.26,4.85-7.44c-0.61-0.02-1.13-0.49-1.18-1.11c-0.15-1.64-0.63-3.08-1.34-4.28c-0.85-1.44-2.05-2.55-3.44-3.26
				c-1.38-0.71-2.96-1.01-4.57-0.87c-1.31,0.13-2.64,0.55-3.93,1.31c-2.3,1.36-4.37,3.03-5.85,5.03c-1.24,1.69-2.07,3.63-2.26,5.85
				c-0.66,7.56,10.57,13.91,16.56,16.3c4.72,1.89,16.5,3.04,21.04,0.15c3.89-2.25,1.09-11.69-0.59-14.67
				c-1.94-3.42-4.99-6.15-9.24-5.33c-0.47,0.22-0.96,0.52-1.46,0.88c-0.48,0.35-0.94,0.74-1.4,1.15c-2.66,2.47-4.53,5.88-5.57,8.91
				c-0.96,2.8-1.25,5.11-0.78,5.82l0.01,0.02c0.57,0.61,1.31,0.79,2.21,0.68c1.13-0.14,2.48-0.71,4-1.54
				c2.84-1.54,4.39-3.19,6.04-4.66c2.39-2.13,1.94,1.27-1.9,4.83c-0.84,0.78-1.91,1.42-2.97,2c-1.77,0.96-3.4,1.63-4.87,1.82
				c-1.7,0.21-3.16-0.19-4.33-1.45c-0.06-0.06-0.12-0.14-0.18-0.22l-0.06-0.09c-0.83-1.28-0.73-4.23,0.33-7.54
				c-4.25-2.18-5.95-4.88-7.42-9.35C294.85,121.1,294.41,119.65,295.07,119.46z M313.64,107.14c-0.08,0.17-0.18,0.36-0.28,0.55
				c-1.28,2.2-4.43,5.2-7.21,5.59c0.76,0.71,1.43,1.53,1.98,2.47c0.66,1.11,1.15,2.37,1.44,3.77c1.79-0.83,3.74-1.82,5.55-2.99
				l0.03-0.03c2.11-1.36,4.02-2.94,5.24-4.76l0,0c0.61-0.91,1.05-1.85,1.3-2.74c0.23-0.84,0.29-1.64,0.16-2.34
				c-0.09-0.5-0.28-1.03-0.55-1.57c-1.01-2.04-3.07-4.06-5.41-5.49c-2.28-1.39-4.78-2.19-6.69-1.84c-0.35,0.07-0.69,0.17-0.99,0.32
				c-1,0.5-1.76,1.54-2.3,2.83c-0.78,1.83-1.14,4.09-1.23,6.04c-0.12,2.13-0.06,3.45,0.39,3.78c1.27,0.92,6-2.89,6.98-3.99
				c0.33-0.37,0.62-0.71,0.86-0.97c0.13-0.14,0.27-0.33,0.42-0.42c0.34-0.2,0.51-0.01,0.58,0.29
				C314.04,106.15,313.86,106.67,313.64,107.14z M257.1,99.19c1.04,0.33,1.02,4.06,2.24,7.91c0.56,1.79,1.49,3.48,2.45,4.74
				c1.9-2.07,4.32-4.06,7.04-5.41c-0.57-0.22-0.9-0.84-0.75-1.45c0.4-1.59,0.43-3.11,0.16-4.48c-0.33-1.65-1.09-3.09-2.16-4.22
				c-1.07-1.12-2.45-1.94-4.03-2.34c-1.27-0.32-2.68-0.36-4.13-0.07c-2.62,0.52-5.13,1.4-7.19,2.8c-1.73,1.18-3.16,2.73-4.08,4.76
				c-3.13,6.91,5.35,16.63,10.21,20.88c3.83,3.35,14.55,8.34,19.8,7.12c4.42-0.84,4.91-10.67,4.31-14.03
				c-0.68-3.87-2.66-7.45-6.95-8.09c-0.52,0.05-1.08,0.16-1.68,0.34c-0.57,0.17-1.14,0.38-1.7,0.62c-3.32,1.45-6.22,4.04-8.21,6.56
				c-1.84,2.32-2.88,4.41-2.67,5.24l0.01,0.01c0.33,0.76,0.98,1.19,1.86,1.38c1.11,0.24,2.58,0.15,4.29-0.12
				c3.19-0.51,5.2-1.55,7.25-2.39c2.96-1.21,1.4,1.85-3.4,3.92c-1.04,0.46-2.27,0.71-3.46,0.9c-1.99,0.32-3.75,0.41-5.19,0.1
				c-1.67-0.36-2.92-1.22-3.6-2.8c-0.03-0.09-0.07-0.17-0.1-0.27l-0.02-0.1c-0.36-1.49,0.72-4.24,2.81-7.01
				c-3.29-3.46-3.99-6.58-3.9-11.28C256.35,100.66,256.41,99.15,257.1,99.19z M278.71,93.73c-0.13,0.14-0.29,0.28-0.45,0.42
				c-1.94,1.65-5.91,3.44-8.65,2.89c0.48,0.92,0.83,1.92,1.04,2.98c0.25,1.27,0.3,2.62,0.11,4.03c1.97-0.19,4.13-0.48,6.23-0.98
				l0.04-0.01c2.43-0.58,4.76-1.44,6.52-2.75v0c0.88-0.65,1.61-1.39,2.14-2.15c0.5-0.71,0.82-1.45,0.93-2.15
				c0.08-0.51,0.08-1.07,0.01-1.66c-0.27-2.26-1.55-4.85-3.28-6.97c-1.69-2.07-3.78-3.65-5.7-3.96c-0.35-0.06-0.7-0.07-1.04-0.03
				c-1.11,0.13-2.17,0.88-3.11,1.9c-1.34,1.46-2.43,3.48-3.18,5.29c-0.81,1.97-1.19,3.23-0.88,3.69c0.89,1.29,6.62-0.73,7.91-1.44
				c0.44-0.24,0.82-0.47,1.13-0.63c0.17-0.09,0.36-0.22,0.53-0.26c0.39-0.07,0.49,0.16,0.45,0.46
				C279.42,92.93,279.06,93.37,278.71,93.73z M236.05,109.88c-0.74,0.38-1.5,0.67-2.28,0.85c-0.33,0.23-0.65,0.49-0.97,0.78
				c-1.45,1.35-2.69,3.26-3.57,4.99c-0.97,1.89-1.44,3.11-1.17,3.59c0.78,1.35,6.62-0.2,7.96-0.79c0.46-0.21,0.85-0.39,1.17-0.53
				c0.18-0.08,0.38-0.2,0.55-0.21c0.39-0.05,0.47,0.2,0.41,0.49c-0.1,0.51-0.48,0.91-0.86,1.25c-0.15,0.13-0.31,0.26-0.49,0.39
				c-2.05,1.48-6.13,2.93-8.81,2.16c0.4,0.95,0.67,1.97,0.8,3.04c0.15,1.27,0.09,2.62-0.22,4c1.97-0.03,4.14-0.14,6.25-0.46
				l0.04-0.01c2.47-0.38,4.84-1.04,6.69-2.2v0c0.93-0.58,1.71-1.25,2.3-1.97c0.55-0.67,0.93-1.37,1.1-2.06
				c0.12-0.49,0.16-1.05,0.14-1.65c-0.08-2.26-1.14-4.94-2.69-7.18c-1.51-2.19-3.45-3.93-5.33-4.38
				C236.74,109.9,236.39,109.86,236.05,109.88z M252.96,80.51c-0.19,0.03-0.39,0.05-0.62,0.06c-2.53,0.17-6.79-0.77-8.66-2.86
				c-0.16,1.02-0.48,2.04-0.94,3.02c-0.56,1.16-1.33,2.28-2.32,3.29c1.69,1.03,3.6,2.09,5.58,2.94l0.04,0.02
				c2.3,0.99,4.68,1.69,6.87,1.69l0,0c1.1,0,2.12-0.15,3-0.45c0.82-0.28,1.52-0.67,2.03-1.17c0.37-0.36,0.7-0.81,1-1.33
				c1.13-1.97,1.66-4.81,1.54-7.54c-0.12-2.67-0.85-5.19-2.21-6.58c-0.25-0.26-0.52-0.47-0.82-0.64c-0.98-0.56-2.26-0.59-3.63-0.33
				c-1.95,0.37-4.03,1.34-5.71,2.34c-1.83,1.09-2.89,1.88-2.91,2.43c-0.06,1.57,5.75,3.37,7.2,3.57c0.5,0.06,0.94,0.12,1.29,0.17
				c0.2,0.03,0.43,0.04,0.59,0.11c0.35,0.17,0.29,0.42,0.08,0.64C254.01,80.29,253.47,80.43,252.96,80.51z M182.2,163.3
				c-0.18-1.07,3.16-2.73,6.06-5.55c1.35-1.31,2.44-2.9,3.13-4.32c-2.7-0.77-5.57-2.04-8-3.87c0.06,0.61-0.34,1.18-0.95,1.32
				c-1.6,0.36-2.97,1.01-4.08,1.88c-1.32,1.03-2.27,2.36-2.8,3.82c-0.53,1.46-0.63,3.06-0.28,4.64c0.29,1.28,0.88,2.55,1.8,3.73
				c1.64,2.11,3.55,3.95,5.73,5.16c1.83,1.02,3.86,1.59,6.09,1.5c7.58-0.3,12.45-12.26,14.06-18.5c1.27-4.92,0.92-16.75-2.53-20.88
				c-2.73-3.58-11.74,0.4-14.47,2.45c-3.15,2.35-5.46,5.73-4.11,9.84c0.28,0.44,0.64,0.89,1.06,1.34c0.41,0.43,0.85,0.85,1.32,1.24
				c2.79,2.32,6.41,3.75,9.55,4.39c2.89,0.6,5.23,0.59,5.88,0.03l0.01-0.01c0.53-0.64,0.62-1.4,0.39-2.28
				c-0.29-1.1-1.03-2.37-2.04-3.78c-1.89-2.63-3.72-3.95-5.39-5.4c-2.41-2.1,1.02-2.09,5.03,1.27c0.88,0.73,1.66,1.71,2.36,2.69
				c1.18,1.63,2.05,3.16,2.42,4.59c0.43,1.65,0.22,3.15-0.89,4.47c-0.06,0.07-0.12,0.14-0.19,0.21l-0.07,0.07
				c-1.17,0.99-4.11,1.26-7.52,0.63c-1.62,4.49-4.09,6.53-8.33,8.55C183.85,163.31,182.47,163.93,182.2,163.3z M167.61,146.44
				c0.18,0.06,0.38,0.13,0.58,0.22c2.34,0.99,5.72,3.73,6.46,6.43c0.61-0.84,1.34-1.6,2.2-2.27c1.01-0.79,2.2-1.44,3.55-1.91
				c-1.05-1.67-2.28-3.48-3.67-5.13l-0.03-0.03c-1.61-1.92-3.43-3.61-5.39-4.59v0c-0.98-0.49-1.96-0.81-2.89-0.94
				c-0.86-0.12-1.66-0.08-2.34,0.14c-0.49,0.15-0.99,0.41-1.49,0.74c-1.9,1.26-3.64,3.56-4.75,6.06c-1.09,2.44-1.57,5.01-0.98,6.87
				c0.11,0.34,0.26,0.65,0.44,0.94c0.62,0.94,1.76,1.55,3.1,1.92c1.92,0.54,4.2,0.61,6.15,0.46c2.13-0.16,3.43-0.38,3.7-0.87
				c0.75-1.37-3.63-5.58-4.84-6.42c-0.41-0.29-0.78-0.53-1.07-0.73c-0.16-0.11-0.36-0.22-0.47-0.36c-0.24-0.31-0.07-0.51,0.21-0.61
				C166.58,146.18,167.13,146.29,167.61,146.44z M201.48,125.84c-1.43,0.93-2.82,1.58-4.17,2c1.4,0.17,2.72,0.64,3.82,1.53
				C201.06,128.12,201.19,126.94,201.48,125.84z M219.27,97.84c-0.24,1.78-0.67,3.73-1.27,5.72c-1.56,4.38-4.13,9.1-7.32,13.3
				c2.22-0.77,4.65-1.15,7.1-1.1c2.92,0.06,5.72,1.1,7.86,3.47c0.15-1.07,0.66-2.34,1.43-3.85c0.8-1.56,1.88-3.28,3.16-4.72
				c-0.45-0.13-0.89-0.31-1.33-0.54c-2.34-1.14-5.37-4.46-7.91-8.7C220.38,100.3,219.8,99.1,219.27,97.84z M218.24,89.77
				c0.4,0.61,0.71,1.3,0.91,2.09c0.16,0.55,0.26,1.19,0.31,1.92c2.12,5.3,6.54,12.4,10.52,14.15c4.04,1.97,10.31-5.62,11.84-8.67
				c1.76-3.52,2.32-7.57-0.73-10.64c-0.45-0.27-0.96-0.51-1.55-0.72c-0.56-0.21-1.14-0.38-1.73-0.52c-3.53-0.82-7.41-0.48-10.5,0.35
				c-2.86,0.76-4.94,1.82-5.27,2.61l0,0.02c-0.19,0.81,0.07,1.53,0.67,2.21c0.75,0.85,1.98,1.66,3.51,2.46
				c2.86,1.5,5.09,1.86,7.24,2.41c3.1,0.79,0.03,2.32-5.07,1.11c-1.11-0.26-2.24-0.79-3.31-1.35c-1.78-0.93-3.25-1.91-4.22-3.02
				c-1.12-1.29-1.61-2.72-1.21-4.4c0.02-0.09,0.05-0.18,0.08-0.27l0.04-0.1c0.6-1.4,3.11-2.96,6.45-3.93
				c-0.57-4.75,0.73-7.67,3.61-11.38c1.09-1.39,2.04-2.57,2.57-2.13c0.64,0.88-1.6,3.86-2.93,7.68c-0.62,1.78-0.88,3.68-0.87,5.26
				c2.76-0.53,5.89-0.67,8.88-0.13c-0.32-0.52-0.22-1.21,0.26-1.6c1.27-1.04,2.2-2.24,2.8-3.5c0.72-1.52,0.97-3.13,0.79-4.67
				c-0.19-1.54-0.81-3.02-1.83-4.28c-0.83-1.01-1.93-1.89-3.28-2.53c-2.41-1.14-4.95-1.94-7.44-2.04c-2.09-0.09-4.16,0.31-6.12,1.38
				C216.21,71.09,216.94,83.29,218.24,89.77z M188.51,114.88c0.23-1.07,3.94-1.4,7.66-2.97c1.73-0.73,3.32-1.82,4.49-2.89
				c-2.24-1.7-4.46-3.92-6.05-6.5c-0.16,0.59-0.75,0.98-1.36,0.88c-1.63-0.25-3.14-0.13-4.48,0.27c-1.61,0.48-2.97,1.38-3.99,2.55
				c-1.02,1.17-1.7,2.63-1.94,4.23c-0.2,1.3-0.1,2.7,0.32,4.12c0.77,2.56,1.88,4.97,3.48,6.89c1.34,1.61,3.02,2.88,5.13,3.6
				c4.12,1.41,8.79-1.07,12.75-4.43c0.4-0.41,0.83-0.79,1.29-1.15c2.38-2.22,4.41-4.66,5.78-6.56c2.96-4.13,6.93-15.28,5.22-20.38
				c-1.25-4.32-11.09-3.88-14.38-2.96c-3.79,1.05-7.17,3.35-7.4,7.68c0.1,0.51,0.26,1.06,0.5,1.64c0.22,0.55,0.49,1.09,0.78,1.63
				c1.76,3.17,4.62,5.81,7.31,7.55c2.48,1.61,4.66,2.45,5.46,2.16l0.02-0.01c0.73-0.4,1.09-1.08,1.19-1.98
				c0.13-1.13-0.09-2.58-0.52-4.26c-0.81-3.13-2.04-5.02-3.07-6.99c-1.49-2.83,1.7-1.57,4.23,3.01c0.55,1,0.92,2.2,1.22,3.37
				c0.5,1.95,0.76,3.69,0.59,5.15c-0.2,1.7-0.94,3.02-2.45,3.85c-0.08,0.04-0.17,0.08-0.26,0.12l-0.09,0.03
				c-1.45,0.5-4.29-0.32-7.24-2.14c-3.14,3.6-6.18,4.6-10.87,4.95C190.04,115.49,188.53,115.57,188.51,114.88z M181.03,93.89
				c0.15,0.12,0.3,0.26,0.46,0.41c1.83,1.77,3.98,5.55,3.69,8.34c0.87-0.56,1.83-1.01,2.87-1.33c1.24-0.37,2.58-0.55,4.01-0.49
				c-0.38-1.94-0.87-4.07-1.56-6.11l-0.01-0.04c-0.81-2.37-1.89-4.61-3.35-6.23l0,0c-0.74-0.81-1.54-1.47-2.35-1.92
				c-0.75-0.43-1.52-0.68-2.23-0.72c-0.51-0.03-1.07,0.02-1.66,0.15c-2.22,0.49-4.68,2-6.63,3.93c-1.9,1.88-3.28,4.1-3.4,6.05
				c-0.02,0.35,0,0.7,0.07,1.04c0.24,1.1,1.08,2.08,2.19,2.92c1.59,1.2,3.71,2.08,5.57,2.66c2.04,0.62,3.33,0.88,3.76,0.52
				c1.2-1.01-1.35-6.52-2.18-7.74c-0.28-0.42-0.54-0.78-0.74-1.07c-0.1-0.16-0.26-0.34-0.3-0.51c-0.11-0.37,0.11-0.49,0.42-0.49
				C180.16,93.27,180.63,93.57,181.03,93.89z M253.98,168.26c-1.19-0.93-2.23-2.09-3.09-3.4c-0.73-0.52-1.54-0.94-2.44-1.25
				c-6.2-2.12-13.84,5.99-17.08,10.51c-2.56,3.57-5.96,13.2-4.48,17.6c1.08,3.73,9.57,3.33,12.41,2.54
				c3.27-0.91,6.18-2.91,6.38-6.64c-0.09-0.44-0.23-0.91-0.43-1.41c-0.19-0.48-0.42-0.95-0.68-1.41c-1.52-2.74-3.99-5.01-6.31-6.51
				c-2.15-1.38-4.03-2.1-4.72-1.85l-0.01,0c-0.63,0.35-0.94,0.94-1.03,1.71c-0.12,0.98,0.08,2.23,0.46,3.67
				c0.7,2.7,1.77,4.33,2.66,6.03c1.29,2.44-1.47,1.36-3.66-2.6c-0.48-0.86-0.8-1.89-1.06-2.9c-0.44-1.68-0.66-3.19-0.52-4.45
				c0.17-1.47,0.81-2.6,2.11-3.33c0.07-0.04,0.14-0.07,0.22-0.11l0.08-0.03c1.25-0.43,3.71,0.27,6.26,1.84
				c2.7-3.12,5.33-3.98,9.37-4.29c1.52-0.12,2.83-0.19,2.85,0.4c-0.2,0.92-3.4,1.21-6.61,2.58c-1.5,0.64-2.86,1.57-3.87,2.5
				c1.94,1.47,3.85,3.38,5.23,5.61c0.14-0.51,0.65-0.84,1.18-0.77c1.4,0.21,2.71,0.11,3.87-0.24c1.39-0.42,2.56-1.19,3.44-2.21
				c0.88-1.01,1.46-2.27,1.67-3.65c0.17-1.12,0.09-2.33-0.29-3.56C255.42,171.1,254.79,169.59,253.98,168.26z M289.24,136.11
				c0.23,0.57,0.39,1.19,0.46,1.86c0.36,2.57-0.68,6.94-2.77,11.43l-0.27,0.5c1.8-2.24,3.81-4.26,5.95-5.85
				c2.1-1.54,4.13-2.33,6.02-2.54C295.22,140.04,291.98,138.22,289.24,136.11z M280.38,130.43c1.67,0.33,3.36,0.85,4.85,1.62
				c-1.24-1.75-1.95-3.54-2.22-5.31C282.38,128.2,281.53,129.49,280.38,130.43z M256.15,156.48c0.37-1.03,4.1-0.84,8-1.87
				c1.82-0.48,3.54-1.33,4.84-2.23c-1.98-2-3.86-4.51-5.08-7.28c-0.24,0.56-0.88,0.86-1.48,0.68c-1.57-0.47-3.09-0.57-4.47-0.36
				c-1.66,0.25-3.14,0.95-4.31,1.97c-1.17,1.01-2.05,2.36-2.51,3.91c-0.37,1.26-0.48,2.66-0.26,4.13c0.4,2.63,1.17,5.18,2.48,7.3
				c1.1,1.78,2.59,3.28,4.58,4.29c6.76,3.44,16.85-4.6,21.31-9.26c3.52-3.67,8.99-14.16,8.02-19.45
				c-0.64-4.45-10.44-5.39-13.82-4.94c-3.9,0.51-7.57,2.32-8.4,6.57c0.03,0.52,0.12,1.08,0.27,1.69c0.14,0.58,0.32,1.15,0.55,1.73
				c1.29,3.39,3.76,6.4,6.18,8.5c2.23,1.94,4.27,3.07,5.11,2.89l0.02,0c0.78-0.29,1.23-0.92,1.45-1.79c0.29-1.1,0.27-2.57,0.08-4.29
				c-0.37-3.21-1.31-5.26-2.06-7.35c-1.08-3.01,1.91-1.32,3.76,3.57c0.41,1.07,0.61,2.3,0.74,3.5c0.23,2,0.24,3.76-0.14,5.19
				c-0.44,1.65-1.35,2.85-2.96,3.47c-0.08,0.03-0.17,0.06-0.27,0.09l-0.1,0.02c-1.5,0.29-4.2-0.92-6.87-3.13
				c-3.61,3.13-6.76,3.69-11.45,3.38C257.59,157.3,256.07,157.17,256.15,156.48z M247,125.34c2.44-1.23,5.1-1.82,7.42-1.33
				c5.12,1.08,7.94,7.42,8.87,12.06c0.49-1.09,1.22-2,2.07-2.77c1.18-1.06,2.61-1.81,4.04-2.33c-1.24-0.36-2.53-0.81-3.83-1.35
				c-7.42-3.46-15.59-10.16-20.05-17.53c-1.86-3.15-2.57-6.06-2.4-8.67c-1.07,1.47-2.54,3.15-4.24,4.56
				c5.3,2.01,10.29,9.79,8.89,15.44C247.61,124.1,247.34,124.74,247,125.34z M238.87,134.94l0.04-0.19
				c0.25-1.56,1.04-3.15,2.19-4.62c-1.88,0.84-3.87,1.38-5.62,1.67c1.06,0.53,1.94,1.28,2.67,2.16
				C238.41,134.27,238.66,134.6,238.87,134.94z M251.67,134.65c0.13,0.14,0.27,0.3,0.4,0.47c1.56,2.01,3.16,6.05,2.49,8.78
				c0.94-0.44,1.95-0.74,3.02-0.91c1.27-0.2,2.63-0.18,4.03,0.07c-0.1-1.98-0.29-4.15-0.69-6.27l-0.01-0.04
				c-0.47-2.46-1.23-4.82-2.45-6.64l0,0c-0.61-0.91-1.32-1.67-2.06-2.24c-0.69-0.53-1.41-0.88-2.11-1.03
				c-0.5-0.1-1.07-0.13-1.66-0.08c-2.27,0.17-4.92,1.33-7.11,2.96c-2.15,1.6-3.82,3.61-4.21,5.52c-0.07,0.35-0.09,0.69-0.07,1.04
				c0.08,1.12,0.78,2.21,1.76,3.19c1.4,1.41,3.37,2.58,5.13,3.41c1.93,0.91,3.18,1.34,3.65,1.05c1.33-0.83-0.43-6.64-1.08-7.97
				c-0.22-0.45-0.43-0.85-0.58-1.17c-0.08-0.17-0.2-0.37-0.23-0.54c-0.06-0.39,0.18-0.48,0.48-0.43
				C250.9,133.91,251.32,134.28,251.67,134.65z M175.41,111.59c0.38,0.19,0.75,0.43,1.11,0.69c0.36,0.26,0.7,0.55,1.03,0.83l0,0
				c0.55,0.48,1.04,0.96,1.46,1.44c0.42,0.48,0.77,0.96,1.03,1.46c0.14,0.27,0.26,0.55,0.35,0.82c-0.26-1.8-0.79-3.96-1.52-5.96
				c-0.88-2.38-2.03-4.53-3.35-5.52l-0.01-0.01c-0.89-0.73-2.29-0.54-3.74,0.07l0,0c-2.24,0.94-4.56,2.86-5.48,3.94l0,0
				c-0.95,1.13-1.68,2.41-1.91,3.75c-0.18,1.1-0.02,2.24,0.66,3.37c0.12,0.11,0.24,0.22,0.39,0.33c0.16,0.13,0.33,0.25,0.49,0.36
				c0.16,0.11,0.34,0.22,0.53,0.33l0,0c0.18,0.1,0.36,0.2,0.56,0.3v0c1.05,0.52,2.2,0.89,3.36,1.13c1.32,0.27,2.64,0.36,3.84,0.33
				c1.02-0.03,1.93-0.13,2.62-0.29c0.64-0.15,1.07-0.33,1.21-0.51c0.1-0.2,0.13-0.41,0.12-0.62c-0.02-0.23-0.09-0.47-0.23-0.72v0
				c-0.17-0.33-0.43-0.68-0.76-1.04c-0.34-0.37-0.74-0.76-1.2-1.15l0,0c-1.4-1.23-2.64-1.86-3.81-2.44
				c-0.25-0.13-0.49-0.25-0.75-0.39c-0.51-0.26-0.78-0.53-0.87-0.76c-0.09-0.25-0.02-0.46,0.2-0.62c0.14-0.1,0.35-0.16,0.62-0.19
				C172.17,110.43,173.68,110.72,175.41,111.59L175.41,111.59z M182.28,120.79l0,0.07c-0.07,3.24-0.56,6.48-1.53,9.31v0
				c-0.72,2.05-1.73,3.6-2.92,4.72c-1.34,1.27-2.92,1.98-4.57,2.22c-0.18,0.03-0.36,0.05-0.54,0.06c2.25,1.29,4.26,3.11,5.73,4.81
				c-0.1-1.19,0.08-2.34,0.45-3.42c0.72-2.13,2.18-3.97,3.64-5.34c0.84-0.79,1.68-1.43,2.39-1.88c1.6-1.02,4.3-2.35,7.18-3.08
				C187.93,127.69,184.46,124.74,182.28,120.79z M178.36,105c0.31,0.43,0.61,0.92,0.91,1.46c0.38,0.69,0.74,1.46,1.09,2.29
				c0.36-1.09,0.9-2.14,1.67-3.12C181.03,105.66,179.81,105.43,178.36,105z M167.81,129.76c-0.24-0.59,0.43-1.4,1.36-2.51l0,0
				c0.61-0.73,1.34-1.61,1.98-2.61c0.4-0.62,0.73-1.3,0.99-1.97h0c0.14-0.37,0.26-0.74,0.35-1.09c-0.73-0.05-1.49-0.14-2.25-0.28
				c-1.08-0.2-2.17-0.5-3.21-0.91c-0.01,0.09-0.04,0.18-0.07,0.26c-0.11,0.26-0.31,0.48-0.58,0.61c-0.5,0.24-0.95,0.53-1.35,0.84h0
				c-0.41,0.32-0.76,0.67-1.07,1.05c-0.35,0.44-0.63,0.91-0.84,1.4l0,0c-0.21,0.5-0.35,1.02-0.41,1.55
				c-0.06,0.52-0.04,1.06,0.05,1.58c0.09,0.52,0.25,1.03,0.49,1.52c0.2,0.4,0.45,0.8,0.75,1.17c0.29,0.36,0.63,0.71,1.02,1.02
				c0.76,0.61,1.56,1.17,2.38,1.62c0.75,0.41,1.53,0.75,2.33,0.97c0.71,0.2,1.44,0.32,2.18,0.32l0,0c0.7,0.01,1.41-0.08,2.12-0.27
				c2.03-0.56,3.48-2.37,4.48-4.62c1.47-3.3,1.99-7.54,2.05-10.23c0-0.28,0-0.58-0.02-0.91c-0.05,0.42-0.17,0.84-0.38,1.26v0
				l-0.05,0.09l-0.01,0.02l-0.06,0.09l-0.01,0.02l-0.04,0.06l0,0c-0.38,0.52-1.16,0.96-2.18,1.27c-0.82,0.25-1.82,0.43-2.91,0.5
				c-0.21,1.54-0.63,2.77-1.28,3.84h0c-0.75,1.24-1.8,2.28-3.19,3.4c-0.5,0.4-0.98,0.77-1.36,1c-0.52,0.29-0.94,0.35-1.21,0
				l-0.02-0.04L167.81,129.76z M155.26,120l0.21,0.03h0.01c0.09,0.01,0.17,0.03,0.24,0.03c0.23,0.04,0.49,0.1,0.75,0.17
				c1.19,0.33,2.61,1,3.68,1.88c0.39,0.32,0.73,0.66,1,1.03c0.26-0.52,0.58-1.02,0.96-1.49c0.41-0.51,0.89-0.99,1.44-1.42
				c0.15-0.12,0.3-0.23,0.46-0.34c-0.32-0.31-0.65-0.62-1-0.94c-0.65-0.59-1.35-1.18-2.07-1.72l-0.02-0.01l-0.02-0.01
				c-0.71-0.53-1.43-1.01-2.17-1.4c-0.73-0.38-1.47-0.68-2.2-0.86l-0.24-0.06c-0.29-0.06-0.56-0.1-0.83-0.12
				c-0.35-0.03-0.69-0.03-0.99-0.01c-0.29,0.03-0.56,0.08-0.82,0.15h0c-0.24,0.07-0.46,0.17-0.65,0.29
				c-0.14,0.08-0.28,0.18-0.42,0.29c-0.14,0.12-0.29,0.26-0.43,0.41c-0.52,0.55-0.98,1.27-1.36,2.08c-0.39,0.85-0.69,1.79-0.88,2.75
				c-0.18,0.94-0.25,1.88-0.17,2.72c0.06,0.77,0.25,1.46,0.57,1.99h0c0.06,0.1,0.12,0.19,0.19,0.28c0.07,0.08,0.14,0.16,0.22,0.24
				c0.24,0.22,0.55,0.39,0.91,0.52c0.4,0.13,0.87,0.21,1.36,0.23c0.63,0.03,1.31-0.03,1.97-0.12c0.78-0.13,1.56-0.32,2.27-0.54l0,0
				c0.72-0.23,1.29-0.43,1.68-0.62c0.33-0.16,0.52-0.29,0.54-0.38c0.08-0.28-0.37-0.77-0.99-1.29c-1.08-0.9-2.65-1.79-3.23-2.01
				l-0.4-0.15c-0.17-0.06-0.33-0.13-0.47-0.18l-0.08-0.03c-0.13-0.05-0.26-0.1-0.38-0.19l0,0c-0.07-0.05-0.12-0.11-0.16-0.17l0,0
				c-0.07-0.11-0.09-0.22-0.09-0.33v0c0.01-0.11,0.06-0.2,0.12-0.28l0,0c0.05-0.06,0.11-0.12,0.19-0.16l0,0
				c0.2-0.13,0.42-0.2,0.65-0.23C154.84,119.99,155.05,119.99,155.26,120L155.26,120z M242.6,204.93c0.21,0.37,0.38,0.78,0.54,1.2v0
				c0.15,0.41,0.27,0.84,0.39,1.27l0,0c0.19,0.71,0.33,1.38,0.41,2.01c0.08,0.64,0.1,1.24,0.04,1.79c-0.03,0.31-0.09,0.6-0.18,0.88
				c0.8-1.64,1.58-3.73,2.09-5.8c0.62-2.47,0.86-4.9,0.33-6.47l0-0.01c-0.33-1.11-1.6-1.73-3.15-2.04c-2.39-0.48-5.4-0.2-6.77,0.2
				c-1.42,0.4-2.75,1.06-3.68,2.04c-0.77,0.81-1.28,1.85-1.35,3.17c0.03,0.16,0.08,0.32,0.13,0.49v0c0.06,0.18,0.12,0.37,0.21,0.58
				l0,0c0.08,0.19,0.16,0.38,0.25,0.56c0.09,0.18,0.19,0.37,0.29,0.56h0c0.58,1.03,1.33,1.98,2.15,2.83c0.94,0.96,1.99,1.79,3,2.43
				c0.87,0.56,1.68,0.98,2.34,1.23c0.61,0.23,1.06,0.33,1.29,0.26c0.2-0.11,0.35-0.27,0.46-0.45l0,0c0.12-0.2,0.19-0.44,0.22-0.72
				c0.04-0.38,0.03-0.81-0.04-1.3l0,0c-0.07-0.5-0.19-1.04-0.34-1.63c-0.48-1.8-1.16-3.02-1.79-4.16c-0.12-0.23-0.26-0.47-0.41-0.75
				c-0.27-0.51-0.35-0.88-0.29-1.12c0.06-0.26,0.24-0.4,0.51-0.4c0.17,0,0.38,0.06,0.62,0.19
				C240.56,202.14,241.65,203.22,242.6,204.93z M244.24,195.11l0.23,0.07c1.9,0.65,3.48,1.86,4.02,3.94l0,0
				c0.28,0.93,0.34,2.22,0.2,3.71c-0.03,0.33-0.07,0.68-0.12,1.04c1.55-1.98,3.92-3.45,6.59-4.21c-3.69-1.19-6.3-5.53-7.51-8.92
				c-0.29,0.99-0.8,1.85-1.43,2.61C245.64,194.03,244.96,194.61,244.24,195.11z M226.09,215.73c0.13-0.62,1.14-0.92,2.54-1.32
				c0.91-0.27,2.01-0.59,3.11-1.06c0.69-0.3,1.34-0.67,1.93-1.08c0.32-0.22,0.63-0.46,0.9-0.7c-0.58-0.45-1.16-0.95-1.71-1.5
				c-0.78-0.78-1.52-1.63-2.15-2.56c-0.06,0.06-0.14,0.12-0.22,0.18h0c-0.23,0.15-0.52,0.22-0.82,0.18
				c-0.55-0.08-1.08-0.1-1.59-0.07c-0.52,0.03-1.02,0.13-1.48,0.27c-0.54,0.16-1.04,0.4-1.49,0.69c-0.46,0.3-0.87,0.65-1.21,1.06
				c-0.34,0.4-0.63,0.85-0.85,1.34c-0.22,0.48-0.37,1-0.45,1.53c-0.06,0.45-0.08,0.92-0.04,1.39c0.04,0.46,0.13,0.94,0.28,1.42
				c0.29,0.94,0.64,1.85,1.07,2.69c0.39,0.77,0.85,1.48,1.38,2.11h0c0.48,0.57,1.02,1.08,1.63,1.5l0,0c0.57,0.4,1.21,0.73,1.92,0.96
				c2,0.67,4.21-0.02,6.31-1.32c3.08-1.91,5.89-5.14,7.45-7.34c0.16-0.22,0.33-0.48,0.49-0.77c-0.27,0.32-0.61,0.61-1.03,0.84
				l0,0.01l-0.09,0.05l-0.01,0.01l-0.09,0.04l-0.02,0.01l-0.06,0.02h0c-0.61,0.22-1.5,0.15-2.53-0.17c-0.83-0.25-1.76-0.67-2.7-1.22
				c-1.04,1.17-2.07,1.95-3.22,2.47c-1.32,0.61-2.78,0.88-4.56,1.02c-0.64,0.05-1.24,0.1-1.69,0.06c-0.6-0.04-0.98-0.23-1-0.68
				v-0.04L226.09,215.73z M221.15,200.58l0.16,0.14l0.01,0.01l0.17,0.15l0.01,0c0.17,0.17,0.35,0.36,0.53,0.57
				c0.8,0.94,1.6,2.3,2,3.63c0.15,0.48,0.24,0.96,0.26,1.42c0.51-0.29,1.06-0.52,1.63-0.7c0.63-0.19,1.3-0.32,2-0.36
				c0.19-0.01,0.38-0.02,0.57-0.02c-0.09-0.44-0.19-0.89-0.3-1.34c-0.21-0.86-0.45-1.73-0.74-2.58l-0.01-0.02l0-0.01l-0.01-0.02
				c-0.29-0.83-0.62-1.64-1.02-2.38c-0.39-0.73-0.83-1.4-1.34-1.95l-0.18-0.19c-0.2-0.2-0.4-0.38-0.61-0.55l0,0
				c-0.27-0.22-0.55-0.41-0.82-0.56l0,0c-0.26-0.14-0.51-0.25-0.76-0.33c-0.24-0.07-0.48-0.12-0.7-0.13h0
				c-0.16-0.01-0.34,0-0.52,0.01c-0.19,0.02-0.38,0.05-0.59,0.1c-0.74,0.16-1.53,0.51-2.3,0.97c-0.81,0.48-1.59,1.1-2.27,1.79
				c-0.68,0.68-1.27,1.42-1.67,2.16c-0.38,0.68-0.61,1.35-0.64,1.98c-0.01,0.11-0.01,0.23,0,0.34c0.01,0.11,0.03,0.22,0.05,0.32l0,0
				c0.07,0.32,0.24,0.64,0.46,0.94l0,0c0.26,0.34,0.6,0.66,1,0.95c0.51,0.38,1.1,0.71,1.71,1l0,0c0.71,0.34,1.47,0.62,2.18,0.83
				c0.72,0.21,1.3,0.36,1.74,0.43c0.36,0.05,0.59,0.05,0.67-0.01c0.22-0.19,0.13-0.85-0.1-1.63c-0.39-1.35-1.2-2.97-1.55-3.48
				l-0.22-0.32c-0.12-0.16-0.22-0.32-0.31-0.44l-0.05-0.07c-0.08-0.11-0.17-0.23-0.21-0.37c-0.03-0.08-0.03-0.15-0.03-0.22v0
				c0-0.13,0.04-0.24,0.12-0.33c0.07-0.08,0.16-0.14,0.26-0.17c0.08-0.02,0.17-0.03,0.25-0.03h0.01c0.24,0,0.46,0.07,0.67,0.17
				C220.81,200.34,220.99,200.46,221.15,200.58L221.15,200.58z M213.52,154.5c0.39-0.16,0.81-0.29,1.24-0.39l0,0
				c0.42-0.1,0.86-0.18,1.29-0.24l0,0c0.71-0.11,1.39-0.17,2.02-0.19c0.6-0.01,1.16,0.03,1.66,0.14c-0.62-0.39-1.24-0.81-1.86-1.25
				c-0.86-0.42-1.77-0.81-2.67-1.14l0,0c-2.36-0.88-4.72-1.38-6.31-1.03l-0.01,0c-1.13,0.2-1.88,1.38-2.35,2.86
				c-0.73,2.3-0.78,5.28-0.55,6.67c0.24,1.44,0.74,2.82,1.6,3.84c0.71,0.85,1.68,1.46,2.96,1.67c0.16-0.02,0.32-0.04,0.5-0.08
				c0.19-0.03,0.39-0.08,0.59-0.14l0,0c0.2-0.06,0.39-0.12,0.59-0.19c0.19-0.06,0.38-0.14,0.58-0.23v0
				c1.07-0.46,2.09-1.09,3.01-1.81c1.05-0.82,1.97-1.76,2.71-2.67c0.64-0.79,1.14-1.55,1.47-2.17c0.29-0.57,0.44-1.01,0.39-1.23
				c-0.09-0.21-0.22-0.37-0.39-0.49c-0.19-0.13-0.42-0.23-0.69-0.29c-0.36-0.08-0.8-0.11-1.28-0.1c-0.49,0.01-1.04,0.07-1.64,0.16h0
				c-1.81,0.27-3.09,0.8-4.27,1.3c-0.25,0.11-0.51,0.21-0.79,0.32c-0.53,0.21-0.91,0.25-1.14,0.17c-0.26-0.09-0.37-0.29-0.35-0.55
				l0,0c0.02-0.17,0.1-0.37,0.26-0.59C210.56,156.2,211.74,155.25,213.52,154.5z M226.78,157.07c1.63,1.67,3.07,3.49,4.17,5.36l0,0
				c1.08,1.86,1.61,3.62,1.69,5.23c0.05,1-0.07,1.95-0.33,2.83c2.05-2.67,4.4-5.09,6.9-6.96c3.53-2.59,6.88-3.21,9.77-2.53
				c-0.74-2.07-1.14-4.31-1.17-6.58c-0.04-2.93,0.9-5.78,3.2-8.02c-1.08-0.11-2.37-0.58-3.91-1.3c-1.98-0.93-4.21-2.27-5.84-3.9
				c-0.09-0.09-0.18-0.18-0.26-0.27c0.1,0.69,0.15,1.33,0.16,1.89c0.09,4.38-1.45,14.67-8.51,15.16
				C231.17,158.14,229.1,157.81,226.78,157.07z M217.26,150.02c1.3,0.65,2.63,1.44,3.93,2.34c3.94,2.08,8.3,3.62,11.2,3.19
				c4.45-0.47,5.72-10.18,5.4-13.56c-0.37-3.9-2.04-7.61-6.24-8.59c-0.52,0.01-1.08,0.08-1.69,0.2c-0.58,0.12-1.16,0.29-1.73,0.49
				c-3.42,1.17-6.5,3.51-8.67,5.84c-2,2.15-3.2,4.14-3.06,4.98l0,0.02c0.27,0.78,0.88,1.25,1.73,1.51c1.08,0.32,2.54,0.36,4.26,0.23
				c3.21-0.25,5.27-1.12,7.38-1.79c3.03-0.97,1.24,1.94-3.69,3.61c-1.07,0.37-2.31,0.52-3.51,0.62c-1.99,0.16-3.74,0.1-5.15-0.32
				c-1.63-0.49-2.79-1.44-3.35-3.06c-0.03-0.09-0.06-0.18-0.07-0.27l-0.02-0.1c-0.24-1.5,1.06-4.15,3.35-6.72
				c-2.98-3.7-3.43-6.85-2.96-11.5c0.18-1.75,0.36-3.25,1.04-3.15c1.01,0.41,0.69,4.1,1.58,8.02c0.42,1.82,1.2,3.57,2.05,4.89
				c2.05-1.9,4.61-3.67,7.42-4.79c-0.55-0.26-0.82-0.91-0.63-1.49c0.52-1.55,0.68-3.05,0.52-4.44c-0.19-1.66-0.83-3.15-1.8-4.36
				c-0.97-1.2-2.28-2.12-3.81-2.63c-1.23-0.42-2.62-0.57-4.1-0.4c-2.64,0.3-5.2,0.98-7.35,2.2c-1.81,1.03-3.35,2.46-4.43,4.4
				c-3.66,6.6,3.97,16.92,8.45,21.52C214.26,147.84,215.63,148.93,217.26,150.02z M205.08,150.08c0.82-1.04,1.92-1.79,3.39-1.99
				c0.94-0.17,2.21-0.09,3.65,0.21c0.2,0.04,0.41,0.09,0.62,0.14c-2.77-2.54-5.32-5.43-7.38-8.46c0.09,0.68,0.16,1.38,0.21,2.09
				C205.65,144.59,205.48,147.31,205.08,150.08z M222.33,171.9c-0.6-0.2-0.78-1.23-1.03-2.64c-0.16-0.93-0.35-2.05-0.7-3.16
				c-0.21-0.71-0.51-1.4-0.85-2.01c-0.19-0.34-0.38-0.66-0.58-0.96c-0.51,0.52-1.06,1.03-1.66,1.51c-0.84,0.69-1.76,1.31-2.75,1.83
				c0.06,0.07,0.11,0.14,0.15,0.23l0,0c0.12,0.25,0.16,0.54,0.09,0.83c-0.14,0.53-0.22,1.05-0.24,1.55
				c-0.02,0.51,0.01,1.01,0.1,1.48c0.1,0.54,0.28,1.06,0.51,1.53c0.24,0.48,0.55,0.93,0.91,1.31c0.36,0.38,0.77,0.71,1.23,0.98
				c0.45,0.26,0.94,0.47,1.45,0.61c0.44,0.11,0.9,0.18,1.37,0.19c0.45,0.01,0.93-0.03,1.42-0.12h0c0.95-0.18,1.88-0.42,2.75-0.76
				c0.8-0.3,1.55-0.68,2.23-1.13l0,0c0.61-0.41,1.17-0.88,1.65-1.44c0.46-0.52,0.84-1.11,1.15-1.78l0,0
				c0.88-1.89,0.44-4.14-0.6-6.33c-1.55-3.23-4.41-6.35-6.39-8.12c-0.1-0.09-0.2-0.17-0.3-0.26l-0.2-0.1
				c0.2,0.25,0.37,0.54,0.51,0.87h0c0.03,0.07,0.05,0.14,0.07,0.21l0,0l0,0.01l0,0.03l0.02,0.07l0,0c0.15,0.62-0.02,1.49-0.44,2.46
				c-0.34,0.78-0.84,1.65-1.49,2.52c1.03,1.14,1.68,2.24,2.08,3.43c0.45,1.36,0.56,2.82,0.51,4.59c-0.02,0.64-0.04,1.23-0.12,1.67
				c-0.11,0.59-0.33,0.94-0.78,0.91l-0.04,0L222.33,171.9z M199.37,176.41c-0.21-0.86-0.28-1.72-0.17-2.54v0
				c0.01-0.09,0.03-0.19,0.04-0.27v0c0.29-1.69,1.35-3.06,2.73-4.14c1.48-1.15,3.33-1.97,5-2.45c-0.51-0.3-0.96-0.67-1.36-1.09
				c-0.53-0.55-0.96-1.17-1.32-1.83c-0.41-0.76-0.71-1.56-0.93-2.31c-0.11-0.38-0.2-0.74-0.26-1.1c-0.07-0.38-0.13-0.75-0.16-1.07
				c-0.01-0.12-0.02-0.24-0.03-0.38c-1.04,3.11-2.38,6.06-4,8.64c-1.55,2.41-3.28,4.12-5.13,5.24c1.4,0.62,2.89,1.44,4.39,2.41
				C198.57,175.79,198.98,176.09,199.37,176.41z M204.82,183.66c-1.24-0.73-2.41-1.8-3.37-3.05c-0.26-0.33-0.5-0.68-0.72-1.04
				c-2.8-2.25-6.41-4.47-9.41-5.34c-1.53,0.49-3.1,0.64-4.65,0.48c-2.52,2.19-3.82,7.98-3.85,10.35c-0.04,3.4,1.06,6.75,4.59,7.98
				c0.45,0.04,0.94,0.04,1.48-0.02c0.51-0.05,1.02-0.14,1.54-0.26c3.05-0.69,5.93-2.43,8.02-4.23c1.93-1.67,3.15-3.28,3.1-4.01
				v-0.02c-0.16-0.7-0.64-1.16-1.36-1.47c-0.9-0.38-2.16-0.55-3.66-0.59c-2.79-0.08-4.66,0.48-6.53,0.86
				c-2.7,0.55-0.89-1.79,3.52-2.78c0.96-0.21,2.04-0.23,3.08-0.2c1.73,0.05,3.24,0.26,4.42,0.76c1.36,0.57,2.27,1.5,2.6,2.96
				c0.02,0.07,0.03,0.16,0.04,0.24l0.01,0.08c0.07,1.32-1.29,3.48-3.51,5.49c2.23,3.47,2.32,6.22,1.48,10.19
				c-0.32,1.49-0.61,2.77-1.19,2.62c-0.83-0.45-0.21-3.61-0.62-7.07c-0.19-1.61-0.71-3.19-1.31-4.41c-1.95,1.45-4.32,2.74-6.85,3.45
				c0.45,0.28,0.63,0.86,0.4,1.35c-0.59,1.29-0.87,2.57-0.86,3.78c0.01,1.45,0.43,2.79,1.15,3.92c0.73,1.12,1.77,2.04,3.04,2.63
				c1.03,0.48,2.21,0.74,3.5,0.72c2.31-0.02,4.58-0.36,6.55-1.22c1.66-0.72,3.12-1.81,4.22-3.39
				C213.3,197.31,208.27,188.26,204.82,183.66z M215.67,176.09c-0.13,0.67-0.4,1.44-0.77,2.31v0c-0.33,0.78-0.75,1.61-1.24,2.41
				c-0.42,0.68-0.9,1.33-1.43,1.9l0,0c-0.22,0.23-0.44,0.45-0.68,0.65c-0.23,0.19-0.46,0.37-0.71,0.52v0
				c-0.52,0.33-1.06,0.57-1.63,0.7s-1.15,0.14-1.76,0.03l0,0l-0.17-0.03c2.12,2.84,3.91,5.93,5.05,9.01
				c0.53,1.46,0.83,2.83,0.93,4.11c0.49-0.71,1.07-1.38,1.71-2c1.87-1.79,4.28-3.06,6.54-3.02c0.1,0,0.2,0,0.28,0.01
				c1.73,0.11,3.24,1.01,4.47,2.28l0,0c1.33,1.36,2.36,3.14,3.03,4.76c0.25-0.55,0.57-1.04,0.95-1.5c0.28-0.33,0.59-0.65,0.92-0.93
				c-2.92-0.58-5.58-2-6.33-4.99c-0.63-2.15-0.26-6.02,0.98-10.11c0.85-2.41,2.06-4.94,3.54-7.4c-0.51,0.42-1.06,0.81-1.65,1.15
				c-1.9,1.1-4.18,1.76-6.51,1.88c-1.27,0.06-2.53-0.13-3.7-0.64C216.86,176.93,216.24,176.57,215.67,176.09z M206.91,175.09
				l0.15-0.14l0.01-0.01l0.17-0.15l0-0.01c0.18-0.15,0.39-0.3,0.62-0.46c1.02-0.68,2.44-1.32,3.78-1.56
				c0.48-0.09,0.97-0.12,1.42-0.09c-0.23-0.53-0.4-1.1-0.51-1.68c-0.12-0.64-0.17-1.31-0.14-2c0-0.19,0.02-0.37,0.04-0.56
				c-0.44,0.04-0.89,0.09-1.35,0.15c-0.87,0.11-1.75,0.26-2.62,0.45l-0.01,0l-0.01,0l-0.02,0c-0.85,0.19-1.68,0.43-2.44,0.74l0,0
				c-0.76,0.3-1.47,0.67-2.07,1.11l-0.23,0.17l0,0c-0.21,0.16-0.41,0.34-0.59,0.52l0,0c-0.24,0.24-0.46,0.49-0.64,0.74
				c-0.17,0.23-0.31,0.47-0.41,0.71c-0.1,0.23-0.17,0.46-0.21,0.68c-0.03,0.16-0.04,0.33-0.05,0.51c0,0.18,0.01,0.38,0.03,0.59
				c0.08,0.75,0.33,1.56,0.7,2.36c0.39,0.84,0.91,1.67,1.51,2.42l0,0c0.59,0.74,1.26,1.4,1.94,1.88l0,0
				c0.62,0.44,1.26,0.74,1.87,0.84l0,0c0.11,0.02,0.23,0.03,0.33,0.03l0,0c0.1,0,0.21,0,0.32-0.01c0.32-0.04,0.65-0.16,0.97-0.35
				c0.36-0.22,0.71-0.52,1.04-0.88c0.43-0.46,0.82-1,1.17-1.57c0.42-0.67,0.77-1.38,1.05-2.05c0.29-0.68,0.5-1.24,0.62-1.66
				c0.09-0.35,0.12-0.57,0.06-0.65c-0.16-0.24-0.82-0.21-1.6-0.08c-1.37,0.23-3.05,0.85-3.59,1.14l-0.34,0.19
				c-0.18,0.1-0.34,0.19-0.47,0.25l-0.08,0.04c-0.12,0.07-0.24,0.13-0.39,0.16c-0.08,0.01-0.16,0.02-0.23,0.01l0,0
				c-0.13-0.02-0.23-0.07-0.31-0.15v0c-0.07-0.07-0.12-0.17-0.14-0.27v0c-0.01-0.08-0.01-0.16,0-0.25c0.03-0.24,0.12-0.45,0.24-0.64
				C206.63,175.4,206.76,175.24,206.91,175.09L206.91,175.09z M337.16,126.07c0.35-0.15,0.73-0.26,1.12-0.35
				c0.39-0.09,0.78-0.16,1.16-0.21c0.64-0.1,1.25-0.15,1.82-0.16c0.58-0.01,1.11,0.04,1.59,0.15c0.22,0.05,0.44,0.12,0.64,0.2
				c-1.35-0.85-3.08-1.72-4.81-2.37c-2.12-0.79-4.24-1.26-5.68-0.94H333c-1.01,0.18-1.68,1.23-2.11,2.57
				c-0.66,2.06-0.72,4.75-0.52,5.99c0.21,1.29,0.65,2.54,1.43,3.46c0.64,0.76,1.5,1.31,2.66,1.51c0.14-0.02,0.29-0.03,0.45-0.07
				c0.17-0.03,0.36-0.08,0.53-0.12c0.17-0.05,0.35-0.11,0.53-0.17c0.17-0.06,0.34-0.13,0.53-0.2l0,0c0.97-0.41,1.89-0.97,2.71-1.62
				c0.95-0.74,1.78-1.57,2.45-2.4c0.58-0.71,1.03-1.39,1.33-1.95c0.26-0.5,0.4-0.89,0.36-1.09c-0.08-0.19-0.2-0.34-0.36-0.45
				c-0.16-0.12-0.37-0.21-0.62-0.26l0,0c-0.33-0.07-0.71-0.1-1.15-0.09c-0.44,0.01-0.94,0.06-1.47,0.14
				c-1.63,0.24-2.78,0.71-3.85,1.16c-0.23,0.1-0.46,0.19-0.72,0.29c-0.48,0.19-0.82,0.22-1.03,0.14l0,0
				c-0.23-0.08-0.33-0.26-0.31-0.5c0.01-0.16,0.09-0.34,0.23-0.53C334.49,127.59,335.56,126.74,337.16,126.07z M345.05,141.78
				c-0.55-0.18-0.7-1.11-0.92-2.38c-0.14-0.84-0.32-1.84-0.62-2.85c-0.19-0.64-0.46-1.26-0.76-1.82c-0.17-0.31-0.34-0.59-0.52-0.86
				c-0.46,0.47-0.96,0.92-1.49,1.35c-0.76,0.61-1.59,1.17-2.47,1.64c0.05,0.06,0.09,0.13,0.13,0.2c0.12,0.23,0.15,0.49,0.08,0.75
				v0.01c-0.13,0.47-0.2,0.94-0.22,1.39c-0.02,0.46,0.01,0.91,0.09,1.33c0.09,0.49,0.24,0.95,0.46,1.38
				c0.22,0.43,0.49,0.83,0.81,1.18c0.32,0.34,0.69,0.64,1.1,0.88c0.4,0.23,0.84,0.42,1.3,0.55c0.39,0.1,0.81,0.17,1.23,0.17
				c0.41,0.01,0.84-0.02,1.28-0.1l0,0c0.86-0.16,1.69-0.37,2.48-0.67c0.72-0.27,1.39-0.6,2.01-1.01h0c0.55-0.36,1.05-0.79,1.49-1.29
				c0.41-0.47,0.76-1,1.04-1.59c0.8-1.7,0.41-3.72-0.53-5.7c-1.38-2.91-3.94-5.73-5.73-7.32c-0.16-0.14-0.34-0.29-0.54-0.45
				c0.23,0.26,0.41,0.56,0.56,0.91l0,0c0.02,0.05,0.04,0.11,0.06,0.16l0.01,0.03l0.01,0.01l0,0.02l0.01,0.06
				c0.13,0.56-0.02,1.34-0.41,2.22c-0.31,0.7-0.76,1.48-1.35,2.26c0.92,1.03,1.5,2.02,1.85,3.09l0,0c0.4,1.23,0.5,2.55,0.45,4.14
				l0,0c-0.02,0.57-0.04,1.11-0.12,1.5c-0.09,0.53-0.3,0.85-0.71,0.82h-0.03L345.05,141.78z M328.45,138.4
				c0.91-0.47,1.86-0.84,2.76-1.1c-0.45-0.27-0.85-0.6-1.21-0.98c-0.47-0.49-0.86-1.06-1.17-1.65c-0.08-0.15-0.16-0.31-0.23-0.46
				C328.73,135.63,328.71,137.07,328.45,138.4z M327.03,150.52c-0.28-0.3-0.55-0.62-0.8-0.95c-1.29-1.69-2.12-3.74-2.05-5.61
				c-2.39,1.09-6.49,1.62-11.01,1.39c-2.24-0.22-4.62-0.65-7.03-1.28c2.4,2.17,4.05,5.46,4.61,8.96c0.36,2.34-0.06,4.72-1.65,6.77
				c0.88-0.03,1.96,0.2,3.28,0.59c1.15,0.35,2.41,0.85,3.57,1.47C314.13,154.44,320.53,150.29,327.03,150.52z M333.13,153.19
				l-0.15,0.03l0.11,0.14L333.13,153.19z M337.61,149.12c-0.12,0.22-0.25,0.44-0.38,0.65l0,0c-0.38,0.61-0.81,1.2-1.29,1.71h-0.01
				c-0.1,0.11-0.2,0.21-0.31,0.31c-0.69,1.17-1.04,1.94-0.89,2.27c0.47,0.98,4.6,0.19,5.56-0.16c0.32-0.12,0.61-0.23,0.84-0.31
				c0.13-0.05,0.27-0.11,0.39-0.12c0.27-0.01,0.31,0.16,0.26,0.36c-0.09,0.35-0.38,0.61-0.66,0.83c-0.1,0.08-0.23,0.16-0.35,0.24
				c-1.5,0.92-4.39,1.73-6.21,1.07c0.23,0.68,0.37,1.4,0.4,2.15c0.04,0.89-0.07,1.82-0.34,2.76c1.36,0.07,2.87,0.1,4.36-0.02l0.03,0
				c1.73-0.14,3.4-0.49,4.74-1.2h0c0.67-0.36,1.24-0.78,1.68-1.25c0.42-0.44,0.71-0.91,0.86-1.37c0.1-0.34,0.16-0.72,0.18-1.14
				c0.05-1.57-0.56-3.47-1.52-5.1c-0.94-1.59-2.2-2.89-3.48-3.29c-0.23-0.08-0.47-0.12-0.71-0.13c-0.77-0.03-1.57,0.37-2.32,0.98
				C338.16,148.58,337.88,148.84,337.61,149.12z M339.05,145.54c-0.03,0.16-0.08,0.34-0.13,0.52c0.18-0.08,0.37-0.15,0.55-0.2
				C339.33,145.77,339.19,145.66,339.05,145.54z M331.15,144.61c0.09-0.09,0.2-0.19,0.31-0.29l0,0c0.16-0.13,0.35-0.28,0.56-0.41
				c0.92-0.62,2.2-1.18,3.41-1.4c0.44-0.08,0.86-0.11,1.27-0.08c-0.2-0.48-0.35-0.98-0.45-1.51c-0.1-0.57-0.15-1.18-0.12-1.8
				c0.01-0.17,0.02-0.33,0.04-0.5c-0.4,0.04-0.8,0.08-1.21,0.13c-0.78,0.09-1.58,0.23-2.35,0.4l-0.02,0l-0.01,0h-0.02
				c-0.76,0.17-1.51,0.39-2.21,0.66l0,0c-0.68,0.26-1.32,0.59-1.86,0.99l-0.2,0.14c-0.19,0.16-0.38,0.31-0.54,0.47
				c-0.22,0.22-0.41,0.44-0.57,0.67h-0.01c-0.15,0.21-0.27,0.42-0.37,0.64c-0.09,0.2-0.16,0.41-0.19,0.61l0,0
				c-0.03,0.14-0.04,0.3-0.04,0.46v0.01c0,0.16,0,0.34,0.02,0.52c0.07,0.67,0.3,1.4,0.62,2.13c0.34,0.76,0.81,1.51,1.35,2.18
				c0.53,0.67,1.13,1.26,1.74,1.69c0.56,0.4,1.14,0.67,1.68,0.77l0,0c0.1,0.02,0.2,0.03,0.29,0.03h0.01c0.09,0,0.2,0,0.28-0.01
				c0.3-0.03,0.59-0.14,0.87-0.31l0,0c0.33-0.2,0.65-0.47,0.94-0.78c0.39-0.41,0.74-0.9,1.06-1.41c0.37-0.6,0.69-1.24,0.95-1.85
				c0.26-0.61,0.45-1.11,0.56-1.49c0.08-0.31,0.1-0.51,0.06-0.58c-0.14-0.21-0.73-0.2-1.44-0.07c-1.24,0.21-2.75,0.76-3.24,1.02
				l-0.29,0.16c-0.16,0.09-0.3,0.16-0.43,0.23l-0.07,0.04l0,0c-0.11,0.06-0.23,0.13-0.36,0.15c-0.07,0.01-0.14,0.02-0.2,0.01l0,0
				c-0.12-0.01-0.21-0.06-0.28-0.14c-0.07-0.07-0.1-0.15-0.12-0.25l0,0c-0.01-0.07-0.01-0.15,0-0.23v0c0.03-0.21,0.11-0.4,0.22-0.57
				v0C330.9,144.87,331.02,144.73,331.15,144.61z M177.1,180.5c0.23,0.22,0.45,0.48,0.65,0.74c0.2,0.26,0.38,0.55,0.56,0.82l0,0
				c0.29,0.46,0.54,0.91,0.74,1.35l0,0c0.2,0.44,0.35,0.87,0.42,1.27v0.01c0.14-1.2,0.2-2.58,0.12-3.91
				c-0.1-1.88-0.46-3.64-1.17-4.62l0-0.01c-0.46-0.69-1.47-0.84-2.61-0.72c-1.79,0.18-3.84,1.04-4.72,1.61
				c-0.91,0.59-1.7,1.33-2.14,2.23c-0.36,0.72-0.49,1.55-0.26,2.48c0.06,0.11,0.12,0.21,0.2,0.32l0,0c0.08,0.11,0.17,0.23,0.27,0.36
				c0.09,0.11,0.2,0.23,0.3,0.34l0,0c0.1,0.11,0.22,0.23,0.33,0.33c0.63,0.6,1.36,1.11,2.13,1.52c0.88,0.48,1.8,0.83,2.65,1.06
				c0.73,0.2,1.39,0.32,1.92,0.36c0.46,0.03,0.78,0,0.91-0.08c0.1-0.11,0.17-0.24,0.2-0.38c0.03-0.15,0.03-0.33-0.01-0.53v0
				c-0.05-0.27-0.16-0.57-0.31-0.89c-0.16-0.33-0.36-0.69-0.6-1.07v0c-0.73-1.17-1.48-1.89-2.18-2.56c-0.16-0.15-0.32-0.3-0.45-0.43
				c-0.31-0.31-0.46-0.58-0.48-0.78c-0.01-0.24,0.1-0.4,0.33-0.48c0.13-0.04,0.31-0.05,0.52,0
				C175.02,178.95,176.04,179.49,177.1,180.5z M180.23,187.99c-0.07,0.23-0.14,0.46-0.22,0.68c-0.75,2.3-1.81,4.51-3.12,6.33h0
				c-0.44,0.6-0.9,1.11-1.37,1.55c2.44-1.62,5.75-2.34,8.37-2.49c-0.86-0.56-1.56-1.29-2.11-2.11
				C180.97,190.74,180.49,189.33,180.23,187.99z M167.62,191.86c-0.05-0.52,0.62-0.96,1.55-1.57c0.59-0.39,1.29-0.85,1.96-1.43
				c0.42-0.36,0.8-0.77,1.12-1.18c0.16-0.2,0.3-0.4,0.43-0.61c-0.49-0.19-0.98-0.41-1.46-0.66c-0.7-0.36-1.39-0.79-2.03-1.3
				c-0.02,0.04-0.04,0.07-0.07,0.1l0,0c-0.15,0.17-0.35,0.3-0.59,0.34c-0.4,0.06-0.78,0.16-1.13,0.3l0,0
				c-0.35,0.14-0.68,0.31-0.97,0.51l0,0c-0.34,0.23-0.64,0.5-0.88,0.8c-0.26,0.31-0.47,0.64-0.62,1l0,0
				c-0.15,0.35-0.26,0.73-0.3,1.11c-0.05,0.39-0.04,0.78,0.02,1.17c0.05,0.33,0.14,0.65,0.27,0.98c0.13,0.31,0.29,0.62,0.5,0.93l0,0
				c0.4,0.59,0.85,1.16,1.34,1.66c0.44,0.46,0.92,0.86,1.43,1.19c0.46,0.29,0.94,0.53,1.47,0.69c0.49,0.16,1.01,0.25,1.55,0.26
				c1.54,0.03,2.94-0.93,4.13-2.3c1.76-2.03,3.04-4.92,3.66-6.82l0.02-0.05c-0.08,0.1-0.16,0.2-0.25,0.3l0,0l-0.05,0.05l-0.02,0.02
				l-0.06,0.05l-0.01,0.01l-0.04,0.03l-0.01,0c-0.39,0.29-1.06,0.45-1.88,0.45c-0.63,0-1.36-0.08-2.14-0.26
				c-0.48,1.03-1.04,1.81-1.73,2.43l0,0c-0.82,0.73-1.79,1.25-3.03,1.74c-0.45,0.18-0.87,0.35-1.2,0.42
				c-0.48,0.11-0.82,0.05-0.95-0.31l-0.01-0.03L167.62,191.86z M160.9,182.12l0.15,0.06l0.01,0l0.16,0.07l0,0
				c0.16,0.08,0.33,0.18,0.51,0.29c0.78,0.5,1.66,1.29,2.24,2.16c0.19,0.28,0.34,0.56,0.46,0.85c0.28-0.28,0.59-0.55,0.93-0.78
				c0.41-0.28,0.86-0.52,1.35-0.71c0.1-0.04,0.21-0.08,0.32-0.11c-0.15-0.26-0.3-0.53-0.46-0.81c-0.33-0.56-0.7-1.13-1.1-1.67
				l-0.01-0.01l-0.01-0.01c-0.39-0.53-0.8-1.02-1.24-1.46c-0.43-0.43-0.89-0.8-1.37-1.08l-0.15-0.09v0
				c-0.19-0.1-0.37-0.19-0.56-0.26c-0.23-0.09-0.47-0.16-0.69-0.21c-0.21-0.04-0.41-0.07-0.6-0.07c-0.18,0-0.35,0.02-0.51,0.06l0,0
				c-0.12,0.03-0.23,0.06-0.36,0.12l0,0c-0.13,0.05-0.26,0.12-0.38,0.19l0,0c-0.48,0.28-0.96,0.69-1.4,1.18
				c-0.46,0.51-0.88,1.11-1.21,1.75c-0.33,0.62-0.58,1.27-0.7,1.88c-0.11,0.55-0.13,1.07-0.02,1.51c0.02,0.08,0.04,0.16,0.07,0.23
				l0,0c0.03,0.07,0.06,0.14,0.1,0.21c0.12,0.2,0.3,0.39,0.52,0.54c0.25,0.18,0.56,0.33,0.9,0.45h0c0.44,0.16,0.92,0.27,1.41,0.33
				c0.59,0.08,1.18,0.11,1.72,0.1l0,0c0.55-0.01,0.99-0.03,1.32-0.08c0.24-0.03,0.38-0.07,0.42-0.11c0.1-0.15-0.11-0.57-0.43-1.05
				c-0.57-0.87-1.49-1.83-1.85-2.11l-0.26-0.2l0,0c-0.11-0.08-0.22-0.16-0.29-0.23l-0.04-0.03c-0.09-0.06-0.18-0.13-0.25-0.24h0
				c-0.04-0.06-0.07-0.12-0.08-0.18c-0.03-0.11-0.03-0.21,0.01-0.31c0.03-0.09,0.09-0.16,0.18-0.21l0,0
				c0.06-0.04,0.12-0.07,0.19-0.09c0.18-0.05,0.36-0.05,0.55-0.03C160.59,182,160.74,182.06,160.9,182.12L160.9,182.12z
				 M307.2,89.52c0.14,0.28,0.26,0.59,0.36,0.9c0.1,0.31,0.18,0.62,0.26,0.94c0.12,0.52,0.2,1.01,0.25,1.48
				c0.04,0.46,0.04,0.89-0.01,1.28c0.51-1.05,0.99-2.3,1.34-3.53c0.5-1.77,0.74-3.51,0.39-4.64l0-0.01c-0.2-0.78-1.08-1.24-2.17-1.5
				c-1.71-0.4-3.89-0.27-4.88-0.02c-1.02,0.25-1.99,0.69-2.69,1.37l0,0c-0.56,0.55-0.95,1.28-1.03,2.2
				c0.02,0.11,0.05,0.23,0.08,0.36l0,0c0.03,0.13,0.08,0.27,0.13,0.41h0c0.05,0.14,0.11,0.28,0.17,0.41
				c0.06,0.13,0.13,0.27,0.2,0.41c0.39,0.76,0.91,1.47,1.48,2.09c0.65,0.71,1.39,1.33,2.11,1.83c0.61,0.42,1.19,0.74,1.65,0.94
				c0.41,0.17,0.72,0.25,0.86,0.22c0.13-0.07,0.23-0.16,0.31-0.28c0.08-0.13,0.13-0.29,0.16-0.49c0.04-0.26,0.03-0.58,0-0.92
				c-0.04-0.36-0.11-0.75-0.21-1.18c-0.3-1.32-0.76-2.22-1.19-3.06v0c-0.1-0.19-0.2-0.38-0.28-0.55l0,0
				c-0.19-0.39-0.25-0.69-0.19-0.88c0.06-0.23,0.22-0.35,0.47-0.34c0.13,0,0.3,0.06,0.48,0.17
				C305.76,87.42,306.54,88.25,307.2,89.52L307.2,89.52z M294.78,97c0.13-0.5,0.88-0.7,1.94-0.96l0,0c0.67-0.17,1.48-0.38,2.27-0.69
				c0.5-0.2,0.98-0.45,1.41-0.73c0.21-0.13,0.41-0.27,0.59-0.42c-0.39-0.33-0.77-0.69-1.13-1.07c-0.53-0.56-1.03-1.18-1.46-1.84
				c-0.03,0.02-0.07,0.04-0.1,0.06c-0.19,0.12-0.42,0.17-0.65,0.13l0,0c-0.39-0.07-0.78-0.09-1.13-0.09
				c-0.37,0.01-0.73,0.07-1.06,0.16c-0.39,0.1-0.75,0.26-1.08,0.46c-0.33,0.2-0.63,0.45-0.89,0.73c-0.26,0.27-0.47,0.59-0.64,0.93
				c-0.17,0.33-0.29,0.7-0.36,1.08c-0.06,0.32-0.08,0.65-0.06,1c0.02,0.33,0.07,0.67,0.16,1.02l0,0c0.18,0.68,0.42,1.35,0.71,1.96
				c0.26,0.56,0.57,1.09,0.94,1.55v0c0.33,0.42,0.7,0.79,1.13,1.11c0.4,0.3,0.85,0.55,1.34,0.74v-0.01c1.41,0.53,3.02,0.09,4.55-0.8
				c0.94-0.54,1.85-1.24,2.68-1.99c0.27-0.55,0.58-1.06,0.94-1.53c0.39-0.51,0.8-0.95,1.27-1.31c-0.45,0.09-1.05,0.01-1.72-0.22l0,0
				c-0.58-0.2-1.23-0.52-1.89-0.92c-0.77,0.8-1.54,1.33-2.38,1.69c-0.98,0.41-2.06,0.58-3.36,0.64c-0.47,0.02-0.91,0.04-1.24,0
				c-0.48-0.05-0.78-0.22-0.79-0.6v-0.03L294.78,97z M291.26,92.43c-0.47-0.06-1.01-0.21-1.62-0.41c-0.16-0.05-0.32-0.11-0.49-0.17
				c0.4,1.41,0.53,2.83,0.31,4.16c-0.85,5.16-7.05,8.26-11.64,9.4c1.1,0.44,2.05,1.12,2.86,1.94c1.57,1.6,2.56,3.74,3.13,5.65
				c0.33,1.1,0.52,2.15,0.6,2.98c0.09,0.84,0.13,1.89,0.1,3.06c1.91-3.48,5.34-6.4,9.35-8.08c2.7-1.14,5.7-1.33,8.64-0.03
				c-0.3-1.04-0.35-2.42-0.26-4.12c0.07-1.35,0.26-2.86,0.6-4.31c-0.16,0.12-0.32,0.24-0.49,0.36h0c-1.31,0.91-2.59,1.39-3.78,1.55
				c-1.35,0.17-2.6-0.09-3.69-0.66c-1.09-0.57-2.03-1.45-2.76-2.52l0,0c-0.92-1.34-1.54-2.99-1.76-4.7v0
				c-0.12-0.94-0.05-1.89,0.26-2.79C290.77,93.29,290.98,92.85,291.26,92.43z M291.69,85.83l0.12,0.1l0.01,0.01l0.12,0.12l0,0
				c0.13,0.13,0.25,0.27,0.38,0.43c0.56,0.71,1.12,1.73,1.38,2.71c0.08,0.31,0.14,0.62,0.15,0.92c0.35-0.17,0.72-0.31,1.11-0.42
				c0.46-0.13,0.96-0.2,1.47-0.22c0.11,0,0.22-0.01,0.33,0c-0.05-0.29-0.11-0.59-0.17-0.88l0,0c-0.13-0.62-0.29-1.27-0.49-1.9v0
				l0-0.02c-0.19-0.61-0.42-1.2-0.68-1.74c-0.26-0.54-0.56-1.03-0.91-1.44l-0.1-0.12c-0.14-0.16-0.29-0.3-0.44-0.43
				c-0.18-0.16-0.38-0.3-0.57-0.42c-0.18-0.1-0.36-0.19-0.53-0.26c-0.17-0.06-0.33-0.1-0.49-0.11l0,0c-0.12-0.01-0.24-0.01-0.36,0
				c-0.13,0.01-0.27,0.03-0.42,0.06l0,0c-0.53,0.1-1.11,0.33-1.67,0.64c-0.59,0.33-1.16,0.75-1.68,1.23
				c-0.5,0.47-0.94,0.99-1.25,1.51c-0.22,0.36-0.38,0.73-0.45,1.08c0.61,0.81,1.16,1.69,1.61,2.58c0.17,0.11,0.36,0.21,0.55,0.31
				c0.51,0.26,1.05,0.48,1.56,0.65l0,0c0.51,0.17,0.92,0.29,1.23,0.35c0.24,0.04,0.39,0.06,0.42,0.03l0,0
				c0.13-0.11,0.08-0.56-0.06-1.1c-0.25-0.98-0.79-2.17-1.03-2.55l-0.17-0.25l0,0c-0.07-0.11-0.14-0.22-0.2-0.32v0l-0.03-0.04
				c-0.06-0.09-0.12-0.19-0.15-0.3l0,0c-0.02-0.07-0.03-0.13-0.02-0.19l0,0c0.01-0.12,0.05-0.21,0.11-0.28l0,0
				c0.07-0.07,0.14-0.12,0.23-0.14h0c0.06-0.02,0.13-0.02,0.2-0.02h0.01c0.19,0.01,0.36,0.07,0.51,0.15l0,0
				C291.45,85.63,291.57,85.72,291.69,85.83L291.69,85.83z M328.78,183.92c0.15,0.26,0.3,0.55,0.41,0.85c0.12,0.3,0.22,0.6,0.31,0.9
				c0.15,0.49,0.27,0.97,0.34,1.43c0.07,0.42,0.1,0.83,0.07,1.2c0.42-1.04,0.8-2.27,1.06-3.48c0.38-1.75,0.5-3.46,0.09-4.53l0-0.01
				c-0.24-0.74-1.14-1.14-2.2-1.32c-1.7-0.28-3.8-0.02-4.75,0.29c-0.98,0.31-1.89,0.8-2.52,1.5l0,0c-0.51,0.57-0.84,1.3-0.86,2.21
				c0.02,0.1,0.06,0.22,0.1,0.33c0.04,0.13,0.09,0.26,0.15,0.39c0.06,0.13,0.12,0.26,0.19,0.39c0.07,0.12,0.14,0.25,0.22,0.39
				c0.43,0.71,0.97,1.37,1.57,1.94c0.69,0.65,1.44,1.21,2.16,1.64c0.62,0.37,1.21,0.65,1.67,0.81c0.41,0.15,0.72,0.2,0.86,0.16
				c0.12-0.08,0.21-0.18,0.27-0.29c0.07-0.13,0.11-0.29,0.12-0.48c0.02-0.26,0-0.57-0.06-0.9c-0.06-0.35-0.16-0.73-0.28-1.14
				c-0.37-1.26-0.88-2.11-1.35-2.9l0,0c-0.11-0.19-0.22-0.37-0.3-0.52l0,0c-0.21-0.37-0.28-0.66-0.24-0.85
				c0.05-0.23,0.2-0.36,0.44-0.37c0.14-0.01,0.3,0.03,0.49,0.13C327.25,181.97,328.06,182.72,328.78,183.92z M323.35,198.25
				c-0.69,0.36-1.36,0.6-2.02,0.73c-1.31,0.25-2.54,0.08-3.65-0.41c-1.08-0.48-2.03-1.27-2.81-2.24c-0.04,1.72-0.5,3.45-1.49,5.09
				c1.08-0.17,2.45-0.05,4.12,0.26c1.72,0.31,3.67,0.83,5.4,1.63C322.49,201.61,322.7,199.88,323.35,198.25z M332.9,179.92
				c0.16,0.64,0.22,1.48,0.16,2.43c-0.07,1.04-0.26,2.24-0.59,3.47l-0.01,0.01c-0.58,1.86-1.51,3.86-2.68,5.74
				c1.53-0.68,3.24-0.88,5.02-0.36c-0.3-0.68-0.45-1.61-0.54-2.77c-0.11-1.49-0.07-3.26,0.36-4.79c0.16-0.56,0.36-1.09,0.63-1.56
				c0.4-0.7,0.9-1.24,1.55-1.62c-0.24,0.04-0.48,0.06-0.73,0.06C335.23,180.56,334.13,180.34,332.9,179.92z M317.16,191.99
				c0.09-0.5,0.82-0.74,1.83-1.07c0.65-0.21,1.42-0.46,2.17-0.81c0.47-0.22,0.92-0.5,1.33-0.8h0c0.19-0.14,0.37-0.29,0.54-0.44
				c-0.4-0.3-0.79-0.62-1.17-0.97c-0.55-0.51-1.07-1.08-1.53-1.69c-0.03,0.02-0.06,0.04-0.09,0.06l0,0
				c-0.18,0.13-0.41,0.19-0.64,0.17c-0.39-0.04-0.76-0.05-1.11-0.01c-0.36,0.04-0.7,0.11-1.02,0.22c-0.37,0.13-0.71,0.3-1.01,0.51
				c-0.31,0.21-0.59,0.47-0.82,0.76c-0.23,0.29-0.42,0.61-0.56,0.94c-0.14,0.34-0.23,0.7-0.27,1.07c-0.04,0.31-0.04,0.64,0,0.97
				c0.04,0.32,0.11,0.65,0.22,0.98l0,0c0.22,0.65,0.49,1.28,0.81,1.86c0.29,0.53,0.63,1.02,1.01,1.45c0.35,0.39,0.74,0.73,1.17,1.01
				c0.41,0.26,0.86,0.48,1.36,0.63v0c1.4,0.42,2.93-0.11,4.37-1.06c2.11-1.41,4.02-3.73,5.07-5.31c-0.07,0.06-0.15,0.11-0.23,0.16
				l0,0l-0.06,0.03l-0.02,0.01l-0.06,0.04l-0.01,0l-0.05,0.02h-0.01c-0.44,0.17-1.1,0.15-1.85-0.06c-0.58-0.16-1.23-0.42-1.9-0.78
				c-0.7,0.83-1.42,1.39-2.21,1.79c-0.93,0.46-1.97,0.69-3.24,0.84c-0.46,0.05-0.88,0.1-1.21,0.08c-0.48-0.02-0.78-0.16-0.82-0.54
				l0-0.04L317.16,191.99z M315.01,175.94c0.72,0.27,1.38,0.72,1.97,1.28c0.93,0.89,1.67,2.06,2.19,3.15
				c0.16-0.33,0.35-0.64,0.57-0.92c0.34-0.44,0.75-0.81,1.18-1.14c0.5-0.37,1.04-0.67,1.56-0.9c0.27-0.12,0.52-0.22,0.76-0.3
				c0.26-0.09,0.52-0.16,0.75-0.22c0.68-0.16,1.66-0.31,2.72-0.33c-2.48-1.92-4.91-4.41-6.9-7.13
				C319.15,171.81,317.29,174.26,315.01,175.94z M313.44,187.77c-0.4-0.03-0.86-0.12-1.37-0.25c0.3,0.49,0.58,0.98,0.84,1.5
				C313.03,188.59,313.21,188.17,313.44,187.77z M313.46,181.3l0.12,0.1l0.01,0.01l0.13,0.1l0,0.01c0.13,0.12,0.26,0.25,0.4,0.39
				c0.59,0.66,1.2,1.61,1.51,2.56c0.1,0.3,0.17,0.59,0.2,0.88c0.32-0.19,0.68-0.34,1.04-0.47c0.45-0.15,0.92-0.26,1.43-0.31
				c0.1-0.01,0.2-0.02,0.3-0.02c-0.07-0.28-0.14-0.56-0.22-0.84c-0.16-0.6-0.36-1.21-0.59-1.82l-0.01-0.02
				c-0.22-0.58-0.48-1.14-0.77-1.65c-0.29-0.5-0.62-0.96-0.98-1.34l-0.11-0.1c-0.15-0.15-0.3-0.28-0.46-0.4l0,0
				c-0.19-0.14-0.38-0.27-0.58-0.37c-0.18-0.09-0.36-0.16-0.53-0.21c-0.16-0.05-0.32-0.08-0.48-0.08h0c-0.11,0-0.23,0-0.35,0.02
				c-0.12,0.01-0.26,0.04-0.4,0.08h0c-0.51,0.13-1.05,0.38-1.58,0.73c-0.55,0.35-1.08,0.8-1.55,1.3c-0.46,0.49-0.85,1.02-1.12,1.55
				l0,0c-0.24,0.48-0.39,0.95-0.4,1.38c0,0.07,0.01,0.15,0.01,0.23c0,0.07,0.02,0.14,0.03,0.21c0.02,0.06,0.03,0.11,0.06,0.16
				c0.48,0.42,0.94,0.87,1.39,1.35c0.26,0.15,0.53,0.29,0.82,0.41c0.51,0.22,1.05,0.4,1.56,0.54c0.51,0.13,0.92,0.23,1.23,0.26
				c0.23,0.03,0.37,0.03,0.41,0c0.12-0.11,0.03-0.54-0.14-1.06c-0.3-0.94-0.9-2.05-1.16-2.41h0l-0.17-0.23
				c-0.07-0.1-0.15-0.19-0.21-0.29h0l-0.03-0.05c-0.07-0.08-0.14-0.17-0.17-0.29h0c-0.02-0.06-0.03-0.13-0.03-0.19l0,0
				c0-0.11,0.03-0.21,0.09-0.29c0.06-0.07,0.14-0.12,0.22-0.15l0,0c0.06-0.02,0.13-0.03,0.2-0.03h0.01c0.18,0,0.35,0.04,0.51,0.11
				C313.2,181.12,313.33,181.21,313.46,181.3L313.46,181.3z M288.08,181.07c0.15,0.27,0.27,0.57,0.38,0.88l0,0
				c0.11,0.3,0.2,0.62,0.27,0.93h0.01c0.13,0.52,0.23,1.01,0.29,1.46c0.05,0.46,0.06,0.88,0.02,1.27c0.48-1.06,0.92-2.3,1.24-3.54
				l0,0c0.45-1.77,0.65-3.51,0.27-4.62l-0.01-0.01c-0.22-0.77-1.11-1.21-2.19-1.43c-0.21-0.04-0.43-0.08-0.65-0.11
				c-0.39-0.02-0.78-0.04-1.18-0.09c-1.21-0.03-2.37,0.12-3.02,0.3l0,0c-1.02,0.28-1.97,0.74-2.63,1.43
				c-0.55,0.56-0.91,1.29-0.97,2.21c0.02,0.12,0.05,0.23,0.09,0.35c0.04,0.13,0.09,0.26,0.14,0.41l0,0
				c0.05,0.13,0.11,0.27,0.18,0.41h0c0.07,0.14,0.14,0.28,0.2,0.4l0,0c0.41,0.74,0.94,1.43,1.53,2.04c0.67,0.7,1.42,1.3,2.14,1.76
				c0.61,0.4,1.2,0.71,1.67,0.89l0,0c0.41,0.16,0.72,0.23,0.86,0.2c0.13-0.07,0.23-0.17,0.3-0.29h-0.01
				c0.08-0.13,0.13-0.3,0.15-0.49l0,0c0.03-0.27,0.02-0.58-0.02-0.92c-0.05-0.36-0.13-0.75-0.24-1.17v0
				c-0.33-1.3-0.82-2.18-1.27-3.01c-0.09-0.16-0.18-0.32-0.29-0.54c-0.2-0.39-0.26-0.68-0.21-0.87c0.06-0.23,0.22-0.35,0.45-0.36
				c0.14,0,0.31,0.05,0.49,0.15C286.6,179.02,287.39,179.82,288.08,181.07z M282.87,194.94c-1.03,0.64-2.04,1.01-3,1.15l0,0
				c-0.27,0.04-0.53,0.07-0.79,0.07c0.71,1.03,1.27,2.15,1.59,3.27C281.33,197.92,282.06,196.41,282.87,194.94z M291.81,175.68
				c0.25,0.36,0.44,0.77,0.56,1.25c0.2,0.68,0.23,1.63,0.13,2.71c-0.1,1.06-0.36,2.27-0.74,3.51v0.01c-0.07,0.2-0.15,0.4-0.22,0.6
				c5.39-4.56,10.83-4.43,15.12-1.78c0.22-1.34,1.04-2.77,2.15-3.93c-4.15-0.36-7.07-5.04-8.34-8.6c-0.27,0.92-0.74,1.73-1.34,2.44
				c-1.16,1.38-2.8,2.34-4.29,2.95c-0.86,0.35-1.68,0.59-2.35,0.71C292.28,175.6,292.06,175.64,291.81,175.68z M275.92,188.81
				c0.11-0.5,0.86-0.72,1.9-1.01c0.67-0.19,1.46-0.41,2.24-0.74c0.49-0.21,0.96-0.47,1.38-0.76c0.2-0.14,0.4-0.29,0.57-0.43
				c-0.39-0.32-0.78-0.66-1.15-1.04c-0.54-0.54-1.05-1.14-1.49-1.79c-0.03,0.03-0.06,0.05-0.09,0.07l0,0
				c-0.19,0.12-0.42,0.17-0.65,0.14l0,0c-0.39-0.06-0.77-0.08-1.13-0.06c-0.37,0.02-0.72,0.08-1.05,0.18
				c-0.38,0.11-0.73,0.28-1.05,0.48c-0.33,0.2-0.62,0.45-0.87,0.74l0,0c-0.24,0.28-0.45,0.6-0.61,0.94l0,0
				c-0.16,0.34-0.27,0.7-0.33,1.09c-0.05,0.32-0.06,0.65-0.03,0.99c0.03,0.33,0.09,0.67,0.19,1.01v0c0.2,0.67,0.45,1.33,0.75,1.93
				c0.28,0.55,0.6,1.07,0.98,1.52c0.34,0.41,0.72,0.78,1.15,1.08c0.41,0.29,0.86,0.52,1.36,0.7c1.42,0.49,2.99,0,4.49-0.91
				c1.27-0.77,2.47-1.84,3.48-2.91l0.03-0.04l0.03-0.03l0.01-0.01l0.04-0.04l0.03-0.04l0,0l0.03-0.04l0.03-0.04l0.01-0.01l0.02-0.03
				l0.03-0.04l0.03-0.02l0.01-0.01l0.03-0.04l0.03-0.04l0,0l0.03-0.04l0.03-0.04l0.01-0.01l0.02-0.03l0.03-0.04l0.02-0.02l0.02-0.02
				l0.03-0.04l0.03-0.03l0.01,0l0.03-0.03l0.03-0.04l0.01-0.01l0.03-0.03l0.03-0.03l0.02-0.02l0.02-0.02l0.03-0.04l0.03-0.03l0.01,0
				l0.03-0.04l0.03-0.04h0l0.03-0.03l0.04-0.04l0.01-0.01l0.02-0.02l0.03-0.04l0.02-0.03l0.01-0.01l0.03-0.04l0.03-0.03v0l0.03-0.04
				l0.03-0.03l0.01-0.01l0.02-0.03l0.03-0.03l0.02-0.02l0.01-0.01l0.03-0.04l0.03-0.03l0,0l0.03-0.03l0.03-0.03l0.01-0.01l0.02-0.03
				l0.03-0.03l0.01-0.02l0.01-0.02l0.03-0.03l0.03-0.03l0,0l0.03-0.03l0.03-0.03l0.01,0l0.02-0.03l0.03-0.03l0.01-0.01l0.01-0.02
				l0.02-0.03l0.02-0.03l0.01-0.01l0.03-0.03l0.02-0.03l0.01,0l0.02-0.03l0.03-0.03l0.01-0.01l0.01-0.02l0.03-0.03l0.02-0.02
				l0.01-0.01l0.02-0.03l0.03-0.03v0c-0.09,0.06-0.18,0.12-0.28,0.17h0l-0.02,0.01l-0.04,0.02l-0.02,0.01l-0.07,0.03l-0.02,0.01
				l-0.05,0.02l0,0c-0.46,0.16-1.12,0.1-1.88-0.14c-0.58-0.18-1.23-0.48-1.9-0.87c-0.75,0.82-1.5,1.36-2.32,1.74
				c-0.97,0.44-2.03,0.62-3.33,0.72c-0.47,0.03-0.91,0.06-1.24,0.03c-0.48-0.04-0.79-0.2-0.8-0.58v-0.04L275.92,188.81z
				 M272.31,184.36c-0.47-0.06-1.02-0.19-1.62-0.37c-0.59-0.18-1.24-0.42-1.86-0.72c-0.53-0.26-1.05-0.56-1.51-0.91l0,0
				c-0.19-0.14-0.37-0.3-0.53-0.45c-0.16-0.15-0.31-0.31-0.44-0.48h-0.01c-0.29-0.36-0.51-0.74-0.64-1.15
				c-0.14-0.41-0.2-0.85-0.16-1.31l0.01-0.17v-0.01c0.11-1.55,1.1-3.25,2.48-4.55c1.38-1.3,3.15-2.21,4.81-2.17h0.01l0.19,0.01h0.01
				c1.28,0.09,2.37,0.77,3.28,1.7c0.92,0.95,1.63,2.17,2.11,3.31c0.17-0.33,0.39-0.64,0.63-0.92c0.36-0.43,0.79-0.8,1.25-1.11
				c0.44-0.3,0.9-0.54,1.35-0.74c-1.19-0.76-2.1-1.85-2.48-3.37c-0.59-2.01-0.24-5.62,0.91-9.44c0.58-1.65,1.34-3.35,2.25-5.05
				c-3.81,4.88-8.7,9.39-13.83,12.18c-4,2.14-7.57,2.5-10.57,1.66c0.31,0.93,0.55,1.89,0.7,2.87c0.39,2.5-0.07,5.04-1.76,7.24
				c0.94-0.04,2.1,0.2,3.51,0.63c1.8,0.55,3.87,1.42,5.46,2.62c0.59,0.44,1.12,0.93,1.55,1.47c0.91,1.11,1.34,2.33,1.25,3.77
				c-0.07,3.9-3.9,8.57-8.13,10.35c1.29,0.25,2.54,0.83,3.63,1.8c0.02-0.81,0.29-1.79,0.74-2.98c0.57-1.52,1.44-3.24,2.56-4.55
				c0.41-0.48,0.85-0.91,1.34-1.25c1.01-0.72,2.08-1.02,3.3-0.87c0.11,0.01,0.22,0.03,0.32,0.04c-0.43-0.92-0.73-1.93-0.89-2.96l0,0
				c-0.14-0.93-0.09-1.88,0.19-2.78v0C271.84,185.23,272.04,184.79,272.31,184.36z M272.58,177.78l0.12,0.1l0.01,0.01l0.12,0.11l0,0
				c0.13,0.12,0.26,0.27,0.38,0.42c0.58,0.7,1.16,1.69,1.44,2.66c0.09,0.3,0.15,0.61,0.17,0.91c0.34-0.18,0.71-0.33,1.09-0.44l0,0
				c0.46-0.13,0.95-0.22,1.46-0.25c0.1-0.01,0.21-0.01,0.32-0.01c-0.06-0.29-0.12-0.58-0.19-0.87c-0.14-0.62-0.31-1.25-0.52-1.86
				l-0.01-0.02l-0.01-0.02c-0.2-0.6-0.44-1.18-0.72-1.71c-0.27-0.52-0.59-1.01-0.95-1.4l-0.12-0.13l0,0
				c-0.14-0.15-0.29-0.28-0.43-0.4c-0.19-0.16-0.38-0.29-0.58-0.4c-0.18-0.1-0.36-0.18-0.53-0.24c-0.17-0.06-0.33-0.09-0.49-0.1
				h-0.01c-0.11,0-0.24,0-0.36,0.01c-0.13,0.01-0.27,0.03-0.41,0.06l0,0c-0.53,0.11-1.09,0.35-1.64,0.68l0,0
				c-0.58,0.34-1.14,0.77-1.63,1.26c-0.49,0.48-0.91,1.01-1.21,1.53c-0.27,0.48-0.44,0.95-0.46,1.39v0.01
				c-0.01,0.08-0.01,0.16,0,0.23c0.01,0.07,0.02,0.15,0.03,0.22c0.05,0.22,0.16,0.45,0.31,0.65c0.18,0.24,0.42,0.47,0.7,0.68
				c0.36,0.27,0.78,0.52,1.21,0.72c0.52,0.25,1.06,0.45,1.57,0.61v0c0.51,0.15,0.93,0.26,1.24,0.31c0.23,0.04,0.38,0.04,0.42,0.02
				c0.13-0.11,0.06-0.55-0.09-1.09c-0.27-0.97-0.84-2.14-1.09-2.5l0,0l-0.16-0.23l0,0c-0.08-0.12-0.16-0.23-0.22-0.33l-0.02-0.03
				c-0.06-0.09-0.14-0.19-0.17-0.31c-0.02-0.06-0.03-0.13-0.03-0.19v0c0-0.11,0.04-0.21,0.11-0.28c0.06-0.07,0.14-0.12,0.23-0.15
				h0.01c0.06-0.02,0.13-0.03,0.2-0.02h0c0.19,0,0.36,0.06,0.52,0.13C272.33,177.59,272.46,177.69,272.58,177.78L272.58,177.78z
				 M268.19,228.99c-0.28,1.34-1.21,5.96-0.92,7.76c0.33,2.12,3.9,17.6,6.02,19.83c2.11,2.23,8.02,2.12,10.14,2.78
				c2.12,0.67,5.34,4.68,6.24,5.24c0.89,0.56,7.36,3.12,8.02,3.79c0.67,0.67,1.89,2.79,1.89,2.79l-88-0.89l1.56-2.45
				c0,0,2.57-2.12,4.79-2.34c2.23-0.22,13.59-4.01,15.37-11.25c1.79-7.24,2.12-27.29,2.12-27.29l-0.79-2.37
				c-1.06,0.55-2.11,0.89-3.11,1.05c-1.83,0.3-3.53,0-5.04-0.73c-1.5-0.73-2.81-1.88-3.87-3.3c-1.32-1.79-2.24-4.01-2.62-6.34v-0.01
				c-0.2-1.27-0.15-2.56,0.22-3.79c0.2-0.68,0.51-1.33,0.92-1.96c-0.69-0.06-1.49-0.24-2.41-0.51c-0.82-0.25-1.7-0.57-2.56-0.97
				c-0.73-0.35-1.44-0.76-2.07-1.23l0,0c-0.26-0.19-0.51-0.4-0.73-0.61l0,0c-0.22-0.21-0.42-0.42-0.61-0.65h0
				c-0.4-0.48-0.69-1-0.88-1.55h0c-2.66,4.32-8.54,6.28-14.19,5.56c-2.51-0.33-4.83-1.48-6.46-3.73c-0.23,0.91-0.79,1.96-1.6,3.19
				c-1.04,1.58-2.45,3.32-4.05,4.51c-0.58,0.44-1.2,0.81-1.84,1.08c-1.32,0.55-2.62,0.63-3.97,0.14c-4.84-1.51-9.14-9.46-7.27-14.57
				c0.39-1.09,1.07-2,1.92-2.76c-0.22,0.14-0.44,0.26-0.66,0.37c-1.25,0.62-2.54,0.78-3.79,0.6c-1.24-0.19-2.44-0.72-3.51-1.51
				c-1.34-0.98-2.49-2.37-3.28-3.95c-0.43-0.87-0.68-1.81-0.68-2.78c0-0.49,0.06-0.99,0.2-1.5c-0.49,0.09-1.06,0.13-1.72,0.14
				c-0.64,0-1.34-0.03-2.04-0.13c-0.6-0.09-1.21-0.22-1.76-0.42c-0.22-0.08-0.45-0.17-0.66-0.28l0,0c-0.2-0.1-0.39-0.21-0.58-0.33
				l0,0c-0.39-0.26-0.72-0.57-0.99-0.92c-0.26-0.36-0.45-0.77-0.57-1.23l-0.05-0.18v-0.01c-0.38-1.55,0.07-3.52,1.01-5.22
				c0.95-1.7,2.4-3.14,4.03-3.62h0.01l0.19-0.05h0c1.27-0.31,2.56,0.01,3.73,0.64c1.2,0.65,2.28,1.63,3.11,2.6
				c0.06-0.39,0.17-0.76,0.32-1.12c0.22-0.53,0.53-1.03,0.88-1.47c0.4-0.52,0.87-0.97,1.33-1.35c0.24-0.2,0.47-0.37,0.69-0.52
				c0.25-0.16,0.48-0.31,0.69-0.43c1.26-0.69,3.7-1.64,5.91-1.57c1.52,0.04,2.93,0.56,3.78,1.95l0,0c0.4,0.61,0.73,1.52,0.96,2.6
				c0.07,0.33,0.13,0.68,0.19,1.05c0.6-1.7,1.44-3.4,2.58-4.7c-3.93-1.35-7.53-4.51-9.83-8.48c-1.47-2.54-2.04-5.48-1.13-8.56
				c-1,0.43-2.35,0.65-4.05,0.78c-2.18,0.16-4.78,0.08-7-0.55c-0.82-0.23-1.59-0.54-2.28-0.93c-1.44-0.83-2.42-1.96-2.92-3.55
				c-2.02-5.52,2.26-15.08,8.28-16.96c0.4-0.13,0.8-0.21,1.21-0.27c-1.28-0.72-2.48-1.66-3.51-2.76c-0.88-0.94-1.56-2.03-1.94-3.26
				c-0.21-0.67-0.33-1.39-0.33-2.14c-0.6,0.34-1.36,0.64-2.28,0.92c-0.81,0.26-1.73,0.49-2.66,0.62c-0.8,0.12-1.61,0.19-2.39,0.15
				c-0.32-0.01-0.64-0.04-0.95-0.09c-0.3-0.05-0.59-0.11-0.87-0.2l0,0c-0.6-0.18-1.13-0.44-1.6-0.79c-0.46-0.35-0.86-0.79-1.18-1.33
				l-0.13-0.21c-1.08-1.82-1.27-4.5-0.73-7.03c0.55-2.53,1.83-4.92,3.71-6.16c0.08-0.06,0.16-0.1,0.24-0.15
				c1.49-0.88,3.24-0.97,4.97-0.62c1.86,0.38,3.7,1.27,5.17,2.24c-0.1-0.59-0.12-1.18-0.06-1.77c0.07-0.76,0.27-1.51,0.54-2.21
				c0.32-0.81,0.73-1.57,1.17-2.23c0.22-0.33,0.45-0.64,0.67-0.92c0.24-0.31,0.49-0.59,0.72-0.82c1.34-1.37,4.09-3.54,6.92-4.3
				c0.27-0.07,0.55-0.13,0.81-0.18c-0.23-0.16-0.46-0.31-0.68-0.48c-0.68-0.51-1.29-1.08-1.79-1.7c-1.04-1.29-1.54-2.7-1.44-4.36
				c0.12-5.88,7.57-13.24,13.86-12.81c5.22,0.35,8.89,6.24,10.47,10.7c0.34-1.14,0.92-2.15,1.66-3.03c1.45-1.72,3.48-2.9,5.33-3.65
				c1.07-0.43,2.09-0.72,2.91-0.88c3.16-0.63,9.62-0.95,13.53,1.63c-0.83-4.17-1.16-8.43-0.78-12.35
				c1.46-13.85,14.5-14.98,23.36-9.16c2.45,1.61,4.28,3.99,4.85,7.15c0.69-0.83,1.81-1.64,3.27-2.51c1.88-1.12,4.24-2.21,6.5-2.65
				c0.84-0.16,1.67-0.23,2.46-0.19c1.66,0.09,3.04,0.67,4.2,1.86c4.27,4.03,4.73,14.49,0.2,18.87c-3.77,3.64-10.59,2.41-14.96,0.58
				c0.62,1.02,0.97,2.13,1.13,3.26c0.17,1.23,0.1,2.47-0.12,3.66c2.96-3.22,7.64-5.2,12.49-5.49c2.92-0.17,5.82,0.64,8.16,2.84
				c0.06-1.08,0.47-2.4,1.13-3.97c0.84-2.02,2.07-4.3,3.63-6.01c0.58-0.63,1.2-1.18,1.86-1.63c1.38-0.91,2.84-1.28,4.48-1.02
				c2.41,0.28,4.96,1.83,7.05,4c0.46-1.03,1.23-2.02,2.15-2.85c1.42-1.27,3.22-2.14,4.89-2.06h0.01l0.19,0.01h0.01
				c1.28,0.13,2.37,0.83,3.25,1.79c0.9,0.98,1.58,2.22,2.04,3.38c0.18-0.33,0.4-0.64,0.65-0.92c0.38-0.42,0.82-0.78,1.28-1.08
				c0.54-0.35,1.12-0.62,1.66-0.82c0.28-0.1,0.55-0.19,0.8-0.26c0.27-0.07,0.54-0.13,0.78-0.17l0,0c1.39-0.24,3.95-0.33,5.97,0.43
				c1.39,0.53,2.52,1.46,2.87,3.02l0,0c0.18,0.69,0.2,1.64,0.06,2.73c-0.14,1.07-0.42,2.27-0.83,3.51l0,0.01
				c-0.45,1.17-1.04,2.38-1.74,3.57c5.74-1.03,14.36,4.34,15.44,10.43c0.91,5.15-3.91,10.13-7.86,12.74
				c1.19,0.05,2.31,0.38,3.34,0.88c2.01,0.99,3.65,2.67,4.83,4.29c0.67,0.93,1.2,1.86,1.56,2.61c0.38,0.81,0.79,1.85,1.17,3.05
				c0.01-1.73,0.29-4.01,1.16-5.84c0.77-1.62,2-2.9,3.91-3.16c0.85-0.15,1.99-0.07,3.29,0.2c1.28,0.26,2.72,0.72,4.18,1.35l0.01,0
				c2.45,1.18,5.02,2.92,7.32,4.98c2.15,1.93,4.06,4.14,5.42,6.45l0,0c0.97,1.68,1.44,3.26,1.5,4.72c0.08,1.65-0.36,3.13-1.16,4.39
				c-0.8,1.26-1.95,2.3-3.31,3.09c-1.64,0.95-3.59,1.52-5.59,1.66c2.88,2.28,5,6.9,3.93,10.2c-1.11,3.44-5.67,4.91-8.92,5.22
				c0.71,0.42,1.28,0.98,1.75,1.62c0.91,1.26,1.36,2.82,1.55,4.18c0.11,0.78,0.13,1.52,0.11,2.1c-0.13,2.47-1.18,7.58-4.2,9.42
				c3.83-0.75,9.58,2.03,10.79,5.86c1.08,3.41-1.76,7.22-4.2,9.33c0.82-0.07,1.6,0.05,2.34,0.31c1.46,0.49,2.72,1.49,3.65,2.48
				c0.54,0.57,0.98,1.15,1.29,1.63c1.62,2.54,4.41,9.12,0.45,11.94c-1.41,1.08-4.37,1.93-7.74,2.19
				c-5.37,0.17-12.08-1.26-17.02-4.14l0,0.11c0.59,5.84-5.93,14.04-12.23,14.37c-5.23,0.27-9.57-5.13-11.67-9.37
				c-0.2,1.17-0.66,2.24-1.29,3.2c-1.23,1.88-3.1,3.3-4.86,4.26c-1.01,0.56-1.99,0.97-2.79,1.23c-4.19,1.37-14.53,2.9-17.07-3.75
				c-0.16-0.38-0.3-0.8-0.42-1.28c0.24,3.62-0.43,10.07-5.14,10.93C271.53,229.41,269.97,229.34,268.19,228.99z M237.74,222.42
				c0.44,5.17,2.03,26.36-1,32.6c-3.45,7.13-9.8,9.91-9.8,9.91l-2.67,1.89c0,0,20.05-2.34,29.74-1.22
				c9.69,1.11,18.71,4.56,18.71,4.56s6.46-2.56,9.8-2.56c3.34,0,4.68,0.22,4.68,0.22s-3.23-4.46-6.91-5.91
				c-3.67-1.45-7.35-1.11-12.14-10.25c-4.79-9.13-3.57-17.49-3.57-17.49l1.04-5.85c-0.54-0.16-1.09-0.35-1.64-0.56
				c-5.6-2.39-11.82-7.17-15.31-12.53c-1.16-1.81-1.77-3.54-1.94-5.15c-0.96,2.15-2.21,4.33-3.66,6.38
				C241.52,218.69,239.7,220.74,237.74,222.42z M332,173.64c-0.76,0.2-1.62,0.25-2.46,0.26c-1.39,0.01-2.6-0.11-3.56-0.48
				c-1.1-0.42-1.86-1.14-2.16-2.29c-0.02-0.06-0.03-0.12-0.04-0.19l0-0.07c-0.09-1.05,0.93-2.82,2.65-4.49
				c-1.89-2.71-2.04-4.91-1.49-8.11c0.21-1.2,0.41-2.23,0.87-2.13c0.68,0.33,0.28,2.87,0.71,5.63c0.2,1.28,0.66,2.53,1.18,3.49
				c1.52-1.22,3.38-2.32,5.37-2.96c-0.37-0.21-0.53-0.67-0.36-1.07c0.44-1.04,0.62-2.08,0.57-3.05c-0.05-1.16-0.43-2.22-1.04-3.1
				c-0.61-0.88-1.47-1.58-2.5-2.01c-0.84-0.35-1.79-0.52-2.82-0.48c-1.84,0.09-3.64,0.42-5.2,1.17c-1.3,0.63-2.44,1.54-3.28,2.83
				c-1.24,1.9-1.04,4.39-0.19,6.88c0.25,0.23,0.47,0.47,0.68,0.72c0.78,0.97,1.19,2.02,1.18,3.24c1.02,1.76,2.19,3.35,3.14,4.47
				c1.27,1.5,3.96,3.58,6.74,5.07c0.52,0.17,1,0.4,1.42,0.71c1.7,0.77,3.34,1.24,4.62,1.14c3.1-0.11,4.46-6.77,4.4-9.13
				c-0.07-2.72-1.04-5.37-3.91-6.25c-0.36-0.02-0.75,0-1.18,0.06c-0.41,0.06-0.82,0.14-1.23,0.25c-2.42,0.65-4.67,2.12-6.29,3.62
				c-1.49,1.4-2.42,2.71-2.36,3.3v0.01c0.15,0.56,0.55,0.91,1.13,1.13c0.73,0.28,1.75,0.38,2.94,0.37c2.23-0.02,3.7-0.52,5.2-0.88
				C336.87,170.79,335.49,172.72,332,173.64z M290.45,86.39L290.45,86.39"/>
		</g>
	</g>
</g>
</svg>
