<svg width="27" height="27" viewBox="0 0 27 27" fill="none" xmlns="http://www.w3.org/2000/svg">
<g clip-path="url(#clip0_232_92)">
<path fill-rule="evenodd" clip-rule="evenodd" d="M26.31 12.5C26.13 5.57 20.42 0 13.4 0C6.38 0 0.79 5.44 0.49 12.26C0.49 12.45 0.48 12.63 0.48 12.82C0.48 15.25 1.16 17.51 2.33 19.44L0 26.32L7.16 24.05C9.01 25.07 11.14 25.65 13.4 25.65C20.54 25.65 26.32 19.91 26.32 12.83C26.32 12.72 26.32 12.61 26.32 12.5H26.31ZM13.4 23.61C11.19 23.61 9.14 22.96 7.42 21.83L3.25 23.16L4.6 19.16C3.3 17.38 2.53 15.2 2.53 12.84C2.53 12.49 2.55 12.14 2.58 11.79C3.12 6.32 7.77 2.04 13.4 2.04C19.03 2.04 23.79 6.43 24.23 11.98C24.25 12.26 24.27 12.54 24.27 12.82C24.27 18.77 19.39 23.6 13.41 23.6L13.4 23.61Z" fill="#DD927A"/>
<path fill-rule="evenodd" clip-rule="evenodd" d="M19.32 15.41C19 15.25 17.44 14.49 17.15 14.39C16.86 14.28 16.65 14.23 16.44 14.55C16.23 14.86 15.62 15.57 15.44 15.78C15.25 15.99 15.07 16.02 14.75 15.86C14.44 15.7 13.41 15.38 12.2 14.3C11.26 13.47 10.62 12.44 10.44 12.13C10.26 11.82 10.42 11.65 10.58 11.49C10.72 11.35 10.89 11.12 11.06 10.94C11.1 10.89 11.14 10.84 11.17 10.79C11.24 10.68 11.3 10.57 11.37 10.41C11.48 10.2 11.42 10.02 11.35 9.85998C11.27 9.69998 10.64 8.14998 10.37 7.52998C10.11 6.89998 9.83998 7.00998 9.65998 7.00998C9.47998 7.00998 9.26998 6.97998 9.05998 6.97998C8.84998 6.97998 8.49998 7.05998 8.20998 7.36998C7.91998 7.67998 7.09998 8.44998 7.09998 9.99998C7.09998 10.36 7.16998 10.73 7.25998 11.07C7.57998 12.18 8.26998 13.09 8.38998 13.25C8.54998 13.46 10.58 16.73 13.8 18C17.02 19.25 17.02 18.83 17.6 18.78C18.18 18.73 19.48 18.02 19.74 17.29C20.01 16.56 20.01 15.93 19.93 15.8C19.85 15.67 19.64 15.59 19.33 15.44L19.32 15.41Z" fill="#DD927A"/>
</g>
<defs>
<clipPath id="clip0_232_92">
<rect width="26.32" height="26.33" fill="white"/>
</clipPath>
</defs>
</svg>
