<?xml version="1.0" encoding="utf-8"?>
<!-- Generator: Adobe Illustrator 28.0.0, SVG Export Plug-In . SVG Version: 6.00 Build 0)  -->
<svg version="1.1" id="Capa_1" xmlns="http://www.w3.org/2000/svg" xmlns:xlink="http://www.w3.org/1999/xlink" x="0px" y="0px"
	 viewBox="0 0 250 250" style="enable-background:new 0 0 250 250;" xml:space="preserve">
<style type="text/css">
	.st0{fill:#D45F35;}
	.st1{fill-rule:evenodd;clip-rule:evenodd;fill:#D45F35;}
</style>
<g id="XMLID_00000132059834061065582050000007838368742640483755_">
	<path class="st0" d="M126.87,239c-62.56,0-113.46-50.9-113.46-113.46c0-62.56,50.9-113.46,113.46-113.46
		c62.56,0,113.46,50.9,113.46,113.46C240.33,188.1,189.43,239,126.87,239z M126.87,16.07c-60.36,0-109.46,49.11-109.46,109.46
		S66.51,235,126.87,235s109.46-49.11,109.46-109.46S187.23,16.07,126.87,16.07z"/>
</g>
<g id="XMLID_00000113323883211942601750000002265389827349495467_">
	<g>
		<g id="XMLID_00000167374868037464882650000013837755700537082809_">
			<g>
				<path class="st1" d="M204.45,115.08c-1.03-40.81-34.65-73.58-76.04-73.58c-40.89,0-74.22,32.02-76,72.19
					c-0.03,1.1-0.07,2.21-0.07,3.31c0,14.28,3.99,27.6,10.9,39l-13.71,40.5l42.13-13.39c10.9,5.98,23.43,9.4,36.76,9.4
					c42.03,0,76.07-33.8,76.07-75.51C204.48,116.36,204.48,115.72,204.45,115.08z M128.41,180.47c-13,0-25.07-3.85-35.19-10.51
					l-24.57,7.84l7.98-23.58C68.97,143.75,64.44,130.9,64.44,117c0-2.07,0.11-4.13,0.32-6.16c3.14-32.13,30.49-57.31,63.65-57.31
					c33.59,0,61.19,25.82,63.75,58.52c0.14,1.64,0.21,3.28,0.21,4.95C192.37,152.02,163.67,180.47,128.41,180.47z"/>
			</g>
		</g>
		<g id="XMLID_00000053530541171322374200000016616522895593612191_">
			<path class="st1" d="M163.28,132.25c-1.89-0.92-11.04-5.41-12.75-6.02c-1.71-0.64-2.96-0.93-4.2,0.93
				c-1.25,1.85-4.84,6.02-5.91,7.23c-1.1,1.25-2.17,1.39-4.06,0.46c-1.85-0.93-7.87-2.85-15-9.19c-5.52-4.88-9.29-10.93-10.36-12.79
				c-1.07-1.85-0.11-2.85,0.82-3.78c0.85-0.85,1.85-2.17,2.81-3.24c0.25-0.32,0.46-0.61,0.68-0.89c0.43-0.68,0.75-1.32,1.18-2.21
				c0.64-1.24,0.32-2.31-0.14-3.24c-0.46-0.93-4.2-10.04-5.77-13.75c-1.53-3.7-3.1-3.06-4.2-3.06c-1.07,0-2.32-0.18-3.56-0.18
				c-1.25,0-3.28,0.46-4.99,2.31c-1.71,1.85-6.52,6.34-6.52,15.46c0,2.14,0.39,4.27,0.96,6.31c1.89,6.52,5.95,11.89,6.66,12.82
				c0.92,1.21,12.89,20.51,31.84,27.96c18.98,7.37,18.98,4.91,22.4,4.59c3.42-0.29,11.04-4.45,12.57-8.8
				c1.57-4.31,1.57-8.01,1.11-8.8C166.37,133.64,165.13,133.17,163.28,132.25z"/>
		</g>
	</g>
</g>
</svg>
