<?xml version="1.0" encoding="utf-8"?>
<!-- Generator: Adobe Illustrator 28.0.0, SVG Export Plug-In . SVG Version: 6.00 Build 0)  -->
<svg version="1.1" id="Capa_1" xmlns="http://www.w3.org/2000/svg" xmlns:xlink="http://www.w3.org/1999/xlink" x="0px" y="0px"
	 viewBox="0 0 1053 1135" style="enable-background:new 0 0 1053 1135;" xml:space="preserve">
<style type="text/css">
	.st0{opacity:0.08;}
	.st1{fill:#63301B;}
</style>
<g class="st0">
	<g>
		<g>
			<g>
				<g>
					<path class="st1" d="M417.54,418.4c-0.72-2.1-1.41-4.13-2.08-6.09c-0.65-1.96-1.21-3.86-1.78-5.65
						c-1.12-3.59-2.14-6.77-3.01-9.43c-1.74-5.31-2.9-8.49-3.15-8.41c-0.01,0,0.03,0.17,0.11,0.49c0.09,0.32,0.22,0.79,0.39,1.41
						c0.36,1.24,0.89,3.06,1.58,5.4c0.69,2.33,1.54,5.18,2.52,8.48c1,3.29,2.05,7.06,3.46,11.12c1.36,4.08,2.85,8.54,4.45,13.3
						c0.8,2.38,1.62,4.84,2.47,7.37c0.43,1.26,0.84,2.55,1.3,3.84c0.47,1.28,0.95,2.58,1.44,3.9c1.94,5.25,3.97,10.75,6.07,16.41
						c0.52,1.42,1.05,2.84,1.58,4.28c0.52,1.44,1.07,2.88,1.66,4.31c1.16,2.88,2.34,5.79,3.53,8.72c2.4,5.86,4.74,11.87,7.27,17.84
						c2.61,5.94,5.24,11.91,7.86,17.86c0.65,1.49,1.31,2.97,1.96,4.45c0.64,1.49,1.3,2.96,2.01,4.41c1.39,2.91,2.77,5.81,4.13,8.68
						c2.76,5.74,5.38,11.43,8.09,16.89c2.78,5.42,5.48,10.7,8.07,15.75c1.29,2.53,2.56,5,3.79,7.42c1.26,2.4,2.57,4.7,3.79,6.95
						c2.46,4.49,4.78,8.71,6.91,12.6c1.06,1.94,2.08,3.8,3.04,5.57c0.98,1.76,1.97,3.39,2.87,4.95
						c16.27,28.77,33.4,55.07,50.55,79.34c2.14,3.03,4.27,6.05,6.39,9.04c1.04,1.51,2.14,2.97,3.24,4.42
						c1.09,1.45,2.19,2.9,3.27,4.35c2.17,2.89,4.33,5.76,6.48,8.61c1.07,1.43,2.14,2.85,3.2,4.26c1.06,1.42,2.12,2.83,3.23,4.19
						c4.4,5.49,8.73,10.91,13,16.24c1.07,1.33,2.14,2.66,3.2,3.98c1.1,1.29,2.2,2.58,3.29,3.86c2.19,2.57,4.36,5.11,6.51,7.64
						c2.15,2.53,4.29,5.04,6.42,7.54c1.05,1.26,2.14,2.47,3.24,3.67c1.09,1.2,2.18,2.41,3.26,3.6c4.34,4.78,8.61,9.5,12.82,14.14
						c4.35,4.52,8.63,8.97,12.85,13.35c2.11,2.19,4.21,4.36,6.29,6.52c2.15,2.09,4.28,4.17,6.39,6.23
						c4.24,4.11,8.41,8.16,12.52,12.15c4.18,3.91,8.39,7.66,12.48,11.41c8.11,7.58,16.42,14.41,24.35,21.16
						c29.01,24.14,56.25,43.41,81.04,59.17c3.1,1.98,6.14,3.92,9.13,5.83c3.02,1.87,6.05,3.6,9,5.36c2.96,1.75,5.86,3.46,8.71,5.15
						c2.86,1.67,5.63,3.39,8.47,4.87c5.62,3.06,11.04,6,16.27,8.85c1.31,0.71,2.6,1.41,3.89,2.11c1.31,0.65,2.6,1.3,3.88,1.94
						c2.57,1.28,5.08,2.53,7.55,3.76c39.55,19.66,68.48,29.83,88.44,36.58c5.04,1.57,9.51,2.97,13.48,4.21
						c1.99,0.61,3.85,1.19,5.6,1.72c1.74,0.54,3.41,0.92,4.94,1.33c6.15,1.59,10.53,2.67,13.65,3.35c6.24,1.37,7.42,1.21,7.59,0.58
						c0.05-0.19-1.9-0.92-5.64-2.14c-3.74-1.22-9.27-2.93-16.4-5.07c-0.89-0.28-1.81-0.53-2.74-0.84c-0.93-0.32-1.88-0.64-2.86-0.98
						c-1.96-0.66-4.01-1.36-6.15-2.09c-4.29-1.44-8.94-3.01-13.94-4.69c-4.96-1.8-10.22-3.84-15.82-5.92
						c-2.8-1.05-5.67-2.13-8.63-3.23c-2.91-1.21-5.9-2.45-8.96-3.72c-3.06-1.27-6.19-2.58-9.39-3.91c-1.6-0.67-3.22-1.34-4.85-2.02
						c-1.64-0.67-3.24-1.47-4.89-2.21c-6.56-3.03-13.4-6.12-20.44-9.42c-6.94-3.49-14.12-7.1-21.51-10.81
						c-7.26-3.96-14.72-8.04-22.37-12.21c-7.54-4.37-15.19-8.98-23.03-13.61c-7.69-4.89-15.53-9.89-23.47-15.03
						c-3.9-2.68-7.82-5.39-11.78-8.11c-1.98-1.36-3.97-2.73-5.96-4.1c-1-0.69-2-1.37-3-2.06c-0.98-0.72-1.96-1.44-2.94-2.16
						c-3.92-2.9-7.87-5.81-11.85-8.75c-1.99-1.47-3.98-2.94-5.98-4.41c-1.99-1.5-3.92-3.07-5.88-4.61
						c-4.59-3.62-9.22-7.27-13.87-10.95l-1.75-1.38l-1.71-1.43l-3.41-2.88c-2.28-1.92-4.57-3.84-6.86-5.77
						c-2.29-1.93-4.59-3.86-6.89-5.8l-1.73-1.45l-1.68-1.51l-3.37-3.02c-4.5-4.03-9.02-8.08-13.56-12.15
						c-4.48-4.12-8.85-8.4-13.3-12.61c-2.22-2.11-4.44-4.23-6.66-6.35c-2.21-2.13-4.33-4.36-6.5-6.54
						c-4.32-4.38-8.64-8.77-12.97-13.16c-4.2-4.52-8.4-9.04-12.6-13.57l-6.29-6.79l-6.08-6.98c-4.05-4.65-8.1-9.3-12.14-13.95
						c-3.9-4.77-7.79-9.52-11.67-14.27c-1.94-2.37-3.88-4.75-5.81-7.11c-1.86-2.43-3.72-4.85-5.58-7.27
						c-3.71-4.84-7.41-9.66-11.09-14.47c-3.54-4.91-7.06-9.81-10.56-14.68c-1.75-2.44-3.5-4.87-5.24-7.29
						c-1.72-2.44-3.34-4.94-5.01-7.39c-3.31-4.93-6.6-9.83-9.87-14.69c-21.99-33.55-40.66-66.95-55.99-98.1
						c-15.36-31.15-27.38-60.03-36.83-84.5c-2.26-6.16-4.41-12.02-6.44-17.57c-1-2.78-2.04-5.46-2.94-8.09
						c-0.88-2.64-1.73-5.2-2.56-7.67c-1.65-4.94-3.19-9.54-4.6-13.77c-0.7-2.12-1.41-4.13-2.01-6.08c-0.59-1.95-1.15-3.8-1.68-5.56
						c-2.14-7.02-3.8-12.46-4.93-16.15c-0.58-1.84-1.02-3.25-1.32-4.19c-0.16-0.47-0.28-0.82-0.36-1.06
						c-0.08-0.24-0.13-0.35-0.15-0.35c-0.58,0.16,0.39,4.35,2.18,10.83c0.9,3.24,2,7.05,3.22,11.21c0.61,2.08,1.25,4.25,1.91,6.48
						C416.04,413.83,416.78,416.09,417.54,418.4z"/>
				</g>
			</g>
		</g>
	</g>
	<g>
		<g>
			<g>
				<g>
					<path class="st1" d="M685.38,809.9c-0.33-0.19,0.84-1.27,3.36-3.13c1.26-0.92,2.85-2.06,4.78-3.35c1.94-1.26,4.19-2.7,6.75-4.3
						c5.13-3.17,11.48-6.9,18.87-11.11c7.37-4.22,15.79-8.91,24.9-14.21c8.75-5.13,18.17-10.78,27.76-17.32
						c9.54-6.58,19.27-14.03,28.31-22.82c0.98-0.94,1.97-1.89,2.96-2.83c0.93-1,1.86-2.01,2.79-3.02c1.85-2.03,3.83-3.99,5.51-6.22
						c0.88-1.08,1.75-2.17,2.64-3.26c0.88-1.09,1.79-2.16,2.61-3.34c1.68-2.32,3.37-4.65,5.07-7c6.66-9.48,12.92-19.53,18.55-30.06
						c10.81-20.25,19.57-42.07,25.43-64.25c3.08-11.52,5.32-23.13,6.77-34.6c1.49-11.47,2.01-22.81,2.08-33.8
						c0.07-12.73-0.64-25.01-1.77-36.6c-1.15-11.58-2.79-22.47-4.5-32.48c-3.6-20.6-7.49-37.45-10.06-49.23
						c-2.6-11.77-3.96-18.47-3.47-18.6c0.45-0.12,2.55,6.37,5.79,18c3.21,11.63,7.64,28.39,11.77,49.03
						c1.97,10.03,3.88,20.96,5.28,32.65c1.38,11.69,2.32,24.13,2.4,37.08c0.07,11.18-0.48,22.75-2.02,34.45
						c-1.5,11.7-3.83,23.52-6.91,35.27c-5.85,22.59-14.11,45.09-25.16,65.71c-5.75,10.71-11.98,21.03-18.67,30.75
						c-1.67,2.43-3.4,4.8-5.09,7.18c-0.43,0.59-0.84,1.19-1.28,1.77l-1.38,1.73c-0.92,1.15-1.84,2.3-2.75,3.44l-1.37,1.71
						l-0.68,0.85l-0.74,0.8c-0.99,1.06-1.97,2.12-2.95,3.18c-0.98,1.05-1.96,2.1-2.93,3.15c-0.99,1.02-2.06,1.96-3.08,2.94
						c-9.47,9.05-19.66,16.44-29.56,22.83c-9.96,6.33-19.65,11.71-28.59,16.66c-18.38,10.03-33.79,17.75-44.42,23.45
						c-5.31,2.86-9.48,5.11-12.35,6.66C687.15,809.22,685.54,809.99,685.38,809.9z"/>
				</g>
			</g>
		</g>
	</g>
	<g>
		<g>
			<g>
				<g>
					<path class="st1" d="M851.32,367.68c0.63-0.34,1.84,4.27,3.31,12.72c1.45,8.45,3.2,20.75,4.23,35.87
						c0.49,7.28,0.79,15.2,0.7,23.62c-0.07,8.42-0.57,17.35-1.74,26.58c-2,15.92-6.78,32.66-14.61,48.37
						c-3.78,7.54-8.39,14.77-13.63,21.45c-5.24,6.69-11.09,12.85-17.19,18.54c-12.73,11.81-26.17,22.04-38.42,31.87
						c-7.1,5.67-13.75,11.3-19.71,17c-5.95,5.69-11.26,11.38-15.7,16.99c-4.59,5.76-8.31,11.37-11.28,16.51
						c-0.73,1.3-1.43,2.55-2.1,3.76c-0.61,1.24-1.2,2.44-1.77,3.59c-0.28,0.58-0.56,1.14-0.84,1.69c-0.26,0.56-0.48,1.12-0.71,1.66
						c-0.46,1.08-0.91,2.11-1.32,3.09c-1.55,3.96-2.71,7.11-3.38,9.29c-0.74,2.17-1.24,3.31-1.48,3.26
						c-0.24-0.05-0.16-1.27,0.2-3.56c0.3-2.3,1.13-5.61,2.4-9.78c0.36-1.03,0.73-2.11,1.13-3.25c0.2-0.57,0.4-1.16,0.62-1.75
						c0.25-0.58,0.5-1.18,0.75-1.78c0.52-1.21,1.05-2.48,1.61-3.79c0.63-1.28,1.29-2.6,1.97-3.97c2.8-5.43,6.4-11.36,10.92-17.44
						c4.37-5.92,9.61-11.93,15.53-17.92c5.92-5.99,12.57-11.9,19.65-17.74c12.19-10.11,25.71-20.03,38.07-31.6
						c5.93-5.57,11.43-11.65,16.3-18.15c4.88-6.5,9.1-13.4,12.73-20.54c3.75-7.44,6.68-15.21,8.9-23.02
						c2.19-7.83,3.78-15.67,4.87-23.35c1.27-8.89,2.12-17.54,2.57-25.77c0.47-8.23,0.6-16.04,0.37-23.25
						c-0.48-14.77-1.55-26.99-2.22-35.54C851.33,372.76,850.99,367.85,851.32,367.68z"/>
				</g>
			</g>
		</g>
	</g>
	<g>
		<g>
			<g>
				<g>
					<path class="st1" d="M708.8,657.87c-0.73,0.24-0.04-6.28,1.91-18.01c2.32-11.64,6.07-28.48,12.39-48.41
						c5.98-19.23,13.95-41.36,22.8-65.09c7.6-20.49,16.33-42.03,23.68-64.51c7.05-21.6,13.13-43.93,17.17-66.21
						c2-11.59,3.63-23.14,4.4-34.54c0.12-1.42,0.23-2.84,0.35-4.26c0.13-1.42,0.15-2.83,0.23-4.24c0.13-2.82,0.27-5.63,0.4-8.42
						c0.11-2.79,0.09-5.56,0.15-8.31c0.03-2.75,0.13-5.49,0.04-8.2c-0.05-3.14-0.1-6.25-0.15-9.33c-0.1-3.08-0.29-6.12-0.42-9.13
						c-0.07-1.51-0.15-3-0.22-4.49c-0.12-1.48-0.25-2.96-0.37-4.42c-0.25-2.93-0.49-5.83-0.73-8.68c-0.33-2.84-0.66-5.65-0.98-8.41
						c-0.17-1.38-0.31-2.75-0.49-4.11c-0.21-1.35-0.41-2.69-0.62-4.02c-0.41-2.66-0.81-5.28-1.2-7.84
						c-0.48-2.55-0.95-5.06-1.42-7.51c-3.87-20.19-8.79-36.48-12.51-47.71c-0.46-1.41-0.89-2.74-1.3-3.99
						c-0.2-0.63-0.4-1.24-0.59-1.82c-0.21-0.58-0.41-1.14-0.61-1.68c-0.77-2.16-1.42-4.01-1.91-5.51c-1-3.01-1.42-4.65-1.2-4.75
						c0.22-0.1,1.05,1.38,2.41,4.24c1.36,2.87,3.34,7.1,5.44,12.68c4.37,11.09,9.86,27.37,14.28,47.67
						c0.53,2.47,1.07,4.98,1.62,7.55c0.46,2.58,0.92,5.22,1.4,7.9c0.24,1.34,0.47,2.69,0.71,4.06c0.22,1.37,0.39,2.75,0.59,4.14
						c0.39,2.79,0.78,5.62,1.18,8.49c0.33,2.88,0.6,5.81,0.91,8.77c0.15,1.48,0.3,2.97,0.45,4.47c0.1,1.5,0.2,3.02,0.3,4.54
						c0.19,3.05,0.42,6.13,0.57,9.24c0.09,3.12,0.18,6.27,0.27,9.46c0.12,2.75,0.05,5.52,0.03,8.31c-0.04,2.79-0.02,5.6-0.12,8.43
						c-0.13,2.83-0.27,5.67-0.4,8.53c-0.08,1.43-0.11,2.87-0.23,4.3c-0.12,1.44-0.24,2.87-0.36,4.32c-0.25,2.88-0.46,5.79-0.76,8.69
						c-0.35,2.9-0.7,5.82-1.05,8.74c-0.19,1.46-0.32,2.93-0.56,4.39c-0.23,1.46-0.46,2.92-0.69,4.39c-0.48,2.93-0.87,5.88-1.42,8.81
						c-3.99,22.58-9.45,45.36-16.61,67.1c-7.45,22.6-15.62,44.41-23.44,64.8c-9.09,23.59-18.05,45.15-24.49,64.1
						c-6.66,19.4-11.07,35.76-14.12,47.23C710.77,651.14,709.2,657.76,708.8,657.87z"/>
				</g>
			</g>
		</g>
	</g>
	<g>
		<g>
			<g>
				<g>
					<path class="st1" d="M757.65,191.83c0.56-0.45,2.55,4.29,5.38,13.11c2.81,8.82,6.56,21.74,9.44,37.91
						c1.33,7.79,2.45,16.33,2.89,25.48c0.46,9.14,0.16,18.91-1.39,28.94c-0.74,4.31-1.57,8.69-2.86,13.02
						c-0.3,1.09-0.61,2.18-0.91,3.27c-0.36,1.08-0.73,2.16-1.09,3.24c-0.35,1.09-0.77,2.15-1.18,3.22c-0.42,1.07-0.8,2.15-1.27,3.21
						c-1.76,4.26-3.82,8.43-6.01,12.56c-2.23,4.1-4.67,8.12-7.21,12.08c-9.86,15.21-22.02,28.94-33.85,42.21
						c-12.34,13.78-24.02,27.53-33.32,41.54c-10.75,16.21-18.02,32.93-22.5,47.76c-2.32,7.63-3.96,14.75-5.18,21.08
						c-0.28,1.59-0.56,3.12-0.82,4.6c-0.27,1.48-0.44,2.92-0.66,4.3c-0.45,2.75-0.7,5.29-0.99,7.58c-0.31,2.29-0.42,4.34-0.63,6.13
						c-0.21,1.78-0.31,3.3-0.43,4.53c-0.24,2.46-0.48,3.78-0.72,3.78c-0.24,0-0.43-1.31-0.59-3.79c-0.08-1.24-0.16-2.78-0.14-4.58
						c0.03-1.81-0.03-3.89,0.12-6.22c0.12-2.33,0.23-4.92,0.53-7.73c0.14-1.41,0.24-2.88,0.44-4.39c0.2-1.52,0.4-3.09,0.62-4.71
						c0.96-6.49,2.37-13.79,4.48-21.66c4.07-15.28,11.01-32.67,21.84-49.55c9.35-14.56,21.45-28.34,33.71-42.16
						c11.77-13.32,23.18-27.3,32.73-41.89c2.47-3.8,4.81-7.65,6.89-11.59c2.06-3.95,3.99-7.93,5.6-11.99
						c1.59-4.06,3.09-8.12,4.12-12.26c1.21-4.09,2-8.23,2.79-12.3c1.64-9.47,2.26-18.79,2.22-27.64c-0.03-8.85-0.7-17.24-1.75-24.94
						c-2.28-15.76-5.3-28.66-7.36-37.69C758.52,197.24,757.35,192.05,757.65,191.83z"/>
				</g>
			</g>
		</g>
	</g>
	<g>
		<g>
			<g>
				<g>
					<path class="st1" d="M679.51,310.2c0.68,0.11,0.12,3.2-1.46,8.53c-0.39,1.33-0.85,2.8-1.37,4.4c-0.52,1.6-0.99,3.37-1.56,5.23
						c-0.58,1.87-1.19,3.86-1.84,5.96c-0.33,1.05-0.67,2.13-1.02,3.23c-0.32,1.11-0.64,2.26-0.97,3.42
						c-1.27,4.5-2.82,9.32-4.09,14.54c-0.68,2.6-1.38,5.27-2.1,8c-0.66,2.75-1.27,5.57-1.94,8.44c-0.29,1.24-0.59,2.48-0.88,3.74
						c-0.15,0.63-0.31,1.25-0.46,1.89c-0.14,0.64-0.27,1.27-0.41,1.91c-0.56,2.56-1.14,5.14-1.71,7.76
						c-0.29,1.31-0.59,2.62-0.88,3.94c-0.25,1.33-0.49,2.67-0.74,4.01c-0.49,2.68-0.96,5.39-1.41,8.12
						c-0.23,1.31-0.41,2.63-0.56,3.95c-0.16,1.32-0.33,2.65-0.49,3.97c-0.33,2.65-0.65,5.31-0.98,7.97c-0.24,2.67-0.47,5.34-0.71,8
						c-0.21,2.66-0.56,5.31-0.67,7.97c-0.15,2.76-0.31,5.5-0.46,8.22c-0.06,1.36-0.16,2.72-0.19,4.07c-0.02,1.35-0.04,2.7-0.06,4.04
						c-0.04,2.68-0.09,5.33-0.13,7.95c-0.08,2.62,0.04,5.2,0.03,7.75c0.02,2.95-0.02,5.84,0.03,8.67c0.09,2.83,0.17,5.59,0.25,8.28
						c0.06,5.38,0.51,10.44,0.77,15.12c0.07,1.2,0.15,2.38,0.22,3.53c0.09,1.15,0.22,2.26,0.31,3.35c0.2,2.18,0.39,4.25,0.57,6.18
						c0.18,1.94,0.29,3.76,0.47,5.43c0.18,1.67,0.35,3.2,0.5,4.59c0.55,5.54,0.64,8.73,0.17,8.82c-0.48,0.09-1.33-2.95-2.53-8.42
						c-0.29-1.37-0.61-2.89-0.97-4.54c-0.33-1.66-0.59-3.47-0.91-5.41c-0.31-1.94-0.64-4-0.98-6.19c-0.17-1.09-0.36-2.21-0.52-3.36
						c-0.14-1.15-0.28-2.34-0.42-3.55c-0.52-4.7-1.23-9.79-1.53-15.22c-0.19-2.71-0.38-5.5-0.58-8.36
						c-0.15-2.86-0.19-5.79-0.29-8.77c-0.05-2.58-0.19-5.19-0.13-7.85c0.05-2.65,0.1-5.34,0.15-8.05c0.03-1.36,0.06-2.72,0.08-4.09
						c0.04-1.37,0.15-2.74,0.22-4.12c0.15-2.76,0.3-5.54,0.46-8.33c0.1-2.69,0.37-5.38,0.51-8.08c0.15-2.71,0.31-5.42,0.46-8.13
						c0.22-2.71,0.49-5.41,0.76-8.11c0.15-1.35,0.29-2.7,0.44-4.04c0.15-1.34,0.31-2.69,0.56-4.01c1.8-11.06,3.69-21.9,6.27-31.91
						c0.74-2.9,1.49-5.73,2.29-8.48c0.9-2.72,1.78-5.38,2.63-7.97c1.65-5.19,3.59-9.95,5.12-14.42c0.79-2.29,1.54-4.48,2.37-6.52
						c0.8-2.05,1.57-3.99,2.28-5.81c0.72-1.82,1.38-3.53,2.03-5.08c0.69-1.54,1.33-2.96,1.91-4.24
						C677.72,313.01,679.17,310.15,679.51,310.2z"/>
				</g>
			</g>
		</g>
	</g>
	<g>
		<g>
			<g>
				<g>
					<path class="st1" d="M669.59,311.37c0.1,0.32-0.22,0.72-0.86,1.18c-0.32,0.23-0.73,0.46-1.2,0.72c-0.47,0.3-1,0.61-1.61,0.93
						c-1.2,0.68-2.61,1.54-4.2,2.57c-1.55,1.11-3.3,2.32-5.08,3.88c-3.48,2.93-7.19,6.85-10.92,11.42
						c-3.2,3.94-6.96,8.03-10.28,12.59c-3.18,4.38-6.24,8.97-9.27,13.46c-3.15,4.67-5.91,9.46-8.68,13.85
						c-3.21,5.09-6.22,9.79-8.69,13.89c-5.11,8.43-8.46,13.96-9.37,13.54c-0.85-0.39,1.49-6.42,5.72-15.43
						c2.05-4.38,4.63-9.41,7.63-14.72c2.6-4.59,5.65-9.29,8.77-14.08c3-4.6,5.53-9.67,8.82-14.1c3.43-4.58,6.74-9.12,10.32-13.15
						c4.15-4.65,8.96-8.11,13.07-10.9c2.1-1.47,4.18-2.58,6.05-3.49c0.96-0.41,1.85-0.8,2.7-1.1c0.86-0.27,1.64-0.54,2.36-0.72
						c0.73-0.16,1.38-0.3,1.95-0.4c0.57-0.1,1.07-0.11,1.47-0.14C669.1,311.15,669.54,311.21,669.59,311.37z"/>
				</g>
			</g>
		</g>
	</g>
	<g>
		<g>
			<g>
				<g>
					<path class="st1" d="M579.05,387.06c-0.32,0.18-0.8-1.08-1.41-3.58c-0.31-1.25-0.65-2.82-1.02-4.67
						c-0.47-1.83-1.01-3.95-1.62-6.33c-2.52-9.46-6.92-23.04-15.59-37.88c-4.14-7.14-9.07-14.65-15.1-22
						c-5.98-7.39-12.85-14.76-20.54-21.84c-13.17-12.29-28.72-23.86-45.46-34.38c-16.09-10.13-33.1-19.6-49.41-29.71
						c-16.93-10.5-33.45-21.33-47.3-33.7c-8.04-7.1-15.27-14.53-21.58-22c-6.35-7.45-11.6-15.08-16.03-22.33
						c-4.63-7.44-7.94-14.75-10.63-21.25c-2.54-6.58-4.29-12.44-5.4-17.33c-0.5-2.45-0.94-4.64-1.32-6.54
						c-0.26-1.92-0.43-3.56-0.56-4.88c-0.25-2.65-0.27-4.06-0.03-4.1c0.24-0.03,0.69,1.31,1.32,3.86c0.32,1.28,0.67,2.86,1.1,4.71
						c0.52,1.83,1.12,3.94,1.8,6.3c1.4,4.71,3.4,10.35,6.13,16.66c2.88,6.24,6.34,13.23,11.06,20.35
						c4.52,6.93,9.83,14.21,16.19,21.31c6.32,7.13,13.5,14.23,21.44,21.06c13.64,11.88,29.67,22.76,46.52,33.11
						c16.21,9.96,33.56,18.81,49.78,29.09c8.43,5.33,16.69,10.82,24.55,16.56c7.87,5.72,15.28,11.85,22.03,18.21
						c7.82,7.37,14.66,15.18,20.54,23.01c5.91,7.81,10.67,15.74,14.74,23.2c4.25,7.62,7.19,15.06,9.58,21.66
						c0.53,1.68,1.04,3.3,1.53,4.87c0.25,0.78,0.49,1.55,0.72,2.31c0.22,0.76,0.38,1.52,0.57,2.26c0.36,1.48,0.7,2.89,1.03,4.25
						c0.16,0.68,0.32,1.34,0.47,1.98c0.14,0.65,0.23,1.29,0.34,1.91c0.41,2.48,0.77,4.7,1.09,6.63c0.22,1.94,0.32,3.61,0.43,4.96
						C579.19,385.49,579.21,386.97,579.05,387.06z"/>
				</g>
			</g>
		</g>
	</g>
	<g>
		<g>
			<g>
				<g>
					<path class="st1" d="M330.23,64.74c0.79-0.21-1.24,7.6-5.43,21.55c-4.17,13.96-10.56,34.04-17.88,58.56
						c-6.98,23.62-14.71,51.37-20.94,81.77c-0.69,3.27-1.28,6.59-1.95,9.92c-0.33,1.67-0.66,3.34-0.99,5.02
						c-0.3,1.68-0.6,3.37-0.9,5.07c-0.59,3.39-1.19,6.81-1.79,10.24c-0.53,3.44-1.06,6.91-1.59,10.39c-0.58,3.48-0.93,7-1.4,10.53
						c-0.45,3.53-0.91,7.07-1.22,10.64c-0.75,7.13-1.26,14.33-1.63,21.58c-1.43,27.87-0.21,56.37,3.13,84.08
						c3.47,28.82,9.7,56.71,17.35,82.32c8.82,29.71,19.82,56.32,30.91,78.27c2.81,5.67,5.73,10.97,8.46,16.03
						c2.85,4.99,5.5,9.74,8.18,14.09c5.23,8.78,10.16,16.16,14.2,22.23c4.14,6,7.39,10.71,9.66,13.87c2.23,3.19,3.33,4.96,3.14,5.12
						c-0.19,0.15-1.62-1.34-4.17-4.3c-2.59-2.93-6.13-7.44-10.56-13.28c-4.33-5.91-9.55-13.17-15.05-21.86
						c-2.82-4.3-5.61-9.02-8.6-13.98c-2.87-5.03-5.93-10.31-8.88-15.97c-11.64-21.89-23.25-48.55-32.45-78.47
						c-7.97-25.81-13.98-54.03-17.59-83.11c-3.48-27.94-5.43-56.73-3.95-84.94c0.12-3.67,0.45-7.31,0.68-10.96
						c0.21-3.64,0.58-7.26,0.9-10.87c0.17-1.8,0.31-3.61,0.51-5.4c0.21-1.79,0.42-3.58,0.63-5.37c0.21-1.78,0.42-3.57,0.63-5.34
						c0.2-1.78,0.42-3.55,0.69-5.31c0.51-3.52,1.02-7.03,1.52-10.51c0.53-3.48,1.16-6.92,1.74-10.35c0.3-1.71,0.59-3.42,0.88-5.12
						c0.33-1.69,0.67-3.38,1-5.06c0.67-3.36,1.3-6.71,2.01-10.01c6.54-30.59,15.35-58.12,22.81-81.67
						c7.73-24.12,14.67-43.86,19.6-57.65c2.47-6.89,4.46-12.3,5.87-15.99C329.2,66.78,330.04,64.79,330.23,64.74z"/>
				</g>
			</g>
		</g>
	</g>
	<g>
		<g>
			<g>
				<g>
					<path class="st1" d="M357.51,620.24c-0.1,0.33-0.85,0.28-2.17-0.09c-1.31-0.38-3.17-1.1-5.58-1.98
						c-4.78-1.81-11.65-4.44-20.19-6.85c-8.22-2.3-18.03-4.3-28.75-5.06c-4.62-0.32-9.4-0.63-14.29-0.6
						c-2.44-0.05-4.93,0.1-7.4,0.18c-1.18,0.07-2.13,0.21-2.76,0.49c-0.32,0.14-0.56,0.29-0.8,0.54c-0.25,0.22-0.44,0.47-0.59,0.77
						c-0.63,1.11-0.59,3.15,0,5.12c0.29,0.99,0.69,2,1.18,2.94c0.25,0.47,0.51,0.94,0.8,1.38c0.3,0.46,0.69,0.96,1.04,1.44
						c1.45,1.92,2.74,3.96,4.39,5.71l2.35,2.72c0.77,0.91,1.69,1.69,2.52,2.54c7.06,6.99,15.5,12.15,23.9,15.77
						c9.79,4.11,19.61,6.09,28.11,6.42c1.09,0.03,2.17,0.14,3.21,0.12c1.05-0.04,2.07-0.07,3.06-0.1c1-0.03,1.97-0.06,2.91-0.09
						c0.94-0.1,1.85-0.21,2.73-0.3c0.89-0.09,1.74-0.19,2.57-0.27c0.41-0.04,0.82-0.08,1.22-0.12c0.39-0.07,0.78-0.15,1.16-0.22
						c1.52-0.27,2.91-0.52,4.17-0.74c1.28-0.17,2.37-0.5,3.34-0.71c0.97-0.22,1.8-0.4,2.49-0.52c1.37-0.24,2.15-0.26,2.24-0.04
						c0.09,0.23-0.53,0.65-1.79,1.27c-0.63,0.31-1.42,0.67-2.35,1.07c-0.94,0.39-2.01,0.9-3.28,1.23c-1.26,0.37-2.67,0.79-4.19,1.24
						c-0.38,0.11-0.78,0.22-1.18,0.34c-0.41,0.08-0.82,0.16-1.25,0.24c-0.85,0.16-1.73,0.33-2.64,0.5
						c-0.91,0.17-1.85,0.35-2.82,0.53c-0.98,0.1-1.99,0.2-3.03,0.3c-1.04,0.1-2.11,0.21-3.2,0.31c-1.1,0.1-2.22,0.05-3.38,0.08
						c-8.94,0.18-19.5-1.35-30.1-5.47c-9.11-3.62-18.02-9.42-25.65-16.83c-0.9-0.9-1.89-1.74-2.75-2.68l-2.6-2.85
						c-1.83-1.84-3.32-3.96-4.94-5.98c-0.4-0.52-0.8-1.01-1.2-1.55c-0.42-0.6-0.79-1.21-1.15-1.84c-0.7-1.26-1.29-2.58-1.74-3.99
						c-0.45-1.41-0.76-2.91-0.81-4.53c-0.04-1.61,0.2-3.42,1.07-5.14c0.91-1.79,2.4-3.29,4.21-4.15c1.79-0.85,3.49-1.04,4.86-1.16
						c1.31-0.08,2.61-0.16,3.9-0.23c1.29-0.09,2.57-0.13,3.85-0.15c5.11-0.16,10.13,0.06,14.97,0.51
						c11.23,1.07,21.21,4.24,29.55,7.08c8.57,2.95,15.32,6.22,19.88,8.77c1.14,0.65,2.15,1.21,3.02,1.75
						c0.86,0.55,1.58,1.02,2.16,1.43C356.97,619.57,357.56,620.07,357.51,620.24z"/>
				</g>
			</g>
		</g>
	</g>
	<g>
		<g>
			<g>
				<g>
					<path class="st1" d="M374.67,652.18c0.08,0.35-1.13,0.51-3.48,0.48c-1.17-0.01-2.63-0.07-4.36-0.17
						c-1.72-0.11-3.71-0.25-5.95-0.36c-2.24-0.13-4.73-0.29-7.44-0.49c-2.72-0.15-5.66-0.31-8.82-0.48
						c-6.32-0.32-13.48-0.61-21.34-0.74c-1.89-0.06-3.82-0.07-5.79-0.06c-1.97,0-3.98,0-6.02-0.01c-4.09,0.01-8.31,0.16-12.66,0.23
						c-8.69,0.36-17.88,0.79-27.39,1.7c-16.4,1.48-33.9,3.24-51.48,6.74c-16.9,3.33-33.9,7.7-50.39,12.67
						c-17.16,5.14-33.6,11.43-48.88,17.68c-17.7,7.25-33.78,14.72-47.29,21.69c-27.78,14.36-44.92,25.48-45.53,24.54
						c-0.26-0.39,3.81-3.49,11.3-8.55c7.52-5.02,18.52-11.92,32.26-19.59c13.35-7.45,29.32-15.47,47.07-23.06
						c15.32-6.54,32.01-12.61,49.3-17.89c16.61-5.1,33.62-10.22,50.74-13.53c17.77-3.48,35.41-5.9,52.06-7.17
						c9.64-0.79,18.95-0.88,27.75-0.87c4.4,0.09,8.67,0.17,12.8,0.31c4.13,0.21,8.11,0.29,11.93,0.53
						c15.66,0.79,28.55,2.2,37.51,3.61c4.49,0.6,7.99,1.34,10.39,1.79C373.33,651.67,374.62,652.01,374.67,652.18z"/>
				</g>
			</g>
		</g>
	</g>
	<g>
		<g>
			<g>
				<g>
					<path class="st1" d="M22.75,736.73c0.36-0.72,4.15,2.91,11.5,8.63c3.71,2.82,8.33,6.13,13.96,9.48
						c5.62,3.35,12.24,6.73,19.77,9.82c7.25,2.98,15.37,5.58,24.13,7.78c8.78,2.14,18.2,3.86,28.09,5.04
						c17.04,2.09,35.42,3.27,54.21,3c18.08-0.25,36.48-1.16,54.51-2.54c18.75-1.4,37.06-3.71,54.23-6.06
						c19.88-2.8,38.29-5.54,53.66-9.35c7.91-1.94,15.02-4.15,21.17-6.44c6.16-2.28,11.34-4.68,15.55-6.76
						c8.38-4.25,12.84-7.25,13.17-6.8c0.25,0.32-3.78,3.97-12,8.88c-4.12,2.41-9.28,5.14-15.47,7.73
						c-6.18,2.6-13.34,5.11-21.32,7.34c-15.53,4.38-33.93,7.65-53.86,10.75c-8.61,1.3-17.53,2.46-26.65,3.49
						c-9.12,1.01-18.44,1.89-27.86,2.65c-18.11,1.47-36.59,3.11-54.8,3.29c-18.93,0.22-37.62-0.34-55.04-2.69
						c-10.08-1.34-19.7-3.42-28.62-5.98c-8.92-2.59-17.13-5.67-24.53-8.93c-7.57-3.36-14.2-7.05-19.79-10.73
						c-5.6-3.67-10.14-7.33-13.72-10.5c-3.54-3.23-6.15-5.94-7.83-7.88C23.52,738.02,22.68,736.9,22.75,736.73z"/>
				</g>
			</g>
		</g>
	</g>
	<g>
		<g>
			<g>
				<g>
					<path class="st1" d="M388.18,738.94c1.38,0.55-8.51,14.03-23.4,35.11c-7.16,10.16-15.42,22.11-23.94,35.28
						c-7.37,11.34-15.47,23.28-22.93,35.94c-1.81,3.03-3.55,6.13-5.34,9.2c-1.74,3.1-3.49,6.21-5.24,9.32
						c-3.46,6.24-6.89,12.55-10.55,18.7c-3.81,6.39-7.78,12.66-12.22,18.49c-4.42,5.83-9.36,11.19-14.76,15.67
						c-6.25,5.2-12.96,9.27-19.58,12.42c-6.62,3.16-13.13,5.43-19.18,7.21c-6.24,1.84-12.01,3.12-17.13,4.06
						c-5.12,0.97-9.58,1.6-13.25,2.07c-7.35,0.9-11.54,1.1-11.61,0.63c-0.08-0.49,3.99-1.45,11.18-2.98
						c3.59-0.79,7.97-1.71,12.95-2.94c4.99-1.2,10.59-2.72,16.59-4.75c5.82-1.97,12.01-4.41,18.22-7.62
						c6.21-3.21,12.45-7.21,18.23-12.2c4.98-4.3,9.63-9.29,13.89-14.85c4.27-5.55,8.17-11.6,11.88-17.89
						c3.56-6.06,6.79-12.41,10.1-18.76c1.67-3.17,3.35-6.34,5.06-9.49c1.74-3.12,3.47-6.25,5.3-9.3
						c7.56-12.7,15.19-25.04,22.8-36.34c8.8-13.1,18.01-24.46,25.6-34.38c7.8-10.16,14.46-18.39,19.28-24.02
						C384.95,741.92,387.86,738.82,388.18,738.94z"/>
				</g>
			</g>
		</g>
	</g>
	<g>
		<g>
			<g>
				<g>
					<path class="st1" d="M208.68,946.92c-0.05-0.38,1.59-0.05,4.71,0.91c1.56,0.48,3.48,1.13,5.76,1.91
						c2.29,0.74,4.93,1.61,7.89,2.62c2.95,1.03,6.29,2.02,9.89,3.21c3.61,1.18,7.57,2.3,11.79,3.61c8.49,2.42,18.14,5.04,28.84,7.47
						c20.61,4.61,45.06,8.48,71.68,9.67c22.93,1.06,47.51,0.71,72.27-2.64c23.79-3.2,47.71-8.74,70.53-16.17
						c11.87-3.85,23.43-8.28,34.54-13.12c11.1-4.85,21.74-10.14,31.84-15.63c11.72-6.34,22.61-13.13,32.61-20
						c9.96-6.93,19-13.98,26.93-20.96c8.14-7.2,15.16-14.23,21-20.77c5.83-6.55,10.48-12.59,14.09-17.71
						c7.18-10.27,10.27-16.74,10.79-16.49c0.22,0.1-0.37,1.8-1.72,4.9c-1.44,3.06-3.66,7.52-7.06,12.9
						c-3.39,5.38-7.87,11.7-13.58,18.53c-5.72,6.82-12.65,14.15-20.74,21.66c-7.87,7.27-16.87,14.63-26.83,21.85
						c-10,7.16-20.93,14.23-32.74,20.79c-10.17,5.68-20.96,11.03-32.21,15.93c-11.26,4.88-22.98,9.31-34.98,13.26
						c-23.06,7.61-47.14,13.95-71.3,17.15c-25.09,3.35-50.02,4.35-73.33,3.07c-27.01-1.46-51.6-6.44-72.31-11.57
						c-10.62-2.68-20.2-5.51-28.6-8.26c-4.19-1.41-8.09-2.77-11.68-4.06c-3.57-1.36-6.86-2.56-9.79-3.74
						c-2.92-1.21-5.53-2.29-7.81-3.23c-2.26-0.96-4.16-1.86-5.71-2.58C210.35,947.96,208.7,947.11,208.68,946.92z"/>
				</g>
			</g>
		</g>
	</g>
	<g>
		<g>
			<g>
				<g>
					<path class="st1" d="M481.6,259.96c0.28-0.22,0.9,0.53,1.8,2.14c0.93,1.61,2.09,4.1,3.47,7.37c2.71,6.54,6.12,16.28,8.59,28.63
						c1.19,5.94,2.05,12.5,2.4,19.51c0.33,7.01,0.09,14.5-1.09,22.18c-0.46,3.32-1.27,6.65-2.13,9.99c-0.94,3.33-2.05,6.64-3.33,9.9
						c-2.53,6.54-5.65,12.91-8.78,19.27c-6.03,12.23-12.51,24.28-16.8,36.87c-4.56,13.07-7.16,26.51-8.43,39.21
						c-1.42,14.73-1.1,28.54,0.43,40.23c1.61,12.03,4.15,21.79,6.24,28.48c0.91,3.4,1.91,5.97,2.4,7.8c0.52,1.82,0.7,2.84,0.48,2.94
						c-0.22,0.1-0.79-0.74-1.68-2.42c-0.86-1.69-2.2-4.15-3.44-7.5c-2.74-6.58-5.87-16.4-8.05-28.64
						c-2.08-11.89-2.97-26.07-1.8-41.29c1.04-13.13,4.02-26.94,8.63-40.47c4.35-13.08,10.38-25.77,16.37-37.78
						c3.12-6.25,6.01-12.48,8.33-18.73c1.15-3.12,2.18-6.24,3.03-9.35c0.79-3.13,1.56-6.22,2.05-9.32
						c2.5-14.31,2.42-28.14,0.66-39.79c-1.84-11.94-4.53-21.63-6.46-28.39C482.51,264.05,481.3,260.19,481.6,259.96z"/>
				</g>
			</g>
		</g>
	</g>
	<g>
		<g>
			<g>
				<g>
					<path class="st1" d="M273.61,378.61c0.34-0.05,0.63,0.72,0.86,2.16c0.17,1.44,0.53,3.56,1.06,6.19c0.38,1.3,0.6,2.77,1.2,4.3
						c0.28,0.76,0.49,1.58,0.83,2.39c0.35,0.8,0.7,1.64,1.07,2.5c1.6,3.39,3.8,7.05,6.73,10.72c5.61,7.1,13.86,14.03,23.86,20.07
						c8.6,5.34,17.93,10.92,27.93,15.78c9.61,4.66,19.62,9.04,29.39,13.55c10.15,4.7,20.23,9.18,29.35,14.18
						c10.58,5.74,19.91,11.98,27.44,17.88c7.78,6.05,13.49,11.87,17.16,16.16c0.91,1.08,1.71,2.04,2.38,2.91
						c0.65,0.88,1.18,1.64,1.6,2.27c0.83,1.26,1.18,2,0.99,2.16c-0.18,0.16-0.86-0.3-1.97-1.28c-0.56-0.49-1.22-1.12-1.99-1.87
						c-0.79-0.73-1.69-1.57-2.71-2.51c-4.06-3.75-9.99-9.03-17.87-14.51c-7.64-5.35-16.98-10.98-27.5-16.36
						c-9.06-4.69-18.89-9.39-29.04-13.99c-9.76-4.42-20.1-8.16-29.8-12.94c-10.07-4.97-19.91-10.11-28.67-15.81
						c-5.08-3.24-9.79-6.97-13.8-10.83c-4.03-3.87-7.45-7.92-10.29-11.88c-2.92-4.06-5.07-8.14-6.53-11.93
						c-0.63-1.93-1.28-3.72-1.59-5.45c-0.17-0.86-0.42-1.66-0.49-2.47c-0.09-0.8-0.18-1.56-0.27-2.28
						c-0.04-0.36-0.08-0.71-0.12-1.05c0-0.34-0.01-0.68-0.01-1c0-0.64,0-1.25,0-1.81c-0.04-1.12,0.11-2.08,0.22-2.85
						C273.25,379.45,273.44,378.63,273.61,378.61z"/>
				</g>
			</g>
		</g>
	</g>
	<g>
		<g>
			<g>
				<g>
					<path class="st1" d="M387.74,325.44c1.33-0.18,2.74,1.41,3.58,4c0.41,1.25,0.74,2.72,1.03,4.31c0.25,1.38-0.13,2.9,0.02,4.41
						c0.15,1.45,0.37,2.91,0.43,4.37c0.06,1.51,0.37,2.97,0.34,4.38c-0.04,1.63-0.29,3.15-0.47,4.45c-0.36,2.68-1.04,4.47-2.01,4.56
						c-0.97,0.09-1.41-1.58-2.08-4.16c-0.33-1.25-0.6-2.72-0.85-4.32c-0.21-1.38-0.23-2.86-0.37-4.37
						c-0.14-1.45-1.08-2.84-1.15-4.29c-0.08-1.51-0.32-2.98-0.33-4.37c-0.01-1.62,0.76-3.19,0.86-4.48
						C386.91,327.26,387.07,325.53,387.74,325.44z"/>
				</g>
			</g>
		</g>
	</g>
	<g>
		<g>
			<g>
				<g>
					<path class="st1" d="M384.02,270.98c1.32,0.26,1.35,4.67,0.09,11.15c-0.6,3.12-1.44,6.72-2.42,10.59
						c-0.85,3.34-2.37,6.72-3.4,10.31c-0.99,3.46-1.93,7-3,10.43c-1.12,3.57-1.97,7.14-3.09,10.4c-1.3,3.78-2.7,7.22-3.87,10.17
						c-2.4,6.08-4.39,9.91-5.32,9.64c-0.93-0.27-0.03-4.41,1.37-10.78c0.68-3.09,1.57-6.67,2.59-10.53
						c0.88-3.33,2.02-6.81,3.05-10.4c0.99-3.45,1.24-7.18,2.3-10.62c1.1-3.57,2.02-7.12,3.09-10.39c1.24-3.79,3.15-7.07,4.24-10.05
						C381.87,274.82,383.36,270.85,384.02,270.98z"/>
				</g>
			</g>
		</g>
	</g>
	<g>
		<g>
			<g>
				<g>
					<path class="st1" d="M630.29,408.21c0.71-0.03-0.03,4.47-1.96,12.4c-0.48,1.98-1.04,4.18-1.66,6.58
						c-0.63,2.39-1.2,5.03-1.9,7.82c-0.7,2.79-1.44,5.77-2.22,8.92c-0.4,1.57-0.81,3.19-1.23,4.84c-0.38,1.67-0.78,3.37-1.18,5.12
						c-1.53,6.73-3.39,13.96-4.93,21.74c-0.82,3.88-1.67,7.86-2.53,11.94c-0.8,4.09-1.55,8.3-2.36,12.57
						c-0.35,1.84-0.71,3.7-1.07,5.57c-0.19,0.93-0.37,1.87-0.56,2.81c-0.16,0.95-0.33,1.89-0.5,2.85c-0.68,3.8-1.36,7.66-2.06,11.55
						c-0.35,1.95-0.7,3.9-1.06,5.87c-0.3,1.97-0.6,3.96-0.9,5.95c-0.59,3.98-1.17,8-1.72,12.04c-0.28,1.94-0.51,3.89-0.7,5.85
						c-0.21,1.96-0.42,3.92-0.63,5.88c-0.42,3.92-0.83,7.86-1.25,11.79c-0.32,3.94-0.63,7.88-0.95,11.82
						c-0.29,3.93-0.72,7.85-0.89,11.77c-0.22,4.07-0.44,8.12-0.66,12.14c-0.1,2.01-0.23,4.01-0.29,6.01c-0.05,2-0.09,3.98-0.14,5.96
						c-0.1,3.96-0.19,7.87-0.29,11.73c-0.07,1.93-0.06,3.85-0.07,5.76c-0.01,1.91-0.02,3.8-0.03,5.68
						c-0.02,4.35-0.12,8.62-0.1,12.79c0.05,4.17,0.11,8.25,0.16,12.21c-0.01,7.94,0.43,15.4,0.65,22.31
						c0.07,1.78,0.13,3.51,0.19,5.21c0.1,1.69,0.21,3.35,0.31,4.96c0.19,3.22,0.38,6.27,0.55,9.13c0.18,2.86,0.28,5.54,0.46,8.01
						c0.18,2.47,0.35,4.73,0.5,6.77c0.55,8.17,0.65,12.83,0.17,12.89c-0.48,0.06-1.34-4.49-2.55-12.61
						c-0.29-2.03-0.62-4.28-0.97-6.74c-0.34-2.46-0.58-5.14-0.9-7.99c-0.3-2.86-0.62-5.91-0.96-9.14c-0.17-1.61-0.33-3.27-0.51-4.96
						c-0.13-1.7-0.26-3.44-0.39-5.22c-0.48-6.92-1.18-14.41-1.4-22.38c-0.16-3.98-0.32-8.08-0.49-12.27
						c-0.12-4.19-0.11-8.49-0.16-12.87c-0.01-3.78-0.11-7.62-0.01-11.51c0.1-3.89,0.21-7.83,0.31-11.8c0.05-1.99,0.11-3.99,0.16-6
						c0.06-2.01,0.21-4.02,0.31-6.04c0.22-4.04,0.44-8.12,0.66-12.21c0.47-7.87,0.95-15.82,1.42-23.77
						c0.31-3.97,0.66-7.94,1.02-11.89c0.19-1.98,0.38-3.95,0.57-5.93c0.19-1.97,0.4-3.94,0.69-5.89c0.56-4.06,1.13-8.11,1.68-12.12
						c0.27-2.01,0.55-4.01,0.82-6c0.33-1.98,0.65-3.96,0.98-5.93c0.65-3.93,1.3-7.82,1.94-11.66c0.16-0.96,0.32-1.92,0.48-2.87
						c0.19-0.95,0.37-1.89,0.56-2.84c0.38-1.88,0.75-3.75,1.13-5.61c0.88-4.29,1.76-8.5,2.7-12.59c1.04-4.07,2.06-8.04,3.06-11.9
						c1.92-7.74,4.16-14.92,5.95-21.63c0.46-1.72,0.92-3.39,1.36-5.03c0.44-1.64,0.96-3.22,1.41-4.76c0.94-3.09,1.82-6.02,2.66-8.76
						c0.84-2.74,1.6-5.32,2.37-7.68c0.8-2.35,1.54-4.5,2.21-6.45C628.28,412.63,629.94,408.23,630.29,408.21z"/>
				</g>
			</g>
		</g>
	</g>
	<g>
		<g>
			<g>
				<g>
					<path class="st1" d="M42.91,744.9c-0.5-0.59,6.26-2.43,18.62-5.15c12.36-2.75,30.35-6.24,52.28-10.15
						c21.13-3.71,45.87-7.82,72.66-11.86c5.78-0.87,11.65-1.72,17.61-2.56c5.97-0.78,12.01-1.58,18.11-2.38
						c12.22-1.57,24.68-3.17,37.26-4.78c12.09-1.64,24.31-3.1,36.52-4.66c12.22-1.52,24.45-2.9,36.57-4.3
						c12.61-1.37,25.1-2.73,37.34-4.07c12.25-1.25,24.25-2.56,35.89-3.54c6.74-0.58,13.36-1.15,19.83-1.71
						c6.47-0.5,12.8-0.98,18.94-1.45c12.29-0.96,23.9-1.7,34.61-2.41c11.02-0.77,21.08-1.29,29.97-1.77
						c4.44-0.22,8.6-0.43,12.43-0.62c3.84-0.14,7.35-0.27,10.53-0.39c12.69-0.42,19.87-0.44,19.9,0.04
						c0.03,0.48-7.1,1.27-19.74,2.34c-6.32,0.53-14.01,1.18-22.87,1.92c-8.86,0.76-18.88,1.54-29.86,2.57
						c-10.67,0.96-22.22,1.96-34.47,3.14c-6.12,0.57-12.42,1.17-18.87,1.77c-6.44,0.64-13.04,1.3-19.76,1.97
						c-11.61,1.11-23.57,2.4-35.79,3.61c-12.22,1.24-24.67,2.64-37.24,4.01c-12.08,1.43-24.26,3.02-36.42,4.71
						c-6.08,0.84-12.16,1.69-18.23,2.53c-6.07,0.81-12.13,1.62-18.16,2.42c-12.54,1.62-24.97,3.25-37.13,4.98
						c-6.08,0.84-12.1,1.68-18.05,2.5c-5.94,0.85-11.8,1.69-17.57,2.51c-26.74,3.75-51.54,6.74-72.73,9.95
						c-21.69,3.39-39.63,6.19-52.19,8.15c-6.28,0.98-11.22,1.73-14.63,2.19S43.04,745.05,42.91,744.9z"/>
				</g>
			</g>
		</g>
	</g>
	<g>
		<g>
			<g>
				<g>
					<path class="st1" d="M737.24,360.24c0.37,0.05-0.09,1.4-1.28,3.88c-0.59,1.24-1.37,2.76-2.31,4.55
						c-0.48,0.89-0.99,1.85-1.54,2.87c-0.54,1.03-1.05,2.17-1.63,3.34c-1.17,2.35-2.46,4.96-3.88,7.82
						c-1.34,2.89-2.71,6.06-4.25,9.43c-0.38,0.84-0.77,1.7-1.16,2.57c-0.36,0.89-0.72,1.79-1.09,2.7c-0.74,1.83-1.5,3.71-2.28,5.65
						c-1.65,3.83-3.01,8.03-4.61,12.34c-0.38,1.04-0.76,2.09-1.14,3.16c-0.35,1.08-0.7,2.17-1.05,3.27c-0.7,2.2-1.42,4.44-2.15,6.72
						c-0.77,2.27-1.4,4.62-2.08,7c-0.68,2.38-1.36,4.8-2.06,7.25c-0.67,2.46-1.26,4.99-1.91,7.53c-0.61,2.55-1.34,5.11-1.89,7.74
						c-1.13,5.26-2.42,10.61-3.43,16.13c-3.75,18.99-7.31,39.36-9.76,60.32c-2.34,20.14-4.04,40.77-6.05,61.02
						c-2.07,21.05-4.02,41.76-6.86,61.11c-3.3,22.41-7.55,42.99-12.15,60.37c-0.59,2.23-1.17,4.42-1.74,6.55
						c-0.63,2.12-1.25,4.18-1.85,6.19c-0.6,2.01-1.19,3.96-1.76,5.86c-0.6,1.89-1.25,3.7-1.84,5.47c-0.61,1.76-1.19,3.46-1.76,5.11
						c-0.56,1.64-1.1,3.22-1.71,4.71c-1.18,2.98-2.27,5.72-3.25,8.19c-0.95,2.48-1.96,4.62-2.83,6.48c-0.87,1.86-1.62,3.44-2.26,4.7
						c-1.26,2.53-2.04,3.82-2.26,3.73c-0.22-0.1,0.15-1.56,1.05-4.23c0.45-1.33,1.02-2.97,1.72-4.89c0.7-1.92,1.54-4.11,2.33-6.62
						c0.84-2.5,1.77-5.26,2.78-8.28c0.53-1.5,1-3.09,1.49-4.74c0.49-1.65,1.01-3.36,1.54-5.13c0.52-1.77,1.1-3.59,1.63-5.48
						c0.5-1.9,1.02-3.85,1.55-5.86c0.53-2.01,1.08-4.07,1.64-6.18c0.5-2.13,1.01-4.31,1.53-6.54c4.07-17.32,7.76-37.77,10.75-60.05
						c2.58-19.23,4.8-39.78,6.79-60.8c1.92-20.2,2.92-40.91,5.33-61.15c2.52-21.03,5.48-41.65,9.5-60.82
						c1.09-5.56,2.49-10.96,3.79-16.23c0.62-2.65,1.43-5.22,2.13-7.77c0.74-2.55,1.46-5.07,2.18-7.55c0.8-2.46,1.58-4.88,2.36-7.27
						c0.79-2.38,1.49-4.75,2.35-7.02c0.82-2.28,1.63-4.53,2.42-6.73c0.39-1.1,0.78-2.19,1.16-3.27c0.42-1.07,0.84-2.13,1.25-3.17
						c3.28-8.62,6.69-16.32,9.92-23.03c1.68-3.32,3.26-6.42,4.72-9.29c1.61-2.79,3.08-5.35,4.41-7.66c0.67-1.15,1.31-2.24,1.91-3.27
						c0.62-1.01,1.26-1.93,1.83-2.79c1.16-1.72,2.16-3.18,2.97-4.37C736.1,361.46,737.05,360.22,737.24,360.24z"/>
				</g>
			</g>
		</g>
	</g>
	<g>
		<g>
			<g>
				<g>
					<path class="st1" d="M299.61,883.22c-0.34,0.11-0.57-0.99-0.61-3.26c0.14-2.23,0.63-5.67,2.51-9.69
						c1.86-4,5.02-8.53,9.55-12.77c4.49-4.29,10.24-8.36,16.9-12.07c3.21-1.67,6.55-3.41,10.02-5.21c3.49-1.76,7.02-3.74,10.85-5.38
						c3.79-1.71,7.69-3.48,11.69-5.28c1.98-0.94,4.05-1.73,6.13-2.56c2.08-0.83,4.18-1.66,6.31-2.5c7.28-3.04,15.07-5.42,22.94-8.04
						c1.96-0.67,3.97-1.24,5.98-1.82c2.01-0.59,4.03-1.17,6.05-1.76c4.05-1.17,8.1-2.45,12.23-3.52c3.95-1.08,7.93-2.17,11.91-3.27
						c3.98-1.09,8.01-2.02,12.02-3.04c8.01-2.06,16.1-3.79,24.09-5.58c16.65-3.52,32.98-6.99,48.37-9.83
						c8.91-1.63,17.5-3.2,25.62-4.68c4.06-0.75,8-1.48,11.81-2.19c1.91-0.35,3.78-0.7,5.62-1.04c1.83-0.36,3.63-0.72,5.39-1.06
						c29-5.61,47.67-10.13,47.96-9.12c0.13,0.47-4.44,1.99-12.61,4.39c-4.08,1.25-9.1,2.51-14.89,4c-2.9,0.73-5.97,1.56-9.24,2.32
						c-3.27,0.77-6.72,1.58-10.32,2.42c-1.75,0.41-3.54,0.83-5.36,1.25c-1.83,0.4-3.69,0.81-5.58,1.22
						c-3.79,0.82-7.71,1.67-11.74,2.55c-8.08,1.66-16.62,3.42-25.49,5.25c-15.33,3.09-31.63,6.24-48.18,9.83
						c-7.93,1.82-15.92,3.72-23.82,5.94c-3.95,1.09-7.93,2.11-11.86,3.23c-3.93,1.14-7.85,2.25-11.77,3.3
						c-4.09,1.04-8.09,2.32-12.08,3.52c-1.99,0.61-3.98,1.21-5.95,1.82c-1.97,0.61-3.95,1.18-5.88,1.87
						c-7.72,2.7-15.37,5.12-22.58,8c-2.11,0.79-4.19,1.56-6.26,2.33c-2.06,0.77-4.14,1.46-6.11,2.32c-4,1.61-7.9,3.19-11.7,4.72
						c-3.84,1.44-7.42,3.19-10.93,4.77c-3.5,1.61-6.88,3.18-10.1,4.72c-3.23,1.64-6.24,3.36-8.99,5.13
						c-1.39,0.87-2.68,1.8-3.95,2.68c-1.22,0.94-2.44,1.82-3.53,2.77c-4.48,3.69-7.71,7.58-9.82,11.09
						c-2.11,3.52-3.13,6.61-3.67,8.77C300.02,881.95,299.82,883.17,299.61,883.22z"/>
				</g>
			</g>
		</g>
	</g>
	<g>
		<g>
			<g>
				<g>
					<path class="st1" d="M830.43,592.9c0.35-0.01,0.4,0.95,0.16,2.78c-0.12,0.91-0.31,2.05-0.58,3.38
						c-0.29,1.33-0.71,2.84-1.17,4.55c-1.95,6.79-5.56,16.5-11.69,27.39c-5.82,10.53-13.82,22.14-23.33,33.87
						c-8.22,10.13-17.87,20.03-27.55,30.25c-9.32,9.82-19.03,19.62-28.94,28.85c-10.3,9.59-20.51,18.91-30.56,27.12
						c-11.63,9.52-22.83,17.77-32.55,24.65c-19.98,14.19-33.9,21.95-34.37,21.22c-0.59-0.89,12.67-9.57,31.89-24.49
						c9.34-7.23,20.13-15.83,31.47-25.48c9.8-8.33,20.11-17.32,30.26-26.9c9.77-9.21,18.89-19.41,28.17-29.09
						c9.64-10.07,18.74-20.3,27-30.08c9.53-11.32,18.24-21.94,24.37-31.98c6.37-10.22,10.47-19.32,13.15-25.75
						c0.65-1.62,1.24-3.06,1.75-4.32c0.48-1.27,0.88-2.36,1.22-3.24C829.8,593.85,830.25,592.91,830.43,592.9z"/>
				</g>
			</g>
		</g>
	</g>
	<g>
		<g>
			<g>
				<g>
					<path class="st1" d="M577.47,403.44c0.33-0.13,0.69,0.72,1.08,2.45c0.19,0.87,0.39,1.96,0.59,3.26
						c0.09,0.65,0.2,1.35,0.31,2.11c0.09,0.75,0.11,1.56,0.16,2.41c0.09,1.71,0.17,3.61,0.23,5.69c-0.02,2.08-0.15,4.33-0.25,6.75
						c-0.31,4.83-0.98,10.3-2.1,16.22c-0.13,0.71-0.26,1.44-0.39,2.16c-0.16,0.72-0.33,1.45-0.49,2.18
						c-0.33,1.47-0.67,2.97-1.02,4.49c-0.71,3.05-1.61,6.14-2.46,9.36c-1.88,6.36-4,13.05-6.42,19.89
						c-4.12,11.82-9.46,23.97-13.9,36.66c-4.29,12.19-7.93,24.77-10.71,37.34c-2.91,13.06-4.61,26.11-5.69,38.39
						c-1.26,14.23-1.58,27.49-1.18,38.85c0.84,23.38,3.76,38.46,2.65,38.68c-0.78,0.19-4.85-14.75-6.75-38.41
						c-0.92-11.48-1.14-24.95-0.15-39.46c0.84-12.53,2.86-25.76,5.73-39.07c2.73-12.79,5.77-25.88,10.17-38.19
						c4.55-12.8,9.31-25.16,13.61-36.77c2.53-6.71,4.93-13.15,7.14-19.28c1.02-3.08,2.07-6.07,2.96-8.99
						c0.42-1.47,0.83-2.91,1.24-4.32c0.4-1.42,0.8-2.81,1.08-4.19c1.34-5.64,2.26-10.85,2.91-15.48c0.27-2.32,0.53-4.49,0.77-6.5
						c0.12-2.02,0.23-3.87,0.33-5.54c0.05-0.84,0.11-1.63,0.16-2.38c0.03-0.75,0.01-1.45,0.02-2.1c0.01-1.31,0.02-2.42,0.05-3.33
						C577.2,404.51,577.31,403.51,577.47,403.44z"/>
				</g>
			</g>
		</g>
	</g>
	<g>
		<g>
			<g>
				<g>
					<path class="st1" d="M376.62,621.63c0.29-0.17,0.82,0.24,1.51,1.09c0.35,0.42,0.84,0.9,1.33,1.49
						c0.57,0.54,1.16,1.18,1.93,1.78c1.51,1.23,3.52,2.48,6.1,3.42c2.58,0.95,5.67,1.65,9.18,2.06c1.7,0.19,3.45,0.33,5.37,0.4
						c1.89,0.11,3.86,0.18,5.88,0.22c4.05,0.09,8.34,0.1,12.81-0.01c7.7-0.16,15.98-0.03,24.45-0.38
						c8.14-0.34,16.48-0.72,24.73-0.47c8.57,0.21,17.05,0.84,24.88,2.43c4.52,0.97,8.82,2.17,12.8,3.58
						c3.96,1.47,7.63,3.01,10.87,4.76c6.72,3.47,11.62,7.4,14.66,10.44c1.57,1.47,2.6,2.82,3.28,3.75c0.67,0.94,0.94,1.51,0.77,1.68
						c-0.17,0.17-0.75-0.09-1.67-0.72c-0.93-0.63-2.17-1.68-3.89-2.85c-3.33-2.44-8.29-5.73-14.88-8.57
						c-3.17-1.44-6.75-2.66-10.56-3.84c-3.84-1.13-7.98-2.08-12.31-2.87c-7.51-1.27-15.61-2.18-23.96-2.3
						c-8.04-0.17-16.23,0.92-24.33,1.19c-8.43,0.28-16.75,0.78-24.62,0.71c-4.55-0.02-8.96-0.38-13.1-0.84
						c-2.07-0.24-4.08-0.49-6.02-0.79c-1.93-0.26-3.84-0.56-5.66-0.89c-1.87-0.35-3.64-0.79-5.31-1.29
						c-1.66-0.55-3.22-1.12-4.63-1.84c-2.84-1.36-5.05-3.14-6.55-4.88c-1.54-1.72-2.26-3.41-2.72-4.52
						C376.58,622.36,376.47,621.71,376.62,621.63z"/>
				</g>
			</g>
		</g>
	</g>
	<g>
		<g>
			<g>
				<g>
					<path class="st1" d="M357.95,243.04c1.32-0.19,2.75,1.2,3.48,3.59c0.35,1.15,0.61,2.51,0.75,3.99
						c0.13,1.28-0.42,2.64-0.45,4.01c-0.04,1.33-0.04,2.68-0.23,4c-0.2,1.37-0.17,2.73-0.51,3.97c-0.38,1.44-1,2.71-1.49,3.8
						c-1.03,2.23-2.21,3.52-3.15,3.31c-0.95-0.22-0.88-1.73-0.9-4.02c-0.01-1.12,0.06-2.4,0.14-3.77c0.08-1.19,0.34-2.43,0.45-3.72
						c0.1-1.24-0.62-2.55-0.51-3.77c0.1-1.28,0.03-2.53,0.14-3.71c0.14-1.36,1-2.67,1.15-3.78
						C357.12,244.65,357.27,243.13,357.95,243.04z"/>
				</g>
			</g>
		</g>
	</g>
	<g>
		<g>
			<g>
				<g>
					<path class="st1" d="M347,213.89c1.31-0.24,2.66,0.14,3.3,1.13c0.3,0.47,0.51,1.05,0.6,1.68c0.08,0.56-0.5,1.07-0.58,1.63
						c-0.08,0.54-0.12,1.11-0.34,1.62c-0.23,0.53-0.24,1.12-0.59,1.55c-0.4,0.5-1,0.84-1.47,1.11c-0.99,0.57-2.02,0.56-2.82,0.03
						c-0.82-0.54-0.79-1.08-0.85-1.88c-0.04-0.39,0-0.78,0.05-1.19c0.05-0.35,0.28-0.66,0.38-1.03c0.09-0.37-0.61-0.88-0.5-1.2
						c0.11-0.34,0.06-0.7,0.2-1.01c0.17-0.36,1.09-0.73,1.29-1.08C346.1,214.54,346.33,214,347,213.89z"/>
				</g>
			</g>
		</g>
	</g>
	<g>
		<g>
			<g>
				<g>
					<path class="st1" d="M436.36,268.85c0.66-1.16,3.28-1.01,6.56,0.6c1.57,0.78,3.33,1.83,5.13,3.1c1.56,1.09,2.77,2.79,4.32,4.14
						c1.48,1.3,3.01,2.61,4.37,4.04c1.4,1.49,2.94,2.81,4.09,4.32c1.35,1.73,2.37,3.52,3.25,5.03c1.8,3.12,2.48,5.46,1.72,6.03
						c-0.78,0.59-2.34-1.03-4.86-3.38c-1.23-1.14-2.59-2.51-4.08-3.97c-1.27-1.27-2.52-2.73-3.92-4.09
						c-1.35-1.32-3.29-2.03-4.64-3.31c-1.42-1.32-2.94-2.48-4.26-3.68c-1.52-1.41-2.52-3.29-3.75-4.43
						C437.75,270.91,436.01,269.45,436.36,268.85z"/>
				</g>
			</g>
		</g>
	</g>
	<g>
		<g>
			<g>
				<g>
					<path class="st1" d="M498.91,395.12c0.63,0.24,0.25,2.29-0.96,5.63c-0.3,0.84-0.66,1.75-1.06,2.74
						c-0.41,0.99-0.77,2.1-1.22,3.26c-0.44,1.16-0.93,2.39-1.45,3.69c-0.26,0.65-0.53,1.31-0.81,1.99c-0.25,0.69-0.51,1.4-0.77,2.12
						c-1,2.79-2.25,5.74-3.27,8.99c-0.55,1.61-1.11,3.26-1.68,4.96c-0.54,1.7-1.03,3.47-1.57,5.25c-0.44,1.55-1.01,3.08-1.44,4.68
						c-0.47,1.59-0.94,3.2-1.42,4.83c-0.24,0.81-0.49,1.63-0.74,2.45c-0.23,0.82-0.42,1.66-0.63,2.5c-0.41,1.68-0.8,3.38-1.17,5.09
						c-0.39,1.64-0.59,3.32-0.88,4.99c-0.27,1.67-0.54,3.35-0.81,5.02c-0.38,3.37-0.84,6.74-1.18,10.08
						c-0.64,6.97-0.79,13.84-0.77,20.28c-0.01,1.87-0.03,3.7-0.04,5.5c0.05,1.79,0.1,3.54,0.15,5.25c0.01,3.42,0.32,6.62,0.52,9.6
						c0.15,3.07,0.59,5.83,0.8,8.3c0.13,1.23,0.21,2.39,0.33,3.46c0.14,1.06,0.26,2.04,0.36,2.92c0.39,3.54,0.4,5.61-0.07,5.73
						c-0.47,0.12-1.22-1.77-2.26-5.21c-0.25-0.86-0.53-1.82-0.83-2.87c-0.28-1.05-0.5-2.2-0.78-3.43c-0.5-2.47-1.21-5.25-1.62-8.35
						c-0.45-3-1.03-6.26-1.28-9.75c-0.16-1.74-0.32-3.53-0.48-5.37c-0.1-1.84-0.15-3.72-0.22-5.64c-0.27-6.63,0.18-13.68,0.75-20.84
						c0.3-3.44,0.58-6.92,0.79-10.42c0.2-1.74,0.4-3.48,0.61-5.21c0.24-1.73,0.41-3.47,0.83-5.16c0.39-1.76,0.77-3.52,1.15-5.26
						c0.19-0.87,0.38-1.74,0.57-2.6c0.22-0.85,0.45-1.71,0.67-2.55c0.45-1.69,0.9-3.37,1.34-5.02c0.42-1.66,1.02-3.25,1.53-4.83
						c0.62-1.82,1.24-3.61,1.94-5.32c0.74-1.69,1.49-3.34,2.23-4.93c1.4-3.21,3.04-6.09,4.31-8.85c0.65-1.41,1.28-2.76,1.97-3.99
						c0.67-1.25,1.3-2.43,1.89-3.53c0.6-1.1,1.14-2.14,1.69-3.08c0.57-0.92,1.1-1.77,1.58-2.53
						C497.39,396.67,498.59,395,498.91,395.12z"/>
				</g>
			</g>
		</g>
	</g>
	<g>
		<g>
			<g>
				<g>
					<path class="st1" d="M290.68,379.64c1.29-0.48,3.15,1.43,5.14,4.46c0.98,1.46,2.02,3.18,3.23,4.98c0.26,0.39,0.49,0.8,0.7,1.24
						c0.23,0.42,0.45,0.86,0.67,1.3c0.42,0.9,0.91,1.79,1.51,2.62c1.15,1.59,2.5,3.06,3.73,4.58c1.33,1.54,2.86,2.83,4.16,4.18
						c0.38,0.39,0.74,0.79,1.09,1.18c0.36,0.38,0.72,0.76,1.06,1.12c0.68,0.76,1.35,1.42,1.99,2.05c2.61,2.53,4.4,4.33,3.95,5.22
						c-0.42,0.83-2.82,0.02-6.27-1.83c-0.83-0.46-1.73-0.96-2.63-1.59c-0.45-0.31-0.92-0.62-1.38-0.96
						c-0.45-0.36-0.91-0.72-1.39-1.09c-1.62-1.29-3.09-2.95-4.62-4.58c-1.43-1.6-3.46-2.79-4.7-4.6c-0.63-0.94-1.3-1.84-1.88-2.77
						c-0.29-0.46-0.59-0.92-0.87-1.37c-0.26-0.47-0.51-0.93-0.75-1.4c-1.1-2.16-1.24-4.57-1.81-6.35
						C290.47,382.34,290.08,379.87,290.68,379.64z"/>
				</g>
			</g>
		</g>
	</g>
	<g>
		<g>
			<g>
				<g>
					<path class="st1" d="M295.04,351.83c1.29-0.39,2.82,0.48,3.97,2.12c0.56,0.79,1.08,1.74,1.61,2.77
						c0.45,0.89,0.36,2.07,0.78,3.07c0.41,0.96,0.92,1.9,1.29,2.87c0.39,1.02,1.01,1.89,1.33,2.86c0.36,1.12,0.54,2.25,0.75,3.21
						c0.43,1.96,0.41,3.48-0.4,4.01c-0.81,0.52-1.77-0.41-3.15-1.94c-0.67-0.75-1.36-1.68-2.01-2.74c-0.57-0.91-0.96-2-1.47-3.04
						c-0.48-1.01-1.67-1.73-2.05-2.8c-0.39-1.11-0.91-2.14-1.17-3.2c-0.31-1.23,0.19-2.62,0.1-3.61
						C294.42,353.36,294.4,352.02,295.04,351.83z"/>
				</g>
			</g>
		</g>
	</g>
	<g>
		<g>
			<g>
				<g>
					<path class="st1" d="M301.47,328.12c1.34-0.13,2.59-0.08,3.2,0.12c0.29,0.1,0.5,0.22,0.64,0.37c0.12,0.12-0.38,0.31-0.36,0.46
						c0.02,0.14,0.12,0.27,0.05,0.42c-0.07,0.15,0.11,0.28-0.05,0.43c-0.18,0.17-0.57,0.35-0.85,0.5c-0.59,0.31-1.42,0.55-2.39,0.64
						c-0.97,0.09-1.26-0.05-1.71-0.26c-0.21-0.1-0.36-0.23-0.47-0.38c-0.09-0.13,0.03-0.28,0.01-0.43
						c-0.02-0.14-0.82-0.21-0.77-0.35c0.05-0.15-0.06-0.28,0.05-0.43c0.13-0.17,1.03-0.4,1.24-0.54
						C300.48,328.38,300.79,328.18,301.47,328.12z"/>
				</g>
			</g>
		</g>
	</g>
	<g>
		<g>
			<g>
				<g>
					<path class="st1" d="M620.01,822.07c1.21,0.56,0.13,5.01-2.95,11.16c-1.49,2.96-3.36,6.34-5.54,9.89
						c-1.86,3.08-4.45,5.96-6.65,9.18c-2.13,3.09-4.29,6.25-6.57,9.22c-2.39,3.09-4.55,6.25-6.91,8.97
						c-2.71,3.17-5.45,5.91-7.78,8.26c-4.8,4.83-8.36,7.55-9.07,6.92c-0.74-0.65,1.95-4.1,5.9-9.53c1.94-2.62,4.2-5.67,6.65-8.97
						c2.12-2.84,4.49-5.77,6.77-8.86c2.19-2.98,3.73-6.51,5.88-9.5c2.23-3.12,4.26-6.29,6.29-9.19c2.37-3.34,5.15-6.07,7.05-8.73
						C616.94,825.42,619.38,821.78,620.01,822.07z"/>
				</g>
			</g>
		</g>
	</g>
	<g>
		<g>
			<g>
				<g>
					<path class="st1" d="M585.78,851.81c1.09,0.79,0.22,3.81-2.17,7.65c-1.15,1.85-2.6,3.92-4.23,6.11
						c-1.4,1.89-3.4,3.49-5.01,5.47c-1.55,1.9-3.07,3.88-4.69,5.73c-1.68,1.92-3.14,3.96-4.76,5.67c-1.88,1.98-3.79,3.67-5.39,5.15
						c-3.3,3.04-5.78,4.73-6.53,4.12c-0.75-0.62,0.86-3.03,3.35-6.72c1.21-1.8,2.7-3.83,4.35-5.99c1.43-1.86,3.11-3.71,4.73-5.68
						c1.55-1.9,2.52-4.33,4.12-6.18c1.66-1.93,3.17-3.92,4.76-5.66c1.84-2.01,4.14-3.37,5.68-4.9
						C583.14,853.44,585.23,851.41,585.78,851.81z"/>
				</g>
			</g>
		</g>
	</g>
	<g>
		<g>
			<g>
				<g>
					<path class="st1" d="M548.97,880.11c1.12,0.73,1.5,2.4,0.89,4.24c-0.3,0.88-0.76,1.83-1.35,2.8c-0.51,0.84-1.57,1.32-2.23,2.13
						c-0.64,0.78-1.25,1.62-1.98,2.32c-0.76,0.73-1.33,1.61-2.12,2.2c-0.91,0.68-1.92,1.14-2.76,1.55c-1.72,0.84-3.16,1.01-3.81,0.3
						c-0.67-0.71-0.02-1.69,0.91-3.21c0.45-0.74,1.04-1.53,1.69-2.37c0.57-0.72,1.32-1.35,1.97-2.09c0.63-0.72,0.66-1.97,1.3-2.66
						c0.68-0.72,1.21-1.53,1.86-2.17c0.76-0.74,2.08-0.97,2.76-1.52C547.49,880.5,548.4,879.74,548.97,880.11z"/>
				</g>
			</g>
		</g>
	</g>
	<g>
		<g>
			<g>
				<g>
					<path class="st1" d="M640.38,834.28c0.95,0.93,0.39,3.2-1.58,5.67c-0.95,1.18-2.17,2.45-3.59,3.71
						c-1.22,1.1-2.93,1.71-4.36,2.73c-1.38,0.99-2.78,2.01-4.25,2.86c-1.54,0.87-2.94,1.91-4.44,2.56
						c-1.73,0.76-3.46,1.22-4.92,1.61c-3.01,0.81-5.15,0.79-5.53-0.08c-0.39-0.9,1.26-1.91,3.68-3.59c1.18-0.82,2.58-1.7,4.08-2.67
						c1.3-0.82,2.77-1.56,4.18-2.45c1.36-0.87,2.27-2.43,3.61-3.3c1.39-0.91,2.65-1.95,3.93-2.8c1.49-0.97,3.34-1.31,4.57-2.07
						C638.28,834.89,639.89,833.79,640.38,834.28z"/>
				</g>
			</g>
		</g>
	</g>
	<g>
		<g>
			<g>
				<g>
					<path class="st1" d="M528.62,890.03c1.21,0.53,1.62,2.65,0.62,5.31c-0.49,1.26-1.24,2.67-2.23,4.06
						c-0.43,0.6-0.99,1.12-1.62,1.59c-0.6,0.5-1.25,0.96-1.82,1.5c-1.08,1.06-2.24,2.12-3.51,2.98c-0.67,0.44-1.31,0.9-1.94,1.34
						c-0.66,0.41-1.29,0.83-1.99,1.1c-0.8,0.32-1.58,0.58-2.36,0.74c-0.76,0.19-1.5,0.3-2.17,0.39c-2.79,0.39-4.64-0.18-4.81-1.1
						c-0.2-0.98,1.3-1.51,3.35-2.74c0.5-0.29,1.04-0.6,1.59-0.95c0.57-0.32,1.15-0.71,1.75-1.08c0.53-0.32,1.06-0.67,1.63-0.98
						c0.55-0.35,1.12-0.69,1.67-1.09c1.04-0.8,1.54-2.23,2.49-3.07c0.51-0.43,0.97-0.9,1.4-1.38c0.45-0.46,0.86-0.94,1.3-1.38
						c1.02-0.99,2.53-1.54,3.37-2.41C527.01,891.07,527.98,889.74,528.62,890.03z"/>
				</g>
			</g>
		</g>
	</g>
	<g>
		<g>
			<g>
				<g>
					<path class="st1" d="M839.08,562.33c1.13,0.72,1.94,1.77,2.06,2.67c0.06,0.43,0.01,0.87-0.11,1.29
						c-0.1,0.37-0.75,0.41-0.96,0.75c-0.2,0.32-0.34,0.69-0.62,0.97c-0.29,0.29-0.35,0.7-0.7,0.92c-0.4,0.25-0.94,0.36-1.38,0.48
						c-0.89,0.24-1.85,0.16-2.66-0.37c-0.81-0.53-0.81-1.06-0.79-1.86c0.01-0.39,0.11-0.79,0.26-1.2c0.13-0.35,0.45-0.6,0.66-0.94
						c0.2-0.32-0.25-1.08,0-1.36c0.27-0.3,0.4-0.68,0.7-0.91c0.35-0.28,1.34-0.1,1.7-0.27
						C837.99,562.17,838.51,561.97,839.08,562.33z"/>
				</g>
			</g>
		</g>
	</g>
	<g>
		<g>
			<g>
				<g>
					<path class="st1" d="M315.13,887.72c1.21,0.53,0.71,4.24-1.6,9.26c-1.12,2.41-2.59,5.14-4.36,7.99
						c-1.51,2.47-3.73,4.67-5.59,7.17c-1.8,2.41-3.64,4.86-5.63,7.12c-2.08,2.33-3.98,4.76-6.08,6.74
						c-2.41,2.32-4.88,4.21-6.99,5.83c-4.34,3.31-7.58,4.9-8.19,4.18c-0.65-0.75,1.82-3.18,5.34-7.14c1.7-1.93,3.73-4.13,5.85-6.56
						c1.85-2.08,3.9-4.23,5.85-6.54c0.93-1.12,1.7-2.39,2.47-3.65c0.74-1.28,1.51-2.53,2.4-3.68c1.85-2.38,3.5-4.83,5.14-7.08
						c1.92-2.57,4.28-4.62,5.79-6.71C312.62,890.36,314.49,887.43,315.13,887.72z"/>
				</g>
			</g>
		</g>
	</g>
	<g>
		<g>
			<g>
				<g>
					<path class="st1" d="M406.92,793.06c-0.39-1.29,1.5-3.06,4.76-4.5c1.57-0.7,3.45-1.38,5.49-2.03c1.76-0.57,3.8-0.55,5.74-1.05
						c1.87-0.49,3.75-1.05,5.64-1.45c1.96-0.42,3.83-1.07,5.66-1.36c2.12-0.34,4.14-0.45,5.86-0.58c3.54-0.27,5.95-0.01,6.19,0.93
						c0.24,0.94-1.89,1.78-5.16,3.05c-1.59,0.62-3.47,1.24-5.52,1.86c-1.77,0.53-3.7,0.9-5.64,1.4c-1.87,0.48-3.57,1.74-5.45,2.16
						c-1.96,0.44-3.84,1.02-5.65,1.36c-2.11,0.39-4.25-0.01-5.95,0.2C409.4,793.46,407.12,793.71,406.92,793.06z"/>
				</g>
			</g>
		</g>
	</g>
	<g>
		<g>
			<g>
				<g>
					<path class="st1" d="M273.4,579.2c-0.32-1.29,1.47-2.95,4.61-4.02c1.51-0.51,3.31-0.95,5.29-1.26c1.7-0.29,3.57,0.11,5.42,0
						c1.79-0.1,3.61-0.22,5.4-0.14c1.86,0.1,3.69-0.03,5.4,0.24c1.97,0.29,3.77,0.86,5.29,1.31c3.13,0.96,5.03,2.15,4.88,3.09
						c-0.15,0.97-2.19,0.91-5.3,1c-1.51,0.05-3.26,0.03-5.14,0.03c-1.62-0.01-3.35-0.18-5.11-0.19c-1.7,0-3.4,0.83-5.08,0.86
						c-1.75,0.03-3.46,0.24-5.08,0.28c-1.87,0.03-3.71-0.65-5.24-0.65C275.61,579.77,273.56,579.87,273.4,579.2z"/>
				</g>
			</g>
		</g>
	</g>
	<g>
		<g>
			<g>
				<g>
					<path class="st1" d="M696.36,819.66c0.72-1.14,2.36-1.54,4.18-1.04c0.87,0.24,1.82,0.63,2.79,1.12
						c0.84,0.42,1.38,1.41,2.23,1.97c0.82,0.53,1.69,1.01,2.46,1.62c0.8,0.63,1.72,1.04,2.41,1.7c0.79,0.76,1.41,1.65,1.96,2.38
						c1.13,1.49,1.62,2.84,1.09,3.64c-0.54,0.81-1.65,0.41-3.36-0.22c-0.83-0.3-1.74-0.74-2.69-1.27c-0.82-0.45-1.58-1.11-2.43-1.67
						c-0.81-0.54-2.08-0.42-2.86-1.01c-0.81-0.61-1.69-1.08-2.4-1.7c-0.82-0.72-1.15-2.04-1.74-2.7
						C696.78,821.14,696,820.23,696.36,819.66z"/>
				</g>
			</g>
		</g>
	</g>
	<g>
		<g>
			<g>
				<g>
					<path class="st1" d="M339.31,18.25c1.31,0.28,2.25,1.73,2.39,3.68c0.07,0.94,0.02,2-0.12,3.13c-0.12,0.97-0.87,1.86-1.11,2.89
						c-0.23,0.99-0.39,2.02-0.7,2.99c-0.33,1.01-0.4,2.06-0.8,2.97c-0.45,1.05-1.08,1.98-1.59,2.78c-1.03,1.65-2.13,2.62-3.07,2.39
						c-0.94-0.23-0.94-1.46-0.92-3.34c0.01-0.92,0.12-1.96,0.29-3.08c0.15-0.97,0.52-1.94,0.76-2.97c0.23-0.99-0.3-2.18,0-3.15
						c0.31-1.01,0.45-2.04,0.8-2.96c0.4-1.06,1.54-1.86,1.96-2.68C338.05,19.19,338.65,18.11,339.31,18.25z"/>
				</g>
			</g>
		</g>
	</g>
	<g>
		<g>
			<g>
				<g>
					<path class="st1" d="M338.96,86.2c1.22,0.57,2.22,1.37,2.55,2.03c0.16,0.32,0.23,0.63,0.23,0.94c0,0.26-0.58,0.27-0.68,0.5
						c-0.1,0.23-0.13,0.49-0.31,0.68c-0.19,0.2-0.14,0.5-0.4,0.64c-0.3,0.16-0.77,0.22-1.13,0.29c-0.75,0.14-1.64,0.04-2.52-0.38
						c-0.88-0.42-1.01-0.8-1.2-1.39c-0.09-0.28-0.1-0.57-0.07-0.86c0.03-0.25,0.26-0.42,0.36-0.65c0.1-0.22-0.51-0.79-0.34-0.99
						c0.17-0.2,0.19-0.47,0.4-0.63c0.25-0.19,1.19-0.02,1.48-0.12C337.93,86.04,338.35,85.92,338.96,86.2z"/>
				</g>
			</g>
		</g>
	</g>
	<g>
		<g>
			<g>
				<g>
					<path class="st1" d="M745.71,163.49c0.47-1.23,4.17-0.94,9.18,1.28c1.2,0.54,2.49,1.15,3.81,1.89
						c0.66,0.37,1.34,0.75,2.04,1.14c0.68,0.42,1.37,0.85,2.07,1.29c2.43,1.53,4.55,3.79,6.97,5.71c1.14,0.95,2.32,1.89,3.46,2.87
						c1.12,1,2.26,1.98,3.3,3.05c1.09,1.1,2.22,2.13,3.26,3.21c1.07,1.06,2.08,2.12,2.97,3.24c2.1,2.55,3.73,5.16,5.11,7.37
						c2.82,4.58,4,7.94,3.22,8.46c-0.83,0.56-2.92-2.11-6.44-5.9c-1.73-1.83-3.69-4-5.89-6.24c-0.94-0.99-1.9-2-2.89-3.04
						c-0.97-1.05-2.02-2.08-3.08-3.1c-1.01-0.99-2.25-1.77-3.42-2.59c-1.2-0.79-2.42-1.56-3.48-2.49c-2.25-1.88-4.59-3.54-6.75-5.17
						c-0.62-0.47-1.21-0.97-1.77-1.49c-0.57-0.5-1.12-1-1.65-1.51c-1.05-1.02-2.08-1.94-3.11-2.67
						C748.4,165.84,745.44,164.15,745.71,163.49z"/>
				</g>
			</g>
		</g>
	</g>
	<g>
		<g>
			<g>
				<g>
					<path class="st1" d="M771.28,156.47c0.86-1.03,2.14-1.58,3.24-1.41c0.53,0.08,1.07,0.28,1.59,0.56
						c0.45,0.24,0.52,0.98,0.93,1.33c0.4,0.33,0.86,0.62,1.2,1.02c0.36,0.42,0.87,0.63,1.14,1.09c0.31,0.53,0.46,1.18,0.61,1.7
						c0.31,1.08,0.23,2.13-0.4,2.86c-0.63,0.74-1.28,0.55-2.27,0.26c-0.48-0.14-0.98-0.39-1.47-0.69c-0.43-0.26-0.75-0.71-1.16-1.06
						c-0.4-0.34-1.32-0.08-1.67-0.46c-0.37-0.4-0.84-0.67-1.14-1.09c-0.35-0.49-0.15-1.53-0.36-2
						C771.1,157.63,770.85,156.99,771.28,156.47z"/>
				</g>
			</g>
		</g>
	</g>
	<g>
		<g>
			<g>
				<g>
					<path class="st1" d="M862.51,356.65c1.08-0.75,4.94,3.79,9.2,11.8c1.01,1.93,2.1,4.04,3.13,6.32c0.52,1.14,1.06,2.31,1.61,3.52
						c0.51,1.22,1.04,2.46,1.57,3.73c1.83,4.39,3.01,9.34,4.63,14.23c0.75,2.36,1.5,4.74,2.25,7.12c0.69,2.4,1.42,4.79,2,7.2
						c0.61,2.5,1.3,4.95,1.87,7.39c0.29,1.22,0.58,2.42,0.86,3.61c0.26,1.19,0.48,2.38,0.69,3.54c0.98,5.41,1.48,10.48,1.89,14.81
						c0.81,8.92,0.53,14.77-0.4,14.87c-1,0.11-1.84-5.57-3.66-14.2c-0.9-4.19-1.9-9.07-3.15-14.31c-0.25-1.13-0.51-2.29-0.77-3.45
						c-0.27-1.16-0.55-2.35-0.82-3.54c-0.52-2.39-1.15-4.81-1.79-7.25c-0.6-2.35-1.52-4.64-2.36-6.94c-0.89-2.29-1.8-4.56-2.5-6.88
						c-1.52-4.79-3.24-9.42-4.8-13.79c-0.45-1.26-0.85-2.52-1.21-3.76c-0.39-1.23-0.75-2.44-1.09-3.63c-0.66-2.38-1.36-4.6-2.13-6.6
						C864.34,362.27,861.91,357.05,862.51,356.65z"/>
				</g>
			</g>
		</g>
	</g>
	<g>
		<g>
			<g>
				<g>
					<path class="st1" d="M997.5,990.25c0.45-1.27,1.76-2.1,3.28-2.26c0.73-0.08,1.54-0.05,2.4,0.02c0.73,0.07,1.39,0.74,2.18,0.88
						c0.76,0.13,1.55,0.17,2.3,0.35c0.79,0.18,1.58,0.09,2.31,0.31c0.84,0.26,1.63,0.68,2.32,0.99c1.42,0.63,2.42,1.42,2.47,2.39
						c0.05,0.96-0.94,1.31-2.51,1.72c-0.76,0.19-1.66,0.31-2.64,0.33c-0.84,0.03-1.72-0.19-2.62-0.3c-0.86-0.1-1.87,0.54-2.74,0.32
						c-0.89-0.23-1.8-0.32-2.6-0.65c-0.93-0.37-1.55-1.51-2.2-1.93C998.09,991.54,997.28,990.88,997.5,990.25z"/>
				</g>
			</g>
		</g>
	</g>
	<g>
		<g>
			<g>
				<g>
					<path class="st1" d="M159.1,919.04c0.11-1.38,4.96-1.74,12.23-1.65c1.75,0,3.65,0.08,5.66,0.06c1,0.01,2.04,0.02,3.09,0.04
						c1.06-0.01,2.14-0.02,3.24-0.03c3.79,0,7.84,0.44,11.97,0.27c1.98-0.11,3.98-0.26,5.98-0.42c2-0.19,3.99-0.38,5.97-0.56
						c2.05-0.22,4.09-0.46,6.07-0.79c1.98-0.3,3.93-0.6,5.81-0.89c4.38-0.57,8.45-1.11,11.94-1.66c7.16-1.17,11.92-1.89,12.22-0.94
						c0.29,0.89-4.16,2.7-11.22,4.92c-3.43,1.06-7.5,2.14-11.95,3.02c-0.96,0.19-1.94,0.39-2.93,0.55c-1,0.15-2.01,0.29-3.03,0.44
						c-2.04,0.31-4.14,0.51-6.25,0.78c-2.03,0.26-4.07,0.6-6.11,1c-2.05,0.35-4.1,0.65-6.16,0.74c-4.27,0.11-8.46,0.29-12.39,0.05
						c-1.14-0.07-2.25-0.18-3.34-0.32c-1.09-0.17-2.14-0.36-3.17-0.56c-2.05-0.37-3.96-0.84-5.74-1.1
						C163.71,920.87,159.06,919.68,159.1,919.04z"/>
				</g>
			</g>
		</g>
	</g>
	<g>
		<g>
			<g>
				<g>
					<path class="st1" d="M169.02,664.6c1.25-0.74,4.39,4.12,11.31,9.14c3.3,2.47,7.47,5.01,12.23,7.59
						c4.06,2.26,8.19,5.07,12.77,7.25c4.39,2.1,8.96,4.02,13.49,5.83c4.7,1.89,9.45,3.35,13.88,4.82c5.13,1.72,9.9,3.29,14.06,4.48
						c8.55,2.41,14.23,3.85,14.1,4.85c-0.11,0.92-5.99,0.61-14.94-0.83c-4.35-0.71-9.38-1.8-14.74-3.28
						c-4.63-1.27-9.43-3.06-14.29-4.91c-4.67-1.77-9.67-3.1-14.19-5.34c-4.69-2.31-9.26-4.65-13.35-7.2
						c-4.76-2.89-8.66-6.58-11.94-9.67c-1.69-1.59-3.13-3.16-4.29-4.63c-1.15-1.49-2.06-2.85-2.7-4.04
						C169.13,666.28,168.75,664.77,169.02,664.6z"/>
				</g>
			</g>
		</g>
	</g>
	<g>
		<g>
			<g>
				<g>
					<path class="st1" d="M192.09,771.68c-0.46-0.51,1.81-2.45,6.24-5.42c4.41-2.99,11.05-6.89,19.28-11.32
						c7.95-4.22,17.35-8.97,27.69-13.71c2.23-1.03,4.51-2.04,6.82-3.04c2.34-0.95,4.71-1.91,7.11-2.89c4.8-1.91,9.7-3.87,14.65-5.84
						c2.36-0.98,4.75-1.94,7.15-2.87c2.4-0.94,4.8-1.89,7.21-2.83c4.82-1.86,9.68-3.62,14.49-5.36c10.06-3.48,19.89-7.03,29.3-9.8
						c2.73-0.79,5.41-1.57,8.02-2.32c2.63-0.7,5.21-1.38,7.71-2.04c5-1.34,9.75-2.44,14.13-3.49c18.04-4.25,29.97-5.96,30.17-5.07
						c0.23,1-11.42,3.81-29.07,9.03c-4.28,1.29-8.93,2.63-13.83,4.18c-2.45,0.76-4.97,1.54-7.56,2.33c-2.57,0.83-5.2,1.68-7.88,2.55
						c-9.26,2.98-19.09,6.21-29.04,9.75c-4.76,1.77-9.51,3.7-14.22,5.71c-4.69,2.06-9.43,4.01-14.12,5.93
						c-4.89,1.97-9.74,3.93-14.43,5.98c-2.36,1.01-4.69,2-6.99,2.98c-2.29,1-4.55,2-6.78,2.97c-10.34,4.45-20.13,8.14-28.26,11.89
						C203.24,766.73,192.58,772.24,192.09,771.68z"/>
				</g>
			</g>
		</g>
	</g>
	<g>
		<g>
			<g>
				<g>
					<path class="st1" d="M438.77,604.47c1.41-0.11,2.5,2.95,4.92,6.52c1.15,1.74,2.72,3.61,4.69,5.32
						c0.85,0.74,1.68,1.52,2.61,2.31c0.94,0.78,1.97,1.54,3.12,2.12c2.23,1.12,4.69,1.95,7.16,2.83c2.56,0.91,5.27,1.47,7.72,2.35
						c2.83,1.01,5.4,2.16,7.6,3.1c4.54,1.94,7.37,3.62,7.11,4.55c-0.27,0.93-3.4,0.34-8.23-0.6c-2.34-0.45-5.05-1.08-7.96-1.82
						c-2.51-0.64-5.13-1.49-7.89-2.36c-2.63-0.84-5.65-1.1-8.28-2.5c-2.69-1.43-5.36-3.09-7.42-5.22c-2.38-2.47-3.45-5.58-4.36-7.98
						c-1-2.48-1.31-4.68-1.35-6.2c-0.02-0.76,0.04-1.36,0.15-1.77C438.47,604.71,438.6,604.49,438.77,604.47z"/>
				</g>
			</g>
		</g>
	</g>
	<g>
		<g>
			<g>
				<g>
					<path class="st1" d="M464.03,413.55c-1.33-0.37-1.12-4.46-0.04-10.42c0.5-2.87,1.17-6.2,1.76-9.8c0.56-3.1,1.62-6.32,2.1-9.72
						c0.24-1.63,0.38-3.29,0.57-4.94c0.15-1.66,0.31-3.31,0.46-4.95c0.31-3.42,0.29-6.78,0.45-9.94c0.11-1.83,0.22-3.6,0.33-5.27
						c0.13-1.68,0.19-3.26,0.25-4.73c0.21-6.03,0.43-10.05,1.42-10.19c0.93-0.13,1.84,3.78,2.68,9.91c0.19,1.49,0.4,3.11,0.5,4.83
						c0.06,0.86,0.12,1.75,0.18,2.66c0.03,0.91,0.05,1.84,0.08,2.79c0.09,3.28-0.19,6.76-0.42,10.3c-0.12,1.7-0.09,3.43-0.06,5.18
						c-0.02,1.73-0.01,3.48-0.29,5.18c-0.57,3.52-1.05,6.99-1.86,10.18c-0.9,3.71-2.68,6.88-3.68,9.7
						C466.37,410.09,464.65,413.71,464.03,413.55z"/>
				</g>
			</g>
		</g>
	</g>
	<g>
		<g>
			<g>
				<g>
					<path class="st1" d="M343.31,397.9c0.47-0.48,1.85,0.21,3.84,1.94c1.98,1.74,4.49,4.57,7.13,8.29
						c2.54,3.58,5.22,7.94,7.92,12.7c2.33,4.11,4.17,8.78,6.59,13.23c2.33,4.28,4.81,8.52,7.32,12.61c2.62,4.26,5.6,8.11,8.4,11.69
						c3.22,4.17,6.46,7.82,9.58,10.61c6.38,5.78,11.68,8.21,11.3,9.22c-0.09,0.23-0.49,0.27-1.2,0.16
						c-0.35-0.06-0.78-0.15-1.28-0.28c-0.5-0.12-1.06-0.3-1.67-0.55c-2.5-0.88-5.89-2.66-9.67-5.31c-3.67-2.57-7.55-6.1-11.2-10.33
						c-3.17-3.64-6.06-7.87-8.85-12.23c-2.68-4.19-5.85-8.21-8.15-12.57c-2.39-4.54-4.78-8.92-6.87-13.09
						c-2.42-4.82-4.05-9.59-6.1-13.34C346.23,402.97,342.8,398.41,343.31,397.9z"/>
				</g>
			</g>
		</g>
	</g>
	<g>
		<g>
			<g>
				<g>
					<path class="st1" d="M308.3,514.23c-1.21-0.57-0.22-4.88,2.71-10.87c1.42-2.88,3.25-6.17,5.46-9.61
						c1.9-2.98,4.56-5.71,7.01-8.67c2.36-2.85,4.87-5.71,7.68-8.21c2.89-2.6,5.83-5.1,8.96-6.95c3.62-2.14,7.29-3.55,10.5-4.42
						c3.3-0.91,6.13-1.19,8.09-1.06c1.96,0.11,3.05,0.52,3.08,0.98c0.08,1.05-4.05,1.32-9.71,3.92c-2.74,1.24-5.83,2.95-8.96,5.11
						c-2.7,1.87-5.57,3.93-8.2,6.4c-2.55,2.37-4.36,5.52-6.62,8.15c-2.36,2.74-4.4,5.68-6.41,8.39c-2.33,3.14-5.05,5.73-6.87,8.31
						C311.28,510.98,308.92,514.53,308.3,514.23z"/>
				</g>
			</g>
		</g>
	</g>
	<g>
		<g>
			<g>
				<g>
					<path class="st1" d="M554.13,497.57c-1.38-0.1-0.24-9.14,2.59-22.81c1.35-6.58,2.99-14.25,4.62-22.53
						c1.4-7.14,3.35-14.66,4.51-22.47c1.11-7.5,1.92-15.18,2.46-22.72c0.57-7.85,0.47-15.56,0.29-22.78
						c-0.17-8.37-0.77-16.11-1.71-22.7c-1.93-13.57-4.72-22.18-3.71-22.55c0.79-0.33,4.72,8.02,7.75,21.78
						c1.47,6.67,2.64,14.58,3.11,23.18c0.44,7.42,0.24,15.32-0.25,23.34c-0.46,7.71-0.58,15.63-1.78,23.27
						c-1.25,7.93-2.61,15.68-4.26,22.88c-1.92,8.33-4.66,15.77-6.5,22.26C557.46,489.01,554.8,497.62,554.13,497.57z"/>
				</g>
			</g>
		</g>
	</g>
	<g>
		<g>
			<g>
				<g>
					<path class="st1" d="M598.86,620.3c-0.68,0-0.87-2.34-0.59-6.49c0.14-2.08,0.38-4.61,0.85-7.49c0.22-1.45,0.47-2.99,0.75-4.62
						c0.27-1.63,0.59-3.34,0.99-5.12c1.45-6.86,3.38-14.85,5.95-23.33c0.55-1.83,1.13-3.69,1.77-5.55c0.68-1.85,1.37-3.72,2.07-5.61
						c1.37-3.79,2.96-7.58,4.39-11.48c0.67-1.88,1.41-3.74,2.16-5.6c0.74-1.87,1.48-3.74,2.22-5.61c1.54-3.72,3.14-7.41,4.77-11.05
						c3.51-7.51,6.85-14.94,10.57-21.63c1.08-1.93,2.15-3.82,3.19-5.68c1.1-1.81,2.18-3.59,3.23-5.31c2.07-3.46,4.2-6.61,6.12-9.55
						c7.99-12.02,14.14-19.12,14.88-18.61c0.85,0.59-4.34,8.3-11.35,20.72c-1.68,3.03-3.56,6.27-5.4,9.79
						c-0.94,1.75-1.91,3.55-2.9,5.39c-0.95,1.86-1.92,3.77-2.91,5.71c-3.44,6.7-7,13.87-10.38,21.32c-1.57,3.6-2.96,7.32-4.32,11.05
						c-1.27,3.76-2.65,7.47-4.02,11.15c-1.44,3.82-2.88,7.59-4.12,11.36c-0.64,1.87-1.28,3.73-1.91,5.56
						c-0.6,1.84-1.2,3.66-1.78,5.44c-0.67,2.07-1.43,4.07-2.11,6.05c-0.68,1.98-1.37,3.9-2.05,5.78c-1.4,3.73-2.52,7.32-3.52,10.64
						C601.53,611.2,599.61,620.31,598.86,620.3z"/>
				</g>
			</g>
		</g>
	</g>
	<g>
		<g>
			<g>
				<g>
					<path class="st1" d="M662.45,542.01c1.35-0.2,2.82,4.38,4.01,11.5c0.58,3.43,1.15,7.44,1.78,11.76
						c0.52,3.73,0.52,7.78,1.1,11.84c0.61,3.89,1.23,7.85,1.84,11.74c0.62,4.05,1.51,7.97,2.09,11.7c0.65,4.33,1.15,8.36,1.63,11.82
						c1.01,7.1,1.41,11.81,0.46,12.06c-0.92,0.24-2.42-4.2-4.46-11.13c-0.98-3.37-2.01-7.33-2.96-11.65
						c-0.84-3.73-1.44-7.75-2.15-11.83c-0.67-3.92-2.09-7.81-2.59-11.78c-0.51-4.12-1.14-8.14-1.43-11.96
						c-0.37-4.42,0.18-8.58,0.09-12.08C661.69,546.81,661.79,542.11,662.45,542.01z"/>
				</g>
			</g>
		</g>
	</g>
	<g>
		<g>
			<g>
				<g>
					<path class="st1" d="M688.26,506.2c-1.3-0.13,0.04-9.36,5.07-22.81c2.45-6.45,5.7-13.87,9.79-21.59
						c3.52-6.67,8.14-13.27,12.75-20c4.43-6.48,9.26-12.9,14.41-18.82c5.35-6.15,10.59-12.07,15.52-17.55
						c5.74-6.32,10.82-12.29,14.65-17.81c3.95-5.66,6.63-10.71,8.35-14.32c0.95-1.78,1.52-3.24,2.08-4.2
						c0.53-0.96,0.92-1.45,1.16-1.39c0.23,0.06,0.26,0.67,0.1,1.76c-0.18,1.08-0.43,2.7-1.09,4.65c-1.16,3.96-3.45,9.49-7.11,15.67
						c-3.54,6.01-8.38,12.53-13.98,19.15c-4.81,5.73-10.28,11.45-15.45,17.53c-4.98,5.85-9.09,12.5-13.46,18.75
						c-4.55,6.51-8.52,13.22-12.15,19.58c-4.21,7.35-8.39,14.08-11.25,20.23C691.85,497.64,689,506.31,688.26,506.2z"/>
				</g>
			</g>
		</g>
	</g>
	<g>
		<g>
			<g>
				<g>
					<path class="st1" d="M579.01,586.91c1.35-0.18,2.76,4.4,3.82,11.51c0.52,3.43,1.01,7.43,1.54,11.76
						c0.44,3.73,0.34,7.76,0.81,11.82c0.5,3.89,1.01,7.85,1.51,11.75c0.49,4.05,1.26,7.98,1.71,11.72
						c0.51,4.33,0.85,8.37,1.19,11.83c0.73,7.11,0.92,11.82-0.04,12.03c-0.93,0.2-2.23-4.28-4-11.25
						c-0.85-3.39-1.72-7.37-2.52-11.69c-0.71-3.73-1.18-7.75-1.76-11.83c-0.55-3.92-1.85-7.83-2.25-11.78
						c-0.4-4.11-0.93-8.12-1.14-11.92c-0.27-4.4,0.35-8.53,0.33-12.02C578.19,591.67,578.35,587,579.01,586.91z"/>
				</g>
			</g>
		</g>
	</g>
	<g>
		<g>
			<g>
				<g>
					<path class="st1" d="M781.08,587.91c1.31-0.16,2.05,9,0.59,23.07c-0.71,6.77-1.87,14.64-3.56,23.08
						c-1.46,7.28-3.87,14.82-6.08,22.55c-2.12,7.43-4.47,14.96-7.18,22.21c-2.79,7.51-5.64,15-9.23,21.6
						c-2.04,3.84-4.34,7.38-6.65,10.62c-2.36,3.22-4.82,6.09-7.27,8.57c-5.04,5.13-10.32,8.18-14.15,9.58
						c-0.97,0.33-1.84,0.62-2.59,0.84c-0.78,0.15-1.45,0.26-1.99,0.32c-1.08,0.12-1.67,0.08-1.74-0.16
						c-0.06-0.23,0.41-0.6,1.33-1.09c0.46-0.24,1.03-0.52,1.71-0.82c0.65-0.36,1.4-0.78,2.23-1.24c3.31-1.88,7.82-5.08,12.16-10.2
						c2.11-2.48,4.22-5.31,6.26-8.48c2-3.19,4.01-6.64,5.85-10.38c3.22-6.43,6.24-13.5,8.92-20.95c2.58-7.16,4.21-14.76,6.36-22.03
						c2.24-7.56,4.01-15.1,5.67-22.18c1.92-8.19,4.17-15.72,5.36-22.33C779.5,596.95,780.35,587.97,781.08,587.91z"/>
				</g>
			</g>
		</g>
	</g>
	<g>
		<g>
			<g>
				<g>
					<path class="st1" d="M795.46,658.84c-0.96-0.9,2.07-5.23,8.02-10.57c2.88-2.56,6.36-5.41,10.3-8.26
						c0.85-0.62,1.73-1.21,2.64-1.8c0.92-0.57,1.87-1.12,2.82-1.68c1.9-1.13,3.88-2.2,5.81-3.41c3.71-2.31,7.54-4.59,11.41-6.63
						c4.05-2.07,7.94-4.26,11.81-5.89c1.12-0.46,2.23-0.91,3.31-1.35c1.09-0.41,2.16-0.79,3.21-1.16c2.08-0.76,4.07-1.37,5.91-1.96
						c7.56-2.38,12.68-3.12,12.97-2.24c0.32,0.95-4.4,2.76-11.43,6.04c-1.7,0.81-3.56,1.64-5.5,2.59c-0.97,0.46-1.98,0.94-3,1.43
						c-1.02,0.5-2.06,1.02-3.12,1.55c-3.67,1.8-7.59,3.68-11.5,5.77c-1.86,1.05-3.65,2.25-5.42,3.5c-1.75,1.27-3.53,2.48-5.34,3.59
						c-1.9,1.14-3.76,2.3-5.54,3.49c-1.8,1.18-3.56,2.33-5.26,3.45c-3.98,2.55-8.03,4.43-11.16,6.55
						C799.99,656.24,795.97,659.34,795.46,658.84z"/>
				</g>
			</g>
		</g>
	</g>
	<g>
		<g>
			<g>
				<g>
					<path class="st1" d="M407.6,880.71c-0.62-0.27-0.08-2.23,1.44-5.47c1.47-3.27,4.15-7.67,7.72-12.82
						c0.9-1.21,1.83-2.47,2.8-3.78c0.98-1.3,1.97-2.67,3.1-3.98c2.24-2.65,4.51-5.54,7.16-8.29c1.12-1.21,2.28-2.41,3.48-3.61
						c1.19-1.2,2.51-2.31,3.79-3.48c1.29-1.16,2.59-2.33,3.91-3.5c1.35-1.13,2.71-2.28,4.05-3.46c5.13-4.55,10.63-8.89,16.24-12.85
						c1.45-1.04,2.96-1.98,4.42-2.98c1.47-0.97,2.9-1.99,4.37-2.9c1.48-0.9,2.95-1.79,4.4-2.67c1.45-0.88,2.89-1.73,4.37-2.45
						c1.7-0.86,3.37-1.7,5.01-2.52c1.63-0.83,3.3-1.47,4.89-2.18c1.6-0.67,3.14-1.36,4.65-1.95c1.53-0.56,3-1.1,4.42-1.62
						c2.89-1.12,5.62-1.9,8.02-2.59c1.2-0.33,2.32-0.65,3.36-0.93c1.05-0.23,2.02-0.42,2.9-0.59c3.51-0.66,5.53-0.81,5.66-0.34
						c0.29,1.03-7.33,3.2-18.33,8.24c-1.33,0.62-2.72,1.26-4.16,1.92c-1.43,0.68-2.87,1.47-4.38,2.22c-1.49,0.79-3.07,1.5-4.6,2.4
						c-1.55,0.87-3.13,1.76-4.74,2.67c-1.41,0.75-2.79,1.6-4.19,2.46c-1.41,0.85-2.84,1.7-4.28,2.57c-1.44,0.87-2.83,1.85-4.27,2.78
						c-1.42,0.96-2.89,1.87-4.29,2.89c-5.41,3.92-10.3,8.68-15.32,13.04c-1.3,1.14-2.6,2.27-3.89,3.39
						c-1.26,1.16-2.46,2.35-3.68,3.51c-1.2,1.17-2.44,2.29-3.58,3.46c-1.15,1.17-2.28,2.33-3.4,3.47
						c-5.21,5.23-10.29,9.91-14.14,14.4c-1.01,1.12-1.89,2.27-2.76,3.34c-0.86,1.07-1.68,2.09-2.45,3.04c-1.57,1.88-2.82,3.61-3.9,5
						C409.25,879.32,407.91,880.85,407.6,880.71z"/>
				</g>
			</g>
		</g>
	</g>
</g>
</svg>
