<?xml version="1.0" encoding="utf-8"?>
<!-- Generator: Adobe Illustrator 28.0.0, SVG Export Plug-In . SVG Version: 6.00 Build 0)  -->
<svg version="1.1" id="Capa_1" xmlns="http://www.w3.org/2000/svg" xmlns:xlink="http://www.w3.org/1999/xlink" x="0px" y="0px"
	 viewBox="0 0 892 1135" style="enable-background:new 0 0 892 1135;" xml:space="preserve">
<style type="text/css">
	.st0{opacity:0.08;}
	.st1{fill:#63301B;}
</style>
<g class="st0">
	<g>
		<g>
			<g>
				<g>
					<path class="st1" d="M875.66,31.93c0.27,0.11-0.59,0.47-2.45,1.04c-1.82,0.71-4.64,1.75-8.07,3.75
						c-3.43,1.98-7.46,4.88-11.83,8.8c-4.37,3.92-9.08,8.83-14.01,14.7c-9.82,11.78-20.53,27.29-31.7,45.95
						c-11.19,18.65-22.96,40.39-35.14,64.63c-23.48,46.68-48.5,102.48-74.24,163.32c-22.2,52.48-45.49,108.54-68.19,166.11
						c-10.92,27.67-21.79,55.66-32.58,83.68c-5.43,14.02-10.98,28.05-17.07,41.79c-2.94,6.92-6.17,13.7-9.28,20.52
						c-1.63,3.38-3.26,6.75-4.89,10.12l-2.45,5.05c-0.82,1.68-1.7,3.33-2.54,4.99c-1.77,3.45-3.54,6.91-5.31,10.35
						c-1.84,3.41-3.69,6.81-5.53,10.21l-2.76,5.09c-0.94,1.69-1.92,3.35-2.87,5.02c-1.92,3.34-3.84,6.67-5.75,10
						c-7.93,13.15-15.98,26.1-24.69,38.44c-8.52,12.47-17.7,24.28-26.97,35.77c-2.34,2.85-4.78,5.61-7.16,8.4
						c-1.19,1.39-2.39,2.78-3.58,4.16c-1.19,1.39-2.37,2.77-3.63,4.09c-2.48,2.67-4.94,5.33-7.4,7.98
						c-1.23,1.32-2.46,2.65-3.68,3.96c-1.27,1.27-2.55,2.54-3.81,3.81c-23.41,23.57-48.28,44.01-73.83,60.24
						c-25.47,16.36-51.25,28.93-75.83,38.28c-6.35,2.34-12.49,4.82-18.71,6.62c-3.08,0.97-6.13,1.93-9.13,2.88
						c-1.5,0.47-3,0.94-4.48,1.41c-1.48,0.48-2.99,0.8-4.48,1.21c-5.94,1.53-11.73,3.03-17.35,4.48c-5.67,1.21-11.2,2.3-16.53,3.39
						c-1.33,0.27-2.66,0.54-3.97,0.81c-1.31,0.27-2.61,0.54-3.92,0.71c-2.6,0.39-5.16,0.77-7.67,1.15
						c-5.02,0.74-9.86,1.5-14.51,2.14c-4.67,0.45-9.15,0.89-13.42,1.3c-2.14,0.21-4.22,0.41-6.26,0.6
						c-2.03,0.19-4.02,0.41-5.96,0.46c-7.75,0.34-14.65,0.64-20.65,0.9c-0.75,0.03-1.49,0.06-2.21,0.08
						c-0.72-0.01-1.43-0.01-2.12-0.02c-1.39-0.01-2.72-0.03-3.99-0.04c-2.54-0.03-4.85-0.06-6.91-0.09
						c-4.13-0.07-7.28-0.15-9.41-0.24s-3.22-0.2-3.21-0.32c0-0.12,1.1-0.24,3.22-0.37c2.12-0.13,5.27-0.25,9.38-0.38
						c2.06-0.06,4.35-0.13,6.88-0.2c1.27-0.03,2.59-0.07,3.97-0.1c0.69-0.02,1.4-0.03,2.11-0.05c0.72-0.05,1.45-0.1,2.2-0.15
						c5.96-0.41,12.83-0.88,20.53-1.41c1.93-0.09,3.89-0.35,5.91-0.58c2.02-0.23,4.09-0.47,6.21-0.72
						c4.24-0.49,8.68-0.99,13.32-1.52c4.61-0.7,9.4-1.53,14.37-2.34c2.49-0.41,5.02-0.82,7.6-1.25c1.29-0.19,2.58-0.47,3.88-0.76
						c1.3-0.28,2.61-0.57,3.93-0.85c5.28-1.16,10.74-2.3,16.35-3.56c5.55-1.5,11.27-3.05,17.14-4.64c1.46-0.41,2.96-0.76,4.42-1.24
						c1.46-0.48,2.94-0.96,4.42-1.44c2.97-0.97,5.97-1.95,9.01-2.94c6.13-1.84,12.19-4.36,18.45-6.73
						c24.22-9.48,49.56-22.11,74.58-38.44c25.1-16.21,49.53-36.5,72.54-59.86c1.25-1.25,2.5-2.51,3.76-3.77
						c1.21-1.31,2.41-2.61,3.62-3.92c2.42-2.62,4.85-5.26,7.29-7.9l1.83-1.99l1.76-2.05c1.17-1.37,2.35-2.74,3.53-4.12
						c2.35-2.76,4.74-5.49,7.07-8.29c9.15-11.35,18.25-23.01,26.7-35.32c8.65-12.18,16.62-24.99,24.51-37.99
						c1.9-3.29,3.8-6.59,5.7-9.9l2.86-4.96l2.74-5.04c1.83-3.36,3.65-6.73,5.48-10.11c1.75-3.42,3.5-6.84,5.26-10.27l2.53-4.95
						l2.42-5.01c1.61-3.34,3.22-6.69,4.83-10.04c1.54-3.39,3.08-6.77,4.62-10.16l2.3-5.09l2.21-5.14
						c5.99-13.67,11.4-27.59,16.74-41.59c10.62-28.06,21.33-56.09,32.27-83.74c22.74-57.49,45.44-113.76,67.85-166.18
						c25.96-60.69,51.95-115.99,75.9-162.6c12.27-23.88,24.15-45.36,35.55-63.86c11.39-18.49,22.3-34.01,32.51-45.85
						c5.1-5.92,9.98-10.94,14.6-14.93c4.61-4,8.92-7,12.66-9.05c3.75-2.03,6.86-3.22,9.07-3.73c1.08-0.33,1.96-0.41,2.56-0.52
						C875.26,31.93,875.59,31.9,875.66,31.93z"/>
				</g>
			</g>
		</g>
	</g>
	<g>
		<g>
			<g>
				<g>
					<path class="st1" d="M108.64,916.14c-1.2,0.71,4.27-16.15,7.92-47.67c1.76-15.75,2.71-35.15,2.47-57.57
						c-0.11-11.22-0.51-23.19-0.97-35.87c-0.46-12.68-1.03-26.06-1.32-40.1c-0.28-13.52-0.32-27.63,0.22-42.26
						c0.53-14.63,1.66-29.77,3.77-45.25c4.17-30.95,11.94-63.32,24.19-95.36c2.5-6.97,5.47-13.81,8.36-20.74l1.1-2.6l1.18-2.57
						c0.79-1.71,1.57-3.43,2.36-5.14c0.79-1.72,1.58-3.44,2.38-5.16c0.79-1.73,1.58-3.45,2.46-5.15c1.71-3.41,3.43-6.82,5.15-10.25
						c1.83-3.37,3.67-6.75,5.51-10.14l1.39-2.54l1.46-2.5c0.98-1.67,1.96-3.34,2.93-5.01c0.98-1.67,1.97-3.34,2.95-5.02
						c1.03-1.65,2.06-3.3,3.1-4.95c4.07-6.65,8.47-13.13,12.86-19.65c2.27-3.21,4.54-6.43,6.82-9.65c2.28-3.22,4.7-6.35,7.05-9.53
						c9.55-12.63,19.59-25.04,30.14-37.09c40.55-46.42,87.77-88.13,136.87-125.12c51.09-38.46,104.1-72.22,155.47-101.01
						c59.53-33.33,116.74-60.19,166.66-80.91C752.5,66,796.08,51.41,826.94,43.05c15.41-4.24,27.66-6.87,36.02-8.41
						c2.1-0.36,3.95-0.67,5.54-0.95c1.6-0.25,2.95-0.42,4.04-0.56c2.18-0.27,3.3-0.35,3.32-0.23c0.02,0.12-1.07,0.43-3.2,0.91
						c-1.07,0.23-2.39,0.52-3.97,0.87c-1.57,0.36-3.4,0.77-5.46,1.24c-8.25,1.92-20.35,4.88-35.62,9.42
						c-30.55,8.95-73.81,24-124.8,45.73c-49.53,21.1-106.27,48.31-165.38,81.73c-51,28.85-103.88,62.15-154.65,100.44
						c-48.78,36.81-95.21,78.72-135.44,124.56c-20.84,23.87-39.96,48.88-56.11,75.02c-8.1,13.05-15.59,26.29-22.11,39.8
						c-1.73,3.33-3.21,6.77-4.78,10.15c-1.54,3.4-3.16,6.75-4.61,10.15c-2.82,6.84-5.84,13.56-8.32,20.41
						c-0.75,1.97-1.5,3.94-2.25,5.9l-1.12,2.94l-1.02,2.97c-1.36,3.95-2.71,7.89-4.05,11.8c-1.21,3.95-2.42,7.89-3.62,11.8
						c-0.63,1.95-1.15,3.92-1.68,5.88c-0.53,1.96-1.06,3.92-1.59,5.88c-4.13,15.65-7.3,31.16-9.59,46.37
						c-4.55,30.46-5.43,59.64-5.16,86.54c0.33,27.58,1.51,52.82,1.43,75.21c0.04,22.38-1.23,41.87-3.28,57.8
						c-2.04,15.93-4.84,28.27-6.94,36.67C110.28,911.46,108.84,915.95,108.64,916.14z"/>
				</g>
			</g>
		</g>
	</g>
	<g>
		<g>
			<g>
				<g>
					<path class="st1" d="M648.61,185.96c8.51-8.26,15.98-15.57,21.26-20.85c5.29-5.29,8.4-8.56,8.22-8.75c0,0-0.05,0.03-0.13,0.1
						c-0.08,0.08-0.21,0.19-0.37,0.34c-0.32,0.3-0.8,0.75-1.43,1.34c-1.25,1.19-3.09,2.94-5.45,5.19c-4.7,4.51-11.47,11.02-19.77,19
						c-4.2,3.94-8.55,8.48-13.27,13.26c-4.71,4.79-9.72,9.9-14.98,15.24c-2.63,2.67-5.31,5.41-8.05,8.19
						c-1.37,1.39-2.75,2.8-4.14,4.22c-1.36,1.45-2.73,2.92-4.1,4.39c-5.51,5.9-11.2,11.99-16.98,18.18
						c-2.89,3.1-5.81,6.22-8.74,9.36c-1.47,1.57-2.94,3.15-4.41,4.73c-1.47,1.58-2.89,3.22-4.34,4.83
						c-5.78,6.48-11.59,12.99-17.37,19.48c-2.89,3.24-5.78,6.48-8.65,9.7c-1.44,1.61-2.87,3.22-4.3,4.82
						c-1.39,1.63-2.78,3.25-4.17,4.87c-5.53,6.48-10.98,12.85-16.28,19.05c-2.65,3.1-5.26,6.15-7.83,9.16
						c-2.56,3.01-5.12,5.93-7.51,8.89c-4.83,5.87-9.45,11.49-13.8,16.79c-8.69,10.61-16.45,19.82-22.36,27.4
						c-55.4,68.97-102.27,133-142.81,191.41c-40.46,58.47-74.59,111.34-103.81,158.69c-26.47,42.92-48.95,81.31-68.49,115.36
						c-19.55,34.04-35.89,63.88-49.92,89.8c-27.93,51.92-46.29,88.35-58.68,113.66c-12.38,25.32-18.8,39.52-22.11,47.4
						c-3.3,7.88-3.46,9.44-2.88,9.71c0.17,0.08,1.49-2.36,3.87-7.06c2.36-4.71,5.83-11.64,10.3-20.57
						c8.93-17.85,21.9-43.62,38.35-75.14c32.87-63.05,79.86-149.06,135.34-240.99c32.47-53.79,67.78-109.85,104.62-164.9
						c36.82-55.06,75.21-109.09,113.32-159.1c4.08-5.34,8.14-10.64,12.17-15.92c2.02-2.64,4.02-5.26,6.03-7.88
						c2.04-2.59,4.08-5.16,6.11-7.73c8.13-10.25,16.14-20.35,24.01-30.28c1.95-2.5,3.97-4.91,5.96-7.34c2-2.42,3.98-4.83,5.96-7.23
						c3.95-4.8,7.87-9.55,11.74-14.25c3.88-4.7,7.71-9.34,11.51-13.94c3.88-4.52,7.71-8.99,11.5-13.4
						c7.58-8.82,14.97-17.42,22.16-25.77c7.35-8.2,14.49-16.17,21.39-23.87c3.45-3.85,6.84-7.63,10.17-11.35
						c1.65-1.87,3.35-3.66,5.02-5.45c1.67-1.78,3.33-3.55,4.97-5.3c6.57-7,12.87-13.71,18.88-20.12c3.01-3.2,5.92-6.35,8.82-9.36
						c2.93-2.98,5.79-5.88,8.57-8.69c5.55-5.64,10.79-10.96,15.69-15.93c2.45-2.49,4.81-4.89,7.09-7.2c1.14-1.16,2.25-2.29,3.35-3.4
						c1.1-1.1,2.22-2.15,3.29-3.19c4.3-4.15,8.23-7.94,11.76-11.35c7.05-6.84,12.53-12.15,16.24-15.74c1.84-1.81,3.25-3.2,4.19-4.12
						c0.47-0.47,0.82-0.83,1.05-1.07c0.23-0.24,0.35-0.37,0.34-0.38C683.9,152.02,667.38,168.07,648.61,185.96z"/>
				</g>
			</g>
		</g>
	</g>
	<g>
		<g>
			<g>
				<g>
					<path class="st1" d="M376.03,270.99c1.62-0.02-4.42,19.01-8.53,49.51c-2.1,14.66-3.73,31.93-5.35,50.66
						c-1.41,16.16-3.38,33.38-5.71,50.93c-2.19,16.87-5.01,33.99-8.58,50.63c-3.7,17.3-7.81,34.19-12.54,49.8
						c-5.48,18.08-11.56,34.48-17.14,48.36c-5.72,14.29-11.17,25.76-15.09,33.68c-4.05,7.86-6.57,12.18-7,11.98
						c-0.44-0.21,1.38-4.85,4.81-12.95c3.3-8.15,8.23-19.77,13.42-34.14c5.07-13.95,10.59-30.37,15.74-48.36
						c4.45-15.52,8.8-32.16,12.39-49.32c3.46-16.51,5.55-33.57,7.79-50.25c2.38-17.34,3.73-34.52,5.38-50.67
						c1.89-18.7,4.62-35.96,7.23-50.69c2.6-15.12,5.67-27.46,8.28-35.95c0.66-2.12,1.21-4.03,1.79-5.65
						c0.58-1.63,1.09-3.01,1.52-4.13C375.31,272.19,375.85,271,376.03,270.99z"/>
				</g>
			</g>
		</g>
	</g>
	<g>
		<g>
			<g>
				<g>
					<path class="st1" d="M398.56,258.2c0.35,0.04,0.22,1.12-0.34,3.08c-0.27,0.98-0.67,2.18-1.14,3.59
						c-0.4,1.44-0.88,3.1-1.45,4.94c-0.31,0.91-0.54,1.91-0.81,2.95c-0.27,1.04-0.55,2.12-0.85,3.26c-0.33,1.12-0.55,2.33-0.82,3.57
						c-0.27,1.24-0.55,2.52-0.85,3.85c-0.98,5.36-2.03,11.44-2.72,18.21c-0.69,6.51-1.23,13.6-1.6,21.16
						c-0.37,7.57-0.62,15.59-0.95,23.97c-0.29,7.22-0.78,14.7-1.57,22.33c-0.79,7.62-1.81,15.36-2.87,23.16
						c-2.03,15-4.63,30.16-7.39,44.98c-2.88,15.37-5.36,30.65-9.42,44.71c-2.34,8.13-5.21,15.84-8.37,22.86
						c-3.15,7.03-6.48,13.44-9.6,19.31c-12.95,24.04-21.8,39.39-22.65,38.96c-0.88-0.44,6.98-16.34,18.97-40.78
						c2.87-5.94,5.92-12.38,8.79-19.33c2.88-6.95,5.46-14.41,7.6-22.38c3.73-13.74,6.48-28.77,9.27-44.17
						c2.67-14.79,4.55-29.98,6.63-44.78c1.08-7.7,1.96-15.34,2.62-22.84c0.67-7.49,1.05-14.88,1.47-22.06
						c0.47-8.31,1.07-16.35,1.81-23.95c0.75-7.61,1.69-14.78,2.63-21.38c0.97-6.77,2.26-12.91,3.59-18.29
						c0.73-2.67,1.44-5.17,2.15-7.45c0.8-2.26,1.48-4.35,2.2-6.2c0.78-1.83,1.47-3.46,2.07-4.88c0.62-1.41,1.29-2.56,1.78-3.51
						C397.76,259.17,398.38,258.18,398.56,258.2z"/>
				</g>
			</g>
		</g>
	</g>
	<g>
		<g>
			<g>
				<g>
					<path class="st1" d="M445.9,418.5c-0.56-0.42,1.75-2.95,6.34-7.05c2.29-2.05,5.14-4.51,8.56-7.17
						c1.71-1.33,3.54-2.75,5.47-4.25c0.97-0.74,1.97-1.51,3-2.29c1.05-0.75,2.12-1.52,3.21-2.31c4.25-3,8.8-6.35,13.81-9.61
						c2.49-1.65,5.06-3.35,7.69-5.1c2.64-1.72,5.39-3.4,8.18-5.15c2.41-1.49,4.85-3.02,7.4-4.45c2.55-1.42,5.13-2.86,7.74-4.31
						c5.2-2.95,10.66-5.66,16.03-8.65c5.19-2.83,10.52-5.52,15.8-8.31c5.36-2.63,10.69-5.31,16.06-7.79
						c2.79-1.28,5.58-2.56,8.34-3.82c1.38-0.64,2.75-1.27,4.12-1.9c1.38-0.6,2.76-1.2,4.12-1.8c2.74-1.19,5.45-2.37,8.13-3.53
						c2.67-1.17,5.37-2.18,8-3.23c3.06-1.18,6.06-2.37,9.01-3.45c2.97-1.05,5.87-2.07,8.69-3.06c5.62-2.03,11.02-3.66,15.96-5.27
						c1.27-0.41,2.52-0.81,3.73-1.2c1.23-0.36,2.42-0.71,3.59-1.05c2.33-0.67,4.54-1.3,6.62-1.89c2.08-0.58,4.01-1.14,5.81-1.59
						c1.81-0.43,3.47-0.83,4.96-1.19c5.99-1.39,9.43-1.95,9.57-1.49c0.13,0.47-3.09,1.77-8.87,3.77c-1.45,0.49-3.05,1.04-4.8,1.63
						c-1.75,0.59-3.63,1.29-5.65,2c-2.02,0.71-4.17,1.47-6.45,2.27c-1.14,0.4-2.3,0.81-3.5,1.24c-1.19,0.45-2.4,0.91-3.65,1.37
						c-4.82,1.84-10.09,3.7-15.58,5.93c-2.76,1.08-5.59,2.2-8.5,3.33c-2.88,1.19-5.83,2.41-8.83,3.66
						c-2.58,1.09-5.25,2.12-7.89,3.29c-2.65,1.14-5.34,2.3-8.05,3.47c-1.36,0.58-2.72,1.17-4.09,1.76
						c-1.36,0.62-2.72,1.24-4.09,1.86c-2.73,1.26-5.49,2.52-8.26,3.79c-5.3,2.49-10.5,5.33-15.72,8.09
						c-5.15,2.91-10.34,5.73-15.5,8.49c-2.67,1.46-5.33,2.91-7.97,4.34c-1.32,0.73-2.63,1.45-3.93,2.17
						c-1.29,0.75-2.58,1.49-3.85,2.23c-2.56,1.48-5.09,2.94-7.59,4.38c-2.51,1.43-4.92,2.95-7.34,4.36
						c-5.62,3.27-11.02,6.42-16.14,9.4c-5.17,2.92-9.9,5.89-14.26,8.67c-1.11,0.72-2.2,1.42-3.26,2.1c-1.05,0.71-2.07,1.4-3.07,2.07
						c-1.99,1.35-3.88,2.62-5.65,3.82c-1.77,1.2-3.43,2.31-4.97,3.35c-1.52,1.06-2.91,2.02-4.17,2.9
						C449.15,416.82,446.18,418.71,445.9,418.5z"/>
				</g>
			</g>
		</g>
	</g>
	<g>
		<g>
			<g>
				<g>
					<path class="st1" d="M718.5,112.02c1.12,0.86-2.78,6.36-8.93,14.53c-1.46,1.99-3.11,4.08-4.73,6.4
						c-0.83,1.14-1.69,2.32-2.56,3.52c-0.84,1.22-1.71,2.48-2.59,3.75c-3.06,4.38-6.61,8.87-9.68,13.82
						c-1.44,2.4-2.84,4.85-4.23,7.3c-1.32,2.5-2.73,4.94-4.01,7.43c-1.33,2.59-2.65,5.15-3.79,7.74c-0.59,1.28-1.18,2.55-1.76,3.8
						c-0.57,1.26-1.12,2.5-1.67,3.73c-0.64,1.42-1.33,2.78-1.93,4.15c-0.61,1.36-1.21,2.69-1.79,3.99
						c-1.21,2.57-2.18,5.07-3.17,7.35c-3.84,9.44-6.23,15.7-7.22,15.45c-0.88-0.23,0.41-6.82,3.33-16.76
						c0.76-2.4,1.5-5.03,2.51-7.73c0.49-1.36,1-2.76,1.52-4.19c0.52-1.43,1.14-2.86,1.72-4.34c0.52-1.27,1.04-2.56,1.62-3.85
						c0.6-1.28,1.2-2.57,1.82-3.88c1.19-2.63,2.59-5.23,3.91-7.89c1.27-2.56,2.54-5.16,3.73-7.81c1.27-2.6,2.58-5.2,4.07-7.65
						c3.2-5.04,6.32-10,9.67-14.38c0.96-1.27,1.95-2.48,2.93-3.65c1.02-1.14,2.05-2.23,3.04-3.29c1.96-2.14,3.96-4.03,5.64-5.89
						C712.94,116.09,718,111.65,718.5,112.02z"/>
				</g>
			</g>
		</g>
	</g>
	<g>
		<g>
			<g>
				<g>
					<path class="st1" d="M733.2,107.17c1.08,0.84,0.24,3.66-1.67,7.31c-0.94,1.75-2.03,3.77-3.21,5.96
						c-1.02,1.87-2.56,3.62-3.62,5.7c-0.49,1.01-0.96,2.04-1.43,3.06c-0.43,1.04-0.92,2.07-1.37,3.09c-0.96,2.13-1.6,4.33-2.41,6.32
						c-0.98,2.3-1.96,4.43-2.73,6.29c-1.57,3.84-2.81,6.38-3.78,6.22c-0.93-0.15-0.81-2.93-0.21-7.2c0.31-2.07,0.81-4.46,1.55-6.99
						c0.61-2.2,1.59-4.42,2.52-6.71c0.43-1.1,0.76-2.27,1.06-3.45c0.33-1.17,0.69-2.34,1.25-3.4c1.19-2.18,2.27-4.38,3.58-6.28
						c0.38-0.55,0.79-1.06,1.21-1.54c0.44-0.47,0.9-0.92,1.34-1.34c0.88-0.86,1.78-1.61,2.46-2.4
						C730.6,108.62,732.68,106.77,733.2,107.17z"/>
				</g>
			</g>
		</g>
	</g>
	<g>
		<g>
			<g>
				<g>
					<path class="st1" d="M747.43,103.5c0.96,0.95,1.45,2.2,1.38,3.17c-0.04,0.47-0.17,0.92-0.35,1.37
						c-0.16,0.38-0.83,0.42-1.08,0.79c-0.24,0.36-0.4,0.76-0.69,1.09c-0.3,0.34-0.37,0.8-0.71,1.08c-0.4,0.33-0.95,0.56-1.39,0.79
						c-0.9,0.47-1.89,0.69-2.79,0.34c-0.9-0.35-0.96-1.01-0.95-2.05c0.01-0.5,0.12-1.06,0.32-1.62c0.17-0.49,0.55-0.9,0.83-1.37
						c0.27-0.45-0.1-1.34,0.27-1.77c0.38-0.43,0.63-0.94,1.05-1.28c0.49-0.4,1.55-0.22,2.01-0.42
						C746.3,103.21,746.95,103.03,747.43,103.5z"/>
				</g>
			</g>
		</g>
	</g>
	<g>
		<g>
			<g>
				<g>
					<path class="st1" d="M512.9,329.62c-1.39-0.08-0.64-8.63,1.23-21.66c0.45-3.14,0.94-6.54,1.46-10.14
						c0.26-1.8,0.53-3.65,0.8-5.55c0.26-1.9,0.52-3.84,0.78-5.82c0.95-6.82,2.41-14.04,3.28-21.48c0.41-3.58,0.74-7.19,1.11-10.81
						c0.32-3.62,0.65-7.24,0.97-10.82c0.65-7.46,0.96-14.8,1.4-21.68c0.57-7.97,1.1-15.37,1.46-21.71
						c0.71-13.05,1.25-21.58,2.25-21.6c0.93-0.03,1.53,8.49,1.86,21.63c0.14,6.38,0.15,13.83-0.13,21.88
						c-0.2,6.95-0.8,14.33-1.37,21.85c-0.27,3.62-0.43,7.28-0.56,10.94c-0.19,3.66-0.37,7.33-0.81,10.93
						c-0.95,7.49-1.8,14.85-2.99,21.72c-0.34,1.99-0.72,3.93-1.13,5.82c-0.43,1.89-0.88,3.72-1.32,5.51
						c-0.86,3.57-1.8,6.91-2.48,10.03C515.83,321.42,513.55,329.65,512.9,329.62z"/>
				</g>
			</g>
		</g>
	</g>
	<g>
		<g>
			<g>
				<g>
					<path class="st1" d="M231.43,724.3c-0.35-0.07,0.16-1.33,1.64-3.52c1.48-2.18,3.96-5.3,7.61-8.87
						c3.64-3.59,8.46-7.59,14.26-11.81c1.45-1.06,2.96-2.13,4.51-3.22c1.58-1.06,3.21-2.15,4.88-3.27c3.36-2.23,6.9-4.57,10.61-7.03
						c3.55-2.41,7.39-4.67,11.35-7.07c3.96-2.38,8.07-4.85,12.29-7.39c4.31-2.39,8.73-4.85,13.27-7.37
						c2.27-1.26,4.57-2.53,6.89-3.81c2.35-1.22,4.73-2.45,7.13-3.69c4.14-2.14,8.38-4.27,12.67-6.42c4.33-2.08,8.75-4.1,13.2-6.17
						c8.88-4.22,18.1-8.11,27.3-12.32c4.42-2.01,8.92-3.9,13.4-5.87c4.49-1.93,8.96-3.95,13.49-5.82
						c9.04-3.78,18.07-7.61,27.09-11.2c18.71-7.58,37.05-15.02,54.36-21.79c20.04-7.85,38.66-14.92,54.47-21.32
						c4.07-1.63,7.97-3.19,11.67-4.67c3.68-1.51,7.17-2.94,10.44-4.28c3.28-1.33,6.34-2.56,9.17-3.71c2.82-1.17,5.4-2.23,7.74-3.2
						c9.34-3.83,14.72-5.8,14.93-5.36c0.21,0.44-4.85,3.1-13.93,7.54c-2.27,1.1-4.79,2.35-7.56,3.63c-2.78,1.27-5.79,2.64-9.01,4.11
						c-3.23,1.46-6.67,3.02-10.3,4.67c-3.65,1.6-7.5,3.28-11.53,5.04c-3.92,1.7-7.98,3.49-12.22,5.28
						c-4.24,1.78-8.63,3.62-13.15,5.52c-9.03,3.81-18.64,7.67-28.59,11.75c-17.2,6.99-35.61,14.14-54.23,21.77
						c-8.98,3.62-17.89,7.61-26.83,11.55c-4.48,1.94-8.89,4.03-13.34,6c-4.45,1.97-8.89,3.94-13.3,5.9
						c-9.15,4.15-18.27,8.14-27.02,12.42c-4.4,2.1-8.75,4.18-13.05,6.24c-4.25,2.14-8.45,4.25-12.58,6.33
						c-2.4,1.19-4.78,2.36-7.13,3.53c-2.33,1.21-4.63,2.4-6.91,3.59c-4.57,2.34-9.04,4.62-13.39,6.84
						c-4.28,2.34-8.44,4.62-12.46,6.82c-4,2.23-7.93,4.3-11.51,6.6c-3.71,2.29-7.26,4.47-10.63,6.55c-1.69,1.04-3.33,2.05-4.92,3.03
						c-1.59,0.99-3.1,1.99-4.57,2.95c-5.87,3.85-10.79,7.44-14.62,10.64C235.32,719.83,231.85,724.45,231.43,724.3z"/>
				</g>
			</g>
		</g>
	</g>
	<g>
		<g>
			<g>
				<g>
					<path class="st1" d="M218.46,746.83c-0.67-0.07,2.69-5.66,11.41-13.44c2.16-1.95,4.7-3.96,7.53-6.1
						c2.85-2.09,6.01-4.27,9.48-6.47c6.95-4.38,15.09-8.87,24.06-13.55c17.25-9.13,37.67-19.32,59.9-29.94
						c19.2-9.14,40.03-17.99,61.12-27.34c20.29-8.95,41-17.95,61.43-26.55c21.25-8.92,42.04-17.82,61.69-25.86
						c22.76-9.31,43.9-17.74,61.98-25.06c18.56-7.62,34.05-13.48,44.45-18.33c10.43-4.81,15.92-8.4,16.23-7.94
						c0.26,0.33-4.86,4.6-15.15,10.07c-5.13,2.74-11.53,5.74-18.93,9.01c-7.4,3.25-15.78,6.92-24.97,10.95
						c-17.86,7.78-38.77,16.69-61.4,26.26c-19.55,8.21-40.35,16.94-61.56,25.84c-20.35,8.66-40.73,18.29-60.99,27.15
						c-21.04,9.25-41.55,18.63-60.78,27.52c-22.24,10.32-43.03,19.43-60.47,28.1c-8.96,4.39-17.06,8.49-24.01,12.47
						c-6.94,3.98-12.75,7.82-17.28,11.3C223.12,741.89,218.9,747,218.46,746.83z"/>
				</g>
			</g>
		</g>
	</g>
	<g>
		<g>
			<g>
				<g>
					<path class="st1" d="M139.9,580.42c0.69-0.1,1,3.18,0.96,9.02c-0.06,2.92-0.13,6.48-0.21,10.6c-0.06,2.06-0.13,4.25-0.2,6.57
						c-0.04,1.16-0.09,2.35-0.13,3.57c-0.02,1.22-0.05,2.47-0.07,3.75c-0.09,4.92-0.34,10.25-0.32,15.91
						c-0.03,2.83-0.06,5.74-0.09,8.71c0.03,2.98,0.06,6.02,0.08,9.13c0.06,10.71-0.06,22.13,0.56,33.75
						c0.33,5.58,0.81,11.21,1.24,16.84c0.28,2.81,0.55,5.62,0.83,8.42c0.28,2.8,0.5,5.61,0.85,8.38c0.7,5.77,1.31,11.51,2.21,17.08
						c0.41,2.79,0.82,5.56,1.22,8.29c0.4,2.73,0.89,5.41,1.29,8.06c0.49,3.07,0.91,6.09,1.41,9.03c0.5,2.94,1,5.81,1.47,8.6
						c0.88,5.6,1.99,10.82,2.89,15.68c0.24,1.25,0.47,2.47,0.7,3.66c0.25,1.19,0.5,2.34,0.74,3.47c0.47,2.26,0.91,4.39,1.33,6.4
						c0.42,2.01,0.76,3.89,1.14,5.62c0.37,1.73,0.7,3.32,1,4.75c1.16,5.74,1.61,9.05,1.15,9.19c-0.47,0.14-1.65-2.97-3.45-8.56
						c-0.44-1.4-0.93-2.95-1.46-4.64c-0.53-1.7-1.01-3.55-1.57-5.53c-0.55-1.98-1.13-4.1-1.74-6.33c-0.3-1.12-0.62-2.27-0.94-3.44
						c-0.29-1.18-0.59-2.4-0.89-3.63c-1.15-4.82-2.52-10.02-3.64-15.61c-0.59-2.79-1.19-5.66-1.8-8.59
						c-0.6-2.94-1.11-5.97-1.68-9.05c-0.47-2.66-0.99-5.36-1.4-8.11c-0.4-2.75-0.81-5.54-1.21-8.36c-0.88-5.62-1.45-11.4-2.19-17.22
						c-0.38-2.79-0.66-5.61-1.02-8.43c-0.37-2.82-0.73-5.64-1.1-8.47c-0.62-5.66-1.25-11.33-1.56-16.97
						c-0.56-11.72-1.06-23.24-0.89-34.06c0.04-3.13,0.12-6.2,0.25-9.2c0.21-3,0.41-5.92,0.61-8.77c0.37-5.69,1-11.04,1.35-15.99
						c0.32-5.07,0.88-9.68,1.27-13.77c0.21-2.04,0.4-3.95,0.61-5.71c0.24-1.76,0.46-3.37,0.66-4.83
						C138.96,583.79,139.55,580.47,139.9,580.42z"/>
				</g>
			</g>
		</g>
	</g>
	<g>
		<g>
			<g>
				<g>
					<path class="st1" d="M146.05,572.05c1.34-0.46,3.22,13.95,5.13,36.32c0.88,10.77,1.91,23.37,3.03,36.97
						c0.93,11.73,1.39,24.27,2.45,37.01c1.1,12.24,2.21,24.71,3.31,36.95c1.14,12.73,2.56,25.19,3.66,36.91
						c1.21,13.59,2.32,26.17,3.28,36.95c2.03,22.18,3.12,36.63,2.14,36.76c-0.94,0.12-3.16-14.18-6.22-36.25
						c-1.48-10.72-3.07-23.25-4.6-36.81c-1.35-11.7-2.47-24.19-3.69-36.92c-0.59-6.12-1.34-12.28-2.1-18.44
						c-0.72-6.17-1.46-12.33-1.93-18.46c-0.99-12.75-2.07-25.25-2.77-37.01c-0.84-13.62-0.71-26.28-1.14-37.09
						c-0.43-11.08-0.74-20.25-0.83-26.67C145.65,575.84,145.72,572.16,146.05,572.05z"/>
				</g>
			</g>
		</g>
	</g>
	<g>
		<g>
			<g>
				<g>
					<path class="st1" d="M299.23,835.01c0.63,0.25,0.38,1.95-0.67,4.78c-0.52,1.41-1.21,3.13-2.25,4.96
						c-0.5,0.93-1.05,1.92-1.64,2.95c-0.3,0.52-0.61,1.05-0.92,1.59c-0.35,0.52-0.71,1.05-1.07,1.6c-0.72,1.04-1.47,2.13-2.25,3.26
						c-0.4,0.56-0.78,1.14-1.22,1.7c-0.44,0.55-0.89,1.12-1.34,1.69c-0.92,1.14-1.86,2.3-2.82,3.5c-0.98,1.18-2.06,2.32-3.13,3.51
						c-0.94,1.01-1.88,2.06-2.93,3.01c-1.05,0.95-2.12,1.91-3.2,2.88c-0.54,0.48-1.09,0.97-1.63,1.45
						c-0.56,0.47-1.13,0.94-1.69,1.41c-1.13,0.94-2.26,1.9-3.38,2.89c-2.16,1.88-4.41,3.69-6.62,5.54
						c-2.29,1.75-4.55,3.55-6.88,5.19c-4.84,3.42-9.52,6.88-14.19,9.7c-2.69,1.66-5.33,3.15-7.85,4.53c-2.51,1.4-4.92,2.63-7.12,3.8
						c-9.1,4.76-15.28,7.32-15.76,6.5c-0.5-0.85,5.12-4.4,13.62-10.01c2.06-1.36,4.3-2.83,6.66-4.4c2.37-1.56,4.87-3.2,7.43-4.95
						c4.46-2.98,9.21-6.12,13.9-9.54c2.26-1.64,4.33-3.55,6.45-5.4c2.04-1.93,4.12-3.82,6.23-5.6c1.08-0.95,2.16-1.89,3.23-2.83
						c0.53-0.47,1.06-0.94,1.59-1.41c0.51-0.49,1.01-0.98,1.51-1.46c1.01-0.96,2-1.92,2.99-2.86c1-0.93,1.89-1.93,2.84-2.85
						c1.07-1.09,2.19-2.1,3.25-3.13c1.04-1.04,2.07-2.04,3.09-3.01c2.08-1.9,3.83-3.89,5.43-5.75c0.4-0.48,0.8-0.95,1.19-1.41
						c0.36-0.48,0.71-0.95,1.05-1.4c0.69-0.91,1.34-1.77,1.95-2.58c0.6-0.82,1.21-1.55,1.71-2.27c0.5-0.72,0.96-1.39,1.37-1.99
						C297.83,836.2,298.91,834.89,299.23,835.01z"/>
				</g>
			</g>
		</g>
	</g>
	<g>
		<g>
			<g>
				<g>
					<path class="st1" d="M324.29,840.11c1.11,0.71-0.44,4.82-4.35,10.12c-1.89,2.54-4.25,5.39-7,8.28
						c-2.35,2.53-5.4,4.64-8.18,7.12c-1.33,1.2-2.72,2.36-4.09,3.55c-1.4,1.15-2.81,2.29-4.25,3.36c-3.01,2.2-5.86,4.52-8.81,6.29
						c-0.85,0.52-1.69,1.02-2.52,1.49c-0.84,0.45-1.67,0.88-2.47,1.31c-1.6,0.85-3.17,1.56-4.59,2.24
						c-5.89,2.76-10.02,3.83-10.44,2.99c-0.45-0.89,3.12-2.96,8.33-6.52c1.26-0.88,2.65-1.78,4.08-2.81
						c0.72-0.5,1.47-1.01,2.23-1.54c0.75-0.54,1.52-1.09,2.3-1.65c2.71-1.92,5.64-3.92,8.5-6.12c1.37-1.07,2.6-2.33,3.84-3.57
						c1.2-1.29,2.44-2.53,3.74-3.66c2.73-2.34,5.26-4.8,7.68-7.07c2.83-2.58,5.92-4.58,8.13-6.72
						C320.94,842.81,323.7,839.72,324.29,840.11z"/>
				</g>
			</g>
		</g>
	</g>
	<g>
		<g>
			<g>
				<g>
					<path class="st1" d="M338.39,840.9c1.06,0.83,1.31,2.48,0.67,4.19c-0.31,0.82-0.77,1.7-1.34,2.59
						c-0.49,0.77-1.5,1.18-2.12,1.95c-0.59,0.74-1.14,1.53-1.8,2.21c-0.69,0.71-1.17,1.56-1.88,2.15c-0.82,0.69-1.74,1.18-2.5,1.64
						c-1.57,0.93-2.93,1.25-3.67,0.64c-0.75-0.62-0.26-1.66,0.5-3.24c0.37-0.77,0.88-1.61,1.47-2.48c0.51-0.75,1.22-1.41,1.85-2.17
						c0.6-0.73,0.59-1.98,1.24-2.67c0.67-0.72,1.21-1.52,1.88-2.14c0.78-0.72,2.1-0.88,2.8-1.39
						C336.9,841.14,337.86,840.49,338.39,840.9z"/>
				</g>
			</g>
		</g>
	</g>
	<g>
		<g>
			<g>
				<g>
					<path class="st1" d="M374.9,823.61c1.03,0.85,0.98,2.81-0.2,4.93c-0.57,1.02-1.35,2.12-2.29,3.22c-0.8,0.96-2.12,1.5-3.09,2.42
						c-0.94,0.89-1.86,1.83-2.89,2.62c-1.07,0.82-1.97,1.8-3.04,2.45c-1.23,0.76-2.53,1.25-3.6,1.7c-2.23,0.91-3.94,1.07-4.49,0.29
						c-0.56-0.8,0.47-1.87,2-3.55c0.74-0.82,1.66-1.7,2.65-2.64c0.87-0.8,1.91-1.51,2.87-2.36c0.93-0.81,1.33-2.24,2.26-3.03
						c0.97-0.82,1.81-1.76,2.72-2.5c1.07-0.85,2.6-1.12,3.51-1.76C373.16,824.07,374.37,823.18,374.9,823.61z"/>
				</g>
			</g>
		</g>
	</g>
	<g>
		<g>
			<g>
				<g>
					<path class="st1" d="M469.74,741.4c1.1,0.77-2.55,6.55-9.38,14.45c-3.3,3.8-7.27,8.13-11.68,12.68
						c-3.8,3.94-8.35,7.62-12.63,11.74c-4.12,3.95-8.31,7.98-12.56,11.79c-4.43,3.95-8.63,7.98-12.85,11.48
						c-4.87,4.06-9.57,7.58-13.58,10.61c-8.27,6.22-14.01,9.78-14.61,9.05c-0.62-0.76,4.39-5.19,11.94-12.17
						c3.69-3.37,7.98-7.29,12.63-11.54c4.02-3.65,8.39-7.43,12.73-11.42c4.17-3.84,7.84-8.36,11.97-12.23
						c4.3-4.03,8.37-8.12,12.31-11.86c4.57-4.31,9.3-7.82,12.93-11.25C464.39,745.69,469.17,741,469.74,741.4z"/>
				</g>
			</g>
		</g>
	</g>
	<g>
		<g>
			<g>
				<g>
					<path class="st1" d="M488.72,713.42c1.22,0.55,2.12,1.59,2.28,2.62c0.08,0.5,0.05,1.03-0.05,1.56
						c-0.09,0.46-0.77,0.68-0.97,1.13c-0.19,0.43-0.32,0.91-0.6,1.31c-0.29,0.41-0.34,0.93-0.68,1.27c-0.4,0.4-0.97,0.67-1.42,0.92
						c-0.93,0.52-1.93,0.67-2.81,0.26c-0.88-0.41-0.9-1.04-0.92-2c-0.01-0.47,0.07-0.97,0.21-1.48c0.12-0.45,0.44-0.83,0.65-1.28
						c0.2-0.43-0.32-1.21-0.06-1.61c0.27-0.42,0.38-0.9,0.69-1.26c0.35-0.42,1.4-0.47,1.77-0.76
						C487.57,713.51,488.1,713.14,488.72,713.42z"/>
				</g>
			</g>
		</g>
	</g>
	<g>
		<g>
			<g>
				<g>
					<path class="st1" d="M589.8,530.18c0.54,1.23-0.7,3.07-3.13,4.67c-1.17,0.77-2.59,1.55-4.15,2.31
						c-1.35,0.66-3.02,0.76-4.52,1.37c-1.45,0.58-2.89,1.25-4.37,1.75c-1.54,0.52-2.95,1.27-4.4,1.66c-1.68,0.46-3.32,0.68-4.7,0.91
						c-2.85,0.47-4.87,0.36-5.23-0.54c-0.36-0.9,1.24-1.84,3.71-3.28c1.2-0.7,2.63-1.42,4.21-2.14c1.36-0.63,2.88-1.09,4.38-1.69
						c1.45-0.58,2.63-1.9,4.09-2.42c1.53-0.54,2.97-1.22,4.4-1.66c1.66-0.51,3.48-0.24,4.84-0.55
						C587.7,529.93,589.53,529.56,589.8,530.18z"/>
				</g>
			</g>
		</g>
	</g>
	<g>
		<g>
			<g>
				<g>
					<path class="st1" d="M682.23,303.96c0.51,1.24,0.59,2.55,0.22,3.33c-0.18,0.38-0.44,0.69-0.75,0.95
						c-0.27,0.23-0.79-0.13-1.12,0.01c-0.32,0.14-0.62,0.34-0.97,0.39c-0.37,0.06-0.63,0.34-1,0.31c-0.43-0.04-0.91-0.28-1.3-0.45
						c-0.81-0.34-1.51-0.98-1.86-1.88c-0.36-0.9-0.09-1.32,0.34-1.94c0.21-0.3,0.49-0.56,0.81-0.79c0.28-0.2,0.65-0.21,0.99-0.34
						c0.32-0.13,0.35-1,0.7-1.07c0.36-0.07,0.65-0.3,1-0.3c0.41-0.01,1.08,0.72,1.44,0.81
						C681.48,303.19,681.98,303.34,682.23,303.96z"/>
				</g>
			</g>
		</g>
	</g>
	<g>
		<g>
			<g>
				<g>
					<path class="st1" d="M650.93,201.38c1.23,0.58,1.54,2.64,1.22,5.21c-0.15,1.25-0.41,2.65-0.64,4.17
						c-0.22,1.3-0.98,2.58-1.2,4.03c-0.18,1.38-0.23,2.8-0.36,4.19c-0.13,1.45,0.04,2.87-0.04,4.21c-0.12,1.56-0.32,3.04-0.43,4.33
						c-0.19,2.64-0.52,4.53-1.47,4.8c-0.91,0.25-1.71-1.41-2.58-4.14c-0.41-1.33-0.76-2.91-0.95-4.65c-0.19-1.5-0.06-3.12-0.01-4.75
						c0.05-1.56-0.58-3.25-0.31-4.84c0.31-1.63,0.51-3.26,1.01-4.72c0.28-0.85,0.76-1.6,1.27-2.28c0.48-0.69,1.01-1.3,1.34-1.91
						C649.19,202.55,650.34,201.1,650.93,201.38z"/>
				</g>
			</g>
		</g>
	</g>
	<g>
		<g>
			<g>
				<g>
					<path class="st1" d="M635.35,217.06c1.33,0.21,2.42,1.19,2.79,2.48c0.18,0.62,0.25,1.32,0.26,2.06c0,0.64-0.63,1.21-0.74,1.89
						c-0.11,0.65-0.14,1.33-0.34,1.96c-0.2,0.66-0.15,1.35-0.43,1.94c-0.32,0.69-0.83,1.28-1.23,1.8c-0.82,1.07-1.79,1.68-2.74,1.52
						c-0.96-0.17-1.1-0.98-1.31-2.23c-0.1-0.61-0.12-1.29-0.08-2.03c0.03-0.63,0.28-1.27,0.39-1.95c0.11-0.65-0.56-1.45-0.38-2.08
						c0.18-0.66,0.2-1.34,0.43-1.94c0.27-0.69,1.29-1.2,1.61-1.73C634.23,217.66,634.69,216.96,635.35,217.06z"/>
				</g>
			</g>
		</g>
	</g>
	<g>
		<g>
			<g>
				<g>
					<path class="st1" d="M622.97,232.61c1.32,0.26,2.44,0.97,2.87,1.79c0.21,0.4,0.32,0.83,0.35,1.28
						c0.03,0.39-0.56,0.68-0.64,1.08c-0.07,0.39-0.07,0.79-0.23,1.16c-0.17,0.38-0.08,0.81-0.33,1.14c-0.28,0.39-0.75,0.7-1.12,0.97
						c-0.75,0.57-1.68,0.85-2.62,0.65c-0.95-0.2-1.13-0.71-1.4-1.49c-0.13-0.38-0.18-0.8-0.18-1.24c0-0.38,0.21-0.75,0.29-1.15
						c0.08-0.38-0.62-0.94-0.48-1.31c0.15-0.39,0.13-0.8,0.33-1.14c0.23-0.4,1.21-0.6,1.5-0.89
						C621.89,232.86,622.3,232.48,622.97,232.61z"/>
				</g>
			</g>
		</g>
	</g>
	<g>
		<g>
			<g>
				<g>
					<path class="st1" d="M608.81,248.77c1.29,0.37,2.27,1.45,2.39,2.82c0.05,0.65-0.02,1.37-0.22,2.11
						c-0.17,0.65-0.95,1.04-1.27,1.65c-0.31,0.6-0.59,1.23-1.01,1.76c-0.45,0.55-0.69,1.22-1.21,1.64c-0.6,0.49-1.34,0.78-1.94,1.03
						c-1.24,0.52-2.37,0.45-3.06-0.22c-0.7-0.68-0.43-1.36-0.1-2.41c0.16-0.51,0.4-1.04,0.69-1.59c0.25-0.47,0.66-0.87,0.97-1.36
						c0.29-0.48-0.11-1.36,0.19-1.8c0.32-0.47,0.48-1,0.8-1.42c0.38-0.48,1.44-0.65,1.83-1.05
						C607.64,249.16,608.15,248.58,608.81,248.77z"/>
				</g>
			</g>
		</g>
	</g>
	<g>
		<g>
			<g>
				<g>
					<path class="st1" d="M434.15,452.8c1.24,0.61-3.23,8.66-10.97,20.49c-3.72,5.71-8.16,12.31-12.91,19.47
						c-4.12,6.16-8.97,12.41-13.42,19.12c-4.22,6.48-8.52,13.09-12.74,19.58c-4.4,6.74-8.46,13.51-12.48,19.74
						c-4.72,7.18-9.1,13.83-12.84,19.53c-7.67,11.75-12.89,19.28-13.74,18.79c-0.83-0.47,3.41-8.57,10.2-20.88
						c3.31-5.97,7.28-12.88,11.73-20.26c3.82-6.38,8.15-13.01,12.48-19.81c2.08-3.27,4.06-6.66,6.02-10.06
						c1.99-3.38,3.98-6.76,6.15-9.98c4.53-6.68,8.87-13.31,13.2-19.36c5-7.02,10.35-12.99,14.49-18.42
						C427.81,459.63,433.55,452.51,434.15,452.8z"/>
				</g>
			</g>
		</g>
	</g>
	<g>
		<g>
			<g>
				<g>
					<path class="st1" d="M336.73,587.93c1.29,0.36,1.94,2.43,1.67,5.23c-0.13,1.35-0.42,2.88-0.8,4.52
						c-0.33,1.41-1.3,2.71-1.77,4.21c-0.45,1.44-0.84,2.92-1.37,4.34c-0.56,1.47-0.86,2.98-1.46,4.31c-0.7,1.53-1.55,2.89-2.24,4.06
						c-1.42,2.41-2.77,3.84-3.69,3.55c-0.92-0.29-0.66-2.07-0.23-4.79c0.21-1.32,0.55-2.84,0.97-4.46c0.36-1.4,0.95-2.82,1.43-4.31
						c0.45-1.43,0.16-3.14,0.68-4.55c0.54-1.47,0.91-2.96,1.47-4.3c0.64-1.55,1.99-2.74,2.6-3.93
						C335.23,589.34,336.08,587.75,336.73,587.93z"/>
				</g>
			</g>
		</g>
	</g>
	<g>
		<g>
			<g>
				<g>
					<path class="st1" d="M319.47,613.58c1.07,0.82,1.74,1.97,1.87,2.85c0.06,0.43,0.04,0.85-0.03,1.26
						c-0.06,0.35-0.69,0.46-0.84,0.82c-0.14,0.35-0.2,0.73-0.39,1.06c-0.2,0.35-0.15,0.76-0.39,1.07c-0.29,0.36-0.76,0.67-1.11,0.97
						c-0.72,0.61-1.6,1.07-2.57,1c-0.96-0.07-1.22-0.67-1.49-1.64c-0.13-0.47-0.17-1.03-0.12-1.61c0.04-0.51,0.31-0.98,0.48-1.5
						c0.16-0.49-0.39-1.27-0.13-1.76c0.28-0.49,0.43-1.04,0.78-1.44c0.41-0.48,1.49-0.47,1.9-0.72
						C318.32,613.41,318.94,613.17,319.47,613.58z"/>
				</g>
			</g>
		</g>
	</g>
	<g>
		<g>
			<g>
				<g>
					<path class="st1" d="M444.49,438.88c0.5,1.25,0.87,2.44,0.94,3.05c0.03,0.29,0.02,0.51-0.02,0.66
						c-0.04,0.13-0.31-0.32-0.39-0.28c-0.08,0.04-0.13,0.15-0.24,0.1c-0.11-0.04-0.13,0.14-0.27,0.02
						c-0.16-0.15-0.39-0.49-0.57-0.74c-0.38-0.52-0.78-1.27-1.14-2.17c-0.36-0.9-0.37-1.2-0.38-1.65c0-0.22,0.03-0.38,0.08-0.5
						c0.05-0.1,0.18-0.02,0.26-0.05c0.08-0.03-0.13-0.81-0.03-0.78c0.11,0.03,0.15-0.1,0.28-0.01c0.14,0.1,0.57,0.92,0.72,1.1
						C444.02,437.99,444.24,438.26,444.49,438.88z"/>
				</g>
			</g>
		</g>
	</g>
	<g>
		<g>
			<g>
				<g>
					<path class="st1" d="M190.26,718.16c1.33,0.26,1.47,4.36,0.52,10.36c-0.46,2.89-1.11,6.24-1.84,9.84
						c-0.64,3.11-1.91,6.28-2.67,9.64c-0.72,3.23-1.35,6.55-2.11,9.77c-0.78,3.36-1.28,6.7-2.04,9.79
						c-0.89,3.57-1.88,6.85-2.68,9.68c-1.64,5.81-3.07,9.54-4.03,9.39c-0.95-0.15-0.64-4.07-0.02-10.09
						c0.31-2.93,0.77-6.32,1.38-9.98c0.52-3.16,1.32-6.47,2.01-9.86c0.68-3.27,0.62-6.76,1.41-10.01c0.83-3.37,1.5-6.72,2.38-9.8
						c1.01-3.57,2.75-6.67,3.69-9.45C188.23,721.72,189.61,718.03,190.26,718.16z"/>
				</g>
			</g>
		</g>
	</g>
	<g>
		<g>
			<g>
				<g>
					<path class="st1" d="M198.82,720.02c1.3,0.32,2.22,1.71,2.35,3.51c0.06,0.87,0,1.85-0.14,2.89c-0.12,0.9-0.88,1.68-1.12,2.62
						c-0.23,0.91-0.4,1.85-0.72,2.73c-0.33,0.92-0.42,1.88-0.81,2.71c-0.46,0.95-1.09,1.78-1.6,2.5c-1.04,1.48-2.14,2.32-3.07,2.07
						c-0.94-0.25-0.93-1.39-0.9-3.13c0.02-0.85,0.13-1.81,0.31-2.84c0.16-0.89,0.53-1.77,0.78-2.71c0.24-0.9-0.28-2.03,0.02-2.92
						c0.31-0.92,0.47-1.87,0.82-2.7c0.41-0.96,1.55-1.65,1.97-2.39C197.56,720.83,198.16,719.86,198.82,720.02z"/>
				</g>
			</g>
		</g>
	</g>
	<g>
		<g>
			<g>
				<g>
					<path class="st1" d="M203.21,716.45c1.24-0.51,2.54-0.64,3.28-0.18c0.35,0.22,0.63,0.54,0.83,0.91
						c0.17,0.33-0.31,0.76-0.27,1.12c0.03,0.35,0.12,0.71,0.03,1.06c-0.1,0.36,0.04,0.74-0.18,1.05c-0.25,0.36-0.71,0.63-1.07,0.83
						c-0.75,0.43-1.67,0.43-2.57,0.08c-0.91-0.34-1.09-0.67-1.42-1.08c-0.16-0.2-0.26-0.39-0.33-0.58
						c-0.06-0.16,0.09-0.32,0.09-0.49c0-0.18-0.79-0.32-0.74-0.46c0.05-0.16-0.06-0.29,0.04-0.45c0.12-0.17,0.98-0.54,1.14-0.77
						C202.37,717.07,202.58,716.7,203.21,716.45z"/>
				</g>
			</g>
		</g>
	</g>
	<g>
		<g>
			<g>
				<g>
					<path class="st1" d="M251.99,422.69c1.19,0.68-2.8,7.57-9.88,17.48c-3.43,4.75-7.44,10.29-11.76,16.28
						c-3.74,5.15-8.1,10.34-12.02,16.02c-1.87,2.73-3.68,5.55-5.52,8.33c-1.75,2.84-3.58,5.64-5.31,8.46
						c-1.76,2.95-3.56,5.85-5.11,8.8c-0.8,1.46-1.6,2.91-2.38,4.33c-0.79,1.42-1.5,2.86-2.26,4.25c-0.86,1.62-1.76,3.18-2.57,4.74
						c-0.8,1.56-1.59,3.09-2.35,4.58c-1.6,2.94-2.85,5.83-4.13,8.46c-0.32,0.68-0.64,1.34-0.94,1.99c-0.28,0.66-0.56,1.3-0.83,1.92
						c-0.55,1.25-1.07,2.43-1.56,3.54c-0.49,1.11-1,2.13-1.39,3.1c-0.4,0.97-0.78,1.85-1.14,2.65c-1.42,3.18-2.44,4.93-2.9,4.8
						c-0.47-0.13-0.18-2.1,0.62-5.52c0.21-0.85,0.44-1.8,0.7-2.83c0.26-1.03,0.64-2.11,0.99-3.29c0.37-1.17,0.77-2.42,1.19-3.74
						c0.21-0.66,0.43-1.34,0.66-2.03c0.25-0.68,0.51-1.38,0.78-2.1c1.06-2.77,2.1-5.82,3.52-8.92c0.68-1.56,1.39-3.17,2.1-4.81
						c0.73-1.64,1.57-3.27,2.39-4.95c0.72-1.44,1.42-2.93,2.22-4.39c0.81-1.45,1.62-2.92,2.45-4.41c1.61-2.99,3.47-5.91,5.23-8.94
						c1.72-2.89,3.41-5.83,5.04-8.82c1.72-2.93,3.42-5.87,5.35-8.63c4.02-5.71,7.93-11.34,11.9-16.4c2.28-2.94,4.66-5.62,6.95-8.13
						c2.27-2.52,4.48-4.83,6.37-7.08C246.2,428.25,251.4,422.36,251.99,422.69z"/>
				</g>
			</g>
		</g>
	</g>
	<g>
		<g>
			<g>
				<g>
					<path class="st1" d="M404.65,279.06c1.31,0.32,1.8,3.02,1.38,6.82c-0.2,1.83-0.55,3.94-0.97,6.2
						c-0.37,1.95-1.35,3.88-1.82,5.99c-0.44,2.02-0.8,4.1-1.28,6.11c-0.5,2.1-0.73,4.2-1.24,6.12c-0.6,2.23-1.33,4.27-1.91,6.03
						c-1.18,3.62-2.33,5.95-3.29,5.82c-0.96-0.12-0.93-2.61-0.77-6.45c0.08-1.86,0.29-4.02,0.61-6.34c0.27-2,0.8-4.09,1.22-6.24
						c0.41-2.06,0.08-4.33,0.59-6.38c0.54-2.13,0.93-4.25,1.54-6.19c0.7-2.24,2.14-4.11,2.83-5.83
						C402.97,281.18,404,278.91,404.65,279.06z"/>
				</g>
			</g>
		</g>
	</g>
	<g>
		<g>
			<g>
				<g>
					<path class="st1" d="M539.42,222.63c1.33-0.12,2.63,0.42,3.22,1.45c0.28,0.49,0.46,1.09,0.55,1.73
						c0.08,0.56-0.51,1.09-0.58,1.67c-0.07,0.56-0.09,1.15-0.29,1.68c-0.21,0.56-0.18,1.16-0.5,1.64c-0.36,0.55-0.93,0.97-1.38,1.31
						c-0.93,0.72-1.96,0.9-2.83,0.5c-0.89-0.41-0.91-1.02-1.02-1.92c-0.06-0.44-0.04-0.9,0-1.4c0.04-0.42,0.27-0.82,0.37-1.27
						c0.09-0.44-0.62-1.01-0.5-1.41c0.12-0.43,0.07-0.87,0.22-1.26c0.18-0.45,1.11-0.87,1.33-1.28
						C538.46,223.27,538.74,222.68,539.42,222.63z"/>
				</g>
			</g>
		</g>
	</g>
	<g>
		<g>
			<g>
				<g>
					<path class="st1" d="M226.87,880.59c1.13,0.7,0.3,4.07-2.34,8.42c-1.28,2.09-2.9,4.43-4.81,6.85c-1.63,2.1-3.91,3.86-5.85,5.98
						c-1.88,2.03-3.78,4.11-5.8,6.01c-2.11,1.95-4.04,4.03-6.13,5.68c-2.4,1.93-4.82,3.46-6.88,4.78c-4.24,2.71-7.34,3.94-7.91,3.18
						c-0.6-0.79,1.79-2.91,5.28-6.34c1.71-1.65,3.69-3.57,5.84-5.64c1.86-1.78,3.93-3.57,5.92-5.53c1.91-1.9,3.24-4.41,5.1-6.32
						c1.93-2,3.68-4.1,5.43-5.98c2.04-2.16,4.48-3.73,6.12-5.46C224.19,882.66,226.29,880.23,226.87,880.59z"/>
				</g>
			</g>
		</g>
	</g>
	<g>
		<g>
			<g>
				<g>
					<path class="st1" d="M178.73,912.82c0.78,1.09,0.8,2.59,0.06,3.81c-0.35,0.59-0.84,1.16-1.42,1.71
						c-0.5,0.48-1.39,0.45-1.99,0.88c-0.58,0.41-1.13,0.88-1.76,1.22c-0.65,0.35-1.15,0.89-1.81,1.14
						c-0.76,0.28-1.58,0.36-2.27,0.47c-1.41,0.21-2.57-0.02-3.12-0.81c-0.55-0.8-0.02-1.51,0.79-2.58c0.4-0.52,0.92-1.04,1.51-1.56
						c0.51-0.45,1.18-0.75,1.79-1.17c0.58-0.4,0.72-1.46,1.34-1.81c0.64-0.36,1.18-0.85,1.81-1.13c0.73-0.32,1.85,0.03,2.48-0.15
						C177.46,912.47,178.34,912.27,178.73,912.82z"/>
				</g>
			</g>
		</g>
	</g>
	<g>
		<g>
			<g>
				<g>
					<path class="st1" d="M324.69,492.08c1.33,0.08,2.37,2.32,2.45,5.7c0.03,1.62-0.08,3.51-0.37,5.53
						c-0.23,1.75-1.16,3.45-1.61,5.29c-0.44,1.77-0.86,3.58-1.46,5.31c-0.64,1.79-1.05,3.61-1.8,5.2c-0.86,1.85-1.92,3.44-2.79,4.8
						c-1.82,2.8-3.51,4.33-4.37,3.92c-0.89-0.42-0.24-2.4,0.57-5.48c0.39-1.5,0.92-3.2,1.47-5.05c0.49-1.59,1.16-3.23,1.68-4.96
						c0.5-1.67,0.2-3.58,0.68-5.23c0.49-1.73,0.8-3.46,1.24-5.06c0.53-1.84,1.73-3.44,2.18-4.93
						C323.48,494.07,324,492.03,324.69,492.08z"/>
				</g>
			</g>
		</g>
	</g>
	<g>
		<g>
			<g>
				<g>
					<path class="st1" d="M497.49,350.78c-1.4-0.04-0.77-9.02,0.88-22.74c0.37-3.31,0.86-6.88,1.27-10.69
						c0.22-1.9,0.45-3.85,0.69-5.85c0.22-2,0.44-4.05,0.66-6.13c0.8-7.19,2.1-14.81,2.79-22.65c0.32-3.77,0.56-7.57,0.84-11.38
						c0.23-3.81,0.46-7.62,0.68-11.39c0.45-7.85,0.54-15.57,0.77-22.81c0.15-4.2,0.3-8.24,0.44-12.06
						c0.17-3.83,0.22-7.44,0.32-10.77c0.27-13.72,0.48-22.69,1.48-22.75c0.93-0.06,1.85,8.86,2.63,22.64
						c0.36,6.69,0.61,14.52,0.57,22.97c0.02,7.3-0.38,15.06-0.74,22.98c-0.17,3.8-0.24,7.65-0.27,11.5c-0.1,3.85-0.19,7.7-0.54,11.5
						c-0.77,7.89-1.45,15.65-2.5,22.88c-0.3,2.09-0.64,4.14-1,6.14c-0.39,1.99-0.81,3.94-1.21,5.82c-0.79,3.78-1.67,7.31-2.29,10.61
						C500.31,342.08,498.14,350.79,497.49,350.78z"/>
				</g>
			</g>
		</g>
	</g>
	<g>
		<g>
			<g>
				<g>
					<path class="st1" d="M490.94,365.46c-0.53-0.46,1.93-2.81,6.74-6.58c2.41-1.89,5.39-4.14,8.98-6.53
						c1.79-1.2,3.71-2.48,5.73-3.84c1.02-0.67,2.06-1.36,3.13-2.06c1.09-0.67,2.21-1.36,3.36-2.06c4.43-2.66,9.19-5.66,14.42-8.5
						c2.6-1.45,5.28-2.94,8.02-4.46c2.76-1.5,5.62-2.93,8.52-4.44c2.52-1.28,5.05-2.61,7.7-3.81c2.65-1.19,5.33-2.4,8.04-3.62
						c1.36-0.61,2.72-1.21,4.09-1.83c1.37-0.6,2.77-1.16,4.16-1.75c2.79-1.17,5.59-2.36,8.39-3.59c2.68-1.22,5.44-2.27,8.18-3.41
						c2.74-1.12,5.49-2.25,8.24-3.37c5.56-2.08,11.09-4.25,16.65-6.17c2.89-0.99,5.77-1.98,8.63-2.96c1.43-0.49,2.85-0.98,4.27-1.47
						c1.43-0.45,2.85-0.91,4.27-1.36c2.83-0.89,5.64-1.78,8.4-2.65c2.76-0.88,5.54-1.59,8.26-2.34c3.15-0.84,6.24-1.7,9.28-2.45
						c3.05-0.71,6.03-1.4,8.93-2.07c5.78-1.4,11.31-2.37,16.37-3.41c1.3-0.26,2.58-0.51,3.83-0.76c1.25-0.21,2.47-0.42,3.67-0.62
						c2.38-0.39,4.64-0.75,6.75-1.1c2.12-0.32,4.09-0.66,5.93-0.89c1.84-0.21,3.52-0.4,5.04-0.57c6.08-0.64,9.55-0.79,9.62-0.31
						c0.08,0.48-3.26,1.38-9.2,2.66c-1.49,0.31-3.14,0.66-4.93,1.03c-1.8,0.37-3.73,0.85-5.81,1.31c-2.08,0.47-4.29,0.97-6.63,1.49
						c-1.17,0.26-2.37,0.53-3.6,0.81c-1.22,0.31-2.47,0.62-3.75,0.94c-4.97,1.28-10.38,2.49-16.05,4.1
						c-2.84,0.77-5.76,1.55-8.75,2.36c-2.98,0.83-6.01,1.77-9.12,2.67c-2.67,0.81-5.41,1.53-8.14,2.41
						c-2.74,0.86-5.51,1.73-8.32,2.61c-1.4,0.44-2.81,0.88-4.23,1.32c-1.41,0.45-2.81,0.95-4.23,1.43
						c-2.83,0.97-5.67,1.95-8.54,2.93c-2.76,0.92-5.46,2.06-8.18,3.14c-2.71,1.11-5.43,2.23-8.14,3.35
						c-5.36,2.41-10.76,4.71-16.11,6.98c-2.77,1.21-5.53,2.4-8.27,3.6c-1.37,0.6-2.73,1.2-4.08,1.8c-1.34,0.63-2.67,1.26-4,1.88
						c-2.66,1.25-5.29,2.48-7.88,3.69c-2.61,1.19-5.11,2.51-7.63,3.72c-2.89,1.43-5.77,2.74-8.57,4.08
						c-2.79,1.35-5.51,2.67-8.16,3.95c-5.35,2.48-10.26,5.08-14.78,7.51c-1.15,0.63-2.28,1.24-3.39,1.84
						c-1.09,0.63-2.15,1.24-3.19,1.83c-2.07,1.19-4.03,2.33-5.87,3.39c-1.84,1.07-3.58,2.03-5.16,2.97
						c-1.57,0.95-3.02,1.82-4.33,2.6C494.28,364,491.21,365.69,490.94,365.46z"/>
				</g>
			</g>
		</g>
	</g>
	<g>
		<g>
			<g>
				<g>
					<path class="st1" d="M134.35,768.1c1.31-0.33,3.1,2.62,4.65,7.37c0.75,2.29,1.5,4.99,2.28,7.91c0.66,2.52,0.77,5.34,1.42,8.1
						c0.63,2.65,1.37,5.32,1.96,7.98c0.62,2.76,1.48,5.41,2,7.97c0.59,2.97,0.98,5.77,1.35,8.16c0.78,4.92,0.92,8.24-0.01,8.52
						c-0.92,0.28-2.15-2.72-3.94-7.38c-0.86-2.27-1.77-4.94-2.65-7.87c-0.77-2.52-1.35-5.27-2.06-8.04
						c-0.68-2.66-2.11-5.2-2.69-7.89c-0.59-2.8-1.31-5.52-1.75-8.12c-0.51-3.02-0.18-5.97-0.44-8.38
						C133.94,771.5,133.7,768.26,134.35,768.1z"/>
				</g>
			</g>
		</g>
	</g>
	<g>
		<g>
			<g>
				<g>
					<path class="st1" d="M175.85,551.32c1.2,0.6,1.8,2.14,1.47,3.9c-0.16,0.84-0.46,1.77-0.89,2.71c-0.36,0.82-1.31,1.35-1.82,2.16
						c-0.49,0.78-0.94,1.61-1.53,2.33c-0.61,0.75-1.01,1.62-1.66,2.24c-0.76,0.72-1.64,1.24-2.37,1.7c-1.5,0.95-2.83,1.24-3.58,0.64
						c-0.76-0.61-0.32-1.6,0.3-3.12c0.3-0.74,0.73-1.54,1.22-2.39c0.43-0.73,1.04-1.38,1.55-2.14c0.49-0.73,0.32-1.91,0.83-2.6
						c0.54-0.73,0.93-1.53,1.46-2.18c0.62-0.75,1.87-1.06,2.44-1.63C174.47,551.79,175.25,551.01,175.85,551.32z"/>
				</g>
			</g>
		</g>
	</g>
</g>
</svg>
