<?xml version="1.0" encoding="utf-8"?>
<!-- Generator: Adobe Illustrator 28.0.0, SVG Export Plug-In . SVG Version: 6.00 Build 0)  -->
<svg version="1.1" id="Capa_1" xmlns="http://www.w3.org/2000/svg" xmlns:xlink="http://www.w3.org/1999/xlink" x="0px" y="0px"
	 viewBox="0 0 1053 1135" style="enable-background:new 0 0 1053 1135;" xml:space="preserve">
<style type="text/css">
	.st0{opacity:0.08;}
	.st1{fill:#63301B;}
</style>
<g class="st0">
	<g>
		<g>
			<g>
				<g>
					<path class="st1" d="M154.76,26.33c0.19-0.2,0.26,0.68,0.2,2.53c0.08,1.86,0.15,4.71,0.9,8.41c0.73,3.7,2.09,8.22,4.27,13.36
						c2.17,5.14,5.14,10.9,8.9,17.14c7.56,12.47,18.2,26.9,31.54,42.72c13.32,15.84,29.23,33.15,47.26,51.61
						c34.72,35.57,77.17,75.37,123.92,117.36c40.33,36.23,83.53,74.57,128.28,112.83c21.51,18.4,43.32,36.85,65.18,55.24
						c10.93,9.23,21.83,18.57,32.31,28.31c5.31,4.79,10.41,9.8,15.59,14.71c2.53,2.51,5.06,5.03,7.59,7.54l3.78,3.77
						c1.26,1.26,2.47,2.56,3.7,3.84c2.56,2.67,5.11,5.33,7.67,7.99c2.49,2.72,4.98,5.43,7.47,8.13l3.72,4.06
						c1.23,1.37,2.42,2.76,3.62,4.14c2.41,2.76,4.81,5.52,7.21,8.27c9.37,11.21,18.54,22.47,26.93,34.13
						c8.58,11.53,16.36,23.45,23.82,35.35c1.84,2.99,3.56,6.04,5.34,9.05c0.88,1.51,1.76,3.01,2.64,4.51
						c0.88,1.5,1.76,2.99,2.56,4.53c1.63,3.06,3.26,6.1,4.88,9.13c0.81,1.52,1.62,3.03,2.43,4.54c0.75,1.54,1.5,3.08,2.24,4.61
						c13.95,28.37,24.63,57.09,31.3,85.11c6.82,27.99,10.13,55.08,10.92,80.1c0.13,6.44,0.46,12.73,0.15,18.88
						c-0.08,3.07-0.16,6.11-0.24,9.11c-0.04,1.5-0.08,2.99-0.12,4.47c-0.03,1.48-0.21,2.94-0.3,4.4
						c-0.46,5.82-0.91,11.49-1.35,16.99c-0.67,5.48-1.41,10.79-2.08,15.93c-0.17,1.28-0.34,2.56-0.51,3.82
						c-0.16,1.26-0.32,2.52-0.57,3.75c-0.46,2.46-0.91,4.88-1.35,7.26c-0.89,4.75-1.71,9.33-2.58,13.71
						c-1.04,4.34-2.04,8.51-2.99,12.48c-0.48,1.99-0.95,3.92-1.4,5.82c-0.46,1.89-0.87,3.74-1.43,5.5
						c-2.1,7.07-3.98,13.38-5.61,18.86c-0.21,0.68-0.41,1.35-0.61,2.01c-0.23,0.65-0.46,1.28-0.68,1.9
						c-0.44,1.24-0.87,2.43-1.27,3.57c-0.82,2.27-1.56,4.34-2.23,6.19c-2.69,7.38-4.22,11.25-4.45,11.17
						c-0.23-0.08,0.89-4.1,3.2-11.58c0.58-1.87,1.23-3.96,1.95-6.26c0.36-1.15,0.74-2.35,1.14-3.6c0.2-0.63,0.4-1.27,0.61-1.92
						c0.18-0.66,0.36-1.33,0.54-2.02c1.48-5.49,3.18-11.81,5.09-18.9c0.52-1.76,0.89-3.61,1.31-5.5c0.42-1.89,0.84-3.83,1.28-5.81
						c0.88-3.96,1.79-8.12,2.75-12.45c0.79-4.36,1.53-8.93,2.34-13.65c0.4-2.36,0.81-4.77,1.23-7.22c0.23-1.22,0.38-2.47,0.52-3.72
						c0.15-1.26,0.3-2.52,0.45-3.8c0.6-5.1,1.22-10.38,1.86-15.81c0.37-5.46,0.75-11.08,1.14-16.85c0.08-1.44,0.24-2.89,0.26-4.36
						c0.02-1.47,0.05-2.94,0.07-4.42c0.05-2.97,0.1-5.97,0.14-9.02c0.24-6.08-0.15-12.31-0.34-18.67
						c-1.02-24.72-4.54-51.42-11.48-78.97c-6.8-27.59-17.48-55.84-31.37-83.78c-0.74-1.51-1.48-3.03-2.22-4.55
						c-0.8-1.49-1.6-2.98-2.41-4.48c-1.61-2.99-3.22-5.99-4.84-9l-1.22-2.26l-1.3-2.22c-0.87-1.48-1.74-2.96-2.61-4.45
						c-1.75-2.97-3.47-5.96-5.27-8.93c-7.37-11.75-15.04-23.54-23.5-34.95c-8.27-11.55-17.33-22.7-26.57-33.81
						c-2.37-2.73-4.75-5.46-7.14-8.2l-3.58-4.11l-3.69-4.02c-2.46-2.68-4.93-5.37-7.39-8.06c-2.53-2.63-5.07-5.27-7.61-7.91
						l-3.67-3.8l-3.76-3.73c-2.51-2.48-5.02-4.97-7.54-7.45c-2.57-2.43-5.14-4.87-7.71-7.3l-3.87-3.64l-3.94-3.58
						c-10.44-9.62-21.29-18.8-32.23-27.93c-21.96-18.24-43.86-36.55-65.34-54.96c-44.67-38.28-88.26-76.12-128.46-112.54
						c-46.55-42.16-88.2-82.71-122.71-118.71c-17.68-18.44-33.32-35.79-46.42-51.78c-13.11-15.98-23.68-30.61-31.16-43.47
						c-3.74-6.42-6.75-12.37-8.9-17.77c-2.17-5.39-3.53-10.2-4.21-14.2c-0.67-4-0.76-7.18-0.53-9.33c0.04-1.08,0.24-1.9,0.33-2.46
						C154.63,26.7,154.71,26.39,154.76,26.33z"/>
				</g>
			</g>
		</g>
	</g>
	<g>
		<g>
			<g>
				<g>
					<path class="st1" d="M712.5,990.28c0.25,1.33-13.25-8.79-40.47-21.82c-13.63-6.45-30.78-13.3-51.03-20.03
						c-10.12-3.37-21.02-6.72-32.57-10.23c-11.55-3.51-23.76-7.14-36.48-11.23c-12.25-3.93-24.96-8.27-37.96-13.29
						c-13-5.01-26.27-10.72-39.55-17.41c-26.56-13.34-53.28-30.36-78.32-51.32c-5.49-4.41-10.73-9.2-16.07-13.95l-2-1.79l-1.94-1.86
						c-1.3-1.24-2.59-2.48-3.9-3.72c-1.3-1.24-2.6-2.49-3.91-3.74c-1.31-1.24-2.62-2.49-3.87-3.81c-2.53-2.6-5.08-5.2-7.63-7.81
						c-2.46-2.69-4.94-5.39-7.41-8.1l-1.85-2.04l-1.8-2.09c-1.2-1.4-2.4-2.79-3.6-4.2c-1.2-1.4-2.4-2.81-3.6-4.21
						c-1.16-1.44-2.33-2.88-3.49-4.32c-4.72-5.72-9.18-11.69-13.69-17.66c-2.18-3.04-4.37-6.08-6.57-9.13
						c-2.19-3.05-4.25-6.2-6.39-9.3c-8.4-12.51-16.45-25.39-24.03-38.62c-29.19-50.88-52.1-106.28-70.15-161.92
						c-18.76-57.89-32.72-116.04-42.69-171.17c-11.53-63.88-17.94-123.68-21.1-175.01c-3.26-52.82-2.85-96.55-0.79-126.9
						c0.98-15.18,2.41-27.01,3.63-35.01c0.33-2,0.62-3.76,0.88-5.28c0.27-1.52,0.55-2.78,0.76-3.8c0.44-2.04,0.72-3.08,0.84-3.06
						c0.12,0.02,0.06,1.1-0.16,3.16c-0.12,1.03-0.27,2.31-0.44,3.84c-0.16,1.53-0.36,3.29-0.57,5.3c-0.82,8.02-1.9,19.82-2.55,34.96
						c-1.4,30.26-1.26,73.82,2.5,126.42c3.64,51.09,10.55,110.55,22.29,174.08c10.15,54.81,23.72,112.69,42.42,170.22
						c17.99,55.28,41.35,110.01,70.1,160.39c15.01,26.13,31.58,51.08,50.08,73.7c9.23,11.32,18.81,22.17,28.94,32.21
						c2.46,2.58,5.1,4.98,7.64,7.45c2.58,2.43,5.09,4.93,7.7,7.29c5.28,4.66,10.38,9.45,15.77,13.81c1.54,1.29,3.08,2.57,4.61,3.85
						l2.3,1.92l2.35,1.83c3.13,2.45,6.25,4.88,9.35,7.3c3.18,2.32,6.34,4.62,9.49,6.91c1.56,1.17,3.17,2.25,4.77,3.33
						c1.6,1.09,3.2,2.17,4.79,3.25c12.79,8.56,25.75,16.22,38.72,23c25.97,13.54,51.94,23.38,76.22,31.49
						c24.91,8.25,47.98,15.02,68.09,22.03c20.14,6.9,37.29,14.1,50.98,20.88c13.7,6.78,23.93,13.12,30.83,17.62
						C708.8,987.34,712.39,990.03,712.5,990.28z"/>
				</g>
			</g>
		</g>
	</g>
	<g>
		<g>
			<g>
				<g>
					<path class="st1" d="M222.93,278.33c-4.8-10.22-9.06-19.19-12.19-25.58c-3.13-6.39-5.11-10.2-5.35-10.1
						c-0.01,0.01,0.07,0.21,0.24,0.59c0.17,0.38,0.43,0.96,0.76,1.71c0.68,1.49,1.69,3.69,2.98,6.51
						c2.61,5.62,6.36,13.73,10.97,23.67c2.25,5,4.98,10.32,7.82,16.05c2.85,5.72,5.89,11.81,9.08,18.19
						c1.59,3.19,3.22,6.45,4.88,9.78c0.83,1.66,1.67,3.34,2.52,5.03c0.89,1.67,1.78,3.36,2.68,5.05c3.6,6.79,7.32,13.78,11.1,20.91
						c1.89,3.56,3.8,7.15,5.71,10.77c0.96,1.81,1.92,3.62,2.89,5.43c0.97,1.81,2,3.6,3.01,5.4c4.04,7.2,8.1,14.45,12.15,21.66
						c2.02,3.61,4.04,7.21,6.05,10.79c1,1.79,2,3.58,3,5.36c1.03,1.76,2.07,3.51,3.09,5.26c4.11,6.98,8.16,13.86,12.1,20.54
						c1.97,3.34,3.91,6.64,5.81,9.88c1.92,3.23,3.75,6.44,5.67,9.5c3.79,6.16,7.41,12.06,10.83,17.62
						c6.86,11.1,12.74,20.94,17.72,28.6c44.87,71.2,87.94,133.22,127.91,187.79c40.05,54.53,77.02,101.62,110.56,142.58
						c30.4,37.11,57.97,69.24,82.54,97.36c24.56,28.14,46.34,52.08,65.31,72.73c38.05,41.21,65.14,69.02,84.07,88.01
						c18.95,18.98,29.74,29.15,35.81,34.56c6.08,5.4,7.45,6.01,7.89,5.54c0.13-0.14-1.65-2.08-5.14-5.68
						c-3.5-3.58-8.66-8.86-15.29-15.66c-13.28-13.57-32.43-33.23-55.68-57.81C737.9,1001.25,675.1,932.33,609.6,853.94
						c-38.32-45.88-77.82-95-115.93-145.19c-38.13-50.18-74.85-101.44-108.03-151.21c-3.54-5.33-7.05-10.62-10.55-15.88
						c-1.75-2.63-3.49-5.25-5.22-7.86c-1.69-2.64-3.38-5.27-5.06-7.89c-6.7-10.49-13.31-20.82-19.8-30.98
						c-6.4-10.21-12.51-20.34-18.59-30.21c-3.02-4.94-6.01-9.83-8.97-14.67c-2.86-4.89-5.7-9.72-8.49-14.5
						c-5.59-9.55-11.03-18.87-16.32-27.91c-5.1-9.16-10.05-18.04-14.84-26.63c-2.39-4.3-4.75-8.52-7.06-12.66
						c-1.18-2.06-2.26-4.15-3.34-6.21c-1.09-2.06-2.16-4.1-3.23-6.12c-4.26-8.07-8.35-15.82-12.25-23.22
						c-1.94-3.7-3.88-7.29-5.69-10.83c-1.77-3.56-3.49-7.03-5.17-10.4c-3.35-6.74-6.51-13.1-9.47-19.05
						c-1.48-2.97-2.91-5.84-4.28-8.6c-0.69-1.38-1.36-2.74-2.02-4.06c-0.65-1.33-1.25-2.66-1.85-3.94c-2.4-5.15-4.6-9.86-6.57-14.1
						c-3.97-8.46-7.05-15.03-9.14-19.48c-1.06-2.22-1.87-3.91-2.41-5.05c-0.28-0.56-0.49-0.99-0.63-1.28
						c-0.15-0.28-0.23-0.42-0.24-0.42C203.33,236.07,212.66,255.9,222.93,278.33z"/>
				</g>
			</g>
		</g>
	</g>
	<g>
		<g>
			<g>
				<g>
					<path class="st1" d="M214.99,549.87c0.53-1.51,15.8,9.77,41.97,22.88c12.54,6.42,27.57,13.23,43.92,20.48
						c14.1,6.27,28.97,13.41,44.04,20.94c14.5,7.2,29.03,15.04,42.9,23.41c14.42,8.7,28.34,17.62,40.92,26.72
						c14.56,10.54,27.42,21.11,38.17,30.44c11.08,9.58,19.69,18.06,25.59,24.05c5.81,6.09,8.89,9.71,8.56,10.05
						c-0.34,0.35-3.97-2.72-10.19-8.3c-6.32-5.49-15.24-13.51-26.57-22.62c-10.98-8.87-24.05-18.92-38.63-29.12
						c-12.59-8.81-26.2-17.88-40.52-26.42c-13.77-8.23-28.49-15.36-42.79-22.54c-14.86-7.51-29.89-14.05-43.9-20.54
						c-16.24-7.5-30.89-15.35-43.34-22.27c-12.79-7.03-22.94-13.63-29.76-18.62c-1.7-1.26-3.24-2.34-4.53-3.37
						c-1.28-1.03-2.37-1.92-3.24-2.65C215.84,550.9,214.94,550.05,214.99,549.87z"/>
				</g>
			</g>
		</g>
	</g>
	<g>
		<g>
			<g>
				<g>
					<path class="st1" d="M210.47,525.64c0.16-0.31,1.1,0.13,2.7,1.23c0.8,0.55,1.76,1.27,2.89,2.12c1.18,0.8,2.52,1.74,4.01,2.82
						c0.73,0.55,1.55,1.07,2.41,1.63c0.85,0.56,1.74,1.15,2.67,1.76c1.85,1.23,3.97,2.41,6.16,3.78c4.52,2.53,9.67,5.35,15.54,8.06
						c5.64,2.63,11.85,5.31,18.54,7.98c6.69,2.67,13.83,5.38,21.27,8.27c6.41,2.5,12.99,5.26,19.61,8.34
						c6.61,3.07,13.26,6.4,19.95,9.77c12.87,6.47,25.7,13.51,38.17,20.58c12.93,7.35,25.92,14.31,37.31,22.34
						c6.59,4.63,12.64,9.61,17.97,14.64c5.34,5.02,10.08,10.01,14.39,14.64c17.59,19.12,28.63,31.86,27.94,32.53
						c-0.7,0.68-12.58-11.3-30.87-29.65c-4.46-4.42-9.31-9.15-14.67-13.88c-5.35-4.74-11.27-9.36-17.77-13.76
						c-11.2-7.61-23.86-14.74-36.85-22.02c-12.48-6.99-25.57-13.35-38.24-19.8c-6.59-3.36-13.19-6.52-19.73-9.43
						c-6.53-2.92-13.05-5.56-19.38-8.16c-7.33-3-14.37-6.04-20.98-9.08c-6.61-3.05-12.76-6.12-18.41-9.03
						c-5.79-2.98-10.92-6.05-15.34-8.91c-2.18-1.49-4.21-2.9-6.04-4.26c-1.79-1.42-3.46-2.69-4.89-3.91
						c-1.4-1.27-2.66-2.4-3.75-3.39c-1.08-1-1.9-1.96-2.6-2.69C211.08,526.67,210.39,525.8,210.47,525.64z"/>
				</g>
			</g>
		</g>
	</g>
	<g>
		<g>
			<g>
				<g>
					<path class="st1" d="M369.37,532.71c-0.58,0.38-2.17-2.47-4.46-7.86c-1.15-2.69-2.49-6.01-3.83-9.91
						c-0.67-1.95-1.39-4.04-2.15-6.24c-0.37-1.11-0.75-2.24-1.14-3.4c-0.35-1.17-0.72-2.38-1.09-3.61c-1.39-4.75-3-9.88-4.38-15.4
						c-0.72-2.76-1.45-5.59-2.21-8.49c-0.73-2.91-1.39-5.91-2.1-8.95c-0.59-2.63-1.21-5.3-1.71-8.04c-0.49-2.74-0.98-5.51-1.47-8.31
						c-1.04-5.59-1.78-11.35-2.81-17.11c-0.94-5.55-1.71-11.18-2.58-16.79c-0.7-5.64-1.46-11.27-2.03-16.87
						c-0.29-2.91-0.57-5.81-0.85-8.69c-0.15-1.44-0.29-2.87-0.44-4.3c-0.11-1.43-0.23-2.85-0.34-4.27c-0.22-2.83-0.44-5.64-0.65-8.4
						c-0.23-2.77-0.3-5.51-0.42-8.2c-0.11-3.12-0.25-6.18-0.3-9.18c-0.02-3-0.03-5.92-0.05-8.77c-0.08-5.69,0.14-11.05,0.23-16
						c0.03-1.27,0.06-2.52,0.09-3.73c0.06-1.21,0.11-2.4,0.17-3.55c0.13-2.31,0.25-4.49,0.36-6.54c0.13-2.05,0.22-3.96,0.38-5.72
						c0.18-1.76,0.34-3.38,0.48-4.83c0.63-5.82,1.21-9.09,1.69-9.07c0.48,0.02,0.67,3.33,0.7,9.15c0,1.45-0.01,3.07-0.01,4.82
						c-0.01,1.76,0.04,3.66,0.06,5.7c0.02,2.04,0.04,4.21,0.05,6.5c0.01,1.15,0.02,2.32,0.03,3.53c0.04,1.21,0.07,2.44,0.11,3.7
						c0.17,4.91,0.21,10.22,0.51,15.85c0.12,2.82,0.24,5.71,0.37,8.67c0.18,2.96,0.37,5.99,0.56,9.08c0.18,2.66,0.28,5.38,0.51,8.11
						c0.21,2.74,0.42,5.52,0.63,8.32c0.1,1.4,0.21,2.81,0.31,4.23c0.13,1.41,0.27,2.83,0.41,4.26c0.28,2.85,0.57,5.72,0.85,8.6
						c0.6,5.54,1.56,11.09,2.42,16.64c1.04,5.53,1.97,11.07,2.85,16.57c0.48,2.85,0.96,5.69,1.44,8.51
						c0.25,1.41,0.49,2.81,0.73,4.21c0.27,1.39,0.54,2.78,0.81,4.16c0.54,2.76,1.06,5.49,1.59,8.19c0.51,2.7,1.12,5.34,1.65,7.96
						c1.19,6.07,2.33,11.91,3.42,17.44c1.01,5.55,2.2,10.74,3.34,15.52C366.02,519.74,370.03,532.3,369.37,532.71z"/>
				</g>
			</g>
		</g>
	</g>
	<g>
		<g>
			<g>
				<g>
					<path class="st1" d="M178.1,192.54c1.18-0.77,4.97,4.41,10.44,12.46c1.34,1.92,2.72,4.05,4.3,6.23
						c0.77,1.1,1.56,2.23,2.38,3.39c0.84,1.14,1.7,2.3,2.58,3.49c2.99,4.1,5.91,8.7,9.41,12.99c1.71,2.03,3.48,4.05,5.26,6.07
						c1.84,1.96,3.6,3.98,5.44,5.91c1.91,2,3.81,3.98,5.78,5.8c0.97,0.93,1.93,1.85,2.87,2.76c0.96,0.9,1.9,1.79,2.83,2.66
						c1.07,1.02,2.08,2.06,3.13,3.02c1.03,0.97,2.04,1.93,3.03,2.85c1.93,1.89,3.87,3.55,5.61,5.14
						c7.28,6.4,12.15,10.52,11.59,11.37c-0.5,0.76-6.05-2.43-14.1-8.12c-3.89-2.79-8.33-6.2-12.86-10.2
						c-0.98-0.86-1.98-1.73-2.96-2.65c-0.96-0.93-1.94-1.88-2.93-2.84c-2-1.89-3.9-3.95-5.89-5.97c-1.91-1.94-3.86-3.88-5.88-5.76
						c-1.96-1.94-3.89-3.92-5.63-6.03c-3.54-4.45-7.04-8.79-9.94-13.16c-0.84-1.26-1.63-2.53-2.37-3.78c-0.7-1.28-1.37-2.54-2-3.77
						c-1.31-2.44-2.38-4.82-3.53-6.92C180,198.82,177.58,192.89,178.1,192.54z"/>
				</g>
			</g>
		</g>
	</g>
	<g>
		<g>
			<g>
				<g>
					<path class="st1" d="M178.3,177.81c1.14-0.75,3.47,0.85,6.18,3.68c1.29,1.38,2.78,2.98,4.39,4.7c1.37,1.49,2.44,3.43,3.98,5.03
						c0.75,0.75,1.53,1.49,2.31,2.23c0.8,0.71,1.57,1.46,2.35,2.19c1.61,1.52,3.39,2.78,4.93,4.13c1.75,1.62,3.38,3.14,4.78,4.44
						c2.94,2.62,4.83,4.56,4.36,5.43c-0.45,0.83-2.92-0.13-6.58-1.97c-1.77-0.91-3.78-2.1-5.83-3.55c-1.79-1.23-3.49-2.81-5.26-4.35
						c-1.7-1.48-3.92-2.51-5.48-4.18c-1.6-1.75-3.24-3.41-4.54-5.18c-0.76-1.01-1.31-2.13-1.78-3.21c-0.49-1.07-0.88-2.12-1.37-2.98
						C178.76,180.63,177.75,178.17,178.3,177.81z"/>
				</g>
			</g>
		</g>
	</g>
	<g>
		<g>
			<g>
				<g>
					<path class="st1" d="M179.4,163.87c1.21-0.6,2.55-0.68,3.42-0.33c0.42,0.17,0.8,0.42,1.15,0.72c0.3,0.25,0.1,0.88,0.35,1.22
						c0.25,0.32,0.56,0.59,0.76,0.95c0.21,0.38,0.6,0.58,0.74,0.97c0.16,0.47,0.18,1.04,0.24,1.52c0.12,0.97-0.01,1.96-0.64,2.7
						c-0.62,0.74-1.25,0.59-2.2,0.27c-0.46-0.16-0.93-0.43-1.38-0.78c-0.39-0.3-0.64-0.78-0.98-1.18c-0.32-0.38-1.27-0.31-1.54-0.77
						c-0.27-0.48-0.66-0.86-0.82-1.35c-0.2-0.57,0.32-1.5,0.3-1.98C178.75,164.83,178.8,164.17,179.4,163.87z"/>
				</g>
			</g>
		</g>
	</g>
	<g>
		<g>
			<g>
				<g>
					<path class="st1" d="M310.17,444.89c-0.54,1.28-8.03-1.99-19.18-7.69c-2.68-1.37-5.59-2.86-8.68-4.43
						c-1.54-0.79-3.13-1.6-4.75-2.43c-1.63-0.82-3.3-1.65-5-2.5c-5.85-2.96-11.87-6.53-18.29-9.62c-3.09-1.47-6.24-2.9-9.38-4.35
						c-3.15-1.41-6.31-2.83-9.43-4.23c-6.5-2.9-13.01-5.44-19.06-7.98c-6.99-2.99-13.47-5.77-19.06-8.08
						c-11.51-4.71-19-7.87-18.7-8.83c0.28-0.89,8.13,1.19,20.06,4.95c5.79,1.84,12.5,4.14,19.65,6.88
						c6.19,2.33,12.64,5.17,19.23,8.01c3.17,1.36,6.42,2.64,9.68,3.88c3.24,1.3,6.49,2.59,9.59,4.11
						c6.45,3.18,12.81,6.22,18.61,9.42c1.68,0.92,3.31,1.87,4.88,2.83c1.56,0.98,3.07,1.95,4.54,2.91c2.94,1.89,5.65,3.79,8.24,5.37
						C303.72,439.66,310.41,444.28,310.17,444.89z"/>
				</g>
			</g>
		</g>
	</g>
	<g>
		<g>
			<g>
				<g>
					<path class="st1" d="M577.99,820.39c-0.19,0.3-1.17-0.54-2.7-2.54c-1.52-2-3.56-5.2-5.66-9.58c-2.11-4.38-4.23-9.96-6.24-16.48
						c-0.51-1.63-1-3.32-1.51-5.06c-0.47-1.75-0.94-3.55-1.44-5.4c-0.97-3.71-1.98-7.63-3.05-11.72c-1.08-3.94-1.92-8.1-2.85-12.4
						c-0.92-4.31-1.87-8.76-2.85-13.35c-0.82-4.61-1.66-9.36-2.53-14.22c-0.43-2.43-0.86-4.89-1.3-7.38
						c-0.37-2.5-0.73-5.02-1.11-7.56c-0.64-4.39-1.25-8.86-1.85-13.39c-0.53-4.54-0.97-9.14-1.46-13.79
						c-1.04-9.29-1.68-18.8-2.61-28.38c-0.44-4.6-0.75-9.24-1.13-13.88c-0.35-4.64-0.78-9.29-1.06-13.94
						c-0.6-9.31-1.25-18.61-1.68-27.84c-1.01-19.18-2.04-37.98-2.75-55.65c-0.84-20.46-1.41-39.4-2.25-55.6
						c-0.2-4.17-0.39-8.16-0.57-11.94c-0.21-3.78-0.42-7.36-0.6-10.72c-0.17-3.36-0.33-6.5-0.48-9.4c-0.17-2.9-0.32-5.55-0.47-7.95
						c-0.53-9.59-0.62-15.04-0.14-15.09c0.48-0.05,1.33,5.32,2.51,14.86c0.29,2.39,0.63,5.03,0.94,7.92
						c0.28,2.89,0.59,6.03,0.92,9.38c0.32,3.36,0.66,6.93,1.02,10.71c0.31,3.78,0.63,7.77,0.97,11.93
						c1.35,16.19,2.45,35.1,3.58,55.54c0.96,17.64,1.68,36.42,2.78,55.53c0.48,9.2,1.31,18.45,2.09,27.71
						c0.37,4.63,0.88,9.24,1.28,13.86c0.4,4.61,0.8,9.21,1.19,13.79c0.9,9.51,1.66,18.95,2.8,28.15c0.53,4.61,1.05,9.17,1.57,13.67
						c0.61,4.49,1.2,8.92,1.79,13.28c0.32,2.53,0.64,5.03,0.96,7.51c0.36,2.47,0.72,4.91,1.08,7.33c0.68,4.84,1.34,9.57,1.99,14.16
						c0.78,4.58,1.53,9.02,2.26,13.32c0.76,4.29,1.4,8.46,2.35,12.4c0.9,4.04,1.77,7.91,2.59,11.59c0.41,1.84,0.81,3.63,1.2,5.37
						c0.4,1.74,0.83,3.41,1.23,5.03c1.64,6.47,3.34,12.01,5.02,16.45C575.19,815.49,578.27,820.04,577.99,820.39z"/>
				</g>
			</g>
		</g>
	</g>
	<g>
		<g>
			<g>
				<g>
					<path class="st1" d="M594.24,839.04c-0.3,0.6-4.32-4.14-8.64-14.39c-1.09-2.55-2.12-5.46-3.17-8.66
						c-1.01-3.21-1.99-6.73-2.9-10.54c-1.8-7.61-3.32-16.32-4.76-25.85c-2.88-18.35-5.73-39.87-8.4-63.16
						c-2.28-20.1-3.76-41.59-5.63-63.45c-1.77-21.02-3.45-42.44-4.85-63.49c-1.43-21.88-3.01-43.34-4.14-63.51
						c-1.31-23.36-2.33-44.99-3.3-63.52c-1.09-19.06-1.55-34.81-2.66-45.66c-1.07-10.88-2.58-16.93-2.05-17.08
						c0.4-0.13,2.67,5.79,4.42,16.74c0.88,5.46,1.6,12.15,2.26,19.83c0.63,7.67,1.35,16.34,2.13,25.85
						c1.47,18.48,3.02,40.05,4.62,63.36c1.32,20.13,2.73,41.54,4.17,63.38c1.48,20.99,3.87,42.31,5.56,63.27
						c1.8,21.8,3.88,43.15,5.92,63.19c2.38,23.2,4.09,44.74,6.48,63.1c1.16,9.42,2.34,17.98,3.77,25.46
						c1.43,7.48,3.07,13.89,4.8,19.04C591.27,833.3,594.54,838.68,594.24,839.04z"/>
				</g>
			</g>
		</g>
	</g>
	<g>
		<g>
			<g>
				<g>
					<path class="st1" d="M420.17,858.18c0.13-0.68,3.19,0.03,8.45,1.85c1.31,0.46,2.76,0.98,4.34,1.57c1.58,0.57,3.3,1.2,5.14,1.86
						c1.83,0.69,3.78,1.42,5.85,2.2c1.03,0.4,2.09,0.8,3.17,1.22c1.09,0.4,2.21,0.81,3.35,1.22c4.4,1.6,9.12,3.47,14.22,5.2
						c2.53,0.9,5.14,1.83,7.81,2.78c2.69,0.9,5.44,1.81,8.24,2.75c9.65,3.26,19.88,6.93,30.52,9.97c5.12,1.43,10.33,2.74,15.53,4.1
						c5.23,1.21,10.44,2.54,15.63,3.69c5.41,1.16,10.75,2.39,16.05,3.3c2.64,0.49,5.25,0.98,7.83,1.47
						c2.58,0.49,5.14,0.88,7.65,1.34c2.91,0.51,5.76,1.07,8.55,1.54c2.8,0.46,5.53,0.91,8.19,1.35c5.31,0.95,10.35,1.58,14.99,2.28
						c1.2,0.17,2.36,0.34,3.51,0.51c1.14,0.14,2.26,0.28,3.35,0.42c2.18,0.28,4.23,0.55,6.17,0.8c1.93,0.25,3.74,0.53,5.41,0.73
						c1.67,0.21,3.2,0.41,4.58,0.58c5.52,0.75,8.64,1.4,8.62,1.88c-0.02,0.48-3.18,0.6-8.77,0.5c-1.4-0.03-2.94-0.07-4.63-0.11
						c-1.69-0.05-3.51-0.19-5.47-0.3c-1.95-0.12-4.04-0.25-6.24-0.39c-1.1-0.07-2.23-0.14-3.39-0.22c-1.16-0.1-2.34-0.21-3.55-0.32
						c-4.7-0.45-9.8-0.83-15.18-1.55c-2.69-0.34-5.46-0.68-8.29-1.04c-2.83-0.37-5.71-0.85-8.66-1.29c-2.54-0.4-5.13-0.77-7.73-1.25
						c-2.6-0.49-5.23-0.99-7.89-1.5c-5.33-0.96-10.71-2.23-16.17-3.37c-2.62-0.56-5.26-1.12-7.9-1.69
						c-2.65-0.54-5.31-1.08-7.96-1.62c-5.29-1.19-10.59-2.37-15.75-3.84c-10.72-3.14-21.24-6.24-30.92-9.76
						c-2.8-1.01-5.54-2.04-8.2-3.09c-2.63-1.12-5.2-2.22-7.7-3.29c-5-2.11-9.61-4.35-13.95-6.2c-4.46-1.86-8.44-3.8-11.99-5.42
						c-1.77-0.83-3.43-1.59-4.95-2.32c-1.51-0.76-2.89-1.46-4.14-2.1C422.89,860.09,420.1,858.52,420.17,858.18z"/>
				</g>
			</g>
		</g>
	</g>
	<g>
		<g>
			<g>
				<g>
					<path class="st1" d="M414.55,850.05c0.02-1.41,13.58,1.3,34.3,6.49c9.97,2.54,21.62,5.5,34.2,8.7
						c10.85,2.79,22.26,6.29,34.05,9.28c11.35,2.81,22.91,5.67,34.26,8.47c11.8,2.92,23.45,5.5,34.33,8.15
						c12.59,3.14,24.25,6.05,34.24,8.54c20.57,5.08,33.9,8.62,33.7,9.58c-0.19,0.93-13.75-1.5-34.55-5.56
						c-10.1-1.98-21.87-4.43-34.54-7.25c-10.95-2.41-22.53-5.28-34.35-8.12c-5.69-1.37-11.46-2.59-17.25-3.81
						c-5.77-1.25-11.55-2.49-17.21-3.96c-11.77-3.07-23.35-5.96-34.15-8.99c-12.51-3.47-23.84-7.55-33.7-10.53
						c-10.1-3.06-18.44-5.63-24.24-7.55C417.83,851.61,414.54,850.4,414.55,850.05z"/>
				</g>
			</g>
		</g>
	</g>
	<g>
		<g>
			<g>
				<g>
					<path class="st1" d="M698.55,793.73c0.44-0.52,1.91,0.22,4.16,2.02c1.12,0.9,2.46,2.04,3.8,3.54c0.69,0.74,1.41,1.53,2.16,2.39
						c0.37,0.43,0.76,0.87,1.15,1.32c0.36,0.48,0.73,0.96,1.11,1.46c1.42,1.95,3.07,4.01,4.5,6.38c0.74,1.18,1.5,2.38,2.28,3.62
						c0.76,1.25,1.45,2.58,2.19,3.91c0.62,1.16,1.27,2.33,1.8,3.57c0.53,1.24,1.06,2.51,1.6,3.78c1.11,2.53,1.97,5.22,3.09,7.82
						c1.02,2.53,1.95,5.11,2.93,7.68c0.87,2.6,1.78,5.19,2.54,7.8c1.58,5.42,3.24,10.7,4.33,15.77c1.3,5.87,2.1,11.37,2.81,16.06
						c1.43,9.66,1.78,16.02,0.85,16.21c-0.97,0.19-2.43-5.96-4.86-15.34c-1.2-4.55-2.51-9.87-4.06-15.57
						c-1.3-4.93-2.65-10.18-4.27-15.45c-0.78-2.54-1.86-4.99-2.87-7.47c-1.12-2.43-2.17-4.88-3.12-7.33
						c-0.52-1.27-1.03-2.53-1.54-3.78c-0.26-0.62-0.52-1.24-0.78-1.86c-0.28-0.61-0.56-1.21-0.84-1.81c-0.55-1.2-1.1-2.39-1.65-3.57
						c-0.52-1.19-1.15-2.3-1.68-3.44c-1.23-2.64-2.41-5.19-3.53-7.61c-1.05-2.47-2.29-4.66-3.46-6.67c-0.31-0.51-0.6-1.01-0.9-1.5
						c-0.32-0.47-0.63-0.93-0.93-1.38c-0.6-0.9-1.18-1.75-1.71-2.55c-0.54-0.8-1.02-1.57-1.51-2.24c-0.49-0.67-0.95-1.29-1.35-1.85
						C699.17,795.38,698.33,793.99,698.55,793.73z"/>
				</g>
			</g>
		</g>
	</g>
	<g>
		<g>
			<g>
				<g>
					<path class="st1" d="M710.9,772.77c1.04-0.81,4.31,1.82,7.89,6.97c1.71,2.48,3.56,5.48,5.31,8.86c1.55,2.9,2.48,6.31,3.85,9.58
						c0.67,1.57,1.28,3.18,1.93,4.78c0.6,1.62,1.19,3.24,1.71,4.87c1.05,3.39,2.25,6.67,2.93,9.88c0.2,0.93,0.39,1.84,0.55,2.74
						c0.14,0.9,0.27,1.78,0.4,2.64c0.27,1.71,0.41,3.34,0.58,4.83c0.63,6.16,0.27,10.21-0.66,10.34c-0.99,0.14-1.75-3.71-3.37-9.5
						c-0.41-1.4-0.79-2.93-1.27-4.53c-0.45-1.61-0.93-3.31-1.47-5.06c-0.89-3.03-1.77-6.28-2.86-9.53c-0.54-1.56-1.3-3.06-2.04-4.55
						c-0.79-1.48-1.54-2.96-2.14-4.49c-1.25-3.18-2.69-6.21-3.97-9.09c-1.44-3.35-2.23-6.76-3.47-9.42
						C712.25,776.64,710.34,773.19,710.9,772.77z"/>
				</g>
			</g>
		</g>
	</g>
	<g>
		<g>
			<g>
				<g>
					<path class="st1" d="M715.98,760.32c1.13-0.73,2.75-0.48,4.11,0.61c0.66,0.53,1.31,1.21,1.94,1.99
						c0.55,0.68,0.58,1.73,1.08,2.52c0.48,0.76,1.03,1.5,1.43,2.31c0.42,0.84,1.04,1.53,1.35,2.36c0.35,0.95,0.5,1.95,0.66,2.78
						c0.33,1.71,0.16,3.06-0.67,3.56c-0.83,0.51-1.62-0.24-2.83-1.41c-0.59-0.57-1.19-1.28-1.79-2.08
						c-0.52-0.69-0.89-1.54-1.38-2.33c-0.47-0.76-1.63-1.13-2.05-1.92c-0.44-0.83-1-1.56-1.34-2.36c-0.4-0.92-0.1-2.19-0.33-2.98
						C715.69,761.76,715.42,760.69,715.98,760.32z"/>
				</g>
			</g>
		</g>
	</g>
	<g>
		<g>
			<g>
				<g>
					<path class="st1" d="M711.74,722.13c1.14-0.7,2.94-0.08,4.51,1.64c0.75,0.83,1.51,1.87,2.22,3.05c0.62,1.02,0.67,2.38,1.2,3.54
						c0.51,1.12,1.07,2.24,1.46,3.42c0.4,1.22,1.01,2.33,1.26,3.5c0.29,1.35,0.32,2.67,0.37,3.79c0.1,2.3-0.32,3.9-1.25,4.17
						c-0.94,0.27-1.59-0.99-2.65-2.88c-0.52-0.92-1.03-2.01-1.57-3.19c-0.46-1.02-0.77-2.18-1.23-3.31
						c-0.44-1.09-1.64-1.87-2.05-2.95c-0.44-1.13-1.02-2.17-1.39-3.22c-0.43-1.22-0.15-2.71-0.44-3.73
						C711.57,723.86,711.16,722.48,711.74,722.13z"/>
				</g>
			</g>
		</g>
	</g>
	<g>
		<g>
			<g>
				<g>
					<path class="st1" d="M667.18,611.34c1.09-0.78,5.21,4.26,10.23,12.85c2.41,4.14,5.08,9.04,7.81,14.43
						c2.37,4.64,4.26,9.88,6.63,15.01c2.28,4.93,4.61,9.95,6.72,14.96c2.18,5.21,4.51,10.24,6.34,15.12
						c2.14,5.64,3.83,10.97,5.3,15.53c3.01,9.38,4.39,15.66,3.5,15.99c-0.92,0.34-3.37-5.53-7.32-14.48
						c-1.89-4.36-4.1-9.43-6.49-14.92c-2.04-4.74-4.08-9.85-6.32-14.99c-2.16-4.94-5.13-9.62-7.32-14.54
						c-2.29-5.11-4.71-10.05-6.85-14.74c-2.46-5.45-4.11-10.81-6.05-15.15C669.33,617.5,666.61,611.74,667.18,611.34z"/>
				</g>
			</g>
		</g>
	</g>
	<g>
		<g>
			<g>
				<g>
					<path class="st1" d="M647.89,585.6c0.92-0.98,2.17-1.5,3.18-1.35c0.48,0.07,0.95,0.26,1.41,0.51c0.39,0.22,0.36,0.92,0.7,1.24
						c0.33,0.31,0.72,0.57,0.99,0.94c0.28,0.39,0.73,0.59,0.92,1.01c0.22,0.49,0.28,1.1,0.36,1.6c0.16,1.02-0.04,2-0.72,2.69
						c-0.67,0.7-1.25,0.53-2.14,0.27c-0.43-0.13-0.86-0.35-1.28-0.64c-0.37-0.24-0.61-0.66-0.95-0.98
						c-0.33-0.31-1.21-0.06-1.49-0.42c-0.29-0.37-0.69-0.62-0.92-1.01c-0.26-0.45,0.04-1.44-0.09-1.87
						C647.58,586.7,647.43,586.09,647.89,585.6z"/>
				</g>
			</g>
		</g>
	</g>
	<g>
		<g>
			<g>
				<g>
					<path class="st1" d="M514.37,437.88c1.34-0.11,2.67,1.57,3.38,4.25c0.34,1.29,0.61,2.8,0.82,4.44
						c0.18,1.41-0.27,2.95-0.19,4.49c0.08,1.48,0.23,2.99,0.22,4.47c-0.01,1.54,0.23,3.05,0.13,4.48c-0.12,1.65-0.45,3.2-0.68,4.51
						c-0.49,2.71-1.26,4.5-2.22,4.54c-0.97,0.05-1.34-1.68-1.88-4.35c-0.27-1.29-0.47-2.81-0.64-4.44
						c-0.15-1.41-0.09-2.93-0.16-4.47c-0.07-1.48-0.94-2.95-0.95-4.43c-0.01-1.54-0.18-3.05-0.12-4.47
						c0.07-1.65,0.92-3.21,1.07-4.52C513.45,439.69,513.7,437.93,514.37,437.88z"/>
				</g>
			</g>
		</g>
	</g>
	<g>
		<g>
			<g>
				<g>
					<path class="st1" d="M339.53,284.63c1.34-0.07,2.6,0.25,3.22,0.83c0.3,0.28,0.51,0.61,0.65,0.97c0.13,0.31-0.38,0.67-0.36,1.01
						c0.02,0.33,0.12,0.66,0.06,0.99c-0.07,0.35,0.12,0.67-0.04,1c-0.18,0.37-0.56,0.73-0.85,1.04c-0.59,0.63-1.42,1.05-2.39,1.1
						c-0.97,0.05-1.27-0.33-1.72-0.9c-0.22-0.28-0.37-0.61-0.48-0.97c-0.09-0.31,0.02-0.65,0-0.99c-0.02-0.33-0.83-0.63-0.78-0.96
						c0.05-0.34-0.07-0.68,0.04-1c0.13-0.37,1.03-0.75,1.23-1.05C338.54,285.07,338.85,284.67,339.53,284.63z"/>
				</g>
			</g>
		</g>
	</g>
	<g>
		<g>
			<g>
				<g>
					<path class="st1" d="M237.55,281.02c0.95-0.98,2.94-0.66,5.17,0.4c1.08,0.51,2.26,1.17,3.56,1.83c1.1,0.59,2,1.7,3.23,2.33
						c1.19,0.59,2.44,1.07,3.65,1.62c1.26,0.57,2.59,0.85,3.77,1.34c1.36,0.6,2.62,1.26,3.75,1.77c2.31,1.02,3.9,1.94,3.84,2.93
						c-0.06,0.95-1.81,1.16-4.54,1.12c-1.32-0.03-2.87-0.2-4.5-0.57c-1.42-0.3-2.83-0.92-4.29-1.47c-1.39-0.53-3.12-0.45-4.47-1.19
						c-1.38-0.79-2.79-1.47-3.95-2.39c-1.36-1.04-2.06-2.72-2.93-3.71C238.03,282.98,237.1,281.49,237.55,281.02z"/>
				</g>
			</g>
		</g>
	</g>
	<g>
		<g>
			<g>
				<g>
					<path class="st1" d="M246.84,299.89c0.63-1.18,1.88-1.92,3.17-1.88c0.62,0.02,1.28,0.16,1.95,0.38
						c0.58,0.19,0.89,0.96,1.46,1.27c0.55,0.3,1.15,0.53,1.66,0.91c0.53,0.39,1.17,0.55,1.61,0.99c0.51,0.51,0.88,1.17,1.22,1.7
						c0.69,1.09,0.93,2.19,0.46,3.04c-0.47,0.85-1.25,0.74-2.45,0.56c-0.58-0.09-1.21-0.28-1.86-0.54
						c-0.56-0.22-1.06-0.64-1.63-0.96c-0.55-0.3-1.49,0.09-2.01-0.27c-0.54-0.37-1.14-0.59-1.61-0.99
						c-0.54-0.46-0.65-1.58-1.03-2.04C247.01,301.13,246.52,300.49,246.84,299.89z"/>
				</g>
			</g>
		</g>
	</g>
	<g>
		<g>
			<g>
				<g>
					<path class="st1" d="M256.98,315.85c0.68-1.16,1.69-2.01,2.58-2.16c0.43-0.08,0.86-0.05,1.28,0.05
						c0.36,0.09,0.42,0.73,0.76,0.92c0.32,0.18,0.69,0.31,0.97,0.57c0.29,0.27,0.7,0.32,0.92,0.65c0.25,0.38,0.38,0.92,0.51,1.35
						c0.26,0.88,0.21,1.83-0.29,2.66c-0.5,0.83-1.02,0.85-1.81,0.87c-0.39,0.01-0.78-0.07-1.19-0.2c-0.35-0.11-0.61-0.42-0.94-0.62
						c-0.32-0.19-1.05,0.3-1.34,0.06c-0.3-0.25-0.68-0.36-0.92-0.65c-0.28-0.34-0.14-1.32-0.31-1.68
						C256.85,316.94,256.64,316.44,256.98,315.85z"/>
				</g>
			</g>
		</g>
	</g>
	<g>
		<g>
			<g>
				<g>
					<path class="st1" d="M267.14,333.6c0.77-1.1,2.09-1.69,3.37-1.39c0.61,0.14,1.25,0.43,1.86,0.84c0.54,0.35,0.63,1.19,1.09,1.67
						c0.44,0.47,0.93,0.91,1.28,1.46c0.35,0.57,0.89,1,1.1,1.6c0.25,0.7,0.27,1.47,0.3,2.09c0.06,1.3-0.39,2.31-1.25,2.75
						c-0.87,0.44-1.41-0.01-2.27-0.61c-0.42-0.29-0.82-0.67-1.23-1.09c-0.35-0.36-0.57-0.86-0.91-1.29
						c-0.34-0.41-1.28-0.29-1.58-0.7c-0.32-0.43-0.75-0.74-1.02-1.16c-0.3-0.49-0.1-1.54-0.33-2.01
						C267.09,334.8,266.74,334.15,267.14,333.6z"/>
				</g>
			</g>
		</g>
	</g>
	<g>
		<g>
			<g>
				<g>
					<path class="st1" d="M396.54,553.93c0.99-0.96,6.89,5.52,15.16,16.13c3.99,5.11,8.56,11.14,13.53,17.63
						c4.27,5.61,8.37,11.92,13.02,18.01c4.52,5.81,9.13,11.72,13.66,17.53c4.7,6.05,9.53,11.79,13.89,17.35
						c4.98,6.48,9.6,12.49,13.55,17.63c8.17,10.56,13.29,17.61,12.56,18.26c-0.72,0.63-6.7-5.68-15.68-15.59
						c-4.36-4.82-9.35-10.53-14.61-16.82c-4.56-5.41-9.17-11.36-13.95-17.37c-4.59-5.78-9.83-11.23-14.28-17.13
						c-4.61-6.15-9.22-12.1-13.32-17.88c-4.76-6.67-8.44-13.37-12.03-18.78C400.68,561.77,396.06,554.4,396.54,553.93z"/>
				</g>
			</g>
		</g>
	</g>
	<g>
		<g>
			<g>
				<g>
					<path class="st1" d="M487.91,683.44c0.77-1.1,2.86-1.1,5.31,0c1.18,0.53,2.48,1.25,3.83,2.1c1.17,0.73,2.03,2.02,3.23,2.91
						c1.15,0.85,2.37,1.66,3.47,2.58c1.14,0.96,2.42,1.7,3.42,2.65c1.16,1.11,2.1,2.31,2.93,3.3c1.71,2.05,2.56,3.74,1.98,4.51
						c-0.58,0.78-2.1,0-4.43-1.21c-1.13-0.59-2.39-1.36-3.72-2.23c-1.15-0.76-2.24-1.73-3.43-2.62c-1.15-0.85-2.79-1.09-3.9-1.99
						c-1.16-0.94-2.38-1.73-3.41-2.65c-1.19-1.07-1.81-2.68-2.7-3.61C488.68,685.26,487.53,683.99,487.91,683.44z"/>
				</g>
			</g>
		</g>
	</g>
	<g>
		<g>
			<g>
				<g>
					<path class="st1" d="M505.63,706.91c1.13-0.74,2.42-1.02,3.27-0.9c0.42,0.07,0.79,0.21,1.14,0.39c0.3,0.16,0.18,0.77,0.46,1.02
						c0.27,0.23,0.59,0.39,0.82,0.67c0.24,0.29,0.63,0.36,0.83,0.68c0.22,0.38,0.35,0.91,0.5,1.33c0.31,0.87,0.43,1.84,0.05,2.73
						c-0.38,0.89-1,0.94-1.98,0.9c-0.47-0.02-0.99-0.16-1.5-0.38c-0.45-0.19-0.79-0.59-1.21-0.9c-0.39-0.29-1.3-0.02-1.65-0.41
						c-0.36-0.41-0.81-0.71-1.06-1.16c-0.3-0.52,0.07-1.52-0.02-1.99C505.08,707.92,505.07,707.28,505.63,706.91z"/>
				</g>
			</g>
		</g>
	</g>
	<g>
		<g>
			<g>
				<g>
					<path class="st1" d="M387.22,540.3c1.34-0.07,2.59-0.03,3.19,0.09c0.29,0.06,0.49,0.13,0.62,0.22c0.12,0.07-0.4,0.18-0.39,0.27
						c0.01,0.08,0.1,0.16,0.02,0.25c-0.08,0.09,0.09,0.17-0.07,0.25c-0.19,0.1-0.59,0.2-0.88,0.29c-0.61,0.18-1.46,0.32-2.42,0.36
						c-0.97,0.05-1.26-0.04-1.68-0.17c-0.21-0.06-0.35-0.14-0.44-0.23c-0.08-0.08,0.04-0.17,0.04-0.25
						c-0.01-0.08-0.8-0.13-0.75-0.21c0.06-0.09-0.04-0.17,0.08-0.25c0.14-0.1,1.06-0.23,1.27-0.31
						C386.23,540.45,386.55,540.34,387.22,540.3z"/>
				</g>
			</g>
		</g>
	</g>
	<g>
		<g>
			<g>
				<g>
					<path class="st1" d="M559.68,855.55c0.68-1.17,4.45-0.07,9.56,2.62c2.47,1.29,5.28,2.91,8.3,4.68c2.6,1.53,5.04,3.68,7.83,5.4
						c2.68,1.65,5.47,3.24,8.14,4.92c2.77,1.74,5.63,3.22,8.17,4.87c2.93,1.91,5.57,3.84,7.85,5.45c4.7,3.3,7.6,5.78,7.14,6.64
						c-0.45,0.85-3.89-0.63-9.13-3.04c-2.54-1.17-5.46-2.64-8.56-4.32c-2.68-1.44-5.41-3.19-8.25-4.87
						c-2.73-1.62-5.91-2.62-8.58-4.34c-2.78-1.79-5.58-3.43-8.07-5.18c-2.9-2.02-5.12-4.58-7.32-6.3
						C562.22,858.52,559.34,856.13,559.68,855.55z"/>
				</g>
			</g>
		</g>
	</g>
	<g>
		<g>
			<g>
				<g>
					<path class="st1" d="M564,848.43c0.73-1.13,2.29-1.58,3.97-1.15c0.81,0.2,1.68,0.55,2.57,1c0.77,0.38,1.23,1.33,2,1.84
						c0.74,0.49,1.54,0.93,2.23,1.5c0.72,0.59,1.57,0.96,2.18,1.57c0.71,0.72,1.24,1.56,1.73,2.25c0.99,1.42,1.38,2.7,0.84,3.51
						c-0.54,0.8-1.57,0.45-3.14-0.1c-0.76-0.27-1.6-0.67-2.47-1.14c-0.75-0.41-1.43-1.03-2.2-1.54c-0.74-0.49-1.93-0.34-2.64-0.89
						c-0.73-0.57-1.54-1-2.17-1.58c-0.74-0.67-0.98-1.95-1.51-2.56C564.32,849.85,563.63,848.99,564,848.43z"/>
				</g>
			</g>
		</g>
	</g>
	<g>
		<g>
			<g>
				<g>
					<path class="st1" d="M562.16,843.38c-0.08-1.34,0.2-2.61,0.87-3.16c0.31-0.26,0.69-0.42,1.09-0.49
						c0.36-0.06,0.6,0.53,0.93,0.61c0.33,0.08,0.69,0.11,0.98,0.31c0.3,0.21,0.69,0.19,0.9,0.49c0.25,0.35,0.34,0.87,0.41,1.27
						c0.14,0.84-0.17,1.7-0.79,2.43c-0.62,0.75-0.97,0.82-1.45,1.01c-0.23,0.09-0.43,0.13-0.62,0.14c-0.16,0-0.25-0.17-0.4-0.23
						c-0.16-0.06-0.54,0.66-0.64,0.57c-0.12-0.1-0.27-0.03-0.37-0.17c-0.11-0.17-0.17-1.1-0.32-1.33
						C562.46,844.37,562.2,844.05,562.16,843.38z"/>
				</g>
			</g>
		</g>
	</g>
	<g>
		<g>
			<g>
				<g>
					<path class="st1" d="M313.01,708.46c1.04-0.9,6.05,4.8,12.79,14.22c3.21,4.55,6.97,9.86,11.02,15.61
						c3.47,4.95,6.77,10.5,10.67,15.78c1.88,2.53,3.85,5.02,5.78,7.55c1.99,2.47,3.98,4.94,5.96,7.4c2.1,2.5,4.16,5.01,6.33,7.32
						c1.06,1.17,2.12,2.34,3.16,3.49c1.03,1.15,2.11,2.24,3.12,3.35c1.19,1.27,2.31,2.57,3.46,3.78c1.15,1.21,2.28,2.39,3.38,3.54
						c2.15,2.36,4.35,4.38,6.31,6.35c0.51,0.5,1.01,0.99,1.49,1.47c0.5,0.46,0.99,0.91,1.47,1.35c0.95,0.88,1.85,1.72,2.69,2.51
						c1.65,1.62,3.16,2.94,4.37,4.08c2.41,2.28,3.66,3.76,3.38,4.15c-0.28,0.4-1.97-0.45-4.8-2.23c-1.42-0.88-3.13-1.99-4.99-3.41
						c-0.94-0.7-1.94-1.44-3-2.23c-0.53-0.4-1.07-0.8-1.63-1.22c-0.54-0.44-1.09-0.89-1.65-1.35c-2.16-1.81-4.59-3.69-6.95-5.92
						c-1.19-1.1-2.42-2.23-3.68-3.38c-1.25-1.17-2.46-2.43-3.72-3.68c-1.08-1.1-2.2-2.19-3.26-3.36c-1.06-1.18-2.13-2.37-3.21-3.57
						c-2.19-2.38-4.24-4.96-6.42-7.48c-2.07-2.44-4.2-4.87-6.39-7.26c-2.11-2.45-4.24-4.89-6.12-7.48
						c-3.89-5.39-7.75-10.65-11.06-15.79c-3.88-5.93-6.65-11.92-9.5-16.74C316.18,715.42,312.5,708.9,313.01,708.46z"/>
				</g>
			</g>
		</g>
	</g>
	<g>
		<g>
			<g>
				<g>
					<path class="st1" d="M231.12,526.63c0.73-1.13,3.35-0.79,6.65,0.74c1.59,0.74,3.38,1.7,5.29,2.77c1.64,0.93,3.06,2.44,4.81,3.5
						c1.68,1.02,3.44,1.98,5.1,3.04c1.73,1.1,3.55,1.95,5.12,3.01c1.81,1.24,3.41,2.54,4.81,3.62c2.88,2.21,4.6,4,4.16,4.87
						c-0.43,0.86-2.67,0.08-6.07-1.23c-1.65-0.64-3.54-1.49-5.52-2.5c-1.72-0.86-3.43-1.99-5.24-3.03
						c-1.73-1.01-3.89-1.38-5.58-2.48c-1.75-1.15-3.54-2.16-5.09-3.31c-1.8-1.33-3-3.24-4.34-4.41
						C232.48,528.84,230.76,527.2,231.12,526.63z"/>
				</g>
			</g>
		</g>
	</g>
	<g>
		<g>
			<g>
				<g>
					<path class="st1" d="M222.12,387.92c0.33-1.3,1.22-2.36,2.35-2.6c0.54-0.11,1.14-0.1,1.75,0.02c0.54,0.1,0.82,0.82,1.32,1.06
						c0.49,0.24,1.01,0.44,1.44,0.79c0.44,0.36,1,0.52,1.32,0.97c0.38,0.51,0.57,1.16,0.74,1.68c0.34,1.08,0.16,2.1-0.51,2.8
						c-0.67,0.7-1.24,0.54-2.1,0.39c-0.42-0.08-0.83-0.23-1.26-0.41c-0.36-0.16-0.65-0.5-1.02-0.72c-0.36-0.21-1.11,0.28-1.43,0.05
						c-0.34-0.24-0.75-0.33-1.05-0.59c-0.34-0.31-0.41-1.32-0.71-1.65C222.39,389.02,221.96,388.58,222.12,387.92z"/>
				</g>
			</g>
		</g>
	</g>
	<g>
		<g>
			<g>
				<g>
					<path class="st1" d="M717.13,872.94c1.03-0.84,3.86,0.92,6.98,4.63c1.49,1.79,3.11,3.98,4.7,6.44
						c1.39,2.12,2.25,4.73,3.55,7.13c1.25,2.32,2.53,4.68,3.61,7.09c1.1,2.51,2.38,4.88,3.21,7.28c0.98,2.76,1.59,5.43,2.13,7.69
						c1.09,4.67,1.21,7.85,0.3,8.14c-0.94,0.31-2.12-2.49-4.14-6.68c-0.96-2.04-2.08-4.42-3.28-6.99c-1.03-2.22-1.99-4.64-3.14-7.04
						c-1.11-2.3-2.99-4.26-4.14-6.53c-1.2-2.36-2.54-4.58-3.69-6.74c-1.3-2.51-1.92-5.21-2.96-7.23
						C718.11,876.02,716.59,873.37,717.13,872.94z"/>
				</g>
			</g>
		</g>
	</g>
	<g>
		<g>
			<g>
				<g>
					<path class="st1" d="M731.19,926.23c1.29-0.38,2.7,0.05,3.6,1.08c0.43,0.49,0.8,1.11,1.13,1.8c0.28,0.59-0.04,1.39,0.15,2.07
						c0.19,0.65,0.45,1.29,0.55,1.96c0.11,0.7,0.45,1.31,0.46,1.98c0.01,0.77-0.19,1.55-0.32,2.2c-0.27,1.34-0.88,2.33-1.81,2.59
						c-0.94,0.26-1.42-0.43-2.15-1.49c-0.35-0.52-0.67-1.14-0.96-1.84c-0.25-0.6-0.3-1.29-0.49-1.97c-0.18-0.65-1.13-1.1-1.25-1.76
						c-0.13-0.69-0.4-1.33-0.45-1.98c-0.06-0.76,0.65-1.67,0.7-2.3C730.44,927.27,730.55,926.42,731.19,926.23z"/>
				</g>
			</g>
		</g>
	</g>
	<g>
		<g>
			<g>
				<g>
					<path class="st1" d="M397.96,664.57c0.51-1.23,2.88-1.53,5.96-0.58c1.48,0.46,3.15,1.15,4.88,2.02
						c1.5,0.74,2.74,2.13,4.25,3.11c1.46,0.94,2.97,1.88,4.33,2.96c1.41,1.13,2.93,2.06,4.12,3.24c1.39,1.35,2.49,2.81,3.43,4.04
						c1.93,2.53,2.76,4.55,2.09,5.24c-0.68,0.7-2.28-0.48-4.8-2.15c-1.23-0.81-2.6-1.81-4.1-2.87c-1.28-0.93-2.54-2.04-3.93-3.05
						c-1.35-0.96-3.17-1.26-4.51-2.2c-1.4-0.98-2.86-1.79-4.16-2.68c-1.49-1.05-2.53-2.67-3.72-3.54
						C399.35,666.32,397.69,665.2,397.96,664.57z"/>
				</g>
			</g>
		</g>
	</g>
	<g>
		<g>
			<g>
				<g>
					<path class="st1" d="M324.43,465.3c-0.5,1.31-8.42-2-20.26-7.7c-2.85-1.37-5.95-2.86-9.23-4.43c-1.64-0.79-3.32-1.6-5.05-2.43
						c-1.73-0.81-3.51-1.64-5.31-2.49c-6.22-2.94-12.66-6.49-19.49-9.54c-3.29-1.45-6.64-2.85-9.97-4.28
						c-3.35-1.39-6.71-2.77-10.03-4.14c-6.92-2.84-13.83-5.31-20.27-7.76c-7.44-2.9-14.34-5.58-20.29-7.8
						c-12.25-4.52-20.24-7.53-19.97-8.5c0.25-0.9,8.56,1.02,21.2,4.58c6.14,1.75,13.25,3.94,20.85,6.59
						c6.58,2.24,13.44,5.01,20.44,7.79c3.37,1.33,6.81,2.58,10.28,3.79c3.44,1.27,6.88,2.54,10.19,4.04
						c6.86,3.14,13.63,6.15,19.82,9.34c1.79,0.92,3.53,1.86,5.21,2.82c1.67,0.98,3.29,1.95,4.85,2.91c3.15,1.89,6.05,3.79,8.82,5.38
						C317.51,460.02,324.65,464.69,324.43,465.3z"/>
				</g>
			</g>
		</g>
	</g>
	<g>
		<g>
			<g>
				<g>
					<path class="st1" d="M335.61,475.75c-0.61,0.34-2-2.59-3.92-8.08c-0.97-2.75-2.08-6.13-3.13-10.1c-0.53-1.98-1.1-4.1-1.69-6.34
						c-0.29-1.12-0.58-2.28-0.89-3.46c-0.27-1.19-0.54-2.41-0.82-3.66c-1.03-4.81-2.26-10.02-3.2-15.61
						c-0.5-2.79-1.01-5.66-1.53-8.6c-0.49-2.94-0.9-5.97-1.36-9.05c-0.37-2.66-0.78-5.36-1.04-8.11c-0.25-2.75-0.5-5.54-0.76-8.36
						c-0.12-1.41-0.25-2.82-0.37-4.25c-0.09-1.42-0.19-2.85-0.28-4.29c-0.19-2.87-0.39-5.76-0.63-8.66
						c-0.43-5.58-0.67-11.23-1.02-16.87c-0.15-5.65-0.38-11.3-0.39-16.9c0.01-2.91,0.01-5.81,0.02-8.68c0-1.44,0-2.87,0-4.3
						c0.03-1.43,0.07-2.85,0.1-4.26c0.07-2.83,0.14-5.62,0.22-8.38c0.06-2.76,0.29-5.48,0.45-8.16c0.22-3.1,0.41-6.14,0.68-9.11
						c0.31-2.96,0.62-5.86,0.91-8.67c0.54-5.63,1.38-10.91,2.03-15.78c0.17-1.25,0.34-2.48,0.51-3.68c0.2-1.19,0.39-2.36,0.58-3.49
						c0.4-2.26,0.77-4.41,1.12-6.42c0.37-2.01,0.68-3.88,1.05-5.6c0.39-1.72,0.74-3.29,1.06-4.71c1.33-5.67,2.29-8.82,2.77-8.74
						c0.48,0.08,0.27,3.37-0.41,9.11c-0.18,1.43-0.38,3.02-0.59,4.76c-0.22,1.73-0.39,3.62-0.61,5.63
						c-0.22,2.01-0.46,4.16-0.71,6.42c-0.12,1.13-0.25,2.3-0.38,3.49c-0.1,1.19-0.2,2.42-0.31,3.67
						c-0.38,4.86-0.97,10.11-1.27,15.71c-0.19,2.79-0.38,5.66-0.58,8.61c-0.17,2.94-0.27,5.96-0.42,9.03
						c-0.1,2.65-0.3,5.34-0.35,8.07c-0.08,2.73-0.15,5.49-0.23,8.29c-0.04,1.4-0.08,2.8-0.13,4.21c-0.03,1.41-0.02,2.83-0.02,4.25
						c0,2.84-0.01,5.71-0.01,8.59c0.04,5.54,0.48,11.12,0.8,16.69c0.52,5.57,0.93,11.13,1.3,16.65c0.22,2.87,0.45,5.72,0.67,8.55
						c0.12,1.42,0.24,2.83,0.35,4.23c0.15,1.4,0.3,2.79,0.45,4.18c0.3,2.78,0.59,5.52,0.88,8.24c0.26,2.72,0.67,5.38,0.98,8.01
						c0.38,3.04,0.67,6.04,1,8.97c0.34,2.93,0.68,5.78,1,8.56c0.56,5.58,1.37,10.8,2.15,15.62c0.21,1.23,0.41,2.44,0.6,3.62
						c0.22,1.17,0.44,2.32,0.66,3.43c0.43,2.23,0.84,4.35,1.22,6.33c0.39,1.98,0.72,3.85,1.07,5.56c0.36,1.71,0.69,3.28,0.99,4.7
						C335.37,472.29,335.92,475.58,335.61,475.75z"/>
				</g>
			</g>
		</g>
	</g>
	<g>
		<g>
			<g>
				<g>
					<path class="st1" d="M587.28,921.32c0.12-1.35,3.33-2.1,8.1-2.05c2.3,0.02,4.96,0.17,7.83,0.37c2.47,0.18,5.04,0.98,7.72,1.25
						c2.58,0.25,5.21,0.41,7.78,0.71c2.68,0.31,5.32,0.34,7.79,0.67c2.85,0.4,5.49,0.94,7.75,1.36c4.66,0.85,7.69,1.79,7.66,2.76
						c-0.03,0.96-3.11,1.16-7.86,1.34c-2.31,0.09-5,0.07-7.9-0.03c-2.51-0.09-5.16-0.42-7.87-0.64c-2.6-0.22-5.33,0.33-7.94,0.01
						c-2.7-0.34-5.37-0.53-7.85-0.95c-2.87-0.48-5.42-1.74-7.67-2.26C590.21,922.79,587.22,921.99,587.28,921.32z"/>
				</g>
			</g>
		</g>
	</g>
	<g>
		<g>
			<g>
				<g>
					<path class="st1" d="M405.13,816.81c0.96-0.93,2.57-1.04,4.08-0.22c0.72,0.39,1.46,0.95,2.19,1.62
						c0.63,0.58,0.79,1.61,1.37,2.32c0.55,0.68,1.16,1.35,1.63,2.1c0.48,0.78,1.15,1.41,1.5,2.2c0.41,0.91,0.59,1.88,0.76,2.68
						c0.37,1.66,0.18,2.97-0.63,3.48c-0.82,0.52-1.59-0.17-2.78-1.19c-0.58-0.5-1.17-1.12-1.78-1.82c-0.52-0.6-0.92-1.36-1.44-2.06
						c-0.5-0.67-1.65-0.85-2.11-1.53c-0.49-0.71-1.09-1.31-1.5-1.99c-0.47-0.8-0.33-2.04-0.66-2.74
						C405.08,818.23,404.64,817.28,405.13,816.81z"/>
				</g>
			</g>
		</g>
	</g>
</g>
</svg>
