<?xml version="1.0" encoding="utf-8"?>
<!-- Generator: Adobe Illustrator 28.0.0, SVG Export Plug-In . SVG Version: 6.00 Build 0)  -->
<svg version="1.1" id="Capa_1" xmlns="http://www.w3.org/2000/svg" xmlns:xlink="http://www.w3.org/1999/xlink" x="0px" y="0px"
	 viewBox="0 0 1053 1135" style="enable-background:new 0 0 1053 1135;" xml:space="preserve">
<style type="text/css">
	.st0{opacity:0.08;}
	.st1{fill:#63301B;}
</style>
<g class="st0">
	<g>
		<g>
			<g>
				<g>
					<path class="st1" d="M655.71,691.37c0.9,2.03,1.77,3.99,2.61,5.88c0.82,1.89,1.55,3.74,2.28,5.47
						c1.44,3.47,2.74,6.56,3.84,9.12c2.21,5.13,3.65,8.19,3.89,8.1c0.01,0-0.04-0.17-0.15-0.48c-0.12-0.31-0.29-0.77-0.52-1.37
						c-0.47-1.2-1.16-2.97-2.05-5.23c-0.9-2.26-2-5.03-3.27-8.22c-1.29-3.19-2.67-6.85-4.44-10.77c-1.72-3.94-3.61-8.25-5.62-12.85
						c-1.01-2.3-2.05-4.68-3.12-7.12c-0.54-1.22-1.06-2.46-1.64-3.7c-0.59-1.24-1.18-2.49-1.78-3.75
						c-2.4-5.06-4.92-10.35-7.51-15.81c-0.65-1.36-1.3-2.74-1.96-4.12c-0.65-1.39-1.32-2.77-2.04-4.15
						c-1.42-2.76-2.85-5.55-4.29-8.37c-2.91-5.62-5.78-11.4-8.84-17.12c-3.13-5.68-6.28-11.4-9.42-17.09
						c-0.78-1.42-1.57-2.84-2.35-4.26c-0.77-1.42-1.56-2.83-2.4-4.21c-1.64-2.78-3.27-5.54-4.89-8.28
						c-3.26-5.47-6.38-10.9-9.57-16.1c-3.25-5.15-6.41-10.16-9.44-14.97c-1.51-2.4-3-4.75-4.44-7.05c-1.47-2.28-2.97-4.45-4.39-6.58
						c-2.86-4.26-5.54-8.25-8-11.93c-1.23-1.84-2.41-3.6-3.53-5.27c-1.13-1.66-2.26-3.2-3.3-4.67
						c-18.77-27.21-38.18-51.87-57.44-74.51c-2.41-2.83-4.8-5.64-7.17-8.44c-1.17-1.41-2.39-2.77-3.62-4.11
						c-1.22-1.35-2.44-2.7-3.65-4.04c-2.42-2.68-4.83-5.35-7.22-8c-1.19-1.32-2.39-2.64-3.57-3.96c-1.18-1.32-2.36-2.63-3.59-3.89
						c-4.87-5.08-9.67-10.08-14.4-15.02c-1.19-1.23-2.37-2.46-3.54-3.68c-1.21-1.19-2.42-2.37-3.62-3.55
						c-2.41-2.36-4.79-4.71-7.17-7.03c-2.37-2.33-4.73-4.64-7.06-6.93c-1.16-1.16-2.35-2.27-3.55-3.37c-1.19-1.1-2.39-2.2-3.57-3.3
						c-4.75-4.38-9.42-8.69-14.03-12.94c-4.73-4.11-9.4-8.16-13.99-12.15c-2.3-1.99-4.58-3.97-6.85-5.93
						c-2.32-1.89-4.63-3.77-6.92-5.63c-4.59-3.72-9.1-7.38-13.55-10.99c-4.51-3.52-9.04-6.88-13.45-10.25
						c-8.76-6.82-17.64-12.88-26.14-18.9c-31.05-21.45-59.9-38.21-86-51.7c-3.26-1.69-6.47-3.36-9.62-5
						c-3.18-1.59-6.35-3.04-9.44-4.53c-3.1-1.47-6.15-2.92-9.14-4.35c-3-1.41-5.91-2.87-8.87-4.1c-5.87-2.54-11.54-4.99-17-7.36
						c-1.37-0.59-2.72-1.18-4.06-1.76c-1.36-0.53-2.71-1.06-4.04-1.58c-2.67-1.04-5.29-2.07-7.86-3.07
						c-41.15-16.05-70.87-23.6-91.35-28.54c-5.16-1.12-9.74-2.11-13.8-2.99c-2.03-0.43-3.94-0.84-5.73-1.22
						c-1.79-0.38-3.48-0.61-5.04-0.89c-6.27-1.04-10.73-1.72-13.9-2.12c-6.34-0.81-7.5-0.54-7.61,0.1
						c-0.03,0.19,1.97,0.74,5.81,1.62c3.83,0.88,9.5,2.09,16.79,3.59c0.91,0.19,1.85,0.36,2.81,0.59c0.95,0.23,1.93,0.47,2.94,0.72
						c2.01,0.49,4.11,1,6.31,1.53c4.4,1.05,9.18,2.2,14.31,3.43c5.1,1.35,10.52,2.91,16.28,4.49c2.88,0.79,5.84,1.61,8.88,2.45
						c3.01,0.95,6.09,1.92,9.25,2.91c3.16,1,6.39,2.02,9.7,3.06c1.65,0.52,3.32,1.05,5.01,1.58c1.69,0.52,3.36,1.17,5.07,1.76
						c6.8,2.44,13.9,4.9,21.2,7.56c7.23,2.86,14.7,5.81,22.39,8.85c7.58,3.3,15.38,6.69,23.37,10.17
						c7.9,3.68,15.93,7.59,24.16,11.49c8.1,4.18,16.35,8.46,24.71,12.87c4.12,2.32,8.27,4.67,12.46,7.03
						c2.09,1.18,4.19,2.36,6.3,3.55c1.05,0.59,2.11,1.19,3.17,1.79c1.04,0.63,2.08,1.26,3.12,1.89c4.17,2.53,8.36,5.09,12.58,7.66
						c2.11,1.28,4.23,2.57,6.35,3.86c2.11,1.31,4.17,2.71,6.27,4.07c4.9,3.2,9.83,6.42,14.79,9.66l1.86,1.21l1.83,1.27
						c1.22,0.85,2.44,1.7,3.66,2.56c2.44,1.71,4.89,3.42,7.35,5.14c2.46,1.72,4.92,3.43,7.38,5.16l1.85,1.29l1.81,1.35l3.63,2.71
						c4.85,3.62,9.71,7.25,14.59,10.89c4.83,3.7,9.56,7.58,14.37,11.37c2.4,1.91,4.8,3.82,7.2,5.73c2.39,1.92,4.7,3.96,7.06,5.93
						c4.69,3.98,9.39,7.96,14.1,11.95c4.58,4.13,9.17,8.26,13.76,12.39l6.87,6.2l6.68,6.4c4.45,4.27,8.9,8.54,13.34,12.81
						c4.31,4.4,8.6,8.79,12.89,13.17c2.14,2.19,4.29,4.38,6.42,6.57c2.07,2.25,4.14,4.5,6.2,6.74c4.13,4.49,8.24,8.96,12.34,13.42
						c3.96,4.58,7.91,9.14,11.83,13.68c1.96,2.27,3.92,4.54,5.87,6.8c1.93,2.27,3.77,4.62,5.65,6.91c3.74,4.61,7.45,9.2,11.15,13.75
						c24.9,31.46,46.47,63.06,64.53,92.71c18.08,29.65,32.63,57.35,44.23,80.88c2.8,5.93,5.47,11.58,7.99,16.93
						c1.25,2.68,2.52,5.25,3.65,7.8c1.11,2.55,2.19,5.02,3.23,7.41c2.09,4.77,4.03,9.22,5.81,13.31c0.88,2.05,1.77,3.99,2.54,5.87
						c0.76,1.89,1.48,3.68,2.17,5.38c2.76,6.8,4.9,12.07,6.35,15.65c0.74,1.78,1.31,3.14,1.69,4.05c0.2,0.45,0.35,0.8,0.45,1.03
						c0.11,0.23,0.17,0.34,0.18,0.34c0.57-0.21-0.77-4.3-3.14-10.59c-1.18-3.15-2.62-6.84-4.21-10.88c-0.8-2.02-1.62-4.12-2.48-6.28
						C657.61,695.79,656.66,693.6,655.71,691.37z"/>
				</g>
			</g>
		</g>
	</g>
	<g>
		<g>
			<g>
				<g>
					<path class="st1" d="M353.98,325.35c0.35,0.16-0.72,1.34-3.07,3.41c-1.18,1.03-2.66,2.31-4.47,3.76
						c-1.82,1.43-3.94,3.07-6.34,4.89c-4.82,3.61-10.82,7.9-17.8,12.75c-6.97,4.86-14.94,10.28-23.53,16.37
						c-8.26,5.89-17.14,12.36-26.1,19.73c-8.92,7.4-17.94,15.7-26.16,25.26c-0.89,1.02-1.79,2.05-2.69,3.09
						c-0.83,1.08-1.67,2.17-2.51,3.26c-1.66,2.19-3.46,4.32-4.93,6.68c-0.78,1.16-1.55,2.32-2.33,3.48
						c-0.78,1.17-1.59,2.31-2.3,3.56c-1.47,2.46-2.94,4.93-4.42,7.42c-5.79,10.03-11.13,20.61-15.79,31.6
						c-8.95,21.13-15.74,43.65-19.59,66.26c-2.04,11.74-3.23,23.51-3.65,35.07c-0.46,11.56,0.04,22.9,0.95,33.85
						c1.07,12.69,2.87,24.85,5.03,36.29c2.18,11.44,4.79,22.13,7.38,31.95c5.42,20.19,10.8,36.64,14.41,48.14
						c3.64,11.5,5.59,18.04,5.12,18.21c-0.44,0.16-3.11-6.12-7.37-17.41c-4.24-11.3-10.14-27.6-16.1-47.79
						c-2.85-9.82-5.74-20.53-8.17-32.05c-2.42-11.52-4.46-23.82-5.7-36.72c-1.07-11.13-1.56-22.7-1.07-34.49
						c0.45-11.79,1.71-23.77,3.73-35.74c3.81-23.02,10.03-46.17,19.19-67.7c4.77-11.18,10.05-22.01,15.85-32.29
						c1.45-2.57,2.96-5.09,4.43-7.61c0.37-0.63,0.73-1.26,1.12-1.88l1.22-1.85c0.81-1.23,1.62-2.45,2.43-3.67l1.21-1.83l0.6-0.91
						l0.66-0.86c0.89-1.15,1.77-2.29,2.65-3.43c0.88-1.14,1.76-2.27,2.64-3.4c0.9-1.11,1.87-2.14,2.8-3.21
						c8.62-9.86,18.11-18.13,27.41-25.38c9.36-7.19,18.53-13.42,26.99-19.15c17.41-11.63,32.07-20.7,42.15-27.33
						c5.03-3.32,8.99-5.94,11.7-7.73C352.28,326.19,353.81,325.27,353.98,325.35z"/>
				</g>
			</g>
		</g>
	</g>
	<g>
		<g>
			<g>
				<g>
					<path class="st1" d="M228.19,780.62c-0.6,0.39-2.22-4.08-4.44-12.37c-2.2-8.29-5.04-20.39-7.41-35.35
						c-1.14-7.2-2.14-15.07-2.8-23.47c-0.68-8.4-0.98-17.33-0.64-26.63c0.58-16.03,3.84-33.14,10.23-49.48
						c3.09-7.84,7.03-15.46,11.66-22.58c4.62-7.13,9.89-13.79,15.47-20c11.63-12.9,24.1-24.29,35.42-35.17
						c6.57-6.28,12.69-12.49,18.11-18.69c5.42-6.2,10.2-12.34,14.12-18.32c4.06-6.14,7.26-12.06,9.76-17.45
						c0.61-1.36,1.19-2.67,1.76-3.93c0.5-1.29,0.98-2.54,1.44-3.74c0.23-0.6,0.46-1.19,0.68-1.76c0.2-0.58,0.38-1.16,0.56-1.71
						c0.37-1.12,0.71-2.18,1.04-3.2c1.19-4.08,2.06-7.32,2.54-9.55c0.54-2.22,0.94-3.41,1.18-3.38c0.24,0.03,0.27,1.25,0.12,3.57
						c-0.09,2.32-0.62,5.69-1.52,9.95c-0.26,1.06-0.54,2.17-0.83,3.34c-0.15,0.58-0.29,1.19-0.46,1.79
						c-0.19,0.6-0.39,1.22-0.59,1.84c-0.41,1.25-0.83,2.56-1.27,3.92c-0.52,1.33-1.05,2.71-1.61,4.13
						c-2.31,5.66-5.37,11.89-9.32,18.35c-3.82,6.29-8.5,12.74-13.86,19.23c-5.36,6.49-11.45,12.97-17.99,19.43
						c-11.24,11.15-23.81,22.25-35.1,34.87c-5.4,6.08-10.35,12.63-14.62,19.54c-4.28,6.91-7.86,14.16-10.84,21.59
						c-3.07,7.74-5.29,15.74-6.8,23.72c-1.49,7.99-2.37,15.94-2.77,23.69c-0.47,8.97-0.54,17.66-0.26,25.9
						c0.27,8.24,0.84,16.03,1.71,23.19c1.79,14.67,3.95,26.74,5.39,35.2C227.72,775.56,228.5,780.42,228.19,780.62z"/>
				</g>
			</g>
		</g>
	</g>
	<g>
		<g>
			<g>
				<g>
					<path class="st1" d="M344.22,478.86c0.7-0.3,0.6,6.25-0.3,18.11c-1.27,11.8-3.5,28.9-8.02,49.32
						c-4.24,19.68-10.21,42.44-16.9,66.87c-5.74,21.08-12.51,43.32-17.82,66.36c-5.1,22.14-9.16,44.93-11.19,67.48
						c-0.96,11.72-1.55,23.38-1.3,34.8c0.01,1.43,0.02,2.85,0.03,4.27c0,1.42,0.11,2.83,0.15,4.25c0.12,2.82,0.24,5.63,0.36,8.42
						c0.14,2.79,0.4,5.55,0.59,8.29c0.22,2.74,0.36,5.48,0.69,8.17c0.33,3.12,0.66,6.22,0.98,9.28c0.37,3.06,0.83,6.07,1.24,9.06
						c0.21,1.49,0.41,2.98,0.62,4.45c0.26,1.47,0.51,2.93,0.76,4.37c0.51,2.9,1.01,5.76,1.5,8.58c0.59,2.8,1.16,5.57,1.73,8.29
						c0.29,1.36,0.55,2.72,0.86,4.05c0.33,1.33,0.65,2.65,0.97,3.95c0.64,2.61,1.27,5.18,1.89,7.71c0.71,2.5,1.4,4.95,2.08,7.35
						c5.66,19.76,12.01,35.55,16.72,46.41c0.58,1.36,1.13,2.65,1.65,3.86c0.26,0.61,0.51,1.2,0.75,1.76
						c0.26,0.56,0.51,1.1,0.75,1.62c0.96,2.08,1.77,3.86,2.4,5.32c1.26,2.91,1.83,4.51,1.62,4.62c-0.21,0.12-1.16-1.28-2.78-4.01
						c-1.61-2.74-3.96-6.77-6.55-12.15c-5.34-10.65-12.26-26.38-18.48-46.2c-0.75-2.41-1.51-4.87-2.29-7.38
						c-0.69-2.53-1.39-5.12-2.1-7.74c-0.36-1.31-0.71-2.64-1.07-3.98c-0.34-1.34-0.64-2.71-0.96-4.07
						c-0.63-2.74-1.28-5.53-1.93-8.35c-0.59-2.84-1.12-5.73-1.69-8.65c-0.28-1.46-0.56-2.93-0.85-4.42
						c-0.23-1.49-0.47-2.99-0.71-4.5c-0.46-3.02-0.97-6.07-1.4-9.16c-0.37-3.1-0.74-6.23-1.11-9.39c-0.36-2.73-0.54-5.49-0.77-8.27
						c-0.21-2.78-0.48-5.58-0.64-8.41c-0.12-2.83-0.24-5.67-0.36-8.53c-0.05-1.43-0.14-2.87-0.15-4.31
						c-0.01-1.44-0.02-2.88-0.02-4.33c0-2.9-0.06-5.81-0.02-8.73c0.09-2.92,0.18-5.86,0.27-8.8c0.06-1.47,0.06-2.95,0.17-4.42
						c0.1-1.48,0.2-2.95,0.29-4.43c0.22-2.96,0.34-5.93,0.63-8.9c1.96-22.85,5.36-46.02,10.55-68.31
						c5.4-23.17,11.59-45.63,17.56-66.63c6.94-24.3,13.95-46.58,18.67-66.03c4.9-19.92,7.84-36.6,9.85-48.3
						C342.86,485.74,343.84,479,344.22,478.86z"/>
				</g>
			</g>
		</g>
	</g>
	<g>
		<g>
			<g>
				<g>
					<path class="st1" d="M337.18,947.41c-0.52,0.49-2.92-4.05-6.53-12.58c-3.58-8.54-8.48-21.06-12.79-36.92
						c-2.02-7.64-3.89-16.05-5.15-25.12c-1.27-9.06-1.85-18.82-1.2-28.95c0.36-4.36,0.78-8.8,1.69-13.23
						c0.21-1.11,0.41-2.22,0.62-3.34c0.27-1.1,0.53-2.21,0.8-3.32c0.25-1.11,0.57-2.21,0.89-3.32c0.33-1.1,0.61-2.22,0.98-3.31
						c1.37-4.4,3.05-8.74,4.87-13.04c1.85-4.29,3.92-8.5,6.1-12.67c8.46-16.03,19.35-30.79,29.94-45.06
						c11.06-14.82,21.47-29.57,29.48-44.35c9.26-17.1,15.01-34.4,18.14-49.58c1.63-7.81,2.62-15.04,3.28-21.46
						c0.14-1.61,0.27-3.16,0.4-4.66c0.14-1.5,0.18-2.95,0.27-4.34c0.2-2.78,0.23-5.34,0.31-7.64c0.11-2.31,0.03-4.36,0.08-6.16
						c0.05-1.79,0.01-3.31,0.02-4.55c0.02-2.47,0.14-3.8,0.38-3.83c0.24-0.02,0.55,1.26,0.92,3.72c0.19,1.23,0.41,2.75,0.55,4.55
						c0.13,1.8,0.38,3.87,0.44,6.21c0.08,2.33,0.22,4.92,0.17,7.75c-0.02,1.41,0.02,2.89-0.05,4.41c-0.06,1.53-0.13,3.11-0.19,4.75
						c-0.38,6.55-1.12,13.95-2.53,21.97c-2.69,15.58-8.05,33.52-17.33,51.3c-8.01,15.34-18.84,30.14-29.81,45
						c-10.53,14.32-20.64,29.26-28.86,44.65c-2.12,4.01-4.1,8.05-5.83,12.16c-1.7,4.12-3.27,8.26-4.51,12.44
						c-1.22,4.19-2.35,8.36-3.01,12.57c-0.84,4.18-1.26,8.37-1.68,12.5c-0.79,9.58-0.57,18.92,0.25,27.73
						c0.82,8.82,2.24,17.11,3.97,24.68c3.68,15.5,7.84,28.07,10.7,36.89C335.83,942.09,337.46,947.15,337.18,947.41z"/>
				</g>
			</g>
		</g>
	</g>
	<g>
		<g>
			<g>
				<g>
					<path class="st1" d="M404.44,822.52c-0.69-0.05-0.4-3.18,0.7-8.62c0.27-1.36,0.6-2.87,0.97-4.51c0.37-1.64,0.68-3.44,1.09-5.35
						c0.41-1.91,0.84-3.95,1.3-6.1c0.24-1.07,0.48-2.18,0.73-3.31c0.22-1.14,0.44-2.3,0.67-3.5c0.86-4.59,1.98-9.53,2.77-14.85
						c0.45-2.65,0.91-5.37,1.38-8.15c0.41-2.79,0.77-5.67,1.17-8.58c0.18-1.26,0.36-2.52,0.55-3.8c0.1-0.64,0.2-1.28,0.29-1.92
						c0.08-0.64,0.16-1.29,0.24-1.94c0.33-2.6,0.67-5.23,1.01-7.88c0.18-1.33,0.35-2.66,0.53-4.01c0.13-1.35,0.25-2.7,0.38-4.06
						c0.24-2.72,0.48-5.46,0.67-8.21c0.11-1.32,0.17-2.65,0.21-3.98c0.05-1.33,0.09-2.67,0.14-4c0.09-2.67,0.18-5.35,0.26-8.03
						c0-2.68,0-5.36-0.01-8.03c-0.02-2.67,0.08-5.34-0.04-7.99c-0.09-2.76-0.18-5.51-0.28-8.23c-0.06-1.36-0.09-2.72-0.17-4.07
						c-0.1-1.35-0.2-2.69-0.3-4.03c-0.2-2.67-0.39-5.32-0.58-7.93c-0.16-2.62-0.51-5.18-0.72-7.71c-0.29-2.93-0.5-5.82-0.8-8.63
						c-0.34-2.81-0.67-5.55-0.99-8.22c-0.54-5.36-1.44-10.35-2.12-14.99c-0.18-1.19-0.36-2.36-0.53-3.5
						c-0.19-1.14-0.42-2.24-0.61-3.31c-0.39-2.16-0.77-4.2-1.12-6.11c-0.35-1.91-0.63-3.72-0.96-5.37c-0.33-1.65-0.63-3.16-0.9-4.52
						c-1.04-5.47-1.42-8.64-0.96-8.77c0.47-0.14,1.58,2.82,3.27,8.16c0.41,1.34,0.87,2.82,1.37,4.44c0.48,1.62,0.9,3.41,1.39,5.3
						c0.48,1.9,0.99,3.93,1.53,6.07c0.26,1.07,0.56,2.17,0.81,3.3c0.24,1.14,0.48,2.3,0.73,3.49c0.94,4.64,2.1,9.64,2.88,15.02
						c0.43,2.68,0.87,5.45,1.32,8.27c0.4,2.83,0.71,5.75,1.07,8.71c0.28,2.56,0.65,5.16,0.83,7.8c0.19,2.65,0.38,5.33,0.57,8.04
						c0.09,1.35,0.19,2.71,0.28,4.08c0.08,1.37,0.1,2.74,0.15,4.12c0.1,2.76,0.19,5.54,0.29,8.34c0.15,2.69,0.11,5.39,0.21,8.1
						c0.09,2.71,0.18,5.43,0.27,8.14c0.02,2.72,0,5.44-0.03,8.15c-0.02,1.36-0.05,2.71-0.07,4.06c-0.03,1.35-0.07,2.7-0.2,4.04
						c-0.8,11.17-1.72,22.14-3.4,32.34c-0.48,2.95-0.97,5.84-1.52,8.66c-0.65,2.79-1.29,5.52-1.91,8.17
						c-1.18,5.31-2.69,10.23-3.81,14.82c-0.58,2.35-1.13,4.6-1.78,6.71c-0.62,2.11-1.2,4.11-1.75,5.99
						c-0.56,1.88-1.06,3.63-1.57,5.24c-0.55,1.6-1.06,3.06-1.52,4.39C405.97,819.57,404.79,822.55,404.44,822.52z"/>
				</g>
			</g>
		</g>
	</g>
	<g>
		<g>
			<g>
				<g>
					<path class="st1" d="M414.22,820.47c-0.13-0.31,0.15-0.74,0.75-1.25c0.3-0.26,0.68-0.53,1.13-0.83
						c0.44-0.34,0.95-0.7,1.52-1.07c1.13-0.78,2.47-1.77,3.95-2.94c1.44-1.24,3.08-2.61,4.72-4.32c3.21-3.23,6.55-7.47,9.86-12.35
						c2.83-4.21,6.21-8.62,9.11-13.45c2.78-4.65,5.42-9.49,8.03-14.23c2.72-4.93,5.04-9.95,7.41-14.57
						c2.74-5.35,5.32-10.31,7.42-14.61c4.33-8.85,7.18-14.66,8.12-14.32c0.88,0.31-0.91,6.53-4.32,15.88
						c-1.65,4.55-3.77,9.78-6.29,15.34c-2.18,4.8-4.8,9.76-7.48,14.81c-2.58,4.85-4.64,10.13-7.53,14.83
						c-3.01,4.87-5.9,9.69-9.1,14.01c-3.72,5-8.2,8.87-12.05,12.02c-1.96,1.65-3.93,2.94-5.71,4.01c-0.92,0.5-1.77,0.96-2.59,1.34
						c-0.83,0.35-1.58,0.69-2.29,0.93c-0.71,0.23-1.35,0.42-1.91,0.58c-0.56,0.15-1.06,0.21-1.45,0.27
						C414.73,820.65,414.28,820.63,414.22,820.47z"/>
				</g>
			</g>
		</g>
	</g>
	<g>
		<g>
			<g>
				<g>
					<path class="st1" d="M497.63,737.01c0.3-0.21,0.89,1,1.73,3.44c0.42,1.22,0.9,2.75,1.43,4.56c0.63,1.78,1.36,3.84,2.18,6.16
						c3.36,9.2,8.95,22.33,18.91,36.33c4.76,6.74,10.34,13.78,17,20.57c6.61,6.83,14.12,13.55,22.41,19.92
						c14.22,11.06,30.73,21.2,48.35,30.19c16.93,8.65,34.72,16.57,51.86,25.18c17.8,8.94,35.22,18.26,50.12,29.35
						c8.64,6.36,16.51,13.11,23.46,19.99c6.99,6.85,12.9,13.98,17.96,20.81c5.27,7,9.23,13.98,12.48,20.22
						c3.12,6.33,5.38,12.01,6.93,16.77c0.71,2.4,1.35,4.53,1.9,6.39c0.43,1.89,0.74,3.51,0.99,4.81c0.48,2.62,0.63,4.02,0.39,4.08
						c-0.24,0.06-0.8-1.25-1.66-3.73c-0.43-1.24-0.92-2.79-1.51-4.59c-0.68-1.78-1.47-3.82-2.35-6.12c-1.82-4.56-4.31-10-7.59-16.04
						c-3.42-5.96-7.49-12.61-12.83-19.28c-5.13-6.5-11.05-13.27-18.02-19.78c-6.93-6.54-14.72-12.96-23.24-19.06
						c-14.65-10.61-31.59-20.02-49.29-28.83c-17.03-8.47-35.11-15.74-52.18-24.53c-8.87-4.56-17.59-9.28-25.93-14.3
						c-8.35-5-16.28-10.44-23.57-16.18c-8.45-6.64-15.96-13.81-22.51-21.08c-6.58-7.25-12.03-14.73-16.75-21.79
						c-4.91-7.21-8.5-14.35-11.48-20.72c-0.68-1.62-1.33-3.2-1.96-4.71c-0.31-0.76-0.62-1.5-0.93-2.23
						c-0.29-0.74-0.51-1.48-0.77-2.2c-0.49-1.44-0.95-2.82-1.4-4.14c-0.22-0.66-0.44-1.3-0.65-1.93c-0.2-0.63-0.34-1.26-0.51-1.87
						c-0.63-2.44-1.19-4.61-1.67-6.51c-0.4-1.92-0.64-3.57-0.87-4.91C497.64,738.58,497.48,737.11,497.63,737.01z"/>
				</g>
			</g>
		</g>
	</g>
	<g>
		<g>
			<g>
				<g>
					<path class="st1" d="M774.24,1035.82c-0.77,0.28,0.56-7.68,3.48-21.95c2.91-14.27,7.48-34.85,12.58-59.92
						c4.85-24.15,10.07-52.48,13.56-83.31c0.4-3.32,0.69-6.68,1.05-10.06c0.18-1.69,0.36-3.38,0.53-5.09
						c0.15-1.7,0.29-3.41,0.44-5.13c0.29-3.43,0.58-6.88,0.87-10.36c0.22-3.48,0.43-6.98,0.65-10.49c0.27-3.52,0.3-7.06,0.46-10.61
						c0.13-3.55,0.27-7.12,0.26-10.71c0.11-7.17-0.02-14.39-0.3-21.64c-1.07-27.89-4.82-56.17-10.63-83.46
						c-6.03-28.4-14.72-55.61-24.63-80.45c-11.43-28.8-24.77-54.33-37.78-75.2c-3.3-5.4-6.68-10.42-9.85-15.21
						c-3.28-4.72-6.35-9.21-9.41-13.3c-5.99-8.28-11.56-15.19-16.13-20.87c-4.66-5.61-8.31-10.01-10.86-12.95
						c-2.51-2.98-3.76-4.65-3.58-4.82c0.17-0.17,1.74,1.19,4.54,3.91c2.84,2.69,6.77,6.86,11.71,12.28
						c4.85,5.5,10.68,12.26,16.94,20.43c3.19,4.03,6.4,8.48,9.81,13.16c3.31,4.75,6.83,9.74,10.27,15.12
						c13.55,20.76,27.49,46.28,39.32,75.26c10.25,25,18.75,52.56,24.94,81.21c5.96,27.52,10.48,56.02,11.52,84.25
						c0.2,3.66,0.21,7.33,0.31,10.97c0.12,3.65,0.07,7.29,0.07,10.91c-0.01,1.81,0.01,3.62-0.03,5.43c-0.05,1.8-0.1,3.6-0.15,5.4
						c-0.05,1.8-0.1,3.59-0.15,5.38c-0.04,1.79-0.1,3.57-0.21,5.35c-0.19,3.55-0.39,7.09-0.58,10.61c-0.22,3.51-0.54,7-0.81,10.47
						c-0.14,1.73-0.28,3.46-0.42,5.18c-0.18,1.72-0.36,3.43-0.54,5.13c-0.37,3.41-0.7,6.8-1.11,10.15
						c-3.78,31.05-10.1,59.26-15.43,83.39c-5.55,24.72-10.7,45-14.38,59.17c-1.85,7.09-3.34,12.65-4.42,16.45
						C775.09,1033.7,774.43,1035.75,774.24,1035.82z"/>
				</g>
			</g>
		</g>
	</g>
	<g>
		<g>
			<g>
				<g>
					<path class="st1" d="M697.47,484.98c0.07-0.34,0.82-0.36,2.17-0.1c1.34,0.26,3.26,0.81,5.74,1.48
						c4.92,1.38,11.99,3.38,20.72,5.02c8.4,1.56,18.34,2.67,29.09,2.47c4.63-0.09,9.42-0.21,14.29-0.68
						c2.44-0.17,4.9-0.54,7.35-0.84c1.17-0.17,2.1-0.4,2.7-0.74c0.31-0.17,0.53-0.34,0.75-0.61c0.23-0.24,0.39-0.51,0.52-0.82
						c0.53-1.17,0.31-3.19-0.46-5.1c-0.38-0.96-0.86-1.93-1.44-2.83c-0.29-0.45-0.59-0.89-0.92-1.3c-0.34-0.43-0.78-0.9-1.16-1.34
						c-1.61-1.78-3.08-3.7-4.88-5.3l-2.58-2.5c-0.85-0.84-1.83-1.53-2.74-2.31c-7.66-6.33-16.53-10.72-25.21-13.57
						c-10.11-3.22-20.08-4.32-28.57-3.88c-1.09,0.06-2.17,0.05-3.21,0.17c-1.04,0.13-2.05,0.25-3.04,0.38
						c-0.99,0.12-1.96,0.23-2.9,0.35c-0.93,0.19-1.82,0.37-2.69,0.55c-0.87,0.17-1.72,0.34-2.53,0.5c-0.41,0.08-0.81,0.16-1.2,0.23
						c-0.38,0.11-0.76,0.21-1.13,0.32c-1.49,0.41-2.85,0.78-4.09,1.11c-1.26,0.28-2.31,0.71-3.26,1.01
						c-0.95,0.31-1.76,0.56-2.43,0.74c-1.34,0.36-2.12,0.46-2.23,0.24c-0.11-0.22,0.47-0.7,1.67-1.43c0.6-0.36,1.35-0.79,2.25-1.27
						c0.9-0.47,1.92-1.07,3.16-1.52c1.23-0.48,2.58-1.02,4.07-1.61c0.37-0.14,0.75-0.29,1.14-0.44c0.4-0.12,0.81-0.23,1.22-0.35
						c0.83-0.24,1.69-0.48,2.58-0.74c0.89-0.25,1.81-0.51,2.76-0.78c0.97-0.18,1.97-0.38,2.99-0.57c1.03-0.19,2.08-0.39,3.16-0.6
						c1.08-0.19,2.21-0.25,3.36-0.38c8.89-0.98,19.55-0.4,30.47,2.76c9.4,2.8,18.79,7.78,27.05,14.47c0.98,0.82,2.03,1.56,2.98,2.43
						l2.85,2.61c1.98,1.67,3.66,3.64,5.46,5.52c0.45,0.48,0.89,0.93,1.33,1.44c0.47,0.56,0.9,1.14,1.31,1.73
						c0.81,1.19,1.51,2.45,2.08,3.82c0.57,1.36,1.02,2.83,1.21,4.44c0.19,1.6,0.1,3.42-0.6,5.21c-0.74,1.86-2.09,3.49-3.82,4.51
						c-1.71,1.01-3.39,1.34-4.74,1.59c-1.29,0.19-2.58,0.39-3.87,0.58c-1.28,0.21-2.55,0.36-3.82,0.49
						c-5.08,0.62-10.1,0.84-14.95,0.83c-11.28-0.06-21.51-2.33-30.07-4.42c-8.8-2.18-15.82-4.83-20.58-6.96
						c-1.19-0.54-2.25-1.02-3.16-1.47c-0.9-0.47-1.67-0.88-2.28-1.23C698.07,485.59,697.44,485.15,697.47,484.98z"/>
				</g>
			</g>
		</g>
	</g>
	<g>
		<g>
			<g>
				<g>
					<path class="st1" d="M677.53,454.69c-0.12-0.34,1.08-0.61,3.42-0.79c1.17-0.09,2.63-0.16,4.35-0.22
						c1.72-0.04,3.72-0.08,5.96-0.17c2.24-0.07,4.73-0.13,7.45-0.17c2.72-0.1,5.67-0.2,8.83-0.31c6.32-0.25,13.48-0.6,21.32-1.17
						c1.89-0.11,3.82-0.27,5.78-0.46c1.96-0.17,3.96-0.35,6-0.53c4.07-0.37,8.26-0.9,12.59-1.36c8.63-1.14,17.74-2.39,27.13-4.14
						c16.2-2.94,33.48-6.26,50.67-11.31c16.53-4.82,33.08-10.69,49.06-17.12c16.64-6.65,32.44-14.39,47.1-21.98
						c16.98-8.8,32.34-17.68,45.17-25.82c26.39-16.79,42.46-29.38,43.16-28.51c0.29,0.36-3.48,3.81-10.49,9.53
						c-7.04,5.67-17.38,13.52-30.38,22.39c-12.63,8.62-27.82,18.03-44.82,27.17c-14.68,7.88-30.75,15.42-47.5,22.22
						c-16.09,6.57-32.58,13.18-49.33,18c-17.39,5.05-34.74,9.04-51.21,11.79c-9.53,1.65-18.8,2.57-27.56,3.35
						c-4.39,0.3-8.65,0.61-12.77,0.83c-4.13,0.16-8.1,0.43-11.93,0.54c-15.67,0.61-28.63,0.35-37.68-0.24
						c-4.53-0.2-8.07-0.62-10.51-0.86C678.91,455.09,677.59,454.87,677.53,454.69z"/>
				</g>
			</g>
		</g>
	</g>
	<g>
		<g>
			<g>
				<g>
					<path class="st1" d="M1020.49,339.06c-0.29,0.75-4.39-2.52-12.22-7.57c-3.95-2.47-8.84-5.37-14.75-8.2
						c-5.9-2.84-12.79-5.61-20.57-8.02c-7.48-2.33-15.81-4.18-24.73-5.6c-8.94-1.35-18.48-2.22-28.43-2.52
						c-17.16-0.56-35.57-0.1-54.26,1.86c-17.99,1.86-36.23,4.42-54.07,7.4c-18.55,3.07-36.59,7.01-53.48,10.88
						c-19.55,4.56-37.65,8.93-52.61,14.1c-7.71,2.64-14.59,5.48-20.51,8.3c-5.93,2.82-10.88,5.67-14.88,8.12
						c-7.96,4.98-12.14,8.37-12.51,7.95c-0.28-0.29,3.41-4.29,11.16-9.92c3.89-2.77,8.79-5.95,14.71-9.08
						c5.92-3.14,12.83-6.28,20.58-9.22c15.07-5.74,33.12-10.65,52.69-15.52c8.46-2.06,17.24-4.02,26.23-5.86
						c8.99-1.82,18.2-3.52,27.51-5.12c17.91-3.08,36.17-6.37,54.28-8.17c18.83-1.91,37.5-3.02,55.06-2.24
						c10.16,0.44,19.93,1.65,29.04,3.4c9.11,1.79,17.57,4.11,25.22,6.7c7.84,2.67,14.78,5.75,20.67,8.92
						c5.9,3.16,10.75,6.4,14.61,9.23c3.81,2.9,6.65,5.36,8.51,7.15C1019.61,337.85,1020.55,338.89,1020.49,339.06z"/>
				</g>
			</g>
		</g>
	</g>
	<g>
		<g>
			<g>
				<g>
					<path class="st1" d="M656.33,369.49c-1.42-0.43,7.23-14.73,20.17-37.06c6.22-10.76,13.38-23.4,20.7-37.27
						c6.32-11.96,13.33-24.57,19.63-37.85c1.53-3.18,2.99-6.42,4.49-9.64c1.46-3.24,2.92-6.5,4.38-9.75
						c2.88-6.53,5.74-13.11,8.84-19.57c3.22-6.7,6.62-13.31,10.52-19.51c3.88-6.2,8.33-11.98,13.3-16.93
						c5.76-5.74,12.08-10.39,18.39-14.12c6.31-3.74,12.59-6.58,18.46-8.9c6.05-2.39,11.68-4.18,16.7-5.57
						c5.01-1.42,9.4-2.45,13.02-3.25c7.24-1.55,11.39-2.12,11.51-1.66c0.13,0.48-3.84,1.8-10.87,3.97
						c-3.51,1.11-7.79,2.41-12.64,4.08c-4.87,1.64-10.31,3.65-16.1,6.21c-5.62,2.48-11.56,5.46-17.47,9.21
						c-5.9,3.75-11.75,8.3-17.07,13.78c-4.58,4.73-8.76,10.11-12.51,16.03c-3.75,5.91-7.11,12.28-10.23,18.88
						c-3,6.35-5.66,12.96-8.39,19.59c-1.38,3.31-2.77,6.62-4.19,9.9c-1.46,3.27-2.9,6.53-4.45,9.73
						c-6.4,13.32-12.89,26.3-19.47,38.23c-7.6,13.83-15.75,25.97-22.43,36.53c-6.86,10.82-12.76,19.6-17.06,25.64
						C659.27,366.23,656.66,369.58,656.33,369.49z"/>
				</g>
			</g>
		</g>
	</g>
	<g>
		<g>
			<g>
				<g>
					<path class="st1" d="M816.55,146.31c0.08,0.38-1.58,0.19-4.77-0.49c-1.6-0.34-3.57-0.81-5.9-1.39c-2.35-0.53-5.06-1.16-8.1-1.9
						c-3.03-0.76-6.45-1.45-10.14-2.32c-3.7-0.85-7.75-1.62-12.06-2.54c-8.67-1.65-18.52-3.4-29.39-4.87
						c-20.94-2.75-45.64-4.43-72.26-3.23c-22.93,1-47.38,3.53-71.74,9.08c-23.41,5.32-46.74,12.96-68.81,22.4
						c-11.48,4.9-22.6,10.34-33.23,16.15c-10.63,5.82-20.75,12.04-30.32,18.42c-11.1,7.36-21.34,15.1-30.69,22.83
						c-9.3,7.79-17.68,15.62-24.95,23.28c-7.47,7.9-13.83,15.53-19.06,22.56c-5.22,7.04-9.32,13.48-12.46,18.9
						c-6.24,10.87-8.73,17.59-9.27,17.39c-0.22-0.08,0.21-1.82,1.28-5.04c1.16-3.17,2.98-7.82,5.88-13.47
						c2.89-5.66,6.8-12.35,11.87-19.67c5.08-7.31,11.33-15.23,18.72-23.42c7.19-7.95,15.5-16.08,24.77-24.16
						c9.32-8.02,19.58-16.04,30.75-23.63c9.63-6.57,19.89-12.86,30.66-18.74c10.78-5.86,22.05-11.33,33.66-16.33
						c22.29-9.64,45.71-18.1,69.49-23.45c24.7-5.58,49.44-8.8,72.76-9.6c27.04-0.96,51.97,1.81,73.05,5.07
						c10.81,1.72,20.61,3.69,29.23,5.68c4.3,1.03,8.3,2.03,12,3c3.67,1.04,7.06,1.94,10.09,2.86c3.02,0.94,5.71,1.79,8.06,2.52
						c2.34,0.76,4.31,1.49,5.92,2.06C814.78,145.42,816.51,146.12,816.55,146.31z"/>
				</g>
			</g>
		</g>
	</g>
	<g>
		<g>
			<g>
				<g>
					<path class="st1" d="M606.04,854.9c-0.26,0.24-0.94-0.45-1.99-1.97c-1.07-1.52-2.45-3.89-4.11-7.03
						c-3.28-6.27-7.55-15.67-11.11-27.75c-1.71-5.81-3.16-12.26-4.13-19.22c-0.96-6.95-1.38-14.43-0.89-22.19
						c0.17-3.35,0.67-6.73,1.23-10.14c0.64-3.4,1.45-6.79,2.43-10.16c1.94-6.74,4.48-13.36,7.02-19.98
						c4.91-12.72,10.29-25.3,13.44-38.22c3.37-13.43,4.77-27.04,4.89-39.8c0.1-14.8-1.45-28.52-4.02-40.03
						c-2.68-11.84-6.08-21.33-8.75-27.81c-1.21-3.31-2.44-5.77-3.09-7.55c-0.68-1.76-0.95-2.76-0.74-2.88
						c0.21-0.12,0.85,0.66,1.89,2.26c1,1.61,2.56,3.94,4.1,7.16c3.32,6.31,7.31,15.81,10.57,27.81c3.14,11.66,5.28,25.7,5.48,40.96
						c0.13,13.17-1.6,27.19-4.99,41.08c-3.17,13.42-8.04,26.6-12.93,39.09c-2.54,6.51-4.87,12.97-6.62,19.4
						c-0.87,3.21-1.62,6.41-2.18,9.59c-0.51,3.18-1,6.33-1.21,9.47c-1.21,14.48,0.1,28.24,2.89,39.69
						c2.89,11.72,6.44,21.14,8.97,27.7C604.77,850.91,606.32,854.64,606.04,854.9z"/>
				</g>
			</g>
		</g>
	</g>
	<g>
		<g>
			<g>
				<g>
					<path class="st1" d="M802.61,718.15c-0.33,0.08-0.69-0.66-1.05-2.07c-0.3-1.42-0.84-3.5-1.61-6.07
						c-0.49-1.27-0.85-2.71-1.58-4.17c-0.34-0.74-0.63-1.53-1.04-2.3c-0.42-0.77-0.85-1.57-1.29-2.39
						c-1.9-3.24-4.42-6.69-7.66-10.08c-6.23-6.57-15.06-12.74-25.56-17.86c-9.05-4.55-18.84-9.27-29.23-13.22
						c-9.99-3.79-20.35-7.25-30.48-10.87c-10.53-3.77-20.97-7.34-30.5-11.51c-11.05-4.77-20.9-10.16-28.93-15.36
						c-8.29-5.33-14.5-10.62-18.53-14.56c-1-1-1.89-1.88-2.63-2.69c-0.72-0.82-1.32-1.53-1.79-2.12c-0.94-1.18-1.35-1.89-1.18-2.06
						c0.17-0.17,0.88,0.22,2.08,1.1c0.6,0.44,1.32,1,2.15,1.68c0.85,0.66,1.83,1.41,2.92,2.26c4.38,3.37,10.75,8.1,19.1,12.86
						c8.08,4.65,17.89,9.42,28.85,13.84c9.44,3.86,19.65,7.67,30.17,11.35c10.12,3.53,20.75,6.33,30.84,10.23
						c10.48,4.06,20.73,8.29,29.97,13.19c5.35,2.78,10.37,6.06,14.71,9.56c4.36,3.5,8.13,7.22,11.31,10.91
						c3.27,3.78,5.78,7.66,7.57,11.3c0.8,1.87,1.6,3.59,2.07,5.29c0.24,0.84,0.57,1.62,0.71,2.41c0.16,0.79,0.32,1.53,0.47,2.25
						c0.07,0.35,0.14,0.7,0.21,1.04c0.03,0.34,0.07,0.67,0.1,0.99c0.06,0.64,0.11,1.24,0.16,1.81c0.14,1.12,0.07,2.08,0.03,2.85
						C802.9,717.28,802.78,718.11,802.61,718.15z"/>
				</g>
			</g>
		</g>
	</g>
	<g>
		<g>
			<g>
				<g>
					<path class="st1" d="M693.68,781.3c-1.31,0.29-2.85-1.16-3.92-3.66c-0.51-1.2-0.98-2.64-1.41-4.2
						c-0.37-1.35-0.13-2.9-0.41-4.39c-0.28-1.43-0.63-2.87-0.82-4.31c-0.2-1.5-0.64-2.93-0.73-4.33c-0.1-1.62,0.01-3.17,0.07-4.48
						c0.12-2.7,0.64-4.54,1.59-4.72c0.95-0.18,1.55,1.45,2.45,3.96c0.44,1.22,0.85,2.66,1.23,4.23c0.33,1.35,0.48,2.83,0.76,4.32
						c0.27,1.43,1.32,2.73,1.53,4.17c0.22,1.5,0.59,2.93,0.72,4.33c0.16,1.61-0.48,3.25-0.45,4.54
						C694.35,779.41,694.34,781.15,693.68,781.3z"/>
				</g>
			</g>
		</g>
	</g>
	<g>
		<g>
			<g>
				<g>
					<path class="st1" d="M702.25,835.21c-1.34-0.14-1.76-4.54-1.08-11.09c0.32-3.16,0.84-6.82,1.47-10.77
						c0.55-3.4,1.76-6.9,2.46-10.58c0.68-3.53,1.29-7.14,2.06-10.65c0.79-3.65,1.33-7.29,2.15-10.64c0.95-3.88,2.05-7.43,2.95-10.48
						c1.85-6.27,3.49-10.26,4.44-10.08c0.95,0.18,0.43,4.39-0.4,10.86c-0.4,3.14-0.97,6.79-1.64,10.72
						c-0.58,3.39-1.4,6.96-2.11,10.63c-0.68,3.53-0.6,7.27-1.34,10.78c-0.77,3.65-1.38,7.27-2.15,10.62
						c-0.9,3.88-2.51,7.33-3.32,10.39C704.05,831.19,702.92,835.28,702.25,835.21z"/>
				</g>
			</g>
		</g>
	</g>
	<g>
		<g>
			<g>
				<g>
					<path class="st1" d="M444.71,720.51c-0.71,0.09-0.37-4.46,0.84-12.53c0.3-2.02,0.66-4.26,1.07-6.7
						c0.41-2.44,0.74-5.11,1.19-7.96c0.44-2.84,0.92-5.88,1.42-9.09c0.26-1.6,0.52-3.25,0.79-4.93c0.23-1.69,0.47-3.43,0.72-5.2
						c0.92-6.83,2.13-14.21,2.97-22.1c0.47-3.93,0.96-7.98,1.46-12.12c0.44-4.15,0.8-8.4,1.22-12.73c0.19-1.87,0.38-3.75,0.57-5.64
						c0.1-0.95,0.2-1.9,0.3-2.85c0.08-0.96,0.16-1.92,0.24-2.88c0.34-3.85,0.68-7.75,1.02-11.69c0.18-1.97,0.35-3.95,0.53-5.94
						c0.12-1.99,0.24-3.99,0.36-6c0.23-4.02,0.45-8.07,0.64-12.14c0.11-1.96,0.16-3.92,0.18-5.89c0.03-1.97,0.07-3.94,0.1-5.91
						c0.06-3.94,0.13-7.9,0.19-11.85c-0.04-3.95-0.08-7.91-0.11-11.85c-0.06-3.94,0.01-7.88-0.16-11.8
						c-0.14-4.07-0.28-8.12-0.42-12.15c-0.08-2.01-0.13-4.02-0.25-6.01c-0.13-1.99-0.26-3.98-0.4-5.95
						c-0.26-3.95-0.51-7.86-0.76-11.71c-0.1-1.93-0.28-3.84-0.45-5.74c-0.16-1.9-0.32-3.79-0.48-5.66
						c-0.37-4.33-0.65-8.6-1.04-12.75c-0.43-4.15-0.84-8.21-1.25-12.15c-0.7-7.9-1.8-15.3-2.64-22.16
						c-0.22-1.76-0.44-3.49-0.66-5.17c-0.26-1.68-0.51-3.31-0.75-4.91c-0.48-3.19-0.94-6.21-1.36-9.05
						c-0.43-2.83-0.77-5.5-1.18-7.93c-0.4-2.44-0.77-4.68-1.1-6.7c-1.28-8.09-1.79-12.72-1.32-12.82c0.47-0.11,1.73,4.36,3.66,12.34
						c0.47,2,1,4.21,1.57,6.63c0.56,2.42,1.04,5.06,1.61,7.88c0.56,2.82,1.15,5.83,1.78,9.01c0.31,1.59,0.62,3.22,0.95,4.9
						c0.28,1.68,0.56,3.4,0.86,5.16c1.09,6.85,2.46,14.25,3.39,22.16c0.51,3.95,1.04,8.02,1.58,12.18c0.49,4.17,0.86,8.45,1.31,12.8
						c0.34,3.76,0.79,7.58,1.03,11.46c0.25,3.88,0.49,7.81,0.74,11.78c0.12,1.99,0.25,3.98,0.37,5.99c0.12,2,0.15,4.02,0.23,6.05
						c0.14,4.05,0.29,8.12,0.43,12.22c0.23,7.88,0.47,15.84,0.7,23.8c0.05,3.98,0.05,7.96,0.05,11.94
						c-0.01,1.99-0.02,3.97-0.04,5.95c-0.01,1.98-0.05,3.96-0.17,5.93c-0.2,4.1-0.4,8.18-0.59,12.23c-0.09,2.02-0.19,4.04-0.28,6.05
						c-0.15,2.01-0.3,4-0.44,5.99c-0.3,3.97-0.6,7.91-0.89,11.79c-0.08,0.97-0.15,1.94-0.23,2.9c-0.1,0.96-0.2,1.92-0.3,2.87
						c-0.21,1.91-0.42,3.8-0.62,5.68c-0.49,4.35-0.99,8.62-1.56,12.78c-0.68,4.14-1.34,8.19-1.98,12.13
						c-1.22,7.88-2.81,15.24-3.99,22.07c-0.31,1.75-0.61,3.46-0.91,5.13c-0.29,1.67-0.67,3.29-0.98,4.87
						c-0.66,3.16-1.28,6.16-1.86,8.97c-0.6,2.81-1.12,5.44-1.67,7.86c-0.59,2.41-1.13,4.62-1.62,6.62
						C446.32,715.93,445.06,720.46,444.71,720.51z"/>
				</g>
			</g>
		</g>
	</g>
	<g>
		<g>
			<g>
				<g>
					<path class="st1" d="M999.68,332.72c0.56,0.55-6.02,2.98-18.09,6.8c-12.06,3.85-29.67,8.93-51.16,14.77
						c-20.71,5.58-44.99,11.89-71.31,18.3c-5.68,1.39-11.45,2.76-17.31,4.12c-5.87,1.31-11.82,2.64-17.83,3.99
						c-12.03,2.65-24.3,5.36-36.69,8.09c-11.89,2.71-23.93,5.26-35.96,7.91c-12.03,2.6-24.09,5.08-36.04,7.55
						c-12.43,2.49-24.75,4.96-36.83,7.38c-12.09,2.34-23.92,4.71-35.43,6.74c-6.67,1.18-13.21,2.34-19.6,3.48
						c-6.4,1.07-12.66,2.12-18.74,3.14c-12.16,2.05-23.66,3.83-34.26,5.49c-10.9,1.75-20.88,3.17-29.69,4.44
						c-4.41,0.62-8.52,1.2-12.33,1.73c-3.81,0.48-7.3,0.93-10.45,1.33c-12.6,1.55-19.75,2.21-19.83,1.73
						c-0.07-0.48,6.96-1.9,19.45-4.1c6.24-1.09,13.85-2.42,22.6-3.95c8.75-1.55,18.67-3.22,29.51-5.22
						c10.54-1.91,21.96-3.93,34.05-6.21c6.05-1.12,12.27-2.27,18.63-3.45c6.36-1.21,12.87-2.46,19.5-3.72
						c11.46-2.14,23.26-4.49,35.32-6.79c12.06-2.33,24.33-4.83,36.74-7.32c11.9-2.51,23.89-5.17,35.86-7.94
						c5.98-1.38,11.96-2.77,17.93-4.15c5.97-1.35,11.94-2.69,17.87-4.03c12.35-2.73,24.58-5.47,36.53-8.28
						c5.98-1.38,11.91-2.75,17.75-4.11c5.84-1.38,11.61-2.74,17.28-4.07c26.29-6.12,50.74-11.32,71.55-16.4
						c21.31-5.31,38.92-9.7,51.25-12.78c6.17-1.54,11.02-2.72,14.37-3.49S999.54,332.59,999.68,332.72z"/>
				</g>
			</g>
		</g>
	</g>
	<g>
		<g>
			<g>
				<g>
					<path class="st1" d="M342.47,777.84c-0.37-0.01-0.03-1.4,0.93-3.98c0.48-1.29,1.11-2.87,1.9-4.74c0.4-0.93,0.82-1.93,1.28-3
						c0.44-1.07,0.85-2.25,1.33-3.47c0.95-2.44,2.01-5.16,3.16-8.13c1.08-3,2.16-6.28,3.39-9.77c0.31-0.87,0.62-1.76,0.93-2.66
						c0.28-0.92,0.56-1.85,0.84-2.79c0.57-1.89,1.16-3.83,1.76-5.83c1.3-3.96,2.28-8.26,3.49-12.7c0.28-1.07,0.57-2.15,0.86-3.25
						c0.25-1.1,0.5-2.22,0.75-3.35c0.5-2.25,1.02-4.55,1.54-6.88c0.56-2.33,0.98-4.73,1.44-7.16c0.46-2.43,0.93-4.9,1.4-7.41
						c0.44-2.51,0.81-5.08,1.23-7.67c0.38-2.6,0.87-5.2,1.19-7.88c0.66-5.34,1.46-10.78,1.97-16.37
						c2.04-19.25,3.77-39.86,4.33-60.95c0.53-20.27,0.39-40.97,0.58-61.32c0.19-21.15,0.27-41.95,1.37-61.48
						c1.28-22.62,3.68-43.5,6.71-61.21c0.39-2.28,0.77-4.51,1.14-6.68c0.44-2.16,0.87-4.28,1.29-6.33c0.42-2.05,0.83-4.05,1.23-6
						c0.42-1.94,0.91-3.8,1.35-5.61c0.45-1.81,0.88-3.56,1.29-5.24c0.42-1.69,0.81-3.31,1.28-4.85c0.91-3.08,1.75-5.9,2.5-8.45
						c0.73-2.55,1.54-4.78,2.24-6.71c0.7-1.93,1.31-3.57,1.83-4.88c1.03-2.63,1.69-3.99,1.92-3.91c0.23,0.08-0.01,1.57-0.66,4.3
						c-0.33,1.37-0.76,3.05-1.28,5.02c-0.52,1.97-1.17,4.23-1.73,6.8c-0.61,2.56-1.29,5.4-2.03,8.5c-0.4,1.54-0.72,3.17-1.06,4.86
						c-0.35,1.69-0.7,3.43-1.07,5.24c-0.36,1.81-0.78,3.67-1.13,5.6c-0.33,1.94-0.67,3.93-1.02,5.98c-0.35,2.05-0.71,4.15-1.08,6.3
						c-0.31,2.16-0.62,4.38-0.94,6.65c-2.51,17.61-4.35,38.32-5.34,60.77c-0.85,19.38-1.23,40.05-1.33,61.16
						c-0.11,20.29,0.75,41.01,0.15,61.38c-0.63,21.17-1.73,41.97-4.03,61.43c-0.58,5.64-1.5,11.13-2.32,16.51
						c-0.38,2.69-0.95,5.32-1.43,7.93c-0.51,2.6-1,5.18-1.5,7.71c-0.57,2.52-1.14,5-1.7,7.45c-0.57,2.44-1.06,4.86-1.72,7.2
						c-0.61,2.35-1.22,4.65-1.81,6.92c-0.29,1.13-0.58,2.25-0.87,3.37c-0.32,1.1-0.64,2.19-0.96,3.27
						c-2.49,8.87-5.21,16.85-7.83,23.82c-1.38,3.46-2.67,6.69-3.87,9.68c-1.35,2.92-2.59,5.6-3.71,8.02
						c-0.57,1.21-1.1,2.35-1.61,3.42c-0.53,1.06-1.09,2.03-1.58,2.94c-1.01,1.81-1.86,3.36-2.56,4.62
						C343.5,776.52,342.66,777.85,342.47,777.84z"/>
				</g>
			</g>
		</g>
	</g>
	<g>
		<g>
			<g>
				<g>
					<path class="st1" d="M731.66,217.88c0.33-0.14,0.66,0.93,0.9,3.19c0.06,2.23-0.12,5.71-1.63,9.88
						c-1.5,4.15-4.23,8.95-8.37,13.57c-4.09,4.67-9.45,9.24-15.75,13.53c-3.05,1.95-6.22,3.98-9.52,6.09
						c-3.32,2.07-6.66,4.35-10.33,6.32c-3.62,2.05-7.35,4.15-11.17,6.3c-1.89,1.11-3.88,2.09-5.88,3.1c-2,1.01-4.02,2.03-6.06,3.06
						c-6.98,3.67-14.52,6.74-22.13,10.05c-1.89,0.85-3.84,1.59-5.79,2.35c-1.95,0.76-3.91,1.53-5.87,2.3
						c-3.93,1.53-7.85,3.17-11.87,4.6c-3.84,1.43-7.7,2.87-11.57,4.32c-3.87,1.44-7.8,2.73-11.7,4.1c-7.8,2.77-15.69,5.21-23.49,7.7
						c-16.27,5-32.22,9.9-47.3,14.11c-8.73,2.42-17.14,4.75-25.1,6.95c-3.97,1.11-7.83,2.19-11.56,3.23
						c-1.87,0.52-3.7,1.03-5.5,1.53c-1.79,0.52-3.55,1.04-5.27,1.54c-28.38,8.18-46.58,14.35-46.95,13.36
						c-0.17-0.45,4.24-2.38,12.17-5.5c3.95-1.61,8.84-3.31,14.47-5.31c2.82-0.98,5.81-2.09,9-3.13c3.19-1.06,6.55-2.17,10.06-3.33
						c1.71-0.56,3.45-1.14,5.23-1.73c1.78-0.56,3.6-1.13,5.45-1.72c3.7-1.16,7.53-2.35,11.47-3.58c7.9-2.38,16.25-4.89,24.92-7.51
						c14.99-4.44,30.95-9.04,47.11-14.09c7.74-2.52,15.53-5.13,23.2-8.05c3.84-1.44,7.71-2.8,11.52-4.28
						c3.81-1.49,7.62-2.94,11.43-4.34c3.98-1.4,7.85-3.03,11.71-4.59c1.93-0.78,3.85-1.56,5.77-2.34c1.91-0.78,3.83-1.53,5.69-2.39
						c7.45-3.38,14.86-6.47,21.78-9.98c2.03-0.97,4.03-1.93,6.02-2.88c1.99-0.95,3.99-1.83,5.88-2.85
						c3.84-1.96,7.59-3.88,11.23-5.75c3.7-1.78,7.11-3.84,10.46-5.73c3.34-1.91,6.56-3.78,9.64-5.6c3.07-1.92,5.91-3.9,8.5-5.91
						c1.31-0.99,2.51-2.03,3.7-3.02c1.13-1.05,2.27-2.03,3.27-3.08c4.13-4.07,7-8.24,8.79-11.92c1.79-3.69,2.53-6.86,2.87-9.06
						C731.37,219.18,731.46,217.94,731.66,217.88z"/>
				</g>
			</g>
		</g>
	</g>
	<g>
		<g>
			<g>
				<g>
					<path class="st1" d="M228.88,554.43c-0.35,0.04-0.48-0.91-0.41-2.75c0.04-0.92,0.13-2.07,0.27-3.42
						c0.17-1.35,0.45-2.89,0.76-4.64c1.33-6.94,4.06-16.93,9.2-28.32c4.86-11,11.78-23.28,20.22-35.81
						c7.29-10.82,16.01-21.55,24.74-32.59c8.4-10.61,17.2-21.24,26.25-31.31c9.4-10.47,18.74-20.66,28.02-29.74
						c10.73-10.52,21.16-19.74,30.22-27.45c18.63-15.91,31.8-24.89,32.34-24.2c0.66,0.83-11.76,10.67-29.58,27.24
						c-8.66,8.04-18.63,17.56-29.07,28.19c-9.01,9.17-18.48,19.05-27.74,29.49c-8.91,10.04-17.08,21.02-25.46,31.48
						c-8.7,10.89-16.85,21.9-24.2,32.37c-8.48,12.13-16.21,23.48-21.41,34.03c-5.43,10.75-8.71,20.18-10.79,26.82
						c-0.51,1.67-0.96,3.16-1.36,4.46c-0.36,1.31-0.67,2.43-0.92,3.34C229.42,553.43,229.06,554.41,228.88,554.43z"/>
				</g>
			</g>
		</g>
	</g>
	<g>
		<g>
			<g>
				<g>
					<path class="st1" d="M497.75,720.55c-0.32,0.16-0.76-0.65-1.3-2.35c-0.27-0.85-0.56-1.92-0.88-3.19
						c-0.15-0.64-0.32-1.33-0.49-2.07c-0.16-0.74-0.25-1.54-0.38-2.39c-0.24-1.69-0.49-3.58-0.74-5.65
						c-0.17-2.07-0.24-4.33-0.35-6.75c-0.12-4.84,0.05-10.35,0.65-16.34c0.07-0.72,0.13-1.45,0.2-2.19c0.1-0.73,0.19-1.47,0.29-2.22
						c0.2-1.49,0.41-3.02,0.61-4.57c0.44-3.1,1.06-6.26,1.61-9.54c1.31-6.51,2.82-13.36,4.62-20.38
						c3.04-12.14,7.28-24.72,10.58-37.76c3.19-12.53,5.69-25.38,7.33-38.14c1.73-13.27,2.26-26.41,2.24-38.74
						c-0.02-14.28-0.88-27.52-2.3-38.8c-2.92-23.22-7.18-37.97-6.09-38.29c0.76-0.26,6.14,14.26,10.15,37.65
						c1.94,11.35,3.36,24.75,3.67,39.29c0.28,12.55-0.55,25.92-2.22,39.43c-1.57,12.98-3.44,26.29-6.72,38.95
						c-3.39,13.15-7.03,25.89-10.27,37.84c-1.92,6.91-3.74,13.54-5.39,19.84c-0.74,3.16-1.52,6.23-2.14,9.22
						c-0.29,1.5-0.57,2.97-0.85,4.42c-0.28,1.45-0.54,2.87-0.7,4.27c-0.83,5.74-1.28,11.01-1.52,15.68
						c-0.07,2.34-0.13,4.52-0.18,6.54c0.06,2.02,0.11,3.87,0.16,5.55c0.02,0.84,0.04,1.63,0.06,2.38c0.04,0.75,0.12,1.44,0.17,2.09
						c0.11,1.3,0.19,2.41,0.24,3.32C497.92,719.46,497.91,720.47,497.75,720.55z"/>
				</g>
			</g>
		</g>
	</g>
	<g>
		<g>
			<g>
				<g>
					<path class="st1" d="M678.32,485.3c-0.27,0.2-0.84-0.17-1.6-0.95c-0.39-0.39-0.92-0.82-1.45-1.37
						c-0.62-0.48-1.26-1.07-2.09-1.6c-1.61-1.09-3.72-2.15-6.38-2.86c-2.65-0.72-5.8-1.14-9.33-1.23c-1.71-0.04-3.46-0.02-5.38,0.08
						c-1.9,0.06-3.86,0.17-5.88,0.3c-4.04,0.27-8.31,0.65-12.75,1.16c-7.66,0.84-15.92,1.45-24.32,2.57
						c-8.08,1.06-16.35,2.19-24.59,2.67c-8.55,0.55-17.06,0.68-24.99-0.2c-4.59-0.56-8.98-1.37-13.07-2.43
						c-4.07-1.11-7.87-2.32-11.25-3.77c-7-2.86-12.24-6.33-15.53-9.09c-1.69-1.33-2.84-2.58-3.6-3.44c-0.75-0.87-1.07-1.42-0.92-1.6
						c0.16-0.19,0.75,0.02,1.73,0.57c0.98,0.54,2.31,1.48,4.12,2.49c3.54,2.13,8.77,4.97,15.59,7.21c3.28,1.15,6.96,2.05,10.86,2.88
						c3.93,0.78,8.13,1.35,12.52,1.75c7.59,0.59,15.74,0.78,24.07,0.16c8.02-0.55,16.09-2.36,24.13-3.35
						c8.37-1.03,16.61-2.27,24.46-2.9c4.54-0.39,8.95-0.42,13.12-0.33c2.09,0.06,4.11,0.13,6.07,0.25c1.94,0.08,3.88,0.21,5.72,0.38
						c1.89,0.18,3.7,0.46,5.41,0.81c1.7,0.4,3.31,0.82,4.77,1.42c2.95,1.1,5.31,2.68,6.96,4.27c1.69,1.57,2.55,3.19,3.11,4.26
						C678.29,484.57,678.46,485.2,678.32,485.3z"/>
				</g>
			</g>
		</g>
	</g>
	<g>
		<g>
			<g>
				<g>
					<path class="st1" d="M730.71,860.71c-1.3,0.31-2.84-0.95-3.79-3.26c-0.45-1.11-0.83-2.45-1.1-3.91
						c-0.25-1.26,0.18-2.66,0.09-4.04c-0.08-1.32-0.2-2.68-0.13-4c0.08-1.38-0.07-2.74,0.16-4c0.25-1.46,0.75-2.79,1.15-3.92
						c0.83-2.32,1.89-3.7,2.84-3.57c0.97,0.13,1.04,1.64,1.25,3.93c0.11,1.11,0.15,2.39,0.19,3.77c0.03,1.19-0.12,2.45-0.11,3.74
						c0.01,1.25,0.84,2.48,0.85,3.71c0.01,1.28,0.2,2.52,0.2,3.71c-0.01,1.37-0.76,2.74-0.81,3.87
						C731.39,859.03,731.38,860.55,730.71,860.71z"/>
				</g>
			</g>
		</g>
	</g>
	<g>
		<g>
			<g>
				<g>
					<path class="st1" d="M744.22,888.77c-1.29,0.36-2.66,0.1-3.39-0.83c-0.35-0.44-0.6-1-0.75-1.62c-0.13-0.55,0.4-1.11,0.43-1.67
						c0.03-0.55,0.02-1.12,0.19-1.65c0.18-0.54,0.14-1.13,0.45-1.6c0.35-0.54,0.92-0.93,1.36-1.24c0.93-0.65,1.96-0.73,2.8-0.28
						c0.86,0.46,0.88,1.01,1.02,1.79c0.07,0.38,0.07,0.78,0.05,1.19c-0.02,0.35-0.22,0.68-0.29,1.06c-0.06,0.37,0.69,0.82,0.6,1.15
						c-0.08,0.35,0,0.7-0.11,1.03c-0.14,0.37-1.02,0.82-1.19,1.19C745.06,888.04,744.88,888.59,744.22,888.77z"/>
				</g>
			</g>
		</g>
	</g>
	<g>
		<g>
			<g>
				<g>
					<path class="st1" d="M650.32,842c-0.55,1.21-3.17,1.3-6.59-0.02c-1.64-0.64-3.48-1.52-5.38-2.63
						c-1.65-0.94-3.01-2.54-4.67-3.73c-1.59-1.16-3.23-2.33-4.71-3.64c-1.53-1.36-3.18-2.54-4.46-3.94c-1.5-1.6-2.67-3.3-3.69-4.72
						c-2.07-2.94-2.95-5.21-2.25-5.85c0.73-0.66,2.43,0.82,5.14,2.94c1.32,1.02,2.81,2.27,4.42,3.59c1.38,1.15,2.76,2.49,4.27,3.73
						c1.46,1.19,3.46,1.72,4.92,2.88c1.53,1.19,3.14,2.21,4.57,3.29c1.64,1.27,2.8,3.05,4.13,4.08
						C648.75,840.08,650.6,841.38,650.32,842z"/>
				</g>
			</g>
		</g>
	</g>
	<g>
		<g>
			<g>
				<g>
					<path class="st1" d="M576.74,721.82c-0.65-0.19-0.45-2.26,0.45-5.69c0.23-0.86,0.5-1.8,0.81-2.83
						c0.32-1.02,0.58-2.16,0.92-3.36c0.34-1.2,0.71-2.47,1.12-3.8c0.2-0.67,0.41-1.35,0.63-2.05c0.19-0.71,0.38-1.44,0.58-2.18
						c0.75-2.87,1.73-5.92,2.45-9.25c0.4-1.65,0.81-3.35,1.23-5.09c0.39-1.75,0.71-3.55,1.09-5.37c0.3-1.58,0.73-3.16,1.02-4.79
						c0.33-1.62,0.65-3.27,0.99-4.93c0.17-0.83,0.34-1.67,0.52-2.51c0.16-0.84,0.27-1.7,0.4-2.55c0.26-1.71,0.5-3.43,0.71-5.17
						c0.24-1.67,0.29-3.36,0.43-5.05c0.12-1.69,0.24-3.38,0.36-5.08c0.08-3.39,0.24-6.79,0.28-10.15c0.01-7-0.45-13.85-1.04-20.27
						c-0.15-1.86-0.3-3.69-0.45-5.48c-0.21-1.78-0.42-3.52-0.62-5.21c-0.32-3.4-0.91-6.57-1.37-9.51c-0.42-3.04-1.11-5.75-1.54-8.2
						c-0.24-1.22-0.42-2.37-0.64-3.41c-0.24-1.04-0.44-2-0.62-2.88c-0.7-3.49-0.9-5.55-0.44-5.72c0.46-0.16,1.38,1.65,2.72,4.99
						c0.33,0.84,0.69,1.77,1.08,2.78c0.37,1.02,0.7,2.15,1.08,3.35c0.72,2.41,1.67,5.12,2.36,8.17c0.72,2.95,1.58,6.14,2.15,9.59
						c0.31,1.72,0.63,3.49,0.96,5.3c0.26,1.82,0.48,3.69,0.73,5.6c0.86,6.58,1.04,13.64,1.12,20.83c0.01,3.45,0.04,6.95,0.14,10.45
						c-0.05,1.75-0.09,3.5-0.14,5.24c-0.09,1.74-0.1,3.49-0.37,5.21c-0.23,1.79-0.45,3.57-0.68,5.34c-0.11,0.88-0.22,1.76-0.33,2.64
						c-0.15,0.87-0.29,1.74-0.44,2.6c-0.3,1.73-0.59,3.43-0.88,5.12c-0.27,1.69-0.72,3.32-1.09,4.94c-0.46,1.87-0.92,3.7-1.46,5.47
						c-0.59,1.75-1.19,3.46-1.78,5.11c-1.11,3.32-2.49,6.34-3.5,9.2c-0.52,1.47-1.03,2.86-1.61,4.15c-0.55,1.3-1.08,2.53-1.57,3.69
						c-0.5,1.15-0.94,2.24-1.41,3.22c-0.49,0.97-0.94,1.86-1.34,2.66C578.11,720.14,577.06,721.91,576.74,721.82z"/>
				</g>
			</g>
		</g>
	</g>
	<g>
		<g>
			<g>
				<g>
					<path class="st1" d="M785.51,718.65c-1.24,0.59-3.27-1.14-5.52-3.99c-1.1-1.37-2.3-2.99-3.67-4.68
						c-0.29-0.36-0.56-0.76-0.81-1.17c-0.27-0.4-0.53-0.82-0.78-1.24c-0.5-0.86-1.07-1.7-1.74-2.47c-1.29-1.48-2.76-2.83-4.13-4.23
						c-1.47-1.42-3.1-2.57-4.52-3.79c-0.41-0.36-0.81-0.72-1.2-1.08c-0.4-0.35-0.78-0.69-1.16-1.02c-0.74-0.69-1.48-1.3-2.16-1.86
						c-2.83-2.29-4.77-3.92-4.4-4.85c0.35-0.87,2.8-0.27,6.41,1.26c0.87,0.38,1.81,0.8,2.76,1.35c0.48,0.27,0.97,0.54,1.46,0.83
						c0.48,0.31,0.98,0.63,1.48,0.96c1.73,1.14,3.34,2.66,5.01,4.15c1.56,1.46,3.7,2.47,5.09,4.16c0.72,0.88,1.46,1.72,2.12,2.59
						c0.33,0.43,0.67,0.87,0.99,1.29c0.3,0.44,0.6,0.88,0.87,1.33c1.29,2.05,1.64,4.44,2.37,6.16
						C785.48,715.94,786.09,718.37,785.51,718.65z"/>
				</g>
			</g>
		</g>
	</g>
	<g>
		<g>
			<g>
				<g>
					<path class="st1" d="M783.66,746.74c-1.25,0.51-2.85-0.23-4.14-1.75c-0.63-0.73-1.24-1.63-1.85-2.62
						c-0.52-0.85-0.54-2.03-1.05-2.99c-0.5-0.92-1.09-1.81-1.54-2.75c-0.48-0.98-1.18-1.8-1.58-2.73c-0.46-1.08-0.74-2.19-1.03-3.13
						c-0.6-1.91-0.72-3.43,0.04-4.03c0.76-0.59,1.79,0.25,3.31,1.65c0.73,0.68,1.5,1.55,2.25,2.55c0.65,0.86,1.14,1.9,1.73,2.9
						c0.56,0.96,1.82,1.57,2.3,2.6c0.49,1.07,1.1,2.05,1.45,3.08c0.42,1.19,0.04,2.62,0.23,3.6
						C784.14,745.16,784.28,746.49,783.66,746.74z"/>
				</g>
			</g>
		</g>
	</g>
	<g>
		<g>
			<g>
				<g>
					<path class="st1" d="M779.38,770.93c-1.32,0.25-2.58,0.31-3.2,0.16c-0.3-0.07-0.52-0.18-0.68-0.31
						c-0.13-0.11,0.35-0.35,0.32-0.49c-0.03-0.14-0.14-0.26-0.08-0.42c0.06-0.16-0.14-0.27,0.01-0.43c0.17-0.19,0.53-0.4,0.81-0.58
						c0.56-0.36,1.37-0.68,2.32-0.85c0.95-0.18,1.26-0.06,1.72,0.11c0.22,0.08,0.38,0.2,0.5,0.34c0.1,0.12,0,0.28,0.03,0.42
						c0.03,0.14,0.84,0.13,0.8,0.28c-0.04,0.15,0.09,0.28-0.01,0.43c-0.11,0.18-0.99,0.49-1.19,0.65
						C780.33,770.58,780.04,770.8,779.38,770.93z"/>
				</g>
			</g>
		</g>
	</g>
	<g>
		<g>
			<g>
				<g>
					<path class="st1" d="M418,307.39c-1.26-0.45-0.57-4.98,1.94-11.38c1.22-3.08,2.78-6.61,4.64-10.35
						c1.58-3.24,3.89-6.34,5.81-9.74c1.84-3.27,3.71-6.6,5.72-9.77c2.1-3.29,3.98-6.63,6.08-9.56c2.41-3.4,4.9-6.37,7.01-8.92
						c4.35-5.24,7.65-8.26,8.42-7.7c0.8,0.58-1.58,4.26-5.03,10.02c-1.7,2.78-3.68,6.02-5.82,9.53c-1.86,3.01-3.96,6.14-5.96,9.43
						c-1.91,3.17-3.13,6.81-5,9.99c-1.94,3.31-3.68,6.65-5.44,9.72c-2.06,3.54-4.59,6.51-6.24,9.33
						C420.76,303.78,418.66,307.63,418,307.39z"/>
				</g>
			</g>
		</g>
	</g>
	<g>
		<g>
			<g>
				<g>
					<path class="st1" d="M449.44,274.71c-1.15-0.69-0.56-3.78,1.48-7.81c0.98-1.94,2.24-4.14,3.66-6.46
						c1.23-2.01,3.07-3.78,4.5-5.89c1.37-2.03,2.71-4.14,4.16-6.13c1.5-2.06,2.77-4.22,4.24-6.07c1.7-2.14,3.44-4,4.91-5.61
						c3.01-3.32,5.34-5.23,6.14-4.69c0.8,0.55-0.59,3.09-2.74,7c-1.04,1.9-2.35,4.05-3.8,6.35c-1.26,1.98-2.77,3.98-4.2,6.08
						c-1.38,2.03-2.12,4.54-3.55,6.53c-1.49,2.07-2.81,4.19-4.24,6.06c-1.65,2.17-3.83,3.73-5.22,5.39
						C451.92,272.86,450.02,275.06,449.44,274.71z"/>
				</g>
			</g>
		</g>
	</g>
	<g>
		<g>
			<g>
				<g>
					<path class="st1" d="M483.58,243.24c-1.18-0.63-1.71-2.26-1.26-4.14c0.22-0.9,0.59-1.89,1.1-2.91
						c0.43-0.88,1.44-1.45,2.03-2.32c0.57-0.84,1.1-1.72,1.76-2.49c0.69-0.79,1.18-1.72,1.91-2.38c0.85-0.76,1.81-1.31,2.61-1.79
						c1.64-0.99,3.05-1.29,3.77-0.64c0.73,0.65,0.17,1.68-0.62,3.28c-0.38,0.78-0.9,1.62-1.48,2.51c-0.5,0.76-1.19,1.46-1.78,2.26
						c-0.56,0.77-0.48,2.02-1.06,2.76c-0.61,0.78-1.07,1.63-1.66,2.33c-0.69,0.8-1.99,1.15-2.61,1.76
						C485.01,242.72,484.18,243.56,483.58,243.24z"/>
				</g>
			</g>
		</g>
	</g>
	<g>
		<g>
			<g>
				<g>
					<path class="st1" d="M396.62,297.05c-1.03-0.84-0.67-3.16,1.07-5.79c0.84-1.26,1.94-2.63,3.24-4.01
						c1.11-1.2,2.76-1.96,4.1-3.11c1.29-1.1,2.59-2.25,3.98-3.23c1.46-1,2.75-2.16,4.19-2.95c1.66-0.92,3.34-1.52,4.76-2.05
						c2.92-1.08,5.06-1.25,5.51-0.41c0.47,0.86-1.08,2.01-3.35,3.9c-1.1,0.92-2.41,1.92-3.82,3.02c-1.22,0.93-2.62,1.8-3.95,2.81
						c-1.27,0.99-2.05,2.63-3.3,3.61c-1.31,1.03-2.46,2.18-3.66,3.14c-1.4,1.09-3.21,1.6-4.37,2.47
						C398.66,296.25,397.15,297.49,396.62,297.05z"/>
				</g>
			</g>
		</g>
	</g>
	<g>
		<g>
			<g>
				<g>
					<path class="st1" d="M502.96,231.54c-1.25-0.42-1.85-2.49-1.09-5.23c0.38-1.3,0.99-2.77,1.86-4.24
						c0.37-0.64,0.89-1.2,1.47-1.73c0.56-0.55,1.16-1.07,1.68-1.66c0.99-1.16,2.04-2.31,3.23-3.28c0.62-0.49,1.22-1.01,1.81-1.5
						c0.62-0.46,1.21-0.94,1.88-1.27c0.77-0.39,1.53-0.72,2.29-0.94c0.74-0.26,1.47-0.43,2.13-0.58c2.74-0.63,4.64-0.23,4.89,0.67
						c0.28,0.96-1.16,1.62-3.09,3.03c-0.47,0.34-0.98,0.69-1.5,1.09c-0.54,0.37-1.08,0.8-1.65,1.23c-0.5,0.36-1,0.76-1.54,1.12
						c-0.52,0.39-1.06,0.79-1.56,1.24c-0.97,0.89-1.34,2.36-2.2,3.28c-0.47,0.47-0.88,0.98-1.27,1.5c-0.41,0.5-0.77,1.02-1.17,1.49
						c-0.93,1.07-2.39,1.76-3.14,2.7C504.47,230.36,503.62,231.77,502.96,231.54z"/>
				</g>
			</g>
		</g>
	</g>
	<g>
		<g>
			<g>
				<g>
					<path class="st1" d="M223,585.65c-1.19-0.61-2.09-1.59-2.29-2.48c-0.09-0.43-0.09-0.87,0-1.3c0.07-0.37,0.71-0.47,0.89-0.83
						c0.17-0.34,0.28-0.72,0.53-1.02c0.26-0.31,0.29-0.73,0.61-0.98c0.37-0.28,0.91-0.44,1.33-0.6c0.87-0.32,1.83-0.32,2.68,0.13
						c0.86,0.45,0.9,0.98,0.95,1.78c0.02,0.39-0.04,0.8-0.15,1.22c-0.1,0.36-0.4,0.64-0.58,0.99c-0.17,0.34,0.35,1.05,0.12,1.36
						c-0.24,0.32-0.33,0.71-0.61,0.97c-0.32,0.31-1.32,0.22-1.67,0.42C224.09,585.72,223.6,585.96,223,585.65z"/>
				</g>
			</g>
		</g>
	</g>
	<g>
		<g>
			<g>
				<g>
					<path class="st1" d="M715.8,214.79c-1.26-0.42-1.09-4.16,0.77-9.36c0.9-2.5,2.12-5.36,3.63-8.34c1.28-2.6,3.3-4.98,4.93-7.64
						c1.57-2.56,3.19-5.17,4.97-7.6c1.87-2.51,3.54-5.1,5.45-7.26c2.19-2.53,4.49-4.63,6.44-6.43c4.03-3.68,7.11-5.56,7.79-4.9
						c0.71,0.69-1.53,3.33-4.68,7.59c-1.52,2.07-3.34,4.44-5.24,7.06c-1.66,2.24-3.5,4.56-5.24,7.04c-0.82,1.2-1.48,2.53-2.13,3.85
						c-0.62,1.34-1.28,2.66-2.06,3.88c-1.63,2.53-3.05,5.13-4.49,7.51c-1.69,2.74-3.85,4.98-5.17,7.2
						C718.07,211.93,716.46,215.01,715.8,214.79z"/>
				</g>
			</g>
		</g>
	</g>
	<g>
		<g>
			<g>
				<g>
					<path class="st1" d="M632.83,317.26c0.51,1.24-1.22,3.18-4.34,4.91c-1.5,0.83-3.31,1.68-5.28,2.52
						c-1.7,0.72-3.73,0.89-5.62,1.56c-1.82,0.65-3.64,1.38-5.49,1.95c-1.92,0.59-3.72,1.41-5.52,1.86c-2.08,0.53-4.08,0.81-5.79,1.1
						c-3.5,0.58-5.92,0.54-6.24-0.37c-0.32-0.91,1.72-1.94,4.87-3.5c1.53-0.76,3.35-1.55,5.33-2.35c1.71-0.69,3.61-1.22,5.5-1.89
						c1.81-0.65,3.4-2.05,5.24-2.64c1.91-0.61,3.73-1.36,5.51-1.86c2.06-0.58,4.23-0.37,5.91-0.73
						C630.33,317.08,632.57,316.63,632.83,317.26z"/>
				</g>
			</g>
		</g>
	</g>
	<g>
		<g>
			<g>
				<g>
					<path class="st1" d="M784.91,518.34c0.43,1.26-1.2,3.07-4.23,4.41c-1.46,0.64-3.22,1.24-5.15,1.73
						c-1.67,0.44-3.56,0.21-5.4,0.48c-1.77,0.26-3.57,0.54-5.36,0.62c-1.86,0.07-3.67,0.36-5.39,0.25
						c-1.99-0.11-3.83-0.52-5.38-0.84c-3.21-0.67-5.2-1.69-5.13-2.64c0.07-0.98,2.1-1.1,5.19-1.47c1.5-0.19,3.24-0.32,5.12-0.49
						c1.62-0.13,3.35-0.12,5.11-0.27c1.69-0.16,3.31-1.13,4.99-1.31c1.74-0.18,3.43-0.55,5.03-0.73c1.86-0.2,3.76,0.32,5.27,0.18
						C782.66,517.97,784.69,517.69,784.91,518.34z"/>
				</g>
			</g>
		</g>
	</g>
	<g>
		<g>
			<g>
				<g>
					<path class="st1" d="M342.17,316.61c-0.61,1.2-2.22,1.74-4.07,1.41c-0.89-0.16-1.87-0.47-2.88-0.87
						c-0.88-0.35-1.5-1.28-2.4-1.76c-0.86-0.46-1.78-0.86-2.6-1.4c-0.85-0.56-1.81-0.88-2.55-1.48c-0.86-0.69-1.55-1.52-2.17-2.19
						c-1.26-1.39-1.87-2.68-1.41-3.53c0.46-0.85,1.61-0.56,3.36-0.09c0.85,0.23,1.8,0.59,2.79,1.02c0.86,0.38,1.67,0.96,2.57,1.44
						c0.86,0.46,2.11,0.24,2.94,0.75c0.86,0.54,1.78,0.93,2.55,1.48c0.88,0.64,1.33,1.93,1.98,2.53
						C341.62,315.17,342.48,316.01,342.17,316.61z"/>
				</g>
			</g>
		</g>
	</g>
	<g>
		<g>
			<g>
				<g>
					<path class="st1" d="M769.35,1082.94c-1.33-0.16-2.39-1.53-2.71-3.45c-0.15-0.93-0.19-1.99-0.16-3.13
						c0.03-0.98,0.7-1.93,0.84-2.98c0.14-1.01,0.21-2.05,0.43-3.04c0.24-1.03,0.22-2.09,0.53-3.03c0.36-1.09,0.9-2.07,1.33-2.91
						c0.88-1.73,1.89-2.8,2.85-2.66c0.96,0.14,1.07,1.37,1.22,3.25c0.07,0.91,0.06,1.97-0.02,3.1c-0.06,0.97-0.34,1.98-0.49,3.03
						c-0.14,1.01,0.49,2.14,0.29,3.14c-0.22,1.04-0.27,2.08-0.53,3.02c-0.31,1.09-1.37,1.99-1.71,2.85
						C770.52,1081.88,770.02,1083.02,769.35,1082.94z"/>
				</g>
			</g>
		</g>
	</g>
	<g>
		<g>
			<g>
				<g>
					<path class="st1" d="M763.63,1015.22c-1.26-0.46-2.33-1.16-2.72-1.79c-0.19-0.3-0.29-0.61-0.31-0.91
						c-0.02-0.26,0.56-0.32,0.64-0.56c0.08-0.23,0.09-0.5,0.25-0.7c0.17-0.21,0.1-0.51,0.34-0.67c0.28-0.19,0.74-0.29,1.1-0.39
						c0.74-0.21,1.63-0.18,2.54,0.15c0.91,0.34,1.08,0.71,1.31,1.27c0.12,0.27,0.16,0.56,0.15,0.85c-0.01,0.25-0.22,0.44-0.3,0.68
						c-0.08,0.23,0.57,0.74,0.43,0.96c-0.15,0.22-0.14,0.49-0.34,0.67c-0.23,0.21-1.18,0.12-1.46,0.25
						C764.67,1015.29,764.26,1015.45,763.63,1015.22z"/>
				</g>
			</g>
		</g>
	</g>
	<g>
		<g>
			<g>
				<g>
					<path class="st1" d="M351.61,974.56c-0.36,1.27-4.07,1.31-9.26-0.45c-1.24-0.43-2.59-0.92-3.96-1.54
						c-0.69-0.31-1.4-0.63-2.13-0.95c-0.71-0.36-1.44-0.72-2.18-1.1c-2.56-1.3-4.87-3.37-7.45-5.07c-1.22-0.84-2.48-1.68-3.7-2.55
						c-1.2-0.9-2.43-1.77-3.56-2.74c-1.18-1-2.4-1.93-3.54-2.91c-1.16-0.96-2.26-1.93-3.25-2.96c-2.32-2.36-4.18-4.81-5.75-6.89
						c-3.22-4.31-4.69-7.55-3.97-8.14c0.77-0.63,3.09,1.84,6.94,5.3c1.88,1.67,4.03,3.65,6.43,5.69c1.02,0.9,2.07,1.82,3.15,2.77
						c1.06,0.96,2.19,1.89,3.34,2.81c1.1,0.9,2.39,1.56,3.64,2.27c1.27,0.68,2.55,1.34,3.68,2.17c2.41,1.67,4.89,3.12,7.19,4.54
						c0.66,0.41,1.29,0.86,1.89,1.33c0.61,0.45,1.2,0.9,1.77,1.35c1.14,0.92,2.24,1.74,3.33,2.38
						C348.72,972.46,351.81,973.88,351.61,974.56z"/>
				</g>
			</g>
		</g>
	</g>
	<g>
		<g>
			<g>
				<g>
					<path class="st1" d="M326.76,983.84c-0.76,1.1-1.99,1.76-3.1,1.69c-0.54-0.04-1.09-0.19-1.64-0.42
						c-0.47-0.2-0.6-0.93-1.05-1.24c-0.43-0.3-0.91-0.54-1.29-0.91c-0.39-0.38-0.92-0.55-1.23-0.98c-0.36-0.5-0.56-1.13-0.76-1.64
						c-0.41-1.05-0.42-2.1,0.14-2.89c0.56-0.79,1.23-0.67,2.24-0.46c0.49,0.1,1.01,0.3,1.53,0.56c0.45,0.22,0.81,0.64,1.25,0.95
						c0.43,0.3,1.32-0.04,1.71,0.31c0.4,0.37,0.89,0.59,1.23,0.99c0.39,0.45,0.29,1.51,0.54,1.96
						C326.84,982.66,327.15,983.28,326.76,983.84z"/>
				</g>
			</g>
		</g>
	</g>
	<g>
		<g>
			<g>
				<g>
					<path class="st1" d="M218.03,792.6c-1.01,0.84-5.26-3.33-10.21-10.93c-1.18-1.84-2.45-3.83-3.68-6.02
						c-0.62-1.09-1.26-2.21-1.92-3.36c-0.62-1.17-1.25-2.36-1.9-3.58c-2.22-4.21-3.83-9.04-5.88-13.76
						c-0.95-2.28-1.92-4.59-2.88-6.89c-0.9-2.33-1.84-4.65-2.63-6.99c-0.83-2.44-1.74-4.82-2.52-7.19c-0.4-1.18-0.79-2.36-1.18-3.52
						c-0.37-1.16-0.69-2.32-1.01-3.47c-1.46-5.3-2.41-10.31-3.2-14.58c-1.6-8.82-1.84-14.66-0.93-14.84
						c0.98-0.2,2.33,5.39,4.91,13.82c1.27,4.09,2.7,8.86,4.41,13.97c0.35,1.11,0.71,2.23,1.08,3.37c0.37,1.14,0.75,2.29,1.14,3.45
						c0.73,2.34,1.58,4.69,2.43,7.06c0.81,2.29,1.93,4.48,2.97,6.7c1.09,2.2,2.2,4.38,3.1,6.63c1.95,4.64,4.07,9.1,6.02,13.3
						c0.56,1.22,1.07,2.44,1.55,3.64c0.5,1.19,0.96,2.37,1.41,3.52c0.87,2.31,1.77,4.46,2.71,6.39
						C215.7,787.16,218.58,792.15,218.03,792.6z"/>
				</g>
			</g>
		</g>
	</g>
	<g>
		<g>
			<g>
				<g>
					<path class="st1" d="M27,173.59c-0.33,1.31-1.57,2.25-3.06,2.54c-0.73,0.14-1.53,0.18-2.39,0.19c-0.73,0-1.45-0.61-2.25-0.68
						c-0.77-0.06-1.56-0.03-2.32-0.14c-0.8-0.11-1.59,0.05-2.33-0.1c-0.86-0.18-1.68-0.53-2.4-0.78c-1.47-0.5-2.54-1.2-2.67-2.16
						c-0.13-0.95,0.82-1.39,2.35-1.93c0.74-0.26,1.63-0.45,2.6-0.56c0.84-0.1,1.73,0.04,2.63,0.06c0.87,0.03,1.81-0.71,2.7-0.57
						c0.91,0.15,1.82,0.16,2.64,0.41c0.96,0.28,1.67,1.36,2.37,1.72C26.3,172.35,27.17,172.94,27,173.59z"/>
				</g>
			</g>
		</g>
	</g>
	<g>
		<g>
			<g>
				<g>
					<path class="st1" d="M868.41,169.66c0.02,1.39-4.78,2.18-12.03,2.73c-1.75,0.15-3.64,0.25-5.64,0.44
						c-1,0.08-2.03,0.16-3.08,0.24c-1.05,0.1-2.13,0.21-3.22,0.31c-3.77,0.34-7.85,0.26-11.95,0.8c-1.96,0.29-3.94,0.62-5.92,0.95
						c-1.97,0.37-3.94,0.73-5.89,1.09c-2.03,0.4-4.03,0.82-5.97,1.33c-1.95,0.48-3.86,0.95-5.71,1.4
						c-4.31,0.96-8.32,1.86-11.75,2.72c-7.03,1.81-11.7,2.95-12.09,2.03c-0.37-0.86,3.9-3.06,10.73-5.9
						c3.33-1.36,7.28-2.8,11.63-4.08c0.94-0.28,1.9-0.56,2.87-0.81c0.98-0.23,1.97-0.47,2.98-0.71c2-0.5,4.07-0.88,6.15-1.33
						c2-0.44,4-0.96,6-1.54c2.01-0.53,4.03-1.02,6.07-1.29c4.24-0.49,8.4-1.04,12.34-1.16c1.14-0.04,2.26-0.02,3.35,0.02
						c1.1,0.07,2.17,0.17,3.2,0.28c2.08,0.18,4.02,0.48,5.82,0.58C863.66,168.24,868.4,169.02,868.41,169.66z"/>
				</g>
			</g>
		</g>
	</g>
	<g>
		<g>
			<g>
				<g>
					<path class="st1" d="M881.25,423.97c-1.18,0.85-4.74-3.71-12.08-8.09c-3.51-2.16-7.89-4.32-12.86-6.47
						c-4.25-1.89-8.61-4.32-13.36-6.08c-4.56-1.7-9.29-3.21-13.95-4.6c-4.85-1.46-9.71-2.5-14.26-3.56
						c-5.26-1.25-10.16-2.4-14.4-3.21c-8.73-1.64-14.52-2.56-14.48-3.57c0.03-0.92,5.91-1.14,14.96-0.51
						c4.39,0.32,9.5,0.96,14.97,1.95c4.73,0.85,9.66,2.21,14.67,3.62c4.81,1.35,9.91,2.23,14.61,4.05c4.88,1.88,9.64,3.8,13.94,5.98
						c5,2.46,9.22,5.78,12.75,8.57c1.82,1.43,3.4,2.86,4.69,4.23c1.28,1.39,2.31,2.66,3.05,3.79
						C880.99,422.3,881.5,423.78,881.25,423.97z"/>
				</g>
			</g>
		</g>
	</g>
	<g>
		<g>
			<g>
				<g>
					<path class="st1" d="M848.71,319.37c0.51,0.47-1.58,2.6-5.73,5.95c-4.13,3.38-10.39,7.85-18.19,12.99
						c-7.54,4.91-16.48,10.48-26.35,16.13c-2.13,1.22-4.31,2.43-6.53,3.64c-2.25,1.16-4.52,2.33-6.82,3.51
						c-4.61,2.33-9.32,4.72-14.07,7.12c-2.27,1.19-4.56,2.36-6.87,3.5c-2.3,1.15-4.61,2.31-6.93,3.46
						c-4.63,2.28-9.32,4.47-13.95,6.64c-9.71,4.37-19.18,8.78-28.31,12.38c-2.65,1.03-5.25,2.04-7.78,3.03
						c-2.56,0.93-5.06,1.84-7.5,2.72c-4.86,1.78-9.5,3.3-13.76,4.74c-17.59,5.84-29.32,8.61-29.59,7.74
						c-0.32-0.98,11.03-4.81,28.15-11.59c4.15-1.66,8.66-3.42,13.4-5.4c2.37-0.97,4.82-1.97,7.32-3c2.49-1.06,5.03-2.14,7.62-3.24
						c8.96-3.79,18.46-7.89,28.06-12.3c4.58-2.18,9.14-4.54,13.66-6.96c4.49-2.47,9.03-4.84,13.54-7.17
						c4.7-2.4,9.35-4.78,13.84-7.24c2.26-1.21,4.49-2.41,6.69-3.59c2.19-1.21,4.36-2.4,6.49-3.57c9.9-5.35,19.32-9.9,27.08-14.36
						C838.05,325.3,848.18,318.86,848.71,319.37z"/>
				</g>
			</g>
		</g>
	</g>
	<g>
		<g>
			<g>
				<g>
					<path class="st1" d="M617.95,507.93c-1.39,0.24-2.75-2.71-5.48-6.05c-1.3-1.63-3.03-3.36-5.14-4.88
						c-0.91-0.66-1.81-1.37-2.81-2.06c-1-0.7-2.1-1.35-3.3-1.83c-2.32-0.92-4.85-1.52-7.38-2.18c-2.63-0.67-5.38-0.99-7.9-1.65
						c-2.91-0.75-5.57-1.66-7.85-2.41c-4.7-1.52-7.66-2.95-7.48-3.9c0.18-0.95,3.36-0.64,8.25-0.14c2.37,0.24,5.12,0.63,8.09,1.1
						c2.55,0.41,5.24,1.02,8.07,1.65c2.7,0.6,5.73,0.59,8.47,1.75c2.81,1.18,5.62,2.6,7.85,4.53c2.6,2.25,3.93,5.25,5.06,7.56
						c1.22,2.38,1.73,4.55,1.9,6.05c0.08,0.76,0.08,1.36,0.01,1.77C618.22,507.67,618.11,507.9,617.95,507.93z"/>
				</g>
			</g>
		</g>
	</g>
	<g>
		<g>
			<g>
				<g>
					<path class="st1" d="M609.83,700.35c1.36,0.25,1.51,4.35,0.97,10.37c-0.24,2.91-0.61,6.28-0.88,9.92
						c-0.28,3.13-1.05,6.44-1.23,9.87c-0.09,1.65-0.08,3.31-0.13,4.97c-0.01,1.66-0.01,3.33-0.02,4.98c0,3.43,0.32,6.78,0.44,9.94
						c0.05,1.83,0.1,3.6,0.14,5.28c0.02,1.68,0.11,3.27,0.17,4.73c0.33,6.02,0.47,10.05-0.5,10.28c-0.91,0.22-2.17-3.6-3.56-9.63
						c-0.32-1.47-0.67-3.06-0.93-4.77c-0.13-0.85-0.27-1.73-0.41-2.63c-0.11-0.9-0.22-1.83-0.33-2.77c-0.38-3.26-0.41-6.75-0.5-10.3
						c-0.03-1.71-0.22-3.43-0.4-5.16c-0.13-1.73-0.3-3.47-0.17-5.18c0.25-3.56,0.42-7.06,0.95-10.31c0.56-3.77,2.05-7.1,2.8-9.99
						C607.81,704.01,609.19,700.24,609.83,700.35z"/>
				</g>
			</g>
		</g>
	</g>
	<g>
		<g>
			<g>
				<g>
					<path class="st1" d="M731.47,705.16c-0.42,0.52-1.87-0.04-4-1.59c-2.13-1.55-4.88-4.15-7.84-7.62
						c-2.85-3.34-5.91-7.44-9.02-11.94c-2.69-3.88-4.94-8.37-7.75-12.59c-2.7-4.05-5.55-8.06-8.42-11.91c-2.99-4-6.3-7.58-9.41-10.9
						c-3.58-3.86-7.13-7.22-10.48-9.71c-6.87-5.19-12.37-7.14-12.08-8.18c0.06-0.23,0.47-0.32,1.18-0.27
						c0.36,0.02,0.79,0.08,1.3,0.16c0.51,0.07,1.09,0.21,1.72,0.4c2.57,0.65,6.11,2.13,10.1,4.42c3.88,2.23,8.06,5.4,12.08,9.29
						c3.49,3.34,6.74,7.3,9.9,11.4c3.04,3.93,6.56,7.66,9.24,11.8c2.78,4.31,5.56,8.46,8.02,12.42c2.84,4.59,4.89,9.19,7.27,12.74
						C728.1,700.37,731.93,704.6,731.47,705.16z"/>
				</g>
			</g>
		</g>
	</g>
	<g>
		<g>
			<g>
				<g>
					<path class="st1" d="M755.95,586.17c1.25,0.46,0.66,4.84-1.73,11.07c-1.16,2.99-2.69,6.43-4.58,10.06
						c-1.63,3.14-4.03,6.09-6.21,9.27c-2.09,3.05-4.34,6.12-6.91,8.87c-2.65,2.85-5.36,5.6-8.3,7.72
						c-3.41,2.45-6.95,4.19-10.07,5.34c-3.21,1.2-6,1.73-7.96,1.77c-1.96,0.07-3.08-0.24-3.16-0.7c-0.17-1.04,3.92-1.68,9.33-4.77
						c2.62-1.48,5.54-3.45,8.47-5.89c2.52-2.1,5.2-4.41,7.6-7.11c2.32-2.59,3.85-5.88,5.87-8.7c2.11-2.94,3.88-6.05,5.64-8.93
						c2.04-3.33,4.51-6.16,6.1-8.89C753.27,589.67,755.31,585.93,755.95,586.17z"/>
				</g>
			</g>
		</g>
	</g>
	<g>
		<g>
			<g>
				<g>
					<path class="st1" d="M512.59,624.71c1.38-0.02,1.05,9.08-0.55,22.95c-0.76,6.68-1.71,14.46-2.59,22.86
						c-0.76,7.24-2.03,14.9-2.49,22.79c-0.44,7.57-0.56,15.29-0.42,22.85c0.14,7.86,0.92,15.53,1.74,22.71
						c0.92,8.32,2.21,15.98,3.73,22.46c3.13,13.34,6.68,21.67,5.71,22.13c-0.75,0.4-5.42-7.56-9.66-21
						c-2.06-6.51-3.93-14.29-5.16-22.81c-1.1-7.35-1.6-15.24-1.83-23.27c-0.23-7.72-0.82-15.62-0.3-23.33
						c0.54-8.01,1.2-15.85,2.2-23.17c1.17-8.47,3.23-16.12,4.48-22.75C510.04,633.54,511.92,624.72,512.59,624.71z"/>
				</g>
			</g>
		</g>
	</g>
	<g>
		<g>
			<g>
				<g>
					<path class="st1" d="M457.08,506.47c0.68-0.06,1.07,2.26,1.16,6.42c0.04,2.08,0.04,4.62-0.17,7.54
						c-0.09,1.46-0.2,3.02-0.34,4.67c-0.13,1.65-0.29,3.38-0.53,5.19c-0.83,6.96-2.04,15.09-3.84,23.77
						c-0.38,1.87-0.79,3.77-1.27,5.69c-0.51,1.9-1.03,3.83-1.56,5.77c-1.03,3.9-2.27,7.82-3.35,11.82c-0.5,1.93-1.07,3.85-1.65,5.77
						c-0.57,1.93-1.14,3.86-1.71,5.79c-1.2,3.84-2.47,7.66-3.77,11.44c-2.82,7.8-5.49,15.49-8.6,22.49c-0.91,2.02-1.8,4-2.67,5.94
						c-0.94,1.91-1.85,3.77-2.74,5.58c-1.75,3.63-3.59,6.96-5.24,10.05c-6.88,12.69-12.38,20.31-13.15,19.86
						c-0.9-0.51,3.58-8.65,9.45-21.65c1.4-3.17,2.98-6.56,4.5-10.24c0.78-1.83,1.59-3.7,2.41-5.63c0.78-1.94,1.58-3.93,2.39-5.95
						c2.83-6.98,5.74-14.44,8.44-22.16c1.24-3.73,2.3-7.56,3.31-11.39c0.93-3.86,1.97-7.68,3.01-11.46
						c1.09-3.93,2.19-7.82,3.09-11.68c0.47-1.92,0.94-3.83,1.41-5.71c0.44-1.89,0.86-3.75,1.29-5.58c0.49-2.12,1.06-4.18,1.56-6.22
						c0.5-2.03,1.02-4.01,1.52-5.94c1.06-3.84,1.86-7.51,2.56-10.91C455.23,515.77,456.33,506.52,457.08,506.47z"/>
				</g>
			</g>
		</g>
	</g>
	<g>
		<g>
			<g>
				<g>
					<path class="st1" d="M400.74,590.12c-1.33,0.32-3.2-4.11-5.02-11.09c-0.88-3.36-1.81-7.31-2.82-11.56
						c-0.85-3.67-1.22-7.7-2.15-11.69c-0.96-3.82-1.93-7.71-2.88-11.53c-0.98-3.98-2.21-7.8-3.13-11.47
						c-1.04-4.25-1.89-8.23-2.68-11.62c-1.64-6.98-2.46-11.64-1.53-11.97c0.9-0.32,2.79,3.97,5.44,10.69
						c1.28,3.27,2.65,7.12,3.98,11.34c1.17,3.64,2.13,7.59,3.2,11.59c1.02,3.85,2.78,7.6,3.63,11.5c0.88,4.06,1.86,8.01,2.49,11.78
						c0.76,4.37,0.59,8.56,0.99,12.04C401.06,585.28,401.38,589.96,400.74,590.12z"/>
				</g>
			</g>
		</g>
	</g>
	<g>
		<g>
			<g>
				<g>
					<path class="st1" d="M378.22,628.09c1.31,0.01,0.8,9.32-3.02,23.17c-1.86,6.65-4.44,14.32-7.82,22.37
						c-2.91,6.96-6.92,13.94-10.92,21.06c-3.83,6.85-8.07,13.67-12.68,20.03c-4.78,6.6-9.47,12.96-13.89,18.86
						c-5.15,6.81-9.68,13.21-13,19.04c-3.43,5.99-5.64,11.26-7.04,15.01c-0.79,1.85-1.23,3.37-1.69,4.36
						c-0.44,1-0.79,1.53-1.03,1.48c-0.24-0.04-0.32-0.64-0.26-1.74c0.09-1.1,0.18-2.73,0.67-4.73c0.8-4.05,2.59-9.76,5.68-16.24
						c2.99-6.3,7.23-13.23,12.22-20.32c4.28-6.13,9.22-12.32,13.83-18.83c4.44-6.27,7.94-13.26,11.73-19.88
						c3.95-6.89,7.31-13.93,10.35-20.59c3.53-7.7,7.1-14.77,9.4-21.15C375.42,636.93,377.48,628.05,378.22,628.09z"/>
				</g>
			</g>
		</g>
	</g>
	<g>
		<g>
			<g>
				<g>
					<path class="st1" d="M479.84,537.95c-1.33,0.3-3.14-4.14-4.83-11.13c-0.82-3.37-1.67-7.31-2.59-11.57
						c-0.77-3.68-1.04-7.7-1.87-11.7c-0.85-3.83-1.71-7.73-2.55-11.57c-0.85-3.99-1.96-7.84-2.75-11.52
						c-0.89-4.27-1.59-8.26-2.25-11.67c-1.36-7.01-1.97-11.69-1.03-11.98c0.91-0.29,2.6,4.06,4.98,10.85
						c1.15,3.3,2.37,7.18,3.55,11.42c1.04,3.66,1.87,7.61,2.81,11.62c0.9,3.86,2.55,7.63,3.29,11.53c0.77,4.05,1.65,8.01,2.2,11.77
						c0.66,4.36,0.41,8.53,0.74,12C480.22,533.14,480.49,537.8,479.84,537.95z"/>
				</g>
			</g>
		</g>
	</g>
	<g>
		<g>
			<g>
				<g>
					<path class="st1" d="M278.48,555c-1.29,0.27-2.85-8.78-2.64-22.93c0.1-6.8,0.56-14.75,1.49-23.3c0.8-7.38,2.53-15.11,4.04-23
						c1.45-7.59,3.12-15.3,5.17-22.76c2.11-7.73,4.28-15.45,7.27-22.34c1.69-4.01,3.67-7.74,5.68-11.17
						c2.06-3.42,4.25-6.49,6.47-9.18c4.57-5.56,9.55-9.06,13.24-10.8c0.94-0.42,1.77-0.79,2.51-1.07c0.77-0.22,1.42-0.38,1.96-0.49
						c1.07-0.22,1.66-0.22,1.74,0c0.08,0.23-0.35,0.64-1.22,1.2c-0.44,0.28-0.98,0.61-1.63,0.96c-0.62,0.42-1.32,0.9-2.11,1.44
						c-3.13,2.17-7.34,5.76-11.2,11.24c-1.88,2.65-3.73,5.67-5.47,9c-1.71,3.36-3.4,6.97-4.89,10.86c-2.64,6.7-5.01,14-7.01,21.66
						c-1.94,7.36-2.88,15.08-4.37,22.51c-1.56,7.73-2.65,15.4-3.67,22.6c-1.18,8.33-2.75,16.03-3.35,22.72
						C279.25,545.85,279.21,554.87,278.48,555z"/>
				</g>
			</g>
		</g>
	</g>
	<g>
		<g>
			<g>
				<g>
					<path class="st1" d="M257.83,485.63c1.04,0.81-1.59,5.39-7.05,11.25c-2.64,2.8-5.85,5.95-9.52,9.15
						c-0.79,0.69-1.62,1.36-2.47,2.03c-0.87,0.65-1.76,1.28-2.66,1.92c-1.79,1.3-3.67,2.54-5.48,3.91
						c-3.49,2.63-7.1,5.24-10.77,7.62c-3.85,2.42-7.53,4.96-11.24,6.92c-1.08,0.56-2.14,1.1-3.17,1.64
						c-1.05,0.51-2.08,0.98-3.09,1.44c-2,0.94-3.94,1.73-5.71,2.48c-7.31,3.04-12.35,4.24-12.72,3.39
						c-0.4-0.92,4.14-3.14,10.84-7.04c1.62-0.95,3.4-1.95,5.24-3.07c0.93-0.55,1.88-1.11,2.86-1.69c0.97-0.59,1.96-1.2,2.97-1.82
						c3.49-2.12,7.23-4.34,10.94-6.78c1.76-1.21,3.44-2.57,5.08-3.97c1.63-1.42,3.29-2.78,5-4.06c1.79-1.31,3.54-2.62,5.21-3.97
						c1.68-1.33,3.33-2.64,4.93-3.91c3.73-2.89,7.61-5.13,10.54-7.52C253.54,488.62,257.28,485.18,257.83,485.63z"/>
				</g>
			</g>
		</g>
	</g>
	<g>
		<g>
			<g>
				<g>
					<path class="st1" d="M624.33,230.02c0.65,0.22,0.28,2.21-0.95,5.57c-1.17,3.39-3.45,8.01-6.55,13.45
						c-0.79,1.29-1.6,2.63-2.45,4.02c-0.86,1.38-1.72,2.83-2.73,4.25c-1.99,2.84-4,5.92-6.39,8.9c-1.01,1.3-2.06,2.6-3.14,3.9
						c-1.08,1.3-2.29,2.53-3.46,3.81c-1.18,1.27-2.38,2.55-3.58,3.84c-1.25,1.25-2.49,2.51-3.72,3.81c-4.7,4.99-9.8,9.8-15.03,14.24
						c-1.35,1.17-2.77,2.24-4.13,3.36c-1.38,1.1-2.71,2.24-4.09,3.28c-1.4,1.03-2.78,2.04-4.15,3.05c-1.37,1-2.72,1.98-4.13,2.83
						c-1.62,1.01-3.21,1.99-4.76,2.96c-1.54,0.97-3.16,1.76-4.67,2.6c-1.53,0.81-3,1.64-4.46,2.36c-1.47,0.69-2.89,1.37-4.26,2.01
						c-2.78,1.38-5.42,2.4-7.75,3.3c-1.17,0.44-2.26,0.85-3.26,1.23c-1.03,0.32-1.98,0.6-2.84,0.85c-3.43,0.97-5.43,1.3-5.6,0.85
						c-0.38-1,7.02-3.84,17.53-9.85c1.27-0.73,2.6-1.5,3.97-2.29c1.36-0.81,2.73-1.72,4.16-2.6c1.41-0.92,2.92-1.77,4.37-2.8
						c1.46-1,2.96-2.03,4.48-3.08c1.33-0.88,2.63-1.85,3.95-2.83c1.33-0.97,2.67-1.95,4.03-2.94c1.36-0.99,2.66-2.09,4.01-3.15
						c1.33-1.08,2.71-2.12,4.01-3.26c5.04-4.39,9.49-9.56,14.09-14.35c1.2-1.25,2.39-2.49,3.57-3.72c1.15-1.27,2.24-2.56,3.35-3.82
						c1.09-1.28,2.22-2.5,3.26-3.77c1.04-1.27,2.07-2.52,3.08-3.76c4.72-5.67,9.37-10.79,12.8-15.6c0.91-1.21,1.68-2.43,2.45-3.58
						c0.76-1.14,1.49-2.23,2.16-3.25c1.4-2.01,2.49-3.84,3.43-5.32C622.81,231.56,624,229.91,624.33,230.02z"/>
				</g>
			</g>
		</g>
	</g>
</g>
</svg>
