<svg width="26" height="21" viewBox="0 0 26 21" fill="none" xmlns="http://www.w3.org/2000/svg">
<g clip-path="url(#clip0_232_86)">
<path d="M2.6 20.8C1.88 20.8 1.27 20.55 0.76 20.04C0.25 19.53 0 18.92 0 18.2V2.6C0 1.88 0.25 1.27 0.76 0.76C1.27 0.25 1.88 0 2.6 0H23.4C24.12 0 24.73 0.25 25.24 0.76C25.75 1.27 26 1.88 26 2.6V18.2C26 18.92 25.75 19.53 25.24 20.04C24.73 20.55 24.12 20.8 23.4 20.8H2.6ZM13 11.7L2.6 5.2V18.2H23.4V5.2L13 11.7ZM13 9.1L23.4 2.6H2.6L13 9.1ZM2.6 5.2V2.6V18.2V5.2Z" fill="#DD927A"/>
</g>
<defs>
<clipPath id="clip0_232_86">
<rect width="26" height="20.8" fill="white"/>
</clipPath>
</defs>
</svg>
