<svg width="24" height="24" viewBox="0 0 24 24" fill="none" xmlns="http://www.w3.org/2000/svg">
<g clip-path="url(#clip0_232_89)">
<path d="M21.09 11.8602C21.09 9.29023 20.19 7.11023 18.4 5.32023C16.61 3.53023 14.43 2.63023 11.86 2.63023V0.000234375C13.51 0.000234375 15.05 0.310234 16.49 0.940234C17.93 1.57023 19.18 2.41023 20.25 3.48023C21.32 4.55023 22.16 5.80023 22.79 7.24023C23.42 8.68023 23.73 10.2202 23.73 11.8702H21.09V11.8602ZM15.82 11.8602C15.82 10.7602 15.44 9.83023 14.67 9.06024C13.9 8.29024 12.97 7.91023 11.87 7.91023V5.27023C13.69 5.27023 15.25 5.91023 16.53 7.20023C17.81 8.49023 18.46 10.0402 18.46 11.8602H15.82ZM22.35 23.7202C19.6 23.7202 16.89 23.1202 14.21 21.9202C11.53 20.7202 9.09 19.0302 6.89 16.8302C4.69 14.6302 3 12.1902 1.8 9.51023C0.6 6.84023 0 4.13023 0 1.38023C0 0.980234 0.13 0.650234 0.4 0.390234C0.67 0.130234 0.99 -0.00976562 1.39 -0.00976562H6.73C7.04 -0.00976562 7.31 0.0902344 7.55 0.300234C7.79 0.510234 7.93 0.760234 7.98 1.04023L8.84 5.65023C8.88 6.00023 8.87 6.30023 8.81 6.54023C8.75 6.78023 8.62 6.99023 8.45 7.17023L5.25 10.4002C5.69 11.2102 6.21 12.0002 6.82 12.7602C7.43 13.5202 8.09 14.2502 8.81 14.9502C9.49 15.6302 10.21 16.2602 10.95 16.8402C11.69 17.4202 12.49 17.9502 13.32 18.4402L16.42 15.3402C16.62 15.1402 16.88 14.9902 17.19 14.9002C17.5 14.8102 17.82 14.7702 18.13 14.8202L22.68 15.7402C22.99 15.8302 23.24 15.9902 23.44 16.2202C23.64 16.4502 23.74 16.7102 23.74 16.9902V22.3302C23.74 22.7302 23.61 23.0602 23.34 23.3202C23.07 23.5802 22.75 23.7202 22.35 23.7202ZM3.99 7.91023L6.17 5.73023L5.61 2.63023H2.68C2.79 3.53023 2.94 4.42023 3.14 5.30023C3.34 6.18023 3.62 7.05023 4 7.90023L3.99 7.91023ZM15.79 19.7102C16.65 20.0802 17.52 20.3802 18.41 20.6002C19.3 20.8202 20.2 20.9602 21.1 21.0302V18.1302L18 17.5002L15.79 19.7102Z" fill="#DD927A"/>
</g>
<defs>
<clipPath id="clip0_232_89">
<rect width="23.73" height="23.73" fill="white"/>
</clipPath>
</defs>
</svg>
