<svg width="20" height="28" viewBox="0 0 20 28" fill="none" xmlns="http://www.w3.org/2000/svg">
<g clip-path="url(#clip0_233_117)">
<path d="M19.33 9.67022C19.33 9.90022 19.33 10.1302 19.31 10.3602C19.31 10.3602 19.48 13.7902 16.18 17.5302C12.88 21.2702 12.35 22.4602 12.35 22.4602C12.24 22.7002 12.07 22.9202 11.94 23.1502C11.62 23.7302 11.33 24.3402 11.07 24.9602C10.96 25.2202 10.87 25.4802 10.77 25.7502C10.68 26.0102 10.57 26.3002 10.46 26.5502C10.3 26.9202 10.09 27.1802 9.66 27.1802H9.64001C9.21001 27.1802 9.00001 26.9202 8.84 26.5502C8.73001 26.3002 8.62 26.0102 8.53 25.7502C8.44 25.4802 8.34 25.2202 8.23 24.9602C7.98 24.3402 7.69 23.7402 7.36 23.1502C7.23 22.9202 7.06 22.7002 6.95 22.4602C6.95 22.4602 6.69 21.8702 5.38 20.2202L12.44 11.9802L18.23 5.22021C18.92 6.55021 19.32 8.07022 19.32 9.67022H19.33Z" fill="#ED603A"/>
<path d="M12.6 0.45L6.80001 7.22L2.32001 3.38C4.09001 1.31 6.73001 0 9.67001 0C10.69 0 11.68 0.16 12.61 0.45H12.6Z" fill="#D45F35"/>
<path d="M12.45 11.9702L5.39002 20.2102C4.84002 19.5202 4.11002 18.6302 3.13002 17.5302C2.07002 16.3202 1.36002 15.1502 0.900024 14.1102L6.80002 7.22021C6.28002 7.86021 5.97002 8.67022 5.97002 9.55022C5.97002 11.5802 7.62002 13.2302 9.65002 13.2302C10.76 13.2302 11.76 12.7402 12.44 11.9602L12.45 11.9702Z" fill="#D45F35"/>
<path d="M18.25 5.2102L12.46 11.9702C13.02 11.3202 13.36 10.4802 13.36 9.5602C13.36 7.5302 11.71 5.8802 9.68002 5.8802C8.53002 5.8802 7.50002 6.4102 6.83002 7.2402L12.6 0.450195C15.05 1.2302 17.07 2.9602 18.24 5.2102H18.25Z" fill="#EA714B"/>
<path d="M2.31999 3.37988L6.79999 7.21988L0.899989 14.1099C-0.0800111 11.9299 -1.10423e-05 10.3599 -1.10423e-05 10.3599C-1.10423e-05 10.3599 -1.10423e-05 9.89988 -1.10423e-05 9.66988C-1.10423e-05 7.26988 0.869989 5.06988 2.31999 3.38988V3.37988Z" fill="#DD7454"/>
</g>
<defs>
<clipPath id="clip0_233_117">
<rect width="19.33" height="27.17" fill="white"/>
</clipPath>
</defs>
</svg>
