<svg width="25" height="31" viewBox="0 0 25 31" fill="none" xmlns="http://www.w3.org/2000/svg">
<g clip-path="url(#clip0_232_96)">
<path d="M12.28 15.35C13.12 15.35 13.85 15.05 14.45 14.45C15.05 13.85 15.35 13.13 15.35 12.28C15.35 11.43 15.05 10.71 14.45 10.11C13.85 9.51 13.13 9.21 12.28 9.21C11.43 9.21 10.71 9.51 10.11 10.11C9.51 10.71 9.21 11.43 9.21 12.28C9.21 13.13 9.51 13.85 10.11 14.45C10.71 15.05 11.43 15.35 12.28 15.35ZM12.28 26.64C15.4 23.77 17.72 21.17 19.23 18.83C20.74 16.49 21.49 14.41 21.49 12.59C21.49 9.8 20.6 7.52 18.82 5.74C17.04 3.96 14.86 3.07 12.28 3.07C9.7 3.07 7.51 3.96 5.74 5.74C3.96 7.52 3.07 9.8 3.07 12.59C3.07 14.41 3.82 16.49 5.33 18.83C6.84 21.17 9.16 23.78 12.28 26.64ZM12.28 30.71C8.16 27.2 5.08 23.95 3.05 20.94C1.02 17.93 0 15.15 0 12.59C0 8.75 1.23 5.69 3.7 3.42C6.17 1.14 9.03 0 12.28 0C15.53 0 18.39 1.14 20.86 3.42C23.33 5.7 24.56 8.76 24.56 12.59C24.56 15.15 23.54 17.93 21.51 20.94C19.48 23.95 16.4 27.2 12.28 30.71Z" fill="#DD927A"/>
</g>
<defs>
<clipPath id="clip0_232_96">
<rect width="24.57" height="30.71" fill="white"/>
</clipPath>
</defs>
</svg>
